<svg xmlns="http://www.w3.org/2000/svg" width="24" height="24" viewBox="0 0 24 24"><path fill-rule="evenodd" d="M20.4087 13.25C19.8042 17.3518 16.2698 20.5 12 20.5C7.73024 20.5 4.19578 17.3518 3.59127 13.25H20.4087ZM20.4964 11.75H3.50361C3.54562 10.2956 3.95299 8.93271 4.63715 7.75H8.75V9C8.75 9.41421 9.08579 9.75 9.5 9.75C9.91421 9.75 10.25 9.41421 10.25 9V7.75H13.75V9C13.75 9.41421 14.0858 9.75 14.5 9.75C14.9142 9.75 15.25 9.41421 15.25 9V7.75H19.3629C20.047 8.93271 20.4544 10.2956 20.4964 11.75ZM18.2601 6.25H14.5H9.5H5.73994C7.29353 4.55948 9.52304 3.5 12 3.5C14.477 3.5 16.7065 4.55948 18.2601 6.25ZM22 12C22 17.5228 17.5228 22 12 22C6.47715 22 2 17.5228 2 12C2 6.47715 6.47715 2 12 2C14.3875 2 16.5796 2.83668 18.299 4.23284C18.3186 4.18153 18.3442 4.1316 18.376 4.08397L19.376 2.58397C19.6057 2.23933 20.0714 2.1462 20.416 2.37596C20.7607 2.60573 20.8538 3.07138 20.624 3.41603L20.0681 4.25H21C21.4142 4.25 21.75 4.58578 21.75 5C21.75 5.41421 21.4142 5.75 21 5.75H19.8067C21.1791 7.46199 22 9.63513 22 12Z" clip-rule="evenodd"/></svg>