<svg xmlns="http://www.w3.org/2000/svg" width="24" height="24" viewBox="0 0 24 24"><g><path fill-rule="evenodd" d="M8.79832 5.34048C8.93151 4.9853 9.27105 4.75 9.65038 4.75H14.3496C14.7289 4.75 15.0685 4.9853 15.2017 5.34048L15.8011 6.9389C15.984 7.42678 16.4504 7.75 16.9715 7.75H18.8125H19.34C19.8426 7.75 20.25 8.15742 20.25 8.66V14C20.25 14.4142 20.5858 14.75 21 14.75C21.4142 14.75 21.75 14.4142 21.75 14V8.66C21.75 7.32899 20.671 6.25 19.34 6.25H18.8125H17.1448L16.6062 4.81379C16.2534 3.87316 15.3542 3.25 14.3496 3.25H9.65038C8.64579 3.25 7.74656 3.87316 7.39383 4.81379L6.85525 6.25H4.66C3.32899 6.25 2.25 7.32899 2.25 8.66V18.34C2.25 19.671 3.32899 20.75 4.66 20.75H19.34C20.671 20.75 21.75 19.671 21.75 18.34V17.5C21.75 17.0858 21.4142 16.75 21 16.75C20.5858 16.75 20.25 17.0858 20.25 17.5V18.34C20.25 18.8426 19.8426 19.25 19.34 19.25H4.66C4.15742 19.25 3.75 18.8426 3.75 18.34V8.66C3.75 8.15742 4.15742 7.75 4.66 7.75H7.0285C7.54955 7.75 8.01596 7.42678 8.19891 6.9389L8.79832 5.34048ZM13.5 13C13.5 13.8284 12.8284 14.5 12 14.5C11.1716 14.5 10.5 13.8284 10.5 13C10.5 12.1716 11.1716 11.5 12 11.5C12.8284 11.5 13.5 12.1716 13.5 13ZM15 13C15 14.6569 13.6569 16 12 16C10.3431 16 9 14.6569 9 13C9 11.3431 10.3431 10 12 10C13.6569 10 15 11.3431 15 13Z" clip-rule="evenodd"/></g></svg>