<svg xmlns="http://www.w3.org/2000/svg" width="24" height="24" viewBox="0 0 24 24"><path fill-rule="evenodd" d="M10.1292 20.7271C9.72269 20.6475 9.45764 20.2535 9.53718 19.847L12.514 4.63335C12.5935 4.22684 12.9875 3.96178 13.394 4.04132C13.8005 4.12086 14.0656 4.51488 13.986 4.92138L11.0093 20.135C10.9297 20.5415 10.5357 20.8066 10.1292 20.7271ZM8.03033 6.46971C8.32322 6.76261 8.32322 7.23748 8.03033 7.53037L3.56066 12L8.03033 16.4697C8.32322 16.7626 8.32322 17.2375 8.03033 17.5304C7.73744 17.8233 7.26256 17.8233 6.96967 17.5304L1.96967 12.5304C1.67678 12.2375 1.67678 11.7626 1.96967 11.4697L6.96967 6.46971C7.26256 6.17682 7.73744 6.17682 8.03033 6.46971ZM15.9697 7.53037C15.6768 7.23748 15.6768 6.76261 15.9697 6.46971C16.2626 6.17682 16.7374 6.17682 17.0303 6.46971L22.0303 11.4697C22.3232 11.7626 22.3232 12.2375 22.0303 12.5304L17.0303 17.5304C16.7374 17.8233 16.2626 17.8233 15.9697 17.5304C15.6768 17.2375 15.6768 16.7626 15.9697 16.4697L20.4393 12L15.9697 7.53037Z" clip-rule="evenodd"/></svg>