<svg xmlns="http://www.w3.org/2000/svg" width="24" height="24" fill="none" viewBox="0 0 24 24"><g><path fill="#07C160" d="M20.3139 18.5893C21.6474 17.6222 22.5 16.1932 22.5 14.6045C22.5 11.6939 19.6671 9.3335 16.1748 9.3335C12.6814 9.3335 9.8496 11.6939 9.8496 14.6045C9.8496 17.5151 12.6814 19.8755 16.1748 19.8755C16.873 19.8763 17.5679 19.7791 18.2391 19.5868L18.4249 19.5584C18.5467 19.5584 18.657 19.5962 18.7609 19.655L20.1469 20.4551L20.2677 20.495C20.2955 20.4951 20.323 20.4898 20.3486 20.4792C20.3743 20.4687 20.3976 20.4531 20.4172 20.4335C20.4369 20.4139 20.4524 20.3906 20.463 20.3649C20.4735 20.3392 20.4789 20.3117 20.4787 20.284L20.4451 20.1296L20.1595 19.067L20.1375 18.9316C20.1375 18.8646 20.1535 18.7985 20.1842 18.739C20.2148 18.6795 20.2593 18.6281 20.3139 18.5893ZM9.0915 3.5144C4.89885 3.5144 1.5 6.34625 1.5 9.8396C1.5 11.7454 2.52165 13.4621 4.12185 14.6213C4.18772 14.6679 4.24146 14.7295 4.27855 14.8011C4.31564 14.8728 4.335 14.9522 4.335 15.0329L4.30875 15.1936L3.96645 16.4693L3.9255 16.6541C3.9255 16.7948 4.0389 16.9082 4.1775 16.9082L4.3245 16.861L5.98665 15.9013C6.10816 15.8269 6.24743 15.7867 6.38985 15.7847L6.61245 15.8173C7.41813 16.0484 8.25226 16.1654 9.09045 16.1648L9.5073 16.1543C9.33926 15.6548 9.2531 15.1315 9.25215 14.6045C9.25215 11.4188 12.3517 8.8358 16.1748 8.8358L16.5864 8.8463C16.0152 5.82545 12.8767 3.5144 9.0915 3.5144ZM14.0674 13.7624C13.9567 13.7624 13.8469 13.7406 13.7446 13.6982C13.6422 13.6558 13.5492 13.5936 13.4709 13.5153C13.3925 13.437 13.3304 13.344 13.288 13.2416C13.2456 13.1392 13.2238 13.0295 13.2238 12.9187C13.2238 12.8079 13.2456 12.6982 13.288 12.5959C13.3304 12.4935 13.3925 12.4005 13.4709 12.3222C13.5492 12.2438 13.6422 12.1817 13.7446 12.1393C13.8469 12.0969 13.9567 12.0751 14.0674 12.0751C14.2911 12.0751 14.5055 12.1639 14.6636 12.322C14.8218 12.4801 14.9106 12.6946 14.9106 12.9182C14.9106 13.1418 14.8218 13.3563 14.6636 13.5144C14.5055 13.6725 14.2911 13.7614 14.0674 13.7614V13.7624ZM18.2842 13.7624C18.1735 13.7624 18.0637 13.7406 17.9614 13.6982C17.859 13.6558 17.766 13.5936 17.6877 13.5153C17.6093 13.437 17.5472 13.344 17.5048 13.2416C17.4624 13.1392 17.4406 13.0295 17.4406 12.9187C17.4406 12.8079 17.4624 12.6982 17.5048 12.5959C17.5472 12.4935 17.6093 12.4005 17.6877 12.3222C17.766 12.2438 17.859 12.1817 17.9614 12.1393C18.0637 12.0969 18.1735 12.0751 18.2842 12.0751C18.5079 12.0751 18.7223 12.1639 18.8804 12.322C19.0386 12.4801 19.1274 12.6946 19.1274 12.9182C19.1274 13.1418 19.0386 13.3563 18.8804 13.5144C18.7223 13.6725 18.5079 13.7614 18.2842 13.7614V13.7624ZM6.561 8.82741C6.29269 8.82741 6.03536 8.72082 5.84564 8.53109C5.65591 8.34137 5.54932 8.08404 5.54932 7.81573C5.54932 7.54742 5.65591 7.29009 5.84564 7.10037C6.03536 6.91064 6.29269 6.80405 6.561 6.80405C6.82931 6.80405 7.08664 6.91064 7.27636 7.10037C7.46609 7.29009 7.57267 7.54742 7.57267 7.81573C7.57267 8.08404 7.46609 8.34137 7.27636 8.53109C7.08664 8.72082 6.82931 8.82741 6.561 8.82741ZM11.622 8.82741C11.3537 8.82741 11.0964 8.72082 10.9066 8.53109C10.7169 8.34137 10.6103 8.08404 10.6103 7.81573C10.6103 7.54742 10.7169 7.29009 10.9066 7.10037C11.0964 6.91064 11.3537 6.80405 11.622 6.80405C11.8903 6.80405 12.1476 6.91064 12.3374 7.10037C12.5271 7.29009 12.6337 7.54742 12.6337 7.81573C12.6337 8.08404 12.5271 8.34137 12.3374 8.53109C12.1476 8.72082 11.8903 8.82741 11.622 8.82741Z" clip-rule="evenodd"/></g></svg>