<svg xmlns="http://www.w3.org/2000/svg" width="24" height="24" viewBox="0 0 24 24"><path d="M6.729 3.34143C6.729 2.92722 7.06478 2.59143 7.47899 2.59143H18.6753C20.0091 2.59143 21.0903 3.67266 21.0903 5.00643V16.197C21.0903 16.6112 20.7546 16.947 20.3403 16.947C19.9261 16.947 19.5903 16.6112 19.5903 16.197V5.00643C19.5903 4.50109 19.1807 4.09143 18.6753 4.09143H7.47899C7.06478 4.09143 6.729 3.75564 6.729 3.34143Z"/><path d="M3.00049 8.32119C3.00049 6.98742 4.08172 5.90619 5.41548 5.90619H15.6808C17.0145 5.90619 18.0958 6.98742 18.0958 8.32119V18.5804C18.0958 19.9142 17.0145 20.9954 15.6808 20.9954H5.41548C4.08172 20.9954 3.00049 19.9142 3.00049 18.5804V17.854C3.00049 17.1289 3.59158 16.549 4.30796 16.549C5.74817 16.549 7.16323 16.1061 8.34173 15.282L9.01879 14.8086C10.4502 13.8077 12.1546 13.2708 13.9012 13.2708H14.734C15.1483 13.2708 15.484 13.6066 15.484 14.0208C15.484 14.4351 15.1483 14.7708 14.734 14.7708H13.9012C12.4621 14.7708 11.0578 15.2131 9.87837 16.0378L9.20131 16.5113C7.82173 17.476 6.17934 18.0089 4.50049 18.0468V18.5804C4.50049 19.0857 4.91014 19.4954 5.41548 19.4954H15.6808C16.1861 19.4954 16.5958 19.0857 16.5958 18.5804V8.32119C16.5958 7.81585 16.1861 7.40619 15.6808 7.40619H5.41548C4.91014 7.40619 4.50049 7.81584 4.50049 8.32119V14.1426C4.50049 14.5568 4.1647 14.8926 3.75049 14.8926C3.33627 14.8926 3.00049 14.5568 3.00049 14.1426V8.32119Z"/><path fill-rule="evenodd" d="M8.00811 8.80383C6.83542 8.80383 5.88476 9.75449 5.88476 10.9272C5.88476 12.0999 6.83542 13.0505 8.00811 13.0505C9.1808 13.0505 10.1315 12.0999 10.1315 10.9272C10.1315 9.75449 9.1808 8.80383 8.00811 8.80383ZM7.38476 10.9272C7.38476 10.5829 7.66384 10.3038 8.00811 10.3038C8.35238 10.3038 8.63146 10.5829 8.63146 10.9272C8.63146 11.2715 8.35238 11.5505 8.00811 11.5505C7.66384 11.5505 7.38476 11.2715 7.38476 10.9272Z" clip-rule="evenodd"/></svg>