<svg xmlns="http://www.w3.org/2000/svg" width="24" height="24" viewBox="0 0 24 24"><path fill-rule="evenodd" d="M13.0313 1.2757C12.3916 0.908099 11.6035 0.908099 10.9638 1.2757L3.18363 5.74676C2.54396 6.11437 2.1499 6.79373 2.1499 7.52894V16.4711C2.1499 17.2063 2.54396 17.8856 3.18363 18.2532L10.9638 22.7243C11.6035 23.0919 12.3916 23.0919 13.0313 22.7243L20.8114 18.2532C21.4511 17.8856 21.8451 17.2063 21.8451 16.4711V7.52894C21.8451 6.79373 21.4511 6.11437 20.8114 5.74676L13.0313 1.2757ZM13.5785 5.7C13.9927 5.7 14.3285 6.03579 14.3285 6.45V6.77143H17.2213C17.6355 6.77143 17.9713 7.10721 17.9713 7.52142C17.9713 7.93564 17.6355 8.27142 17.2213 8.27142H17.0073L17.0074 8.52976C17.0082 9.64474 17.0088 10.577 16.9695 11.3672C16.9246 12.2705 16.8261 13.0405 16.5946 13.7428C16.1181 15.1883 15.1279 16.1892 13.3975 17.541C13.0711 17.796 12.5998 17.7381 12.3448 17.4117C12.0898 17.0853 12.1477 16.6139 12.4741 16.3589C14.1725 15.0321 14.843 14.2652 15.17 13.2732C15.3403 12.7568 15.4292 12.1406 15.4714 11.2928C15.5086 10.5432 15.5081 9.65333 15.5074 8.52958L15.5073 8.27142H13.5785C13.1642 8.27142 12.8285 7.93564 12.8285 7.52142V6.45C12.8285 6.03579 13.1642 5.7 13.5785 5.7ZM7.1499 6.23571C6.73569 6.23571 6.3999 6.5715 6.3999 6.98571C6.3999 7.39992 6.73569 7.73571 7.1499 7.73571H7.76436L6.57129 10.4321C6.46865 10.6641 6.49022 10.9322 6.62862 11.1448C6.76702 11.3574 7.00349 11.4856 7.25715 11.4856H11.2214C11.4814 11.4856 11.7228 11.351 11.8594 11.1299C11.9961 10.9087 12.0085 10.6326 11.8922 10.4001L11.0886 8.793C10.9033 8.42253 10.4528 8.27238 10.0823 8.45764C9.71183 8.64291 9.56169 9.09342 9.74695 9.46389L10.0078 9.98559H8.40913L9.40462 7.73571H11.3285C11.7427 7.73571 12.0785 7.39992 12.0785 6.98571C12.0785 6.5715 11.7427 6.23571 11.3285 6.23571H7.1499ZM9.29275 11.8071C9.70696 11.8071 10.0427 12.1429 10.0427 12.5571V12.7715H10.8999C11.3141 12.7715 11.6499 13.1073 11.6499 13.5215C11.6499 13.9357 11.3141 14.2715 10.8999 14.2715H10.0427V14.8071C10.0427 15.2213 9.70696 15.5571 9.29275 15.5571C8.87854 15.5571 8.54275 15.2213 8.54275 14.8071V14.2715H7.68561C7.2714 14.2715 6.93562 13.9357 6.93562 13.5215C6.93562 13.1073 7.2714 12.7715 7.68561 12.7715H8.54275V12.5571C8.54275 12.1429 8.87854 11.8071 9.29275 11.8071ZM10.9766 17.1604C11.3886 17.118 11.6883 16.7496 11.6458 16.3376C11.6034 15.9256 11.235 15.6259 10.823 15.6683L7.18017 16.0432C6.76813 16.0856 6.46848 16.454 6.51089 16.866C6.55329 17.2781 6.92169 17.5777 7.33372 17.5353L10.9766 17.1604ZM13.9 9.65688L13.8999 9.65332C13.8937 9.23927 13.5531 8.90831 13.139 8.91436C12.7249 8.92041 12.394 9.26106 12.4001 9.67523L13.15 9.66428C12.4001 9.67523 12.4001 9.67622 12.4001 9.67632L12.4001 9.67821L12.4002 9.68437L12.4007 9.70598C12.4011 9.72443 12.4017 9.75087 12.4028 9.78462C12.4048 9.85208 12.4083 9.94887 12.4143 10.0695C12.4262 10.3104 12.4477 10.6481 12.4867 11.038C12.5637 11.8077 12.7123 12.8232 13.0063 13.7051C13.1373 14.0981 13.562 14.3104 13.955 14.1795C14.3479 14.0485 14.5603 13.6237 14.4293 13.2308C14.1876 12.5056 14.0523 11.6192 13.9793 10.8888C13.9433 10.5288 13.9234 10.2168 13.9125 9.9957C13.907 9.88528 13.9039 9.79791 13.9021 9.73898C13.9012 9.70952 13.9006 9.6872 13.9003 9.67269L13.9 9.65688ZM15.8472 15.9448C16.077 15.6001 16.5426 15.507 16.8873 15.7367L17.6909 16.2723C18.0356 16.502 18.1288 16.9676 17.899 17.3123C17.6693 17.657 17.2037 17.7502 16.859 17.5205L16.0554 16.9848C15.7107 16.7551 15.6175 16.2895 15.8472 15.9448Z" clip-rule="evenodd"/></svg>