<svg xmlns="http://www.w3.org/2000/svg" width="24" height="24" viewBox="0 0 24 24"><path fill-rule="evenodd" d="M3 5.4C3 4.07452 4.07452 3 5.4 3H18.6C19.9255 3 21 4.07452 21 5.4V18.6C21 19.9255 19.9255 21 18.6 21H5.4C4.07452 21 3 19.9255 3 18.6V5.4ZM11.1445 13.5842L9.041 11.4808C8.74811 11.1879 8.27324 11.1879 7.98034 11.4808C7.68745 11.7737 7.68745 12.2485 7.98034 12.5414L10.6091 15.1702C10.6108 15.1719 10.6125 15.1736 10.6141 15.1753C10.907 15.4681 11.3819 15.4681 11.6748 15.1753L16.4197 10.4304C16.7126 10.1375 16.7126 9.66259 16.4197 9.36969C16.1268 9.0768 15.6519 9.0768 15.359 9.36969L11.1445 13.5842Z" clip-rule="evenodd"/></svg>