<svg xmlns="http://www.w3.org/2000/svg" width="24" height="24" viewBox="0 0 24 24"><path fill-rule="evenodd" d="M10.037 3.2002H13.9629C16.3403 3.2002 17.2024 3.44773 18.0715 3.91255C18.9407 4.37737 19.6228 5.05947 20.0876 5.92861C20.5524 6.79774 20.7999 7.65984 20.7999 10.0372V13.9632C20.7999 16.3406 20.5524 17.2026 20.0876 18.0718C19.6228 18.9409 18.9407 19.623 18.0715 20.0878C17.2024 20.5527 16.3403 20.8002 13.9629 20.8002H10.037C7.6596 20.8002 6.7975 20.5527 5.92836 20.0878C5.05923 19.623 4.37712 18.9409 3.91231 18.0718C3.44749 17.2026 3.19995 16.3406 3.19995 13.9632V10.0372C3.19995 7.65984 3.44749 6.79774 3.91231 5.92861C4.37712 5.05947 5.05923 4.37737 5.92836 3.91255C6.7975 3.44773 7.6596 3.2002 10.037 3.2002ZM12 17.6102C12.567 17.6102 13.0266 17.1505 13.0266 16.5835C13.0266 16.0165 12.567 15.5569 12 15.5569C10.0357 15.5569 8.44328 13.9645 8.44328 12.0002C8.44328 10.0359 10.0357 8.44353 12 8.44353C13.9642 8.44353 15.5566 10.0359 15.5566 12.0002C15.5566 12.5672 16.0163 13.0269 16.5833 13.0269C17.1503 13.0269 17.61 12.5672 17.61 12.0002C17.61 8.90188 15.0983 6.3902 12 6.3902C8.90163 6.3902 6.38995 8.90188 6.38995 12.0002C6.38995 15.0985 8.90163 17.6102 12 17.6102Z" clip-rule="evenodd"/></svg>