<svg xmlns="http://www.w3.org/2000/svg" width="24" height="24" viewBox="0 0 24 24"><path fill-rule="evenodd" d="M17.5264 5.49712C17.5264 5.11886 17.8081 4.7998 18.1834 4.75291C19.6392 4.57104 20.918 5.072 21.8266 5.8659C22.7198 6.64644 23.3057 7.75761 23.3057 8.85943C23.3057 10.9618 21.6014 12.6661 19.4991 12.6661C18.0381 12.6661 16.8813 12.0161 16.2005 10.9949C15.5302 9.98958 15.3621 8.68811 15.7213 7.43092C15.7775 7.23423 15.9116 7.06903 16.0925 6.97359C16.2735 6.87815 16.4855 6.86076 16.6796 6.92545L17.5264 7.20772V5.49712ZM19.0264 6.22558V8.24829C19.0264 8.48937 18.9105 8.71576 18.7149 8.85672C18.5194 8.99769 18.2679 9.03604 18.0392 8.9598L17.0382 8.62613C17.0186 9.21057 17.1698 9.7448 17.4485 10.1628C17.8376 10.7464 18.5147 11.1661 19.4991 11.1661C20.773 11.1661 21.8057 10.1334 21.8057 8.85943C21.8057 8.2731 21.4746 7.55038 20.8395 6.99542C20.3614 6.57762 19.7399 6.28209 19.0264 6.22558Z" clip-rule="evenodd"/><path fill-rule="evenodd" d="M6.43564 4.73657C6.81099 4.78347 7.09267 5.10253 7.09267 5.48079V7.20552L7.9489 6.92011C8.14297 6.85542 8.35504 6.87281 8.53598 6.96825C8.71692 7.06369 8.85102 7.22889 8.90722 7.42558C9.26798 8.68827 9.09908 9.99523 8.42606 11.0047C7.74251 12.03 6.58095 12.6827 5.11373 12.6827C3.00271 12.6827 1.29138 10.9714 1.29138 8.86037C1.29138 7.75422 1.87966 6.63833 2.77682 5.85436C3.68928 5.05703 4.97362 4.55392 6.43564 4.73657ZM3.76382 6.98388C3.12481 7.54227 2.79138 8.26971 2.79138 8.86037C2.79138 10.143 3.83113 11.1827 5.11373 11.1827C6.10439 11.1827 6.78623 10.7602 7.178 10.1726C7.45945 9.75047 7.6117 9.21078 7.59091 8.62058L6.57984 8.95761C6.35113 9.03384 6.09971 8.99549 5.90413 8.85453C5.70856 8.71356 5.59267 8.48718 5.59267 8.24609V6.20882C4.87292 6.26487 4.24591 6.56262 3.76382 6.98388Z" clip-rule="evenodd"/><path fill-rule="evenodd" d="M16.75 18.4049C16.75 16.3914 14.8864 14.4995 12.25 14.4995C9.61362 14.4995 7.75 16.3914 7.75 18.4049C7.75 18.7207 7.86439 18.9182 8.03071 19.0596C8.21932 19.22 8.54781 19.3619 9.00575 19.3619H15.4942C15.9522 19.3619 16.2807 19.22 16.4693 19.0596C16.6356 18.9182 16.75 18.7207 16.75 18.4049ZM18.25 18.4049C18.25 19.922 17.0113 20.8619 15.4942 20.8619H9.00575C7.48867 20.8619 6.25 19.922 6.25 18.4049C6.25 15.4196 8.93629 12.9995 12.25 12.9995C15.5637 12.9995 18.25 15.4196 18.25 18.4049Z" clip-rule="evenodd"/><path d="M11.25 12.75C11.25 13.3023 10.8023 13.75 10.25 13.75C9.69771 13.75 9.25 13.3023 9.25 12.75C9.25 12.1977 9.69771 11.75 10.25 11.75C10.8023 11.75 11.25 12.1977 11.25 12.75Z"/><path d="M15.25 12.75C15.25 13.3023 14.8023 13.75 14.25 13.75C13.6977 13.75 13.25 13.3023 13.25 12.75C13.25 12.1977 13.6977 11.75 14.25 11.75C14.8023 11.75 15.25 12.1977 15.25 12.75Z"/><path fill-rule="evenodd" d="M5.84787 17.4456C5.87758 17.7756 5.63412 18.0672 5.30408 18.0969L3.32539 18.2751C2.99536 18.3048 2.70372 18.0613 2.67401 17.7313C2.6443 17.4013 2.88776 17.1096 3.2178 17.0799L5.19648 16.9018C5.52652 16.8721 5.81815 17.1155 5.84787 17.4456Z" clip-rule="evenodd"/><path fill-rule="evenodd" d="M5.82982 19.4322C5.95216 19.7401 5.80168 20.0889 5.49372 20.2113L4.05002 20.7848C3.74206 20.9072 3.39323 20.7567 3.27089 20.4487C3.14855 20.1408 3.29902 19.7919 3.60698 19.6696L5.05069 19.0961C5.35865 18.9737 5.70747 19.1242 5.82982 19.4322Z" clip-rule="evenodd"/><path fill-rule="evenodd" d="M5.963 15.2467C5.963 15.578 5.69438 15.8467 5.36301 15.8467L3.64211 15.8467C3.31074 15.8467 3.04211 15.5781 3.04211 15.2467C3.0421 14.9153 3.31073 14.6467 3.6421 14.6467L5.36299 14.6467C5.69436 14.6467 5.963 14.9153 5.963 15.2467Z" clip-rule="evenodd"/><path fill-rule="evenodd" d="M18.7654 17.4456C18.7357 17.7756 18.9792 18.0672 19.3092 18.0969L21.2879 18.2751C21.6179 18.3048 21.9096 18.0613 21.9393 17.7313C21.969 17.4013 21.7255 17.1096 21.3955 17.0799L19.4168 16.9018C19.0868 16.8721 18.7951 17.1155 18.7654 17.4456Z" clip-rule="evenodd"/><path fill-rule="evenodd" d="M18.7832 19.4322C18.6609 19.7401 18.8114 20.0889 19.1193 20.2113L20.563 20.7848C20.871 20.9072 21.2198 20.7567 21.3421 20.4487C21.4645 20.1408 21.314 19.7919 21.0061 19.6696L19.5623 19.0961C19.2544 18.9737 18.9056 19.1242 18.7832 19.4322Z" clip-rule="evenodd"/><path fill-rule="evenodd" d="M18.6503 15.2467C18.6503 15.578 18.9189 15.8467 19.2503 15.8467L20.9712 15.8467C21.3025 15.8467 21.5712 15.5781 21.5712 15.2467C21.5712 14.9153 21.3026 14.6467 20.9712 14.6467L19.2503 14.6467C18.9189 14.6467 18.6503 14.9153 18.6503 15.2467Z" clip-rule="evenodd"/></svg>