<svg xmlns="http://www.w3.org/2000/svg" width="24" height="24" viewBox="0 0 24 24"><g><path fill-rule="evenodd" d="M7.39383 4.81379C7.74656 3.87316 8.64579 3.25 9.65038 3.25H14.3496C15.3542 3.25 16.2534 3.87316 16.6062 4.81379L17.1448 6.25H19.34C20.671 6.25 21.75 7.32899 21.75 8.66V18.34C21.75 19.671 20.671 20.75 19.34 20.75H4.66C3.32899 20.75 2.25 19.671 2.25 18.34V8.66C2.25 7.32899 3.32899 6.25 4.66 6.25H6.85525L7.39383 4.81379ZM13.5 13C13.5 13.8284 12.8284 14.5 12 14.5C11.1716 14.5 10.5 13.8284 10.5 13C10.5 12.1716 11.1716 11.5 12 11.5C12.8284 11.5 13.5 12.1716 13.5 13ZM15 13C15 14.6569 13.6569 16 12 16C10.3431 16 9 14.6569 9 13C9 11.3431 10.3431 10 12 10C13.6569 10 15 11.3431 15 13Z" clip-rule="evenodd"/></g></svg>