<svg xmlns="http://www.w3.org/2000/svg" width="24" height="24" viewBox="0 0 24 24"><path fill-rule="evenodd" d="M5.72576 20.2605C5.65085 20.6679 5.9259 20.9982 6.34012 20.9982C6.75433 20.9982 7.15085 20.6679 7.22576 20.2605L7.91304 16.5232H14.413L13.7258 20.2605C13.6508 20.6679 13.9259 20.9982 14.3401 20.9982C14.7543 20.9982 15.1508 20.6679 15.2258 20.2605L15.913 16.5232H19.4133C19.8275 16.5232 20.224 16.193 20.2989 15.7856C20.3738 15.3782 20.0988 15.0479 19.6846 15.0479H16.1843L17.3599 8.65513H20.8601C21.2743 8.65513 21.6708 8.32488 21.7457 7.9175C21.8206 7.51012 21.5456 7.17987 21.1313 7.17987H17.6312L18.2643 3.7376C18.3392 3.33022 18.0641 2.99997 17.6499 2.99997C17.2357 2.99997 16.8392 3.33022 16.7643 3.7376L16.1312 7.17987H9.63124L10.2643 3.7376C10.3392 3.33022 10.0641 2.99997 9.6499 2.99997C9.23569 2.99997 8.83917 3.33022 8.76425 3.7376L8.13124 7.17987H4.63135C4.21713 7.17987 3.82061 7.51012 3.7457 7.9175C3.67078 8.32488 3.94584 8.65513 4.36005 8.65513H7.85994L6.68433 15.0479H3.18457C2.77035 15.0479 2.37384 15.3782 2.29892 15.7856C2.224 16.193 2.49906 16.5232 2.91327 16.5232H6.41304L5.72576 20.2605ZM14.6843 15.0479L15.8599 8.65513H9.35994L8.18433 15.0479H14.6843Z" clip-rule="evenodd"/></svg>