<svg xmlns="http://www.w3.org/2000/svg" width="24" height="24" viewBox="0 0 24 24"><path fill-rule="evenodd" d="M12.3 3C17.4362 3 21.6 7.16375 21.6 12.3C21.6 17.4362 17.4362 21.6 12.3 21.6C7.16375 21.6 3 17.4362 3 12.3C3 7.16375 7.16375 3 12.3 3ZM16.8 18H7.2V18.6H16.8V18ZM6.80987 12.2153L6.41627 13.2967C6.3876 13.3755 6.42434 13.4636 6.49966 13.5105L6.54041 13.5303L7.21764 13.7768L7.05616 14.2204L16.0448 17.492L16.2063 17.0484L16.8835 17.2949C16.9709 17.3267 17.0641 17.2986 17.11 17.2321L17.1288 17.1957L17.5224 16.1143L6.80987 12.2153ZM7.05946 11.5417L7.01509 11.6515L17.7276 15.5505C18.054 14.6537 17.5655 13.6449 16.6313 13.24L16.5122 13.1926L9.46177 10.6265C8.49096 10.2731 7.44259 10.6819 7.05946 11.5417ZM13.5269 6.04026L12.0646 10.9353L14.3198 11.7561L16.346 7.06632C16.6294 6.28785 16.228 5.42709 15.4495 5.14375C14.671 4.86041 13.8103 5.26179 13.5269 6.04026Z" clip-rule="evenodd"/></svg>