<svg xmlns="http://www.w3.org/2000/svg" width="24" height="24" fill="none" viewBox="0 0 24 24"><path fill="#FA5452" fill-rule="evenodd" d="M12.2285 3C11.8955 3 11.5697 3.0207 11.2493 3.0594C10.4627 3.1494 9.70848 3.3501 8.99927 3.64081C8.99927 3.64081 14.8439 9.53138 14.9996 9.75008V3.46801C14.1081 3.1587 13.1721 3.00052 12.2285 3Z" clip-rule="evenodd"/><path fill="#6467F0" fill-rule="evenodd" d="M18.5628 5.70004C18.3244 5.45519 18.0719 5.2244 17.8068 5.00883C17.182 4.49714 16.49 4.0735 15.7502 3.74972C15.7502 3.74972 15.7952 12.4708 15.7502 12.7498L20.2503 8.12197C19.8233 7.22846 19.2527 6.41044 18.5628 5.70004Z" clip-rule="evenodd"/><path fill="#5283F0" fill-rule="evenodd" d="M20.3583 9.00037C20.3583 9.00037 14.4704 14.845 14.2499 14.9998H20.532C20.8417 14.1084 20.9999 13.1715 21 12.2278C21 11.8966 20.9793 11.5699 20.9406 11.2486C20.8511 10.4759 20.6551 9.71935 20.3583 9.00037Z" clip-rule="evenodd"/><path fill="#00B1FE" fill-rule="evenodd" d="M11.2502 15.7504L15.878 20.2505C16.0535 20.165 16.2263 20.0759 16.3973 19.9796C17.0911 19.5927 17.7311 19.1164 18.3009 18.563C19.1236 17.7579 19.7852 16.8034 20.2503 15.7504C20.2503 15.7504 11.5292 15.7954 11.2502 15.7504Z" clip-rule="evenodd"/><path fill="#66D020" fill-rule="evenodd" d="M9.00017 20.5322C9.89157 20.8419 10.8285 21.0001 11.7722 21.0002C12.8798 20.999 13.9765 20.7814 15.0005 20.3594C15.0005 20.3594 9.15587 14.4706 8.99927 14.2501L9.00017 20.5322Z" clip-rule="evenodd"/><path fill="#9AD122" fill-rule="evenodd" d="M3.7495 15.8773C3.8341 16.0547 3.925 16.2275 4.0204 16.3976C4.4011 17.078 4.87091 17.7206 5.43702 18.3011C5.67732 18.5504 5.93202 18.7781 6.19303 18.9914C6.81737 19.5037 7.50941 19.9274 8.24955 20.2505C8.24955 20.2505 8.20455 11.5294 8.24775 11.2504L3.7495 15.8773Z" clip-rule="evenodd"/><path fill="#FFC817" fill-rule="evenodd" d="M3.30208 9.53137C3.0127 10.5785 2.93016 11.672 3.05908 12.7507C3.14998 13.5382 3.34888 14.2924 3.64139 15.0007C3.64139 15.0007 9.52926 9.15517 9.74976 9.00037H3.46768C3.40689 9.17557 3.35166 9.35266 3.30208 9.53137Z" clip-rule="evenodd"/><path fill="#FF7612" fill-rule="evenodd" d="M7.60334 4.02062C5.89146 4.97221 4.53798 6.45781 3.7495 8.25067C3.7495 8.25067 12.4715 8.20567 12.7496 8.24887L8.12355 3.74972C7.94715 3.83522 7.77255 3.92612 7.60334 4.02062Z" clip-rule="evenodd"/><path fill="white" fill-rule="evenodd" d="M12 22.5C17.799 22.5 22.5 17.799 22.5 12C22.5 6.20101 17.799 1.5 12 1.5C6.20101 1.5 1.5 6.20101 1.5 12C1.5 17.799 6.20101 22.5 12 22.5ZM11.2493 3.0594C11.5697 3.0207 11.8955 3 12.2285 3C13.1721 3.00052 14.1081 3.1587 14.9996 3.46801V9.75008C14.8439 9.53138 8.99927 3.64081 8.99927 3.64081C9.70848 3.3501 10.4627 3.1494 11.2493 3.0594ZM17.8068 5.00883C18.0719 5.2244 18.3244 5.45519 18.5628 5.70004C19.2527 6.41044 19.8233 7.22846 20.2503 8.12197L15.7502 12.7498C15.7952 12.4708 15.7502 3.74972 15.7502 3.74972C16.49 4.0735 17.182 4.49714 17.8068 5.00883ZM20.3583 9.00037C20.3583 9.00037 14.4704 14.845 14.2499 14.9998H20.532C20.8417 14.1084 20.9999 13.1715 21 12.2278C21 11.8966 20.9793 11.5699 20.9406 11.2486C20.8511 10.4759 20.6551 9.71935 20.3583 9.00037ZM15.878 20.2505L11.2502 15.7504C11.5292 15.7954 20.2503 15.7504 20.2503 15.7504C19.7852 16.8034 19.1236 17.7579 18.3009 18.563C17.7311 19.1164 17.0911 19.5927 16.3973 19.9796C16.2263 20.0759 16.0535 20.165 15.878 20.2505ZM9.00017 20.5322C9.89157 20.8419 10.8285 21.0001 11.7722 21.0002C12.8798 20.999 13.9765 20.7814 15.0005 20.3594C15.0005 20.3594 9.15587 14.4706 8.99927 14.2501L9.00017 20.5322ZM4.0204 16.3976C3.925 16.2275 3.8341 16.0547 3.7495 15.8773L8.24775 11.2504C8.20455 11.5294 8.24955 20.2505 8.24955 20.2505C7.50941 19.9274 6.81737 19.5037 6.19303 18.9914C5.93202 18.7781 5.67732 18.5504 5.43702 18.3011C4.87091 17.7206 4.4011 17.078 4.0204 16.3976ZM3.30208 9.53137C3.0127 10.5785 2.93016 11.672 3.05908 12.7507C3.14998 13.5382 3.34888 14.2924 3.64139 15.0007C3.64139 15.0007 9.52926 9.15517 9.74976 9.00037H3.46768C3.40689 9.17557 3.35166 9.35266 3.30208 9.53137ZM3.7495 8.25067C4.53798 6.45781 5.89146 4.97221 7.60334 4.02062C7.77255 3.92612 7.94715 3.83522 8.12355 3.74972L12.7496 8.24887C12.4715 8.20567 3.7495 8.25067 3.7495 8.25067Z" clip-rule="evenodd"/></svg>