<svg xmlns="http://www.w3.org/2000/svg" width="24" height="24" viewBox="0 0 24 24"><path fill-rule="evenodd" d="M4.1 2.5C3.21634 2.5 2.5 3.21635 2.5 4.1V19.9C2.5 20.7837 3.21635 21.5 4.1 21.5H19.9C20.7837 21.5 21.5 20.7837 21.5 19.9V4.1C21.5 3.21634 20.7837 2.5 19.9 2.5H4.1ZM12 7.25C12.4142 7.25 12.75 7.58579 12.75 8V11.25L16 11.2501C16.4142 11.2501 16.75 11.5858 16.75 12.0001C16.75 12.4143 16.4142 12.7501 16 12.7501L12.75 12.75V16C12.75 16.4142 12.4142 16.75 12 16.75C11.5858 16.75 11.25 16.4142 11.25 16V12.75L7.99999 12.75C7.58578 12.75 7.25 12.4142 7.25 12C7.25 11.5858 7.58579 11.25 8.00001 11.25L11.25 11.25V8C11.25 7.58579 11.5858 7.25 12 7.25Z" clip-rule="evenodd"/></svg>