<svg xmlns="http://www.w3.org/2000/svg" width="24" height="24" fill="none" viewBox="0 0 24 24"><path fill="url(#a)" d="M21.351 4.85776C22.3272 5.41523 22.9284 6.44543 22.9284 7.56035V16.4397C22.9284 17.5546 22.3272 18.5848 21.351 19.1422L13.5773 23.5819C12.6012 24.1394 11.3986 24.1394 10.4225 23.5819L2.64871 19.1422C1.6726 18.5848 1.07129 17.5546 1.07129 16.4397V7.56035C1.07129 6.44543 1.6726 5.41523 2.64871 4.85776L10.4225 0.418107C11.3986 -0.139369 12.6012 -0.139369 13.5773 0.418107L21.351 4.85776ZM18.8757 6.76235L13.1597 3.50661C12.442 3.0978 11.5577 3.0978 10.84 3.50661L5.12402 6.76235C4.40629 7.17117 3.96415 7.92665 3.96415 8.74426V15.2558C3.96415 16.0733 4.40629 16.8289 5.12402 17.2376L10.84 20.4934C11.5577 20.9022 12.442 20.9022 13.1597 20.4934L18.8757 17.2376C19.5935 16.8289 20.0356 16.0733 20.0356 15.2558V8.74426C20.0356 7.92665 19.5935 7.17117 18.8757 6.76235ZM9.0021 10.8913L11.9996 5.76L14.9975 10.8913L17.4641 8.77097V15.1136C17.4641 15.6031 17.0641 16 16.5707 16L7.42905 15.9998C6.93559 15.9998 6.53557 15.603 6.53557 15.1134V8.77097L9.0021 10.8913Z"/><defs><linearGradient id="a" x1="3.47885" x2="21.8124" y1="4.46256" y2="21.3566" gradientUnits="userSpaceOnUse"><stop stop-color="#F2D9B6"/><stop offset="1" stop-color="#BF8B43"/></linearGradient></defs></svg>