<svg xmlns="http://www.w3.org/2000/svg" width="24" height="24" viewBox="0 0 24 24"><path fill-rule="evenodd" d="M11.991 2.44996C13.9949 2.44799 15.9451 3.09678 17.5485 4.29872C19.1518 5.50065 20.3215 7.19074 20.8815 9.11471C21.1276 9.96022 21.2502 10.8308 21.2501 11.7003C21.2501 12.1145 20.9143 12.4503 20.5001 12.4502C20.0859 12.4502 19.7501 12.1144 19.7501 11.7002C19.7501 10.9718 19.6475 10.2424 19.4413 9.53394C18.9721 7.92196 17.9921 6.50595 16.6487 5.49892C15.3054 4.49189 13.6714 3.94831 11.9925 3.94995C10.3136 3.9516 8.68069 4.49839 7.33934 5.50805C5.99799 6.51772 5.02078 7.93566 4.55472 9.54855C4.35133 10.2524 4.25009 10.9768 4.25012 11.7002C4.25013 12.1144 3.91436 12.4502 3.50015 12.4502C3.08593 12.4503 2.75013 12.1145 2.75012 11.7003C2.75008 10.8369 2.87092 9.97225 3.11367 9.13215C3.66994 7.20708 4.83628 5.5147 6.43725 4.30962C8.03821 3.10454 9.98721 2.45192 11.991 2.44996ZM20.6234 13.0852C21.032 13.1533 21.308 13.5397 21.2399 13.9483L20.1774 20.3232C20.1093 20.7318 19.7229 21.0078 19.3143 20.9397C18.9057 20.8717 18.6297 20.4852 18.6978 20.0767L19.7603 13.7017C19.8284 13.2931 20.2148 13.0171 20.6234 13.0852ZM4.23991 13.7017C4.17182 13.2931 3.7854 13.0171 3.37682 13.0852C2.96824 13.1533 2.69223 13.5397 2.76032 13.9483L3.82282 20.3232C3.89092 20.7318 4.27734 21.0078 4.68592 20.9397C5.09449 20.8717 5.37051 20.4852 5.30241 20.0767L4.23991 13.7017ZM4.8446 13.71C4.80624 13.4924 4.95151 13.2849 5.16906 13.2466L6.63397 12.9883C7.34103 12.8636 8.01528 13.3357 8.13996 14.0428L8.97998 18.8068C9.10466 19.5139 8.63254 20.1881 7.92547 20.3128L6.46057 20.5711C6.24302 20.6094 6.03555 20.4642 5.99719 20.2466L4.8446 13.71ZM17.3709 12.9882C16.6639 12.8635 15.9896 13.3356 15.865 14.0427L15.0249 18.8067C14.9003 19.5138 15.3724 20.188 16.0794 20.3127L17.5443 20.571C17.7619 20.6094 17.9694 20.4641 18.0077 20.2465L19.1603 13.7099C19.1987 13.4923 19.0534 13.2849 18.8358 13.2465L17.3709 12.9882Z" clip-rule="evenodd"/></svg>