<svg xmlns="http://www.w3.org/2000/svg" width="24" height="24" viewBox="0 0 24 24"><path fill-rule="evenodd" d="M4.5389 4.09998H6.75002L6.79743 4.10762C6.85704 4.12747 6.90002 4.1837 6.90002 4.24998V9.74998L6.89237 9.79739C6.87253 9.85699 6.8163 9.89998 6.75002 9.89998H5.58402L5.53661 9.89233C5.477 9.87248 5.43402 9.81625 5.43402 9.74998V5.91698L5.42691 5.84644C5.39427 5.68695 5.25316 5.56698 5.08402 5.56698H4.30508L4.26002 5.56013C4.18922 5.53793 4.1425 5.46487 4.158 5.38751L4.39182 4.22051L4.41068 4.17211C4.43727 4.12835 4.48529 4.09998 4.5389 4.09998ZM3.10516 15.9595C3.18392 14.8135 4.15692 14.1 5.49893 14.1C6.82992 14.1 7.89786 14.9525 7.89786 15.9216C7.89786 16.5213 7.66608 16.923 6.89136 17.6321L5.93622 18.423L5.70975 18.6H5.99951L7.75074 18.6086L7.79797 18.6164C7.85731 18.6364 7.9 18.6925 7.9 18.7586V19.75L7.89236 19.7974C7.87252 19.857 7.81629 19.9 7.75 19.9H3.25107L3.20366 19.8923C3.14405 19.8725 3.10107 19.8163 3.10107 19.75V19.1424L3.10803 19.0973C3.11714 19.0684 3.1349 19.0426 3.15945 19.0236L5.41116 17.285L5.70975 17.0506L5.95131 16.8485C6.34487 16.5039 6.47549 16.2931 6.47832 16.0571C6.48737 15.5603 6.10192 15.2078 5.5 15.2078L5.36562 15.2139C4.84456 15.2627 4.52347 15.5255 4.47716 15.9918C4.47652 16.0496 4.42952 16.0961 4.37176 16.0961H3.23953L3.2374 16.096C3.1632 16.0949 3.10399 16.0338 3.10516 15.9595ZM10.25 9.02686C10.25 8.61264 10.5858 8.27686 11 8.27686H19.5C19.9142 8.27686 20.25 8.61264 20.25 9.02686C20.25 9.44107 19.9142 9.77686 19.5 9.77686H11C10.5858 9.77686 10.25 9.44107 10.25 9.02686ZM11 18.2769C10.5858 18.2769 10.25 18.6126 10.25 19.0269C10.25 19.4411 10.5858 19.7769 11 19.7769H19.5C19.9142 19.7769 20.25 19.4411 20.25 19.0269C20.25 18.6126 19.9142 18.2769 19.5 18.2769H11ZM10.25 5C10.25 4.58579 10.5858 4.25 11 4.25H21.5C21.9142 4.25 22.25 4.58579 22.25 5C22.25 5.41421 21.9142 5.75 21.5 5.75H11C10.5858 5.75 10.25 5.41421 10.25 5ZM11 14.25C10.5858 14.25 10.25 14.5858 10.25 15C10.25 15.4142 10.5858 15.75 11 15.75H21.5C21.9142 15.75 22.25 15.4142 22.25 15C22.25 14.5858 21.9142 14.25 21.5 14.25H11Z" clip-rule="evenodd"/></svg>