<svg xmlns="http://www.w3.org/2000/svg" width="16" height="16" viewBox="0 0 16 16"><path fill-rule="evenodd" d="M8 13.7C11.148 13.7 13.7 11.148 13.7 8C13.7 4.85198 11.148 2.3 8 2.3C4.85198 2.3 2.3 4.85198 2.3 8C2.3 11.148 4.85198 13.7 8 13.7ZM8 15C11.866 15 15 11.866 15 8C15 4.13401 11.866 1 8 1C4.13401 1 1 4.13401 1 8C1 11.866 4.13401 15 8 15ZM8.64961 5.23751C8.64961 5.5965 8.35859 5.88751 7.99961 5.88751C7.64062 5.88751 7.34961 5.5965 7.34961 5.23751C7.34961 4.87853 7.64062 4.58751 7.99961 4.58751C8.35859 4.58751 8.64961 4.87853 8.64961 5.23751ZM7.5638 7.88011C7.60885 7.87217 7.64779 7.91201 7.63882 7.95687L7.05222 10.8908C6.92136 11.5453 7.66929 12.0212 8.26968 11.6655L9.14097 11.1494C9.3708 11.0132 9.44804 10.7349 9.30478 10.5144C9.21545 10.3769 8.74526 10.3798 8.51543 10.5159L8.18997 10.6555C8.14186 10.6762 8.09034 10.6344 8.1006 10.5831L8.66739 7.7483C8.78514 7.15936 8.17937 6.68807 7.58731 6.908L6.53372 7.29937C6.28185 7.39293 6.12036 7.57632 6.24757 7.8965C6.29484 8.01547 6.43671 8.08497 6.75573 8.0226L7.5638 7.88011Z" clip-rule="evenodd"/></svg>