<svg xmlns="http://www.w3.org/2000/svg" width="24" height="24" viewBox="0 0 24 24"><path fill-rule="evenodd" d="M6 3.99976C6 3.58554 5.66421 3.24976 5.25 3.24976C4.83579 3.24976 4.5 3.58554 4.5 3.99976V20.9998C4.5 21.414 4.83579 21.7498 5.25 21.7498C5.66421 21.7498 6 21.414 6 20.9998L6 12.8407H14.5645V20.9998C14.5645 21.414 14.9002 21.7498 15.3145 21.7498C15.7287 21.7498 16.0645 21.414 16.0645 20.9998L16.0645 12.0915V12.0907V12.0899V3.99976C16.0645 3.58554 15.7287 3.24976 15.3145 3.24976C14.9002 3.24976 14.5645 3.58554 14.5645 3.99976V11.3407H6L6 3.99976ZM17.6867 17.7705C17.7655 16.6244 18.7385 15.9109 20.0805 15.9109C21.4115 15.9109 22.4794 16.7634 22.4794 17.7325C22.4794 18.3323 22.2476 18.7339 21.4729 19.443L20.5178 20.2339L20.2913 20.4109H20.5811L22.3323 20.4195L22.3795 20.4273C22.4389 20.4473 22.4815 20.5034 22.4815 20.5695V21.5609L22.4739 21.6083C22.4541 21.6679 22.3978 21.7109 22.3315 21.7109H17.8326L17.7852 21.7032C17.7256 21.6834 17.6826 21.6272 17.6826 21.5609V20.9533L17.6896 20.9082C17.6987 20.8793 17.7164 20.8535 17.741 20.8345L19.9927 19.0959L20.2913 18.8615L20.5329 18.6594C20.9264 18.3148 21.057 18.104 21.0599 17.868C21.0689 17.3712 20.6835 17.0187 20.0815 17.0187L19.9472 17.0248C19.4261 17.0736 19.105 17.3364 19.0587 17.8027C19.0581 17.8605 19.0111 17.907 18.9533 17.907H17.8211L17.8189 17.9069C17.7447 17.9058 17.6855 17.8447 17.6867 17.7705Z" clip-rule="evenodd"/></svg>