<svg xmlns="http://www.w3.org/2000/svg" width="24" height="24" viewBox="0 0 24 24"><path fill-rule="evenodd" d="M7.5 2.75C7.5 2.33579 7.16421 2 6.75 2C6.33579 2 6 2.33579 6 2.75L6 6H2.75C2.33579 6 2 6.33579 2 6.75C2 7.16421 2.33579 7.5 2.75 7.5H6L6 17.25C6 17.6642 6.33579 18 6.75 18H16.5V21.25C16.5 21.6642 16.8358 22 17.25 22C17.6642 22 18 21.6642 18 21.25V18H21.25C21.6642 18 22 17.6642 22 17.25C22 16.8358 21.6642 16.5 21.25 16.5H18L18 6.75C18 6.33579 17.6642 6 17.25 6H7.5V2.75ZM16.5 16.5L16.5 7.5H7.5L7.5 16.5H16.5Z" clip-rule="evenodd"/></svg>