<svg xmlns="http://www.w3.org/2000/svg" width="24" height="24" viewBox="0 0 24 24"><path fill-rule="evenodd" d="M16.75 12C16.3358 12 16 11.6642 16 11.25V8H12.75C12.3358 8 12 7.66421 12 7.25C12 6.83579 12.3358 6.5 12.75 6.5H16V3.25C16 2.83579 16.3358 2.5 16.75 2.5C17.1642 2.5 17.5 2.83579 17.5 3.25V6.5H20.75C21.1642 6.5 21.5 6.83579 21.5 7.25C21.5 7.66421 21.1642 8 20.75 8H17.5V11.25C17.5 11.6642 17.1642 12 16.75 12ZM5 5.95C5 5.42533 5.42533 5 5.95 5H13C13.4142 5 13.75 4.66421 13.75 4.25C13.75 3.83579 13.4142 3.5 13 3.5H5.95C4.5969 3.5 3.5 4.5969 3.5 5.95V18.05C3.5 19.4031 4.5969 20.5 5.95 20.5H18.05C19.4031 20.5 20.5 19.4031 20.5 18.05V11.25C20.5 10.8358 20.1642 10.5 19.75 10.5C19.3358 10.5 19 10.8358 19 11.25V18.05C19 18.5747 18.5747 19 18.05 19H5.95C5.42533 19 5 18.5747 5 18.05V5.95Z" clip-rule="evenodd"/></svg>