<svg xmlns="http://www.w3.org/2000/svg" width="24" height="24" viewBox="0 0 24 24"><path fill-rule="evenodd" d="M11.9996 7.01319C9.24569 7.01319 7.01319 9.24569 7.01319 11.9996C7.01319 14.7535 9.24569 16.986 11.9996 16.986C14.7536 16.986 16.9861 14.7535 16.9861 11.9996C16.9861 9.24569 14.7536 7.01319 11.9996 7.01319ZM5.51319 11.9996C5.51319 8.41726 8.41726 5.51319 11.9996 5.51319C15.582 5.51319 18.4861 8.41726 18.4861 11.9996C18.4861 15.582 15.582 18.486 11.9996 18.486C8.41726 18.486 5.51319 15.582 5.51319 11.9996Z" clip-rule="evenodd"/><path fill-rule="evenodd" d="M11.9934 0.705208C12.4076 0.701503 12.7464 1.03427 12.7501 1.44847L12.76 2.55842C12.7637 2.97262 12.4309 3.3114 12.0167 3.3151C11.6025 3.31881 11.2638 2.98604 11.2601 2.57184L11.2501 1.46189C11.2464 1.04769 11.5792 0.708913 11.9934 0.705208Z" clip-rule="evenodd"/><path fill-rule="evenodd" d="M11.9934 20.6852C12.4076 20.6815 12.7464 21.0143 12.7501 21.4284L12.76 22.5384C12.7637 22.9526 12.4309 23.2914 12.0167 23.2951C11.6025 23.2988 11.2638 22.966 11.2601 22.5518L11.2501 21.4419C11.2464 21.0277 11.5792 20.6889 11.9934 20.6852Z" clip-rule="evenodd"/><path fill-rule="evenodd" d="M23.295 11.9883C23.2987 12.4024 22.966 12.7412 22.5518 12.7449L21.4418 12.7549C21.0276 12.7586 20.6889 12.4258 20.6851 12.0116C20.6814 11.5974 21.0142 11.2586 21.4284 11.2549L22.5384 11.245C22.9526 11.2413 23.2913 11.5741 23.295 11.9883Z" clip-rule="evenodd"/><path fill-rule="evenodd" d="M3.31507 11.9883C3.31877 12.4024 2.986 12.7412 2.5718 12.7449L1.46185 12.7549C1.04765 12.7586 0.708875 12.4258 0.70517 12.0116C0.701465 11.5974 1.03423 11.2586 1.44843 11.2549L2.55839 11.245C2.97258 11.2413 3.31136 11.5741 3.31507 11.9883Z" clip-rule="evenodd"/><path fill-rule="evenodd" d="M19.9823 4.00848C20.2778 4.29874 20.2821 4.77359 19.9918 5.0691L19.214 5.86097C18.9237 6.15647 18.4489 6.16072 18.1534 5.87046C17.8579 5.5802 17.8536 5.10534 18.1439 4.80984L18.9217 4.01797C19.212 3.72246 19.6868 3.71822 19.9823 4.00848Z" clip-rule="evenodd"/><path fill-rule="evenodd" d="M5.85366 18.1364C6.14916 18.4267 6.15341 18.9015 5.86315 19.197L5.08531 19.9889C4.79505 20.2844 4.3202 20.2887 4.0247 19.9984C3.7292 19.7081 3.72495 19.2333 4.01521 18.9378L4.79305 18.1459C5.08331 17.8504 5.55816 17.8461 5.85366 18.1364Z" clip-rule="evenodd"/><path fill-rule="evenodd" d="M19.9949 19.9784C19.7047 20.2739 19.2298 20.2782 18.9343 19.9879L18.1425 19.2101C17.847 18.9198 17.8427 18.4449 18.133 18.1494C18.4232 17.8539 18.8981 17.8497 19.1936 18.14L19.9855 18.9178C20.281 19.2081 20.2852 19.6829 19.9949 19.9784Z" clip-rule="evenodd"/><path fill-rule="evenodd" d="M5.86751 5.85048C5.57725 6.14599 5.10239 6.15023 4.80689 5.85997L4.01501 5.08214C3.71951 4.79187 3.71526 4.31702 4.00553 4.02152C4.29579 3.72602 4.77064 3.72177 5.06614 4.01203L5.85802 4.78987C6.15352 5.08013 6.15777 5.55498 5.86751 5.85048Z" clip-rule="evenodd"/></svg>