<svg xmlns="http://www.w3.org/2000/svg" width="24" height="24" viewBox="0 0 24 24"><path fill-rule="evenodd" d="M19.75 5C19.75 5.41421 19.4142 5.75 19 5.75L10 5.75C9.58579 5.75 9.25 5.41421 9.25 5C9.25 4.58578 9.58579 4.25 10 4.25L19 4.25C19.4142 4.25 19.75 4.58579 19.75 5Z" clip-rule="evenodd"/><path fill-rule="evenodd" d="M19.75 12C19.75 12.4142 19.4142 12.75 19 12.75H16C15.5858 12.75 15.25 12.4142 15.25 12C15.25 11.5858 15.5858 11.25 16 11.25H19C19.4142 11.25 19.75 11.5858 19.75 12Z" clip-rule="evenodd"/><path fill-rule="evenodd" d="M10 18.25H19C19.4142 18.25 19.75 18.5858 19.75 19C19.75 19.4142 19.4142 19.75 19 19.75H10C9.58579 19.75 9.25 19.4142 9.25 19C9.25 18.5858 9.58579 18.25 10 18.25Z" clip-rule="evenodd"/><path d="M4.25 19C4.25 19.4142 4.58579 19.75 5 19.75H6.75V21C6.75 21.4142 7.08579 21.75 7.5 21.75C7.91421 21.75 8.25 21.4142 8.25 21L8.25 19L8.25 17C8.25 16.5858 7.91421 16.25 7.5 16.25C7.08579 16.25 6.75 16.5858 6.75 17V18.25L5 18.25C4.58579 18.25 4.25 18.5858 4.25 19Z"/><path d="M4.25 12C4.25 12.4142 4.58579 12.75 5 12.75L12.75 12.75V14C12.75 14.4142 13.0858 14.75 13.5 14.75C13.9142 14.75 14.25 14.4142 14.25 14V12V10C14.25 9.58579 13.9142 9.25 13.5 9.25C13.0858 9.25 12.75 9.58579 12.75 10V11.25L5 11.25C4.58579 11.25 4.25 11.5858 4.25 12Z"/><path d="M7.5 2.25C7.08579 2.25 6.75 2.58579 6.75 3V4.25L5 4.25C4.58579 4.25 4.25 4.58578 4.25 5C4.25 5.41421 4.58579 5.75 5 5.75L6.75 5.75V7C6.75 7.41421 7.08579 7.75 7.5 7.75C7.91421 7.75 8.25 7.41421 8.25 7L8.25 5L8.25 3C8.25 2.58579 7.91421 2.25 7.5 2.25Z"/></svg>