<svg xmlns="http://www.w3.org/2000/svg" width="16" height="16" viewBox="0 0 16 16"><path fill-rule="evenodd" d="M7.99981 2.31685C6.3333 2.31685 4.98314 3.667 4.98314 5.33352C4.98314 7.00004 6.33331 8.35023 7.99981 8.35023C9.66633 8.35023 11.0165 7.00004 11.0165 5.33352C11.0165 3.66699 9.66634 2.31685 7.99981 2.31685ZM3.68314 5.33352C3.68314 2.94903 5.61533 1.01685 7.99981 1.01685C10.3843 1.01685 12.3165 2.94903 12.3165 5.33352C12.3165 6.84212 11.5431 8.1697 10.371 8.94145C10.5994 9.05511 10.8196 9.18372 11.0304 9.32602C11.3279 9.52691 11.4062 9.93094 11.2053 10.2285C11.0045 10.526 10.6004 10.6043 10.3029 10.4034C9.59472 9.92526 8.75654 9.6501 7.85787 9.6501C5.50466 9.6501 3.52397 11.5575 3.31436 14.0545C3.28433 14.4122 2.96999 14.6778 2.61227 14.6478C2.25454 14.6178 1.98889 14.3035 2.01892 13.9457C2.2091 11.68 3.58293 9.74395 5.51072 8.861C4.40497 8.07942 3.68314 6.79094 3.68314 5.33352ZM13.3166 10.3333C13.3166 9.97436 13.0255 9.68335 12.6666 9.68335C12.3076 9.68335 12.0166 9.97436 12.0166 10.3333V11.5167H10.9999C10.6409 11.5167 10.3499 11.8077 10.3499 12.1667C10.3499 12.5257 10.6409 12.8167 10.9999 12.8167H12.0166L12.0166 14C12.0166 14.359 12.3076 14.65 12.6666 14.65C13.0255 14.65 13.3166 14.359 13.3166 14V12.8167H14.3332C14.6922 12.8167 14.9832 12.5257 14.9832 12.1667C14.9832 11.8077 14.6922 11.5167 14.3332 11.5167H13.3166V10.3333Z" clip-rule="evenodd"/></svg>