<svg xmlns="http://www.w3.org/2000/svg" width="24" height="24" viewBox="0 0 24 24"><g><path fill-rule="evenodd" d="M10.1643 3.73131C10.2383 3.76826 10.3202 3.81349 10.4092 3.86845C11.026 4.24941 11.8419 5.01241 12.4714 6.27527C13.0666 7.4694 13.2492 8.45685 13.3929 9.23364C13.4032 9.28937 13.4133 9.34401 13.4233 9.39757C13.4918 9.76245 13.5759 10.2067 13.7694 10.5476C13.8789 10.7403 14.0382 10.9311 14.2727 11.0669C14.5062 11.202 14.7578 11.2501 14.9998 11.2501C15.7543 11.2501 16.1467 10.6365 16.3262 10.2791C16.5037 9.92567 16.6387 9.48764 16.7471 9.13625C16.7609 9.09148 16.7742 9.04811 16.7872 9.0065C16.8419 8.8309 16.8912 8.67867 16.9405 8.54823C18.3693 9.7889 19.2498 11.5502 19.2498 13.4929C19.2498 17.1806 16.0495 20.2501 11.9998 20.2501C7.95006 20.2501 4.74976 17.1806 4.74976 13.4929C4.74976 12.2962 5.15466 11.149 5.78105 10.1329C6.13215 9.56334 6.50895 9.16357 6.96396 8.72291C7.04475 8.64466 7.12873 8.56451 7.2156 8.48159C7.61552 8.09989 8.07683 7.65957 8.5714 7.07727C9.21684 6.31733 9.63194 5.46607 9.88615 4.74037C10.0129 4.37859 10.1047 4.03327 10.1643 3.73131ZM17.086 8.24384C17.086 8.24386 17.0857 8.24421 17.0851 8.24488ZM11.1974 2.59224C12.0568 3.12302 13.0623 4.09844 13.8138 5.60611C14.5055 6.99375 14.7207 8.16178 14.8662 8.95142C14.877 9.01009 14.8874 9.06668 14.8976 9.12111C14.9367 9.32921 14.9685 9.47781 14.9962 9.5849C15.1088 9.35383 15.2025 9.05204 15.3157 8.68709C15.3286 8.64559 15.3417 8.60327 15.3552 8.56014C15.4178 8.35904 15.4876 8.14173 15.5665 7.94263C15.6427 7.75014 15.7454 7.52771 15.8903 7.33792C16.035 7.14842 16.2876 6.90776 16.6738 6.85821C17.0599 6.80868 17.3813 6.9754 17.6069 7.15331C19.518 8.65992 20.7498 10.935 20.7498 13.4929C20.7498 18.0974 16.7866 21.7501 11.9998 21.7501C7.2129 21.7501 3.24976 18.0974 3.24976 13.4929C3.24976 11.9548 3.7692 10.538 4.50417 9.34576C4.95197 8.61933 5.43231 8.11812 5.92043 7.64539C6.01251 7.55621 6.1041 7.46871 6.19571 7.38119C6.59203 7.00256 6.9888 6.62348 7.42811 6.10624C7.92553 5.52059 8.26043 4.84413 8.4705 4.24446C8.68524 3.63145 8.74975 3.15695 8.74975 3.00009C8.74975 2.82863 8.79732 2.643 8.9157 2.47766C9.03097 2.31669 9.18072 2.22029 9.31391 2.16541C9.55933 2.06428 9.80988 2.07631 9.98306 2.10159C10.3528 2.15555 10.7771 2.33266 11.1974 2.59224ZM14.8675 9.79062C14.8675 9.79014 14.8704 9.78702 14.8764 9.78272C14.8706 9.78894 14.8676 9.7911 14.8675 9.79062Z" clip-rule="evenodd"/></g></svg>