<svg xmlns="http://www.w3.org/2000/svg" width="24" height="24" viewBox="0 0 24 24"><g><g><path fill-rule="evenodd" d="M11.5 18.3889C15.3753 18.3889 18.5 15.2705 18.5 11.4444C18.5 7.61839 15.3753 4.5 11.5 4.5C7.62472 4.5 4.5 7.61839 4.5 11.4444C4.5 15.2705 7.62472 18.3889 11.5 18.3889ZM11.5 19.8889C16.1944 19.8889 20 16.1082 20 11.4444C20 6.78071 16.1944 3 11.5 3C6.80558 3 3 6.78071 3 11.4444C3 16.1082 6.80558 19.8889 11.5 19.8889Z" clip-rule="evenodd"/><path fill-rule="evenodd" d="M16.4697 16.9697C16.7626 16.6768 17.2374 16.6768 17.5303 16.9697L21.0303 20.4697C21.3232 20.7626 21.3232 21.2374 21.0303 21.5303C20.7374 21.8232 20.2626 21.8232 19.9697 21.5303L16.4697 18.0303C16.1768 17.7374 16.1768 17.2626 16.4697 16.9697Z" clip-rule="evenodd"/></g></g></svg>