<svg xmlns="http://www.w3.org/2000/svg" width="24" height="24" viewBox="0 0 24 24"><g><path fill-rule="evenodd" d="M17.8883 14.1619C18.5511 14.8206 19.6211 14.8158 20.2806 14.1563L22.2479 12.1891C22.9313 11.5056 22.9313 10.3976 22.2479 9.71418L14.326 1.79235C13.6426 1.10893 12.5346 1.10893 11.8512 1.79235L9.88386 3.75966C9.24899 4.39471 9.22097 5.41014 9.80764 6.07633L5.35209 7.14679C5.31653 7.15533 5.28165 7.16647 5.24772 7.1801C4.60621 7.4378 4.18431 8.05907 4.18258 8.75092C4.18259 8.748 4.18185 8.75745 4.18021 8.77862C4.16358 8.99271 4.05399 10.4036 3.67809 12.3545C3.26696 14.4881 2.54783 17.2091 1.31935 19.6612C1.13382 20.0316 1.28364 20.4822 1.65398 20.6677C2.02431 20.8533 2.47494 20.7034 2.66047 20.3331C3.97429 17.7106 4.7264 14.8418 5.15099 12.6383C5.57356 10.4452 5.68229 8.85227 5.68257 8.75523C5.68273 8.68695 5.71852 8.62336 5.77598 8.58763L10.969 7.33999C10.9947 7.33381 11.0198 7.32638 11.0442 7.31777L16.6478 12.9214C16.6392 12.9458 16.6318 12.9708 16.6256 12.9966L15.3779 18.1896C15.3422 18.2469 15.2792 18.2826 15.2109 18.2827C15.1136 18.2828 13.5189 18.3903 11.3247 18.8115C9.11984 19.2348 6.24955 19.9856 3.62671 21.2995C3.25637 21.4851 3.10655 21.9357 3.29207 22.306C3.4776 22.6764 3.92821 22.8262 4.29856 22.6407C6.75057 21.4123 9.47262 20.6945 11.6075 20.2846C13.5567 19.9104 14.967 19.8018 15.184 19.7851C15.2058 19.7834 15.2156 19.7827 15.2126 19.7827C15.9051 19.782 16.5275 19.36 16.7855 18.7177C16.7991 18.6838 16.8102 18.649 16.8187 18.6135L17.8883 14.1619ZM19.22 13.0957C19.1423 13.1733 19.0192 13.1715 18.9452 13.0974L10.9428 5.09508C10.8688 5.02103 10.8669 4.89805 10.9445 4.82032L12.9118 2.85301C13.0095 2.75538 13.1678 2.75538 13.2654 2.85301L21.1872 10.7748C21.2848 10.8725 21.2848 11.0308 21.1872 11.1284L19.22 13.0957ZM9.72632 14.4364C10.2345 14.9445 11.0583 14.9445 11.5664 14.4364C12.0746 13.9283 12.0746 13.1044 11.5664 12.5963C11.0583 12.0882 10.2345 12.0882 9.72632 12.5963C9.21818 13.1044 9.21818 13.9283 9.72632 14.4364ZM9.16573 15.8949C10.2468 16.5692 11.6876 16.4366 12.6271 15.4971C13.721 14.4031 13.721 12.6295 12.6271 11.5356C11.5332 10.4417 9.75958 10.4417 8.66566 11.5356C7.7852 12.4161 7.61339 13.7368 8.15022 14.7891L5.96967 16.9697C5.67678 17.2626 5.67678 17.7374 5.96967 18.0303C6.26256 18.3232 6.73744 18.3232 7.03033 18.0303L9.16573 15.8949Z" clip-rule="evenodd"/></g></svg>