<svg xmlns="http://www.w3.org/2000/svg" width="24" height="24" fill="none" viewBox="0 0 24 24"><g><path fill="#3379F6" d="M19.2 0H4.8C2.14903 0 0 2.14903 0 4.8V19.2C0 21.851 2.14903 24 4.8 24H19.2C21.851 24 24 21.851 24 19.2V4.8C24 2.14903 21.851 0 19.2 0Z"/><path fill="white" d="M19.8524 15.1049C18.9131 14.7944 17.6532 14.3191 16.2485 13.8175C17.0913 12.3702 17.7653 10.7222 18.2078 8.93085H13.5815V7.28526H19.2495V6.36693H13.5815V3.62268H11.2689C10.8626 3.62268 10.8626 4.01796 10.8626 4.01796V6.36573H5.13067V7.28407H10.8626V8.92966H6.13021V9.84799H15.3093C14.9729 10.9909 14.5219 12.0644 13.9866 13.0389C11.0085 12.068 7.83025 11.2811 5.8336 11.7659C4.55676 12.0764 3.73446 12.6317 3.25098 13.2121C1.03368 15.8763 2.62401 19.9246 7.30698 19.9246C10.0765 19.9246 12.7435 18.3996 14.8113 15.8871C17.8943 17.3511 24 19.8649 24 19.8649V16.2823C24 16.2835 23.2332 16.2226 19.8524 15.1049ZM6.86931 18.3757C3.21722 18.3757 2.13811 15.5348 3.94305 13.9811C4.5447 13.4557 5.64551 13.1989 6.23269 13.1416C8.40176 12.9302 10.4093 13.7471 12.7797 14.8899C11.1134 17.0359 8.99256 18.3757 6.86931 18.3757Z"/></g></svg>