<svg xmlns="http://www.w3.org/2000/svg" width="24" height="24" viewBox="0 0 24 24"><path fill-rule="evenodd" d="M19.4881 8.43057L12.497 2.43817C12.4438 2.39104 12.3853 2.35263 12.3234 2.32309C12.3014 2.31259 12.2791 2.30323 12.2565 2.29501C12.208 2.27737 12.1572 2.26459 12.1046 2.25725C12.0699 2.25239 12.0349 2.24998 12 2.25C11.9652 2.24998 11.9304 2.25238 11.8958 2.25719C11.8207 2.26765 11.7468 2.28955 11.6767 2.32309C11.6147 2.35264 11.5562 2.39105 11.503 2.43818L4.51192 8.43057C4.19743 8.70014 4.161 9.17361 4.43057 9.48811C4.70014 9.8026 5.17361 9.83902 5.48811 9.56946L11.25 4.63068V20C11.25 20.4142 11.5858 20.75 12 20.75C12.4142 20.75 12.75 20.4142 12.75 20V4.63068L18.5119 9.56946C18.8264 9.83902 19.2999 9.8026 19.5695 9.48811C19.839 9.17361 19.8026 8.70014 19.4881 8.43057Z" clip-rule="evenodd"/></svg>