<svg xmlns="http://www.w3.org/2000/svg" width="24" height="24" viewBox="0 0 24 24"><path fill-rule="evenodd" d="M6.98967 12.0487C7.22173 11.9147 7.50762 11.9147 7.73967 12.0487L10.7543 13.7892C10.9863 13.9232 11.1293 14.1708 11.1293 14.4387V17.9196C11.1293 18.1876 10.9863 18.4352 10.7543 18.5692L7.73967 20.3096C7.50762 20.4436 7.22173 20.4436 6.98967 20.3096L3.9751 18.5692C3.74305 18.4352 3.6001 18.1876 3.6001 17.9196V14.4387C3.6001 14.1708 3.74305 13.9232 3.9751 13.7892L6.98967 12.0487ZM5.1001 14.8717V17.4866L7.36467 18.7941L9.62925 17.4866V14.8717L7.36467 13.5643L5.1001 14.8717Z" clip-rule="evenodd"/><path d="M8.24617 16.1794C8.24617 16.6662 7.85151 17.0609 7.36466 17.0609C6.87782 17.0609 6.48315 16.6662 6.48315 16.1794C6.48315 15.6925 6.87782 15.2979 7.36466 15.2979C7.85151 15.2979 8.24617 15.6925 8.24617 16.1794Z"/><path fill-rule="evenodd" d="M21.5022 11.4674C21.5022 6.75615 17.7377 2.5 12.5307 2.5C7.72365 2.5 4.02731 6.22003 3.62794 10.6458C3.59072 11.0583 3.89497 11.4229 4.3075 11.4601C4.72004 11.4974 5.08465 11.1931 5.12187 10.7806C5.45509 7.08787 8.53937 4 12.5307 4C16.858 4 20.0022 7.53229 20.0022 11.4674C20.0022 12.7001 19.6434 13.9936 18.993 15.1951C18.7414 15.6204 18.7292 16.1141 18.873 16.5373L19.2968 17.9562L18.029 17.5797C17.2256 17.3218 16.5985 17.7042 16.1983 17.9486C15.294 18.4803 14.1812 18.802 13.1119 18.8873C12.699 18.9202 12.3909 19.2816 12.4239 19.6945C12.4568 20.1074 12.8182 20.4155 13.2311 20.3825C14.4995 20.2814 15.8395 19.9011 16.9648 19.238L16.975 19.232C17.1881 19.1019 17.3075 19.039 17.4033 19.0096C17.47 18.9891 17.5115 18.9886 17.573 19.0087L17.5931 19.015L19.246 19.5059C19.6924 19.6437 20.1721 19.5485 20.5118 19.2354C20.8617 18.9129 20.9919 18.4248 20.8595 17.9477L20.8555 17.9335L20.3057 16.0928C20.3022 16.081 20.2984 16.0693 20.2943 16.0577C20.2707 15.9909 20.2838 15.9598 20.2848 15.9576C20.2913 15.947 20.2975 15.9362 20.3035 15.9252C21.0597 14.5339 21.5022 12.991 21.5022 11.4674Z" clip-rule="evenodd"/></svg>