<svg xmlns="http://www.w3.org/2000/svg" width="16" height="16" viewBox="0 0 16 16"><path fill-rule="evenodd" d="M8.9895 9.84039V1.4032C8.9895 1.33922 8.97916 1.27562 8.9595 1.21467C8.85421 0.88819 8.50965 0.707938 8.1795 0.812064L3.1033 4.36902C2.84313 4.45108 2.6665 4.69011 2.6665 4.96016V14.0462C2.6665 14.3889 2.94742 14.6667 3.29395 14.6667H12.7057C13.0522 14.6667 13.3332 14.3889 13.3332 14.0462V4.86169C13.3332 4.51901 13.0522 4.24121 12.7057 4.24121H11.185V12.4C11.185 12.7143 10.9406 12.9708 10.625 13.008L4.30941 13.872C4.29546 13.8737 8.5395 10.4304 8.5395 10.4304C8.76272 10.2572 8.9895 10.1098 8.9895 9.84039Z" clip-rule="evenodd"/></svg>