<svg xmlns="http://www.w3.org/2000/svg" width="16" height="16" viewBox="0 0 16 16"><path fill-rule="evenodd" d="M4.5001 1.85C3.31269 1.85 2.3501 2.81259 2.3501 4V5.5C2.3501 6.68741 3.31269 7.65 4.5001 7.65H11.5001C12.6875 7.65 13.6501 6.68741 13.6501 5.5V4C13.6501 2.81259 12.6875 1.85 11.5001 1.85H4.5001ZM3.6501 4C3.6501 3.53056 4.03066 3.15 4.5001 3.15H11.5001C11.9695 3.15 12.3501 3.53056 12.3501 4V5.5C12.3501 5.96944 11.9695 6.35 11.5001 6.35H4.5001C4.03066 6.35 3.6501 5.96944 3.6501 5.5V4Z" clip-rule="evenodd"/><path fill-rule="evenodd" d="M4.5001 8.35C3.31269 8.35 2.3501 9.31259 2.3501 10.5V12C2.3501 13.1874 3.31269 14.15 4.5001 14.15H11.5001C12.6875 14.15 13.6501 13.1874 13.6501 12V10.5C13.6501 9.31259 12.6875 8.35 11.5001 8.35H4.5001ZM3.6501 10.5C3.6501 10.0306 4.03066 9.65 4.5001 9.65H11.5001C11.9695 9.65 12.3501 10.0306 12.3501 10.5V12C12.3501 12.4694 11.9695 12.85 11.5001 12.85H4.5001C4.03066 12.85 3.6501 12.4694 3.6501 12V10.5Z" clip-rule="evenodd"/></svg>