<svg xmlns="http://www.w3.org/2000/svg" width="16" height="16" viewBox="0 0 16 16"><g><path fill-rule="evenodd" d="M8 13.7C11.148 13.7 13.7 11.148 13.7 8C13.7 4.85198 11.148 2.3 8 2.3C4.85198 2.3 2.3 4.85198 2.3 8C2.3 11.148 4.85198 13.7 8 13.7ZM8 15C11.866 15 15 11.866 15 8C15 4.13401 11.866 1 8 1C4.13401 1 1 4.13401 1 8C1 11.866 4.13401 15 8 15ZM8.8002 11.0998C8.8002 11.5416 8.44202 11.8998 8.0002 11.8998C7.55837 11.8998 7.2002 11.5416 7.2002 11.0998C7.2002 10.658 7.55837 10.2998 8.0002 10.2998C8.44202 10.2998 8.8002 10.658 8.8002 11.0998ZM6.95015 6.63436C6.95015 6.55996 6.95936 6.29171 7.09055 6.0598C7.18951 5.88488 7.39596 5.6501 7.99979 5.6501C8.5721 5.6501 8.82168 5.90376 8.94486 6.17599C9.0961 6.51022 9.06363 6.89937 8.97712 7.0803C8.95607 7.12431 8.91068 7.18289 8.79467 7.26559C8.70409 7.33016 8.61517 7.38073 8.49963 7.44643L8.49962 7.44644L8.49953 7.44649C8.44621 7.47682 8.38722 7.51037 8.31978 7.55C7.9614 7.76064 7.34524 8.15639 7.34524 9.0001C7.34524 9.35908 7.63625 9.6501 7.99524 9.6501C8.35422 9.6501 8.64524 9.35908 8.64524 9.0001L8.64524 8.99673C8.64515 8.92874 8.64506 8.86674 8.9785 8.67075C9.01 8.65224 9.0473 8.63104 9.08844 8.60765C9.22364 8.53078 9.40035 8.43031 9.54925 8.32418C9.75985 8.17406 9.99732 7.96026 10.1499 7.6411C10.4107 7.09569 10.4299 6.30454 10.1292 5.64005C9.80051 4.91357 9.09456 4.3501 7.99979 4.3501C6.93654 4.3501 6.29317 4.82913 5.95907 5.41969C5.65721 5.95326 5.65015 6.50213 5.65015 6.63436C5.65015 6.99335 5.94116 7.28436 6.30015 7.28436C6.65913 7.28436 6.95015 6.99335 6.95015 6.63436Z" clip-rule="evenodd"/></g></svg>