<svg xmlns="http://www.w3.org/2000/svg" width="16" height="16" viewBox="0 0 16 16"><path fill-rule="evenodd" d="M9.75001 1.77723C8.18825 1.31159 6.50987 1.43565 5.03355 2.12585C3.55723 2.81606 2.38576 4.02436 1.74155 5.52133C1.09735 7.0183 1.02527 8.69971 1.53901 10.2463C2.05275 11.7929 3.11652 13.097 4.52836 13.911C5.33216 14.3745 6.21692 14.6607 7.12436 14.7603C7.4812 14.7995 7.80223 14.542 7.84141 14.1851C7.88058 13.8283 7.62306 13.5072 7.26622 13.4681C6.53611 13.3879 5.82435 13.1577 5.1777 12.7848C4.04185 12.1299 3.18603 11.0808 2.77273 9.83651C2.35942 8.59224 2.41741 7.23953 2.93568 6.0352C3.45394 4.83088 4.39641 3.85879 5.58413 3.30351C6.77184 2.74823 8.12212 2.64842 9.37857 3.02303C10.635 3.39765 11.7102 4.2206 12.3999 5.33563C13.0896 6.45067 13.3458 7.78016 13.12 9.07167C12.9648 9.95914 12.5893 10.7862 12.0363 11.4812L11.9195 10.4106C11.8806 10.0538 11.5597 9.79601 11.2029 9.83494C10.846 9.87387 10.5883 10.1947 10.6272 10.5516L10.8806 12.8747C10.9347 13.3704 11.4019 13.7133 11.891 13.6163L14.2698 13.1444C14.6219 13.0746 14.8507 12.7325 14.7809 12.3804C14.711 12.0282 14.369 11.7994 14.0168 11.8693L13.258 12.0198C13.8338 11.2151 14.2274 10.2856 14.4005 9.29562C14.6813 7.69029 14.3628 6.03775 13.5055 4.65177C12.6482 3.26579 11.3118 2.24287 9.75001 1.77723Z" clip-rule="evenodd"/></svg>