<svg xmlns="http://www.w3.org/2000/svg" width="24" height="24" viewBox="0 0 24 24"><path fill-rule="evenodd" d="M12 3.71272L11.3851 4.59687C10.8948 5.30189 10.001 5.60317 9.18395 5.33883L7.84631 4.90606L9.10043 6.42084C9.36458 6.73989 9.32007 7.21268 9.00102 7.47683C8.68196 7.74098 8.20918 7.69648 7.94503 7.37742L6.36219 5.4656C5.50071 4.42507 6.53234 2.9044 7.81761 3.32023L9.64568 3.91166C9.83423 3.97266 10.0405 3.90314 10.1536 3.74044L10.8917 2.67921C11.4288 1.90693 12.5712 1.90693 13.1083 2.67921L13.8464 3.74044C13.9595 3.90314 14.1658 3.97266 14.3543 3.91166L16.1824 3.32023C17.4677 2.9044 18.4993 4.42507 17.6378 5.4656L16.055 7.37742C15.7908 7.69648 15.318 7.74098 14.999 7.47683C14.6799 7.21268 14.6354 6.73989 14.8996 6.42084L16.1537 4.90606L14.8161 5.33883C13.999 5.60317 13.1052 5.30189 12.6149 4.59687L12 3.71272ZM8.28025 8.90924C8.48178 9.27113 8.35178 9.72786 7.9899 9.92939C6.06493 11.0014 4.875 12.778 4.875 14.7225C4.875 17.8034 7.92987 20.5241 12 20.5241C16.0701 20.5241 19.125 17.8034 19.125 14.7225C19.125 12.778 17.9351 11.0014 16.0101 9.92939C15.6482 9.72786 15.5182 9.27113 15.7198 8.90924C15.9213 8.54736 16.378 8.41737 16.7399 8.6189C19.0359 9.89751 20.625 12.1239 20.625 14.7225C20.625 18.8784 16.6284 22.0241 12 22.0241C7.37164 22.0241 3.375 18.8784 3.375 14.7225C3.375 12.1239 4.96412 9.89751 7.2601 8.6189C7.62198 8.41737 8.07872 8.54736 8.28025 8.90924ZM10.8624 11.0207C11.3676 10.1446 12.632 10.1446 13.1373 11.0207L13.6854 11.9711L14.7587 12.1987C15.748 12.4085 16.1387 13.611 15.4616 14.3623L14.7272 15.1773L14.8423 16.2683C14.9485 17.2741 13.9256 18.0173 13.0019 17.6055L11.9998 17.1588L10.9977 17.6055C10.074 18.0173 9.05111 17.2741 9.15728 16.2684L9.27245 15.1773L8.53796 14.3623C7.86104 13.6111 8.25151 12.4086 9.24095 12.1987L10.3142 11.9711L10.8624 11.0207ZM11.9998 11.9508L12.5891 12.9725C12.6904 13.1481 12.8635 13.279 13.0717 13.3232L14.2256 13.5679L13.4359 14.4442C13.2976 14.5976 13.2297 14.8036 13.2516 15.0114L13.3754 16.1845L12.2981 15.7042L12.2943 15.7026C12.1093 15.6213 11.894 15.6185 11.7017 15.7042L10.6242 16.1845L10.748 15.0114C10.7698 14.8047 10.7028 14.5985 10.5637 14.4442L9.774 13.5679L10.9279 13.3232C11.1308 13.2802 11.3064 13.153 11.4105 12.9726L11.9998 11.9508Z" clip-rule="evenodd"/></svg>