<svg xmlns="http://www.w3.org/2000/svg" width="24" height="24" viewBox="0 0 24 24"><path fill-rule="evenodd" d="M14.0803 13.0839C13.4176 13.128 12.851 13.577 12.6566 14.2121C12.1864 15.7485 11.7351 16.7846 11.3336 17.4095C11.1952 17.6248 11.0865 17.7562 11.0104 17.8349C10.9286 17.7628 10.8103 17.641 10.656 17.4387C10.2063 16.849 9.674 15.8532 9.08284 14.36C8.83809 13.7418 8.23654 13.3394 7.57173 13.3491C5.97931 13.3725 4.8665 13.2596 4.15715 13.0685C3.89961 12.9991 3.73968 12.9325 3.64408 12.8831C3.68474 12.7811 3.76434 12.6214 3.91994 12.3926C4.33719 11.779 5.11125 10.9612 6.33582 9.93318C6.84062 9.50941 7.03392 8.81946 6.82275 8.19511C6.30795 6.67302 6.06893 5.56616 6.0295 4.82089C6.01527 4.55178 6.02846 4.37573 6.04559 4.26621C6.15253 4.27565 6.31883 4.30366 6.56279 4.37633C7.26729 4.58616 8.27603 5.07514 9.62378 5.93266C10.1874 6.29128 10.9146 6.26196 11.4475 5.85911C12.7227 4.89516 13.6895 4.32593 14.3752 4.05961C14.6114 3.9679 14.7745 3.92643 14.8804 3.9082C14.906 4.01598 14.9328 4.18963 14.9399 4.45684C14.96 5.20271 14.8099 6.32512 14.4181 7.88363C14.2573 8.52328 14.5054 9.19607 15.0431 9.57807C16.3453 10.5033 17.1816 11.2554 17.6459 11.8328C17.8195 12.0486 17.9114 12.2013 17.9599 12.2995C17.8686 12.3567 17.7139 12.4366 17.4609 12.5273C16.769 12.7754 15.669 12.9782 14.0803 13.0839ZM3.51698 12.801L3.51893 12.803C3.51757 12.8017 3.51695 12.801 3.51698 12.801ZM5.8837 4.26784C5.88367 4.2678 5.88472 4.26749 5.88693 4.26705L5.8837 4.26784ZM15.0404 3.89585L15.0435 3.89635C15.0436 3.89633 15.0431 3.89624 15.0423 3.8961C15.0418 3.89603 15.0411 3.89594 15.0404 3.89585ZM18.0787 12.208C18.0788 12.208 18.0783 12.2087 18.0771 12.2099L18.0787 12.208ZM16.769 16.3519L20.4042 20C20.7781 20.3738 20.7781 20.9797 20.4042 21.3535C20.0304 21.7273 19.4267 21.7273 19.0529 21.3535L15.4176 17.7075C15.0438 17.3337 15.0438 16.7278 15.4176 16.354C15.5085 16.2621 15.6134 16.1927 15.7254 16.1457C15.8825 16.0798 16.0537 16.058 16.2203 16.0802C16.4209 16.107 16.6147 16.1976 16.769 16.3519ZM16.1524 14.4725C15.9043 14.5109 15.6429 14.5455 15.3682 14.5764C14.9985 14.6179 14.6046 14.6526 14.1866 14.6804C12.2401 21.0398 10.0422 21.13 7.59518 14.9489C0.997326 15.0456 0.23463 12.9659 5.30709 8.70774C3.17584 2.40637 4.90104 1.03137 10.4827 4.58273C15.7635 0.590938 17.5919 1.82199 15.9698 8.27375C20.7674 11.6823 20.8278 13.7486 16.1524 14.4725ZM20.3817 6.36065L22.2585 5.83126L20.3817 5.30188L19.8523 3.4255L19.323 5.30229L17.4462 5.83167L19.323 6.36105L19.8523 8.23784L20.3817 6.36065Z" clip-rule="evenodd"/></svg>