<svg xmlns="http://www.w3.org/2000/svg" width="16" height="16" viewBox="0 0 16 16"><path fill-rule="evenodd" d="M7.98809 2.65C4.95428 2.65 2.6501 5.13718 2.6501 7.99098C2.6501 11.2902 5.33164 13.35 8.00009 13.35C8.87846 13.35 9.85235 13.1111 10.6179 12.6613L10.622 12.6588C10.9131 12.4809 11.4069 12.1793 12.0387 12.3817L12.7848 12.6032L12.5291 11.7472C12.4168 11.4151 12.4253 11.0241 12.6253 10.6849C13.0935 9.81939 13.3501 8.89058 13.3501 8.00901C13.3501 5.184 11.0928 2.65 7.98809 2.65ZM1.3501 7.99098C1.3501 4.45 4.20591 1.35 7.98809 1.35C11.8553 1.35 14.6501 4.51133 14.6501 8.00901C14.6501 9.14246 14.321 10.2873 13.7612 11.3173C13.7602 11.3191 13.7592 11.3209 13.7582 11.3227C13.7589 11.3253 13.7597 11.3284 13.761 11.3319C13.7645 11.3419 13.7678 11.3521 13.7709 11.3623L14.1766 12.7206C14.2829 13.104 14.1786 13.501 13.8931 13.7641C13.6165 14.019 13.2278 14.0949 12.8692 13.9844L11.661 13.6256L11.6435 13.6202C11.6256 13.6143 11.6177 13.6143 11.6155 13.6144C11.6124 13.6144 11.6025 13.6147 11.581 13.6214C11.5246 13.6387 11.4473 13.6781 11.2908 13.7736L11.2821 13.7789C10.2962 14.3598 9.08815 14.65 8.00009 14.65C4.71656 14.65 1.3501 12.1069 1.3501 7.99098Z" clip-rule="evenodd"/></svg>