<svg xmlns="http://www.w3.org/2000/svg" width="24" height="24" viewBox="0 0 24 24"><path fill-rule="evenodd" d="M8.09892 6.04757C8.09892 3.9091 9.85461 2.18822 11.979 2.18822C14.1265 2.18822 15.9012 3.92779 15.9012 6.08934V12C15.9012 12.4418 15.543 12.8 15.1012 12.8C14.6593 12.8 14.3012 12.4418 14.3012 12V6.08934C14.3012 4.82548 13.2569 3.78822 11.979 3.78822C10.7242 3.78822 9.69892 4.80678 9.69892 6.04757C9.69892 6.4894 9.34075 6.84757 8.89892 6.84757C8.4571 6.84757 8.09892 6.4894 8.09892 6.04757ZM8.15206 10.2127L4.46967 6.53033C4.17678 6.23743 4.17678 5.76256 4.46967 5.46967C4.76256 5.17677 5.23744 5.17677 5.53033 5.46967L18.0303 17.9697C18.3232 18.2626 18.3232 18.7374 18.0303 19.0303C17.7374 19.3232 17.2626 19.3232 16.9697 19.0303L16.1075 18.1682C15.1163 18.7879 13.9737 19.1832 12.75 19.2832V21C12.75 21.4142 12.4142 21.75 12 21.75C11.5858 21.75 11.25 21.4142 11.25 21V19.2664C7.35882 18.8618 4.325 15.5722 4.325 11.574C4.325 11.1321 4.68317 10.774 5.125 10.774C5.56683 10.774 5.925 11.1321 5.925 11.574C5.925 14.9618 8.6714 17.7082 12.0593 17.7082C12.0718 17.7082 12.0843 17.7085 12.0967 17.7091C12.1091 17.7085 12.1215 17.7082 12.1341 17.7082C13.1474 17.7082 14.1011 17.452 14.9381 16.9987L13.6184 15.6791C13.5967 15.6909 13.5742 15.7018 13.5511 15.7117C13.0802 15.9138 12.5622 16.0256 12.0211 16.0256C9.87359 16.0256 8.09892 14.2861 8.09892 12.1245V10.5C8.09892 10.3987 8.11774 10.3019 8.15206 10.2127ZM12.3425 14.4031C12.2375 14.418 12.1302 14.4256 12.0211 14.4256C10.7431 14.4256 9.69892 13.3884 9.69892 12.1245V11.7596L12.3425 14.4031ZM18.9341 10.774C18.4923 10.774 18.1341 11.1321 18.1341 11.574C18.1341 12.7113 17.8321 13.7734 17.307 14.6841C17.0863 15.0668 17.2176 15.556 17.6004 15.7767C17.9831 15.9974 18.4723 15.8661 18.693 15.4833C19.3552 14.335 19.7341 12.998 19.7341 11.574C19.7341 11.1321 19.3759 10.774 18.9341 10.774Z" clip-rule="evenodd"/></svg>