<svg xmlns="http://www.w3.org/2000/svg" width="24" height="24" viewBox="0 0 24 24"><path fill-rule="evenodd" d="M6.80003 2.4C6.3582 2.4 6.00003 2.75817 6.00003 3.2C6.00003 3.64183 6.3582 4 6.80003 4H17.2C17.6419 4 18 3.64183 18 3.2C18 2.75817 17.6419 2.4 17.2 2.4H6.80003ZM4.60003 6.29998C4.60003 5.85815 4.9582 5.49998 5.40003 5.49998H18.6C19.0419 5.49998 19.4 5.85815 19.4 6.29998C19.4 6.7418 19.0419 7.09998 18.6 7.09998H5.40003C4.9582 7.09998 4.60003 6.7418 4.60003 6.29998ZM3.30246 10.5629C3.20663 9.50881 4.03661 8.59995 5.09507 8.59995H18.905C19.9635 8.59995 20.7934 9.50881 20.6976 10.5629L19.8794 19.5629C19.7951 20.4901 19.0178 21.2 18.0868 21.2H5.91325C4.98228 21.2 4.20493 20.4901 4.12064 19.5629L3.30246 10.5629ZM5.09507 10.2C4.97746 10.2 4.88524 10.3009 4.89589 10.4181L5.71407 19.4181C5.72344 19.5211 5.80981 19.6 5.91325 19.6H18.0868C18.1903 19.6 18.2766 19.5211 18.286 19.4181L19.1042 10.4181C19.1148 10.3009 19.0226 10.2 18.905 10.2H5.09507Z" clip-rule="evenodd"/></svg>