<svg xmlns="http://www.w3.org/2000/svg" width="24" height="24" viewBox="0 0 24 24"><path fill-rule="evenodd" d="M6.25 3.66C6.25 3.15742 6.65742 2.75 7.16 2.75H16.84C17.3426 2.75 17.75 3.15742 17.75 3.66V20.34C17.75 20.8426 17.3426 21.25 16.84 21.25H7.16C6.65742 21.25 6.25 20.8426 6.25 20.34V3.66ZM7.16 1.25C5.82899 1.25 4.75 2.32899 4.75 3.66V20.34C4.75 21.671 5.82899 22.75 7.16 22.75H16.84C18.171 22.75 19.25 21.671 19.25 20.34V3.66C19.25 2.32899 18.171 1.25 16.84 1.25H7.16ZM11.5 3.44998C10.5887 3.44998 9.85 4.18871 9.85 5.09998V5.84998C9.85 6.76125 10.5887 7.49998 11.5 7.49998H12.7001V8.59998C12.7001 8.79328 12.5434 8.94998 12.3501 8.94998H11.5C11.141 8.94998 10.85 9.24099 10.85 9.59998C10.85 9.95896 11.141 10.25 11.5 10.25H12.3501C13.2614 10.25 14.0001 9.51125 14.0001 8.59998V6.84998V5.09998C14.0001 4.18871 13.2614 3.44998 12.3501 3.44998H11.5ZM12.7001 5.09998V6.19998H11.5C11.3067 6.19998 11.15 6.04328 11.15 5.84998V5.09998C11.15 4.90668 11.3067 4.74998 11.5 4.74998H12.3501C12.5434 4.74998 12.7001 4.90668 12.7001 5.09998ZM12.1 15.4C12.1 14.4888 12.8387 13.75 13.75 13.75H14.75C15.109 13.75 15.4 14.041 15.4 14.4C15.4 14.759 15.109 15.05 14.75 15.05H13.75C13.5567 15.05 13.4 15.2067 13.4 15.4V16.5H14.25C15.1613 16.5 15.9 17.2388 15.9 18.15V18.9C15.9 19.8113 15.1613 20.55 14.25 20.55H13.75C12.8387 20.55 12.1 19.8113 12.1 18.9V17.15V15.4ZM13.4 17.8V18.9C13.4 19.0933 13.5567 19.25 13.75 19.25H14.25C14.4433 19.25 14.6 19.0933 14.6 18.9V18.15C14.6 17.9567 14.4433 17.8 14.25 17.8H13.4ZM8.75 13.75C8.39102 13.75 8.1 14.041 8.1 14.4C8.1 14.759 8.39102 15.05 8.75 15.05H9.25C9.4433 15.05 9.6 15.2067 9.6 15.4V17.15V19.9C9.6 20.259 9.89102 20.55 10.25 20.55C10.609 20.55 10.9 20.259 10.9 19.9V17.15V15.4C10.9 14.4888 10.1613 13.75 9.25 13.75H8.75ZM13.5 11.05C13.859 11.05 14.15 11.341 14.15 11.7V12.2C14.15 12.5589 13.859 12.85 13.5 12.85C13.141 12.85 12.85 12.5589 12.85 12.2V11.7C12.85 11.341 13.141 11.05 13.5 11.05ZM11.15 11.7C11.15 11.341 10.859 11.05 10.5 11.05C10.141 11.05 9.85 11.341 9.85 11.7V12.2C9.85 12.5589 10.141 12.85 10.5 12.85C10.859 12.85 11.15 12.5589 11.15 12.2V11.7Z" clip-rule="evenodd"/></svg>