<svg xmlns="http://www.w3.org/2000/svg" width="24" height="24" viewBox="0 0 24 24"><path fill-rule="evenodd" d="M5.32718 18.8832C4.15364 17.7096 4.15364 15.8069 5.32718 14.6334L7.93482 12.0257C8.22771 11.7329 8.22771 11.258 7.93482 10.9651C7.64193 10.6722 7.16705 10.6722 6.87416 10.9651L4.26652 13.5727C2.50719 15.3321 2.50719 18.1845 4.26652 19.9438C6.02585 21.7032 8.87829 21.7032 10.6376 19.9438L13.2453 17.3362C13.5382 17.0433 13.5382 16.5684 13.2453 16.2755C12.9524 15.9826 12.4775 15.9826 12.1846 16.2755L9.57696 18.8832C8.40342 20.0567 6.50073 20.0567 5.32718 18.8832ZM10.7551 7.08419C10.4622 7.37708 10.4622 7.85195 10.7551 8.14485C11.048 8.43774 11.5228 8.43774 11.8157 8.14485L14.4804 5.48013C15.654 4.30659 17.5567 4.30659 18.7302 5.48014C19.9038 6.65368 19.9038 8.55637 18.7302 9.72992L16.0655 12.3946C15.7726 12.6875 15.7726 13.1624 16.0655 13.4553C16.3584 13.7482 16.8333 13.7482 17.1262 13.4553L19.7909 10.7906C21.5502 9.03125 21.5502 6.17881 19.7909 4.41948C18.0315 2.66014 15.1791 2.66014 13.4198 4.41947L10.7551 7.08419ZM16.0782 9.20072C16.3711 8.90782 16.3711 8.43295 16.0782 8.14006C15.7853 7.84716 15.3104 7.84716 15.0175 8.14006L7.94648 15.2111C7.65359 15.504 7.65359 15.9789 7.94648 16.2718C8.23937 16.5647 8.71425 16.5647 9.00714 16.2718L16.0782 9.20072Z" clip-rule="evenodd"/></svg>