<svg xmlns="http://www.w3.org/2000/svg" width="24" height="24" viewBox="0 0 24 24"><path d="M13.3732 10.8559L12.7847 12.9236H10.7658L11.3544 10.8559H13.3732Z"/><path fill-rule="evenodd" d="M21.25 12C21.25 6.89137 17.1086 2.75 12 2.75C6.89137 2.75 2.75 6.89137 2.75 12C2.75 13.8098 3.27026 15.4995 4.16946 16.9261L3.36915 19.5135C3.13155 20.2817 3.85179 21.002 4.61999 20.7644L7.26332 19.9468C8.64912 20.7745 10.2697 21.25 12 21.25C17.1086 21.25 21.25 17.1086 21.25 12ZM11.4856 7.32236C11.9324 7.44955 12.1915 7.91488 12.0643 8.3617L11.8333 9.17355H13.8521L14.2143 7.90111C14.3415 7.45428 14.8069 7.19516 15.2537 7.32236C15.7005 7.44955 15.9596 7.91488 15.8325 8.3617L15.6014 9.17355H16.0218C16.4864 9.17355 16.863 9.55017 16.863 10.0147C16.863 10.4793 16.4864 10.8559 16.0218 10.8559H15.1225L14.5339 12.9236H15.4856C15.9502 12.9236 16.3268 13.3002 16.3268 13.7647C16.3268 14.2293 15.9502 14.6059 15.4856 14.6059H14.055L13.6299 16.0995C13.5027 16.5463 13.0373 16.8054 12.5905 16.6782C12.1437 16.551 11.8846 16.0857 12.0118 15.6389L12.3058 14.6059H10.2869L9.86176 16.0995C9.73457 16.5463 9.26924 16.8054 8.82242 16.6782C8.37559 16.551 8.11647 16.0857 8.24366 15.6389L8.53769 14.6059H7.9812C7.51663 14.6059 7.14001 14.2293 7.14001 13.7647C7.14001 13.3002 7.51663 12.9236 7.9812 12.9236H9.01659L9.60514 10.8559H8.51734C8.05276 10.8559 7.67615 10.4793 7.67615 10.0147C7.67615 9.55017 8.05276 9.17355 8.51734 9.17355H10.084L10.4462 7.90111C10.5734 7.45428 11.0388 7.19516 11.4856 7.32236Z" clip-rule="evenodd"/></svg>