<svg xmlns="http://www.w3.org/2000/svg" width="24" height="24" viewBox="0 0 24 24"><path d="M12 7.75C12.4142 7.75 12.75 8.08579 12.75 8.5V11.25L15.5 11.2501C15.9142 11.2501 16.25 11.5859 16.25 12.0001C16.25 12.4143 15.9142 12.7501 15.5 12.7501L12.75 12.75V15.5C12.75 15.9142 12.4142 16.25 12 16.25C11.5858 16.25 11.25 15.9142 11.25 15.5V12.75L8.5 12.75C8.08578 12.75 7.75 12.4142 7.75 12C7.75 11.5858 8.08579 11.25 8.50001 11.25L11.25 11.25V8.5C11.25 8.08579 11.5858 7.75 12 7.75Z"/><path fill-rule="evenodd" d="M12 2.5C6.75329 2.5 2.5 6.75329 2.5 12C2.5 17.2467 6.75329 21.5 12 21.5C13.7367 21.5 15.3664 21.0333 16.7684 20.2183L19.3061 21.0032C20.2664 21.3002 21.1667 20.3999 20.8697 19.4397L20.1031 16.9612C20.9891 15.5168 21.5 13.8171 21.5 12C21.5 6.75329 17.2467 2.5 12 2.5ZM4 12C4 7.58172 7.58172 4 12 4C16.4183 4 20 7.58172 20 12C20 13.6414 19.5065 15.1653 18.6599 16.4341C18.5345 16.6219 18.5005 16.8562 18.5672 17.072L19.2966 19.4301L16.8896 18.6857C16.6801 18.6208 16.4527 18.651 16.2673 18.7682C15.0328 19.5483 13.5703 20 12 20C7.58172 20 4 16.4183 4 12Z" clip-rule="evenodd"/></svg>