<svg xmlns="http://www.w3.org/2000/svg" width="24" height="24" viewBox="0 0 24 24"><path fill-rule="evenodd" d="M12.0002 2.18822C9.84571 2.18822 8.09912 3.93481 8.09912 6.08934V12.1245C8.09912 14.2791 9.84571 16.0256 12.0002 16.0256C14.1548 16.0256 15.9014 14.2791 15.9014 12.1245V6.08934C15.9014 3.93481 14.1548 2.18822 12.0002 2.18822ZM9.69912 6.08934C9.69912 4.81846 10.7294 3.78822 12.0002 3.78822C13.2711 3.78822 14.3014 4.81846 14.3014 6.08934V12.1245C14.3014 13.3954 13.2711 14.4256 12.0002 14.4256C10.7294 14.4256 9.69912 13.3954 9.69912 12.1245V6.08934ZM12.7502 19.2833V21C12.7502 21.4142 12.4144 21.75 12.0002 21.75C11.586 21.75 11.2502 21.4142 11.2502 21V19.2664C7.35902 18.8618 4.3252 15.5722 4.3252 11.574C4.3252 11.1321 4.68337 10.774 5.1252 10.774C5.56702 10.774 5.9252 11.1321 5.9252 11.574C5.9252 14.9618 8.6716 17.7082 12.0595 17.7082C12.072 17.7082 12.0845 17.7085 12.0969 17.7091C12.1093 17.7085 12.1217 17.7082 12.1343 17.7082C15.4333 17.7082 18.1343 14.9767 18.1343 11.574C18.1343 11.1321 18.4924 10.774 18.9343 10.774C19.3761 10.774 19.7343 11.1321 19.7343 11.574C19.7343 15.6211 16.6718 18.9639 12.7502 19.2833Z" clip-rule="evenodd"/></svg>