<svg xmlns="http://www.w3.org/2000/svg" width="24" height="24" viewBox="0 0 24 24"><path fill-rule="evenodd" d="M4.41537 5.63232C3.91003 5.63232 3.50037 6.04198 3.50037 6.54732V17.0662C3.50037 17.5716 3.91003 17.9812 4.41537 17.9812H12.8276C13.2418 17.9812 13.5776 18.317 13.5776 18.7312C13.5776 19.1455 13.2418 19.4812 12.8276 19.4812H4.41537C3.0816 19.4812 2.00037 18.4 2.00037 17.0662V6.54732C2.00037 5.21355 3.0816 4.13232 4.41537 4.13232H8.49604C9.21149 4.13232 9.8901 4.44954 10.349 4.99847L11.4383 6.30166C11.6121 6.50964 11.8693 6.62982 12.1403 6.62982H18.5679C19.9016 6.62982 20.9829 7.71106 20.9829 9.04482V10.999C20.9829 11.4132 20.6471 11.749 20.2329 11.749C19.8187 11.749 19.4829 11.4132 19.4829 10.999V9.04482C19.4829 8.53948 19.0732 8.12982 18.5679 8.12982H12.1403C11.4249 8.12982 10.7463 7.8126 10.2874 7.26368L9.19808 5.96049C9.02423 5.75251 8.76711 5.63232 8.49604 5.63232H4.41537Z" clip-rule="evenodd"/><path d="M16.2999 16.0388C15.8857 16.0388 15.5499 16.3746 15.5499 16.7888C15.5499 17.203 15.8857 17.5388 16.2999 17.5388H18.4V19.6388C18.4 20.053 18.7358 20.3888 19.15 20.3888C19.5642 20.3888 19.9 20.053 19.9 19.6388V17.5388H21.9999C22.4142 17.5388 22.7499 17.203 22.7499 16.7888C22.7499 16.3746 22.4142 16.0388 21.9999 16.0388H19.9V13.9388C19.9 13.5246 19.5642 13.1888 19.15 13.1888C18.7358 13.1888 18.4 13.5246 18.4 13.9388V16.0388H16.2999Z"/></svg>