<svg xmlns="http://www.w3.org/2000/svg" width="24" height="24" viewBox="0 0 24 24"><path fill-rule="evenodd" d="M8.6 4.5C8.26863 4.5 8 4.76863 8 5.1V6.25H16V5.1C16 4.76863 15.7314 4.5 15.4 4.5H8.6ZM6.5 5.1V6.25H3C2.58579 6.25 2.25 6.58579 2.25 7C2.25 7.41421 2.58579 7.75 3 7.75H21C21.4142 7.75 21.75 7.41421 21.75 7C21.75 6.58579 21.4142 6.25 21 6.25H17.5V5.1C17.5 3.9402 16.5598 3 15.4 3H8.6C7.4402 3 6.5 3.9402 6.5 5.1ZM9.75 9.75C10.1642 9.75 10.5 10.0858 10.5 10.5V16.5C10.5 16.9142 10.1642 17.25 9.75 17.25C9.33579 17.25 9 16.9142 9 16.5V10.5C9 10.0858 9.33579 9.75 9.75 9.75ZM14.25 9.75C14.6642 9.75 15 10.0858 15 10.5V16.5C15 16.9142 14.6642 17.25 14.25 17.25C13.8358 17.25 13.5 16.9142 13.5 16.5V10.5C13.5 10.0858 13.8358 9.75 14.25 9.75ZM5.75 9.75C5.75 9.33579 5.41421 9 5 9C4.58579 9 4.25 9.33579 4.25 9.75V19.15C4.25 20.3098 5.1902 21.25 6.35 21.25H17.65C18.8098 21.25 19.75 20.3098 19.75 19.15V9.75C19.75 9.33579 19.4142 9 19 9C18.5858 9 18.25 9.33579 18.25 9.75V19.15C18.25 19.4814 17.9814 19.75 17.65 19.75H6.35C6.01863 19.75 5.75 19.4814 5.75 19.15V9.75Z" clip-rule="evenodd"/></svg>