<svg xmlns="http://www.w3.org/2000/svg" width="24" height="24" viewBox="0 0 24 24"><path fill-rule="evenodd" d="M3 11.65C3 12.6481 3.62226 13.5009 4.5 13.8416V18.65C4.5 19.9479 5.55213 21 6.85 21H17.15C18.4479 21 19.5 19.9479 19.5 18.65V13.8416C20.3777 13.5009 21 12.6481 21 11.65V9.85C21 8.55213 19.9479 7.5 18.65 7.5H16V5.35C16 4.05213 14.9479 3 13.65 3H10.35C9.05213 3 8 4.05213 8 5.35V7.5H5.35C4.05213 7.5 3 8.55213 3 9.85V11.65ZM10.35 4.5C9.88056 4.5 9.5 4.88056 9.5 5.35V7.65C9.5 8.39558 8.89558 9 8.15 9H5.35C4.88056 9 4.5 9.38056 4.5 9.85V11.65C4.5 12.1194 4.88056 12.5 5.35 12.5H18.65C19.1194 12.5 19.5 12.1194 19.5 11.65V9.85C19.5 9.38056 19.1194 9 18.65 9H15.85C15.1044 9 14.5 8.39558 14.5 7.65V5.35C14.5 4.88056 14.1194 4.5 13.65 4.5H10.35ZM6 18.65V14H18V18.65C18 19.1194 17.6194 19.5 17.15 19.5H14.75V16C14.75 15.5858 14.4142 15.25 14 15.25C13.5858 15.25 13.25 15.5858 13.25 16V19.5H6.85C6.38056 19.5 6 19.1194 6 18.65Z" clip-rule="evenodd"/></svg>