<svg xmlns="http://www.w3.org/2000/svg" width="24" height="24" viewBox="0 0 24 24"><path fill-rule="evenodd" d="M12.0041 4.93363C13.0191 3.99031 14.4876 3.31592 15.9841 3.31592C19.4637 3.31592 22.5143 6.58144 22.1342 10.9298C22.0245 12.1837 21.4477 13.4791 20.6758 14.6834C19.8976 15.8975 18.8854 17.0746 17.8312 18.102C16.7769 19.1297 15.6631 20.0246 14.6697 20.6682C14.1735 20.9897 13.6954 21.2562 13.2607 21.445C12.8417 21.6268 12.3983 21.7654 11.9915 21.7654C11.586 21.7654 11.1437 21.6284 10.725 21.4479C10.2908 21.2606 9.81348 20.996 9.31806 20.6766C8.32637 20.0371 7.21477 19.147 6.16242 18.1224C5.11029 17.098 4.0999 15.922 3.32286 14.7049C2.55164 13.4968 1.97645 12.1955 1.86568 10.9299C1.4851 6.58144 4.53614 3.31593 8.01567 3.31593C9.49989 3.31593 10.9991 3.98865 12.0041 4.93363ZM15.9841 4.81592C14.6588 4.81592 13.3004 5.5754 12.5938 6.50529C12.4499 6.69459 12.2248 6.80446 11.9871 6.80143C11.7494 6.79841 11.5271 6.68285 11.3881 6.48996C10.7415 5.59259 9.34957 4.81593 8.01567 4.81593C5.52736 4.81593 3.04608 7.21264 3.35997 10.7991C3.44118 11.7269 3.8808 12.7912 4.58719 13.8977C5.28777 14.9951 6.2178 16.0827 7.20884 17.0477C8.19966 18.0124 9.234 18.8376 10.131 19.4159C10.5799 19.7054 10.9825 19.9254 11.319 20.0705C11.671 20.2223 11.8901 20.2654 11.9915 20.2654C12.0918 20.2654 12.3104 20.2222 12.6633 20.069C13.0004 19.9227 13.404 19.7009 13.8541 19.4093C14.7534 18.8266 15.7906 17.9963 16.7843 17.0279C17.7782 16.0592 18.7108 14.9695 19.4129 13.874C20.1213 12.7687 20.5601 11.7119 20.6399 10.7992C20.9534 7.21253 18.4723 4.81592 15.9841 4.81592Z" clip-rule="evenodd"/></svg>