<svg xmlns="http://www.w3.org/2000/svg" width="24" height="24" viewBox="0 0 24 24"><path fill-rule="evenodd" d="M12 2.5C8.96176 2.5 6.5 4.96175 6.5 8.00001C6.5 11.0382 8.96176 13.5001 12 13.5001C15.0383 13.5001 17.5 11.0382 17.5 8.00001C17.5 4.96175 15.0383 2.5 12 2.5ZM7.22389 14.632C7.90358 14.3379 8.67788 14.2819 9.72499 14.4264C11.236 14.635 12.764 14.635 14.275 14.4264C15.3221 14.2819 16.0964 14.3379 16.7761 14.632C17.432 14.9159 17.9312 15.3978 18.4523 15.9027C19.9883 17.3908 20.8883 19.2721 21.1008 20.8134C21.2079 21.5901 20.5649 22.15 19.9 22.15H4.09999C3.43506 22.15 2.79212 21.5901 2.8992 20.8134C3.11171 19.2721 4.01173 17.3908 5.54771 15.9027C6.06884 15.3978 6.56796 14.9159 7.22389 14.632Z" clip-rule="evenodd"/></svg>