<svg xmlns="http://www.w3.org/2000/svg" width="24" height="24" viewBox="0 0 24 24"><path fill-rule="evenodd" d="M9.91736 2.85784C8.84625 2.85784 7.90479 3.56762 7.61003 4.59737L7.56517 4.75408L7.40455 5.24582C7.26736 5.66581 7.49662 6.11749 7.91661 6.25468C8.3366 6.39186 8.78828 6.16261 8.92547 5.74261L9.09068 5.23684C9.09373 5.22748 9.09662 5.21806 9.09933 5.20859L9.14825 5.03769C9.2465 4.69443 9.56032 4.45784 9.91736 4.45784H16.2054L13.1208 9.75205C12.9766 9.99949 12.9757 10.3051 13.1184 10.5534C13.2611 10.8017 13.5256 10.9548 13.812 10.9548H17.7798L16.3584 12.4575L16.0211 12.8141C15.7175 13.1351 15.7316 13.6414 16.0526 13.945C16.3736 14.2486 16.8799 14.2345 17.1835 13.9135L17.5208 13.557L19.2614 11.7168C20.1056 10.8243 19.4728 9.35478 18.2443 9.35478H15.204L17.763 4.96263C18.3068 4.0293 17.6335 2.85784 16.5533 2.85784H9.91736ZM7.77488 9.83554L6.72519 13.5026H10.134C10.3707 13.5026 10.5952 13.6074 10.7472 13.7887C10.8992 13.9701 10.9631 14.2094 10.9217 14.4424L10.0998 19.0742L13.4605 15.5212L7.77488 9.83554ZM14.5923 16.653L10.8033 20.6589C9.84842 21.6684 8.16493 20.8204 8.40772 19.4522L9.17958 15.1026H6.45991C5.52949 15.1026 4.85792 14.2118 5.11396 13.3173L6.41847 8.76007C6.43862 8.68968 6.46759 8.62421 6.50384 8.5645L4.46967 6.53033C4.17678 6.23743 4.17678 5.76256 4.46967 5.46967C4.76256 5.17677 5.23744 5.17677 5.53033 5.46967L18.0303 17.9697C18.3232 18.2626 18.3232 18.7374 18.0303 19.0303C17.7374 19.3232 17.2626 19.3232 16.9697 19.0303L14.5923 16.653Z" clip-rule="evenodd"/></svg>