<svg xmlns="http://www.w3.org/2000/svg" width="24" height="24" viewBox="0 0 24 24"><path fill-rule="evenodd" d="M13.8634 3.2098C13.8711 3.14093 13.8751 3.07092 13.8751 3C13.8751 1.96447 13.0356 1.125 12.0001 1.125C10.9645 1.125 10.1251 1.96447 10.1251 3C10.1251 3.07098 10.129 3.14103 10.1367 3.20996L5.31846 5.99176C5.26289 5.9509 5.2045 5.91269 5.14338 5.8774C4.24658 5.35964 3.09985 5.6669 2.58208 6.5637C2.06431 7.4605 2.37158 8.60723 3.26838 9.125C3.32987 9.1605 3.39254 9.19213 3.4561 9.21995L3.45611 14.7825C3.39254 14.8103 3.32987 14.8419 3.26838 14.8774C2.37158 15.3952 2.06431 16.5419 2.58208 17.4387C3.09985 18.3355 4.24658 18.6428 5.14338 18.125C5.20513 18.0893 5.26408 18.0507 5.32016 18.0094L10.1367 20.7902C10.129 20.8591 10.1251 20.9291 10.1251 21C10.1251 22.0355 10.9645 22.875 12.0001 22.875C13.0356 22.875 13.8751 22.0355 13.8751 21C13.8751 20.9291 13.8711 20.8591 13.8635 20.7903L18.6819 18.0084C18.7374 18.0492 18.7957 18.0874 18.8567 18.1226C19.7535 18.6404 20.9003 18.3331 21.418 17.4363C21.9358 16.5395 21.6285 15.3928 20.7317 14.875C20.6704 14.8396 20.6079 14.808 20.5445 14.7803V9.21733C20.6079 9.18956 20.6704 9.15801 20.7317 9.1226C21.6285 8.60483 21.9358 7.4581 21.418 6.5613C20.9003 5.6645 19.7535 5.35723 18.8567 5.875C18.795 5.91065 18.736 5.94928 18.6799 5.99061L13.8634 3.2098ZM17.9307 7.29011L13.1134 4.50882C13.0013 4.59168 12.8796 4.66235 12.7503 4.71886L12.7503 9.48379C13.1495 9.60263 13.5088 9.81387 13.8036 10.0927L17.9307 7.70993C17.9148 7.5696 17.9151 7.42876 17.9307 7.29011ZM18.6816 9.00857L14.5542 11.3915C14.6005 11.5868 14.6251 11.7905 14.6251 12C14.6251 12.2095 14.6005 12.4132 14.5542 12.6085L18.6797 14.9904C18.7937 14.9063 18.9162 14.8359 19.0445 14.7801V9.21751C18.9169 9.16196 18.795 9.09207 18.6816 9.00857ZM17.931 16.7098C17.9152 16.5711 17.9148 16.4302 17.9304 16.2898L13.8037 13.9072C13.5089 14.1861 13.1495 14.3974 12.7503 14.5162L12.7503 19.2811C12.8796 19.3376 13.0013 19.4083 13.1135 19.4912L17.931 16.7098ZM11.2501 19.281V14.5163C10.8508 14.3975 10.4914 14.1863 10.1966 13.9074L6.06945 16.2902C6.08526 16.4305 6.08499 16.5713 6.06935 16.7099L10.8867 19.4912C10.9989 19.4083 11.1207 19.3375 11.2501 19.281ZM4.9561 14.7827C5.08358 14.8382 5.20531 14.9081 5.31863 14.9915L9.44596 12.6086C9.39959 12.4133 9.37505 12.2095 9.37505 12C9.37505 11.7905 9.3996 11.5866 9.44599 11.3913L5.32057 9.00947C5.2067 9.09353 5.08431 9.16385 4.9561 9.2197L4.9561 14.7827ZM6.0697 7.70992L10.1966 10.0926C10.4914 9.81375 10.8508 9.60252 11.2501 9.4837V4.71898C11.1207 4.66247 10.999 4.5918 10.8868 4.50891L6.06911 7.29042C6.0849 7.42895 6.08533 7.56968 6.0697 7.70992Z" clip-rule="evenodd"/></svg>