<svg xmlns="http://www.w3.org/2000/svg" width="24" height="24" viewBox="0 0 24 24"><g><g><path fill-rule="evenodd" d="M4.03033 3.46967C3.73744 3.17678 3.26256 3.17678 2.96967 3.46967C2.67678 3.76256 2.67678 4.23744 2.96967 4.53033L5.68935 7.25001H4.75C3.50736 7.25001 2.5 8.25737 2.5 9.50001V14.5C2.5 15.7427 3.50736 16.75 4.75 16.75H7.62868C7.82759 16.75 8.01836 16.829 8.15901 16.9697L11.159 19.9697C12.5764 21.3871 15 20.3832 15 18.3787V16.5607L18.9697 20.5303C19.2626 20.8232 19.7374 20.8232 20.0303 20.5303C20.3232 20.2374 20.3232 19.7626 20.0303 19.4697L4.03033 3.46967ZM13.5 15.0607L7.18935 8.75001H4.75C4.33579 8.75001 4 9.0858 4 9.50001V14.5C4 14.9142 4.33579 15.25 4.75 15.25H7.62868C8.22542 15.25 8.79771 15.4871 9.21967 15.909L12.2197 18.909C12.6921 19.3815 13.5 19.0469 13.5 18.3787V15.0607Z" clip-rule="evenodd"/><path d="M13.5 10.9394V5.62133C13.5 4.95315 12.6921 4.61853 12.2197 5.091L9.93566 7.37501L8.875 6.31435L11.159 4.03034C12.5764 2.61292 15 3.6168 15 5.62133V12.4394L13.5 10.9394Z"/><path d="M18.5974 16.0367L19.8103 17.2497C20.2125 16.6897 20.5499 16.0841 20.8149 15.4442C21.2672 14.3522 21.5 13.1819 21.5 12C21.5 10.8181 21.2672 9.64779 20.8149 8.55586C20.4705 7.72428 20.0038 6.95057 19.4318 6.25975C19.1346 5.90085 18.5968 5.90317 18.2673 6.23267C17.9378 6.56218 17.9423 7.09373 18.2316 7.45898C18.6512 7.98859 18.9963 8.57489 19.2559 9.20164C19.6234 10.0888 19.8125 11.0397 19.8125 12C19.8125 12.9603 19.6234 13.9112 19.2559 14.7984C19.0761 15.2324 18.8554 15.6469 18.5974 16.0367Z"/></g></g></svg>