<svg xmlns="http://www.w3.org/2000/svg" width="24" height="24" viewBox="0 0 24 24"><g><g><path fill-rule="evenodd" d="M12 20.5C16.6944 20.5 20.5 16.6944 20.5 12C20.5 7.30558 16.6944 3.5 12 3.5C7.30558 3.5 3.5 7.30558 3.5 12C3.5 16.6944 7.30558 20.5 12 20.5ZM12 22C17.5228 22 22 17.5228 22 12C22 6.47715 17.5228 2 12 2C6.47715 2 2 6.47715 2 12C2 17.5228 6.47715 22 12 22Z" clip-rule="evenodd"/><path fill-rule="evenodd" d="M12 7.25C12.4142 7.25 12.75 7.58579 12.75 8V16C12.75 16.4142 12.4142 16.75 12 16.75C11.5858 16.75 11.25 16.4142 11.25 16V8C11.25 7.58579 11.5858 7.25 12 7.25Z" clip-rule="evenodd"/><path fill-rule="evenodd" d="M7.24999 12C7.25 11.5858 7.58579 11.25 8 11.25L16 11.2501C16.4142 11.2501 16.75 11.5859 16.75 12.0001C16.75 12.4143 16.4142 12.7501 16 12.7501L7.99999 12.75C7.58578 12.75 7.24999 12.4142 7.24999 12Z" clip-rule="evenodd"/></g></g></svg>