<svg xmlns="http://www.w3.org/2000/svg" width="24" height="24" viewBox="0 0 24 24"><g><path fill-rule="evenodd" d="M12.6507 12.277L12.5672 2.99341C12.5635 2.57913 12.2248 2.24631 11.8107 2.25003C11.3966 2.25376 11.0639 2.59262 11.0676 3.0069L11.1504 12.2208L8.99752 9.9682C8.71132 9.66876 8.23645 9.65789 7.93686 9.94393C7.63727 10.23 7.62642 10.7046 7.91261 11.004L11.3449 14.5952C11.4581 14.7136 11.6007 14.7868 11.7503 14.8145C11.9834 14.8584 12.2335 14.7912 12.4155 14.6122L15.9895 11.0972C16.2848 10.8067 16.2887 10.3318 15.9983 10.0365C15.7079 9.74116 15.2331 9.73719 14.9377 10.0276L12.6507 12.277ZM20.3047 10.9779C20.3047 11.3921 20.6405 11.7279 21.0547 11.7279C21.4689 11.7279 21.8047 11.3921 21.8047 10.9779V7.38919C21.8047 6.09698 20.6431 5.21363 19.4264 5.21334H19.4258L16.0401 5.21068C15.6259 5.21035 15.2898 5.54588 15.2895 5.96009C15.2892 6.3743 15.6247 6.71035 16.0389 6.71068L19.4252 6.71334H19.4258C20.0081 6.71334 20.3047 7.10658 20.3047 7.38919V10.9779ZM4.4808 5.21081C3.27574 5.21081 2.25 6.1585 2.25 7.38666V18.5805C2.25 19.8087 3.27576 20.7564 4.4808 20.7564H11.0243C11.4385 20.7564 11.7743 20.4206 11.7743 20.0064C11.7743 19.5922 11.4385 19.2564 11.0243 19.2564H4.4808C4.05019 19.2564 3.75 18.9273 3.75 18.5805V7.38666C3.75 7.03988 4.0502 6.71081 4.4808 6.71081H8.01518C8.42939 6.71081 8.76518 6.37502 8.76518 5.96081C8.76518 5.5466 8.42939 5.21081 8.01518 5.21081H4.4808ZM19.7995 15.0976C19.4089 14.8835 18.9605 14.7617 18.4836 14.7617C16.9692 14.7617 15.7415 15.9899 15.7415 17.5049C15.7415 17.982 15.8632 18.4306 16.0773 18.8214L19.7995 15.0976ZM20.8684 16.15L17.1293 19.8907C17.5288 20.1182 17.991 20.2481 18.4836 20.2481C19.998 20.2481 21.2257 19.0199 21.2257 17.5049C21.2257 17.0121 21.0958 16.5497 20.8684 16.15ZM22.7254 17.5049C22.7254 15.1613 20.8263 13.2614 18.4836 13.2614C16.1409 13.2614 14.2418 15.1613 14.2418 17.5049C14.2418 19.8485 16.1409 21.7484 18.4836 21.7484C20.8263 21.7484 22.7254 19.8485 22.7254 17.5049Z" clip-rule="evenodd"/></g></svg>