<svg xmlns="http://www.w3.org/2000/svg" width="24" height="24" viewBox="0 0 24 24"><path fill-rule="evenodd" d="M12.0005 2.10007C9.79135 2.10007 8.00049 3.89093 8.00049 6.10007V12.1001C8.00049 14.3092 9.79135 16.1001 12.0005 16.1001C14.2096 16.1001 16.0005 14.3092 16.0005 12.1001V6.10007C16.0005 3.89093 14.2096 2.10007 12.0005 2.10007ZM18.9888 10.7739C19.4307 10.7739 19.7888 11.1321 19.7888 11.5739C19.7888 11.6543 19.7876 11.7345 19.7852 11.8144C19.6652 15.7419 16.6172 18.9326 12.7502 19.2773V21.0001C12.7502 21.4143 12.4144 21.7501 12.0002 21.7501C11.586 21.7501 11.2502 21.4143 11.2502 21.0001V19.2668C7.37291 18.8662 4.34566 15.6012 4.32047 11.6239L4.32031 11.5739C4.32031 11.1321 4.67848 10.7739 5.12031 10.7739C5.56214 10.7739 5.92031 11.1321 5.92031 11.5739L5.92049 11.6211C5.94586 14.9872 8.68247 17.7082 12.0546 17.7082C15.3763 17.7082 18.0813 15.068 18.1857 11.7717C18.1878 11.706 18.1888 11.6401 18.1888 11.5739C18.1888 11.1321 18.547 10.7739 18.9888 10.7739Z" clip-rule="evenodd"/></svg>