<svg xmlns="http://www.w3.org/2000/svg" width="24" height="24" viewBox="0 0 24 24"><path fill-rule="evenodd" d="M7.09231 3.87012C6.57923 3.87012 6.14504 4.24912 6.07572 4.75748L4.13826 18.9655C4.05425 19.5815 4.53312 20.1301 5.15485 20.1301H18.8456C19.4673 20.1301 19.9462 19.5815 19.8622 18.9655L17.9248 4.75748C17.8555 4.24914 17.4213 3.87012 16.9081 3.87012H7.09231ZM4.58948 4.55481C4.76014 3.30321 5.82913 2.37012 7.09231 2.37012H16.9081C18.1713 2.37012 19.2404 3.30319 19.411 4.55481L21.3484 18.7628C21.5552 20.2795 20.3763 21.6301 18.8456 21.6301H5.15485C3.62411 21.6301 2.4452 20.2795 2.65202 18.7628L4.58948 4.55481Z" clip-rule="evenodd"/><path fill-rule="evenodd" d="M8.771 5.59912C9.18521 5.59912 9.521 5.93491 9.521 6.34912V7.96367C9.521 9.33283 10.6309 10.4428 12.0001 10.4428C13.3693 10.4428 14.4792 9.33283 14.4792 7.96367V6.34912C14.4792 5.93491 14.815 5.59912 15.2292 5.59912C15.6434 5.59912 15.9792 5.93491 15.9792 6.34912V7.96367C15.9792 10.1613 14.1977 11.9428 12.0001 11.9428C9.80248 11.9428 8.021 10.1613 8.021 7.96367V6.34912C8.021 5.93491 8.35678 5.59912 8.771 5.59912Z" clip-rule="evenodd"/></svg>