<svg xmlns="http://www.w3.org/2000/svg" width="24" height="24" viewBox="0 0 24 24"><path fill-rule="evenodd" d="M5.06222 18.7424C4.55688 18.7424 4.14722 18.3328 4.14722 17.8274L4.14722 6.17245C4.14722 5.66711 4.55688 5.25745 5.06222 5.25745L18.9372 5.25745C19.4426 5.25745 19.8522 5.66711 19.8522 6.17245V17.8274C19.8522 18.3328 19.4426 18.7424 18.9372 18.7424L5.06222 18.7424ZM2.64722 17.8274C2.64722 19.1612 3.72845 20.2424 5.06222 20.2424H18.9372C20.271 20.2424 21.3522 19.1612 21.3522 17.8274V6.17245C21.3522 4.83868 20.271 3.75745 18.9372 3.75745H5.06222C3.72845 3.75745 2.64722 4.83868 2.64722 6.17245V17.8274ZM14.3407 12.2914C14.5528 12.1527 14.5528 11.8469 14.3407 11.7082L11.0551 9.55922C10.8177 9.40395 10.4998 9.57091 10.4998 9.85084V14.1487C10.4998 14.4286 10.8177 14.5956 11.0551 14.4403L14.3407 12.2914Z" clip-rule="evenodd"/></svg>