<svg xmlns="http://www.w3.org/2000/svg" width="24" height="24" viewBox="0 0 24 24"><path fill-rule="evenodd" d="M10.7538 14.5871C10.9812 14.9868 11.111 15.4492 11.111 15.9419C11.111 17.4569 9.88337 18.6851 8.36896 18.6851C7.87642 18.6851 7.41421 18.5552 7.0147 18.3277L10.7538 14.5871ZM9.68493 13.5347C9.29429 13.3205 8.84584 13.1987 8.36896 13.1987C6.85455 13.1987 5.62687 14.4269 5.62687 15.9419C5.62687 16.419 5.74861 16.8676 5.9627 17.2584L9.68493 13.5347ZM8.36896 11.6984C10.7116 11.6984 12.6107 13.5983 12.6107 15.9419C12.6107 18.2855 10.7116 20.1854 8.36896 20.1854C6.02629 20.1854 4.12718 18.2855 4.12718 15.9419C4.12718 13.5983 6.02629 11.6984 8.36896 11.6984Z" clip-rule="evenodd"/><path fill-rule="evenodd" d="M12.5259 4C8.53463 4 5.45035 7.08787 5.11713 10.7806C5.0799 11.1932 4.7153 11.4974 4.30276 11.4602C3.89022 11.423 3.58597 11.0584 3.6232 10.6458C4.02256 6.22003 7.7189 2.5 12.5259 2.5C17.733 2.5 21.4974 6.75615 21.4974 11.4674C21.4974 12.991 21.055 14.5339 20.2987 15.9252C20.2927 15.9362 20.2865 15.947 20.28 15.9576C20.2791 15.9598 20.2659 15.9907 20.2895 16.0575C20.2936 16.0692 20.2974 16.0809 20.301 16.0928L20.8507 17.9335L20.8548 17.9477C20.9871 18.4247 20.857 18.9129 20.507 19.2354C20.1672 19.5486 19.6876 19.6436 19.2412 19.5058L17.5883 19.015L17.5683 19.0087C17.5067 18.9886 17.4653 18.9891 17.3985 19.0096C17.3027 19.039 17.1833 19.1018 16.9702 19.232L16.96 19.2382C15.8348 19.9012 14.4948 20.2814 13.2264 20.3825C12.8135 20.4155 12.452 20.1074 12.4191 19.6945C12.3862 19.2816 12.6942 18.9202 13.1071 18.8873C14.1766 18.802 15.2893 18.4803 16.1936 17.9487C16.5937 17.7042 17.2208 17.3218 18.0242 17.5797L19.292 17.9562L18.8683 16.5374C18.7244 16.1141 18.7366 15.6204 18.9883 15.1951C19.6387 13.9937 19.9974 12.7002 19.9974 11.4674C19.9974 7.53229 16.8533 4 12.5259 4Z" clip-rule="evenodd"/></svg>