<svg xmlns="http://www.w3.org/2000/svg" width="24" height="24" viewBox="0 0 24 24"><path fill-rule="evenodd" d="M13.25 3.25C13.25 2.55964 12.6904 2 12 2C11.3096 2 10.75 2.55964 10.75 3.25V10.7501L3.25001 10.75C2.55965 10.75 2 11.3096 2 12C2 12.6903 2.55964 13.25 3.24999 13.25L10.75 13.2501V20.75C10.75 21.4404 11.3096 22 12 22C12.6904 22 13.25 21.4404 13.25 20.75V13.2501L20.75 13.2501C21.4403 13.2501 22 12.6905 22 12.0001C22 11.3098 21.4404 10.7501 20.75 10.7501L13.25 10.7501V3.25Z" clip-rule="evenodd"/></svg>