<svg xmlns="http://www.w3.org/2000/svg" width="24" height="24" viewBox="0 0 24 24"><path fill-rule="evenodd" d="M14.75 5.41415C14.75 5.19143 15.0193 5.07988 15.1768 5.23738L21.7626 11.8232C21.8602 11.9208 21.8602 12.0791 21.7626 12.1767L15.1768 18.7625C15.0193 18.92 14.75 18.8085 14.75 18.5857V14.9999C14.75 14.5857 14.4142 14.2499 14 14.2499C10.353 14.2499 8.04603 14.6583 6.31911 15.4424C4.92999 16.0731 3.96093 16.93 3.01302 17.8862C3.40677 16.227 4.26311 14.3988 5.72291 12.9013C7.46944 11.1096 10.1184 9.74994 14 9.74994C14.4142 9.74994 14.75 9.41415 14.75 8.99994V5.41415ZM16.2375 4.17672C15.135 3.07428 13.25 3.85507 13.25 5.41415V8.26583C9.37167 8.43207 6.56748 9.88594 4.6488 11.8542C2.62546 13.9299 1.62515 16.5367 1.33908 18.6981C1.26477 19.2596 1.56838 19.739 2.02416 19.939C2.46869 20.134 3.00988 20.0447 3.38398 19.6567C4.60676 18.3884 5.50274 17.4604 6.93921 16.8082C8.27847 16.2002 10.147 15.8096 13.25 15.7562V18.5857C13.25 20.1448 15.135 20.9256 16.2375 19.8232L22.8233 13.2374C23.5067 12.554 23.5067 11.4459 22.8233 10.7625L16.2375 4.17672Z" clip-rule="evenodd"/></svg>