<svg xmlns="http://www.w3.org/2000/svg" width="24" height="24" viewBox="0 0 24 24"><path fill-rule="evenodd" d="M4 4C3.58579 4 3.25 4.33579 3.25 4.75C3.25 5.16421 3.58579 5.5 4 5.5H19C19.4142 5.5 19.75 5.16421 19.75 4.75C19.75 4.33579 19.4142 4 19 4H4ZM19.5146 12.9802C19.8075 13.2731 20.2824 13.2731 20.5753 12.9802C20.8681 12.6874 20.8681 12.2125 20.5753 11.9196L18.1254 9.4697C17.9783 9.32267 17.7854 9.24945 17.5927 9.25004C17.4015 9.25059 17.2105 9.32381 17.0646 9.46971L14.6147 11.9196C14.3218 12.2125 14.3218 12.6874 14.6147 12.9802C14.9076 13.2731 15.3825 13.2731 15.6753 12.9802L16.9745 11.6811V17.6C16.9745 18.5113 16.2358 19.25 15.3245 19.25H8.50007C8.08586 19.25 7.75007 19.5858 7.75007 20C7.75007 20.4142 8.08586 20.75 8.50007 20.75H15.3245C17.0642 20.75 18.4745 19.3397 18.4745 17.6V11.9402L19.5146 12.9802ZM3.25 9.99986C3.25 9.58565 3.58579 9.24986 4 9.24986H7.5H11C11.4142 9.24986 11.75 9.58565 11.75 9.99986C11.75 10.4141 11.4142 10.7499 11 10.7499H7.5H4C3.58579 10.7499 3.25 10.4141 3.25 9.99986ZM4 14.5C3.58579 14.5 3.25 14.8358 3.25 15.25C3.25 15.6642 3.58579 16 4 16H6.5H9C9.41421 16 9.75 15.6642 9.75 15.25C9.75 14.8358 9.41421 14.5 9 14.5H6.5H4Z" clip-rule="evenodd"/></svg>