<svg xmlns="http://www.w3.org/2000/svg" width="24" height="24" viewBox="0 0 24 24"><path fill-rule="evenodd" d="M3.90316 12C3.90316 16.3723 7.44757 19.9167 11.8198 19.9167V19.9184C12.2324 19.9456 12.5587 20.2889 12.5587 20.7083C12.5587 21.1278 12.2324 21.4711 11.8198 21.4983V21.5L11.7788 21.4999L11.767 21.5L11.7456 21.4997C6.53305 21.4598 2.31982 17.2219 2.31982 12C2.31982 6.75329 6.57312 2.5 11.8198 2.5C17.0418 2.5 21.2797 6.71328 21.3195 11.9258L21.3198 11.9472L21.3197 11.9591L21.3198 12H21.3181C21.2909 12.4126 20.9477 12.7389 20.5282 12.7389C20.1087 12.7389 19.7654 12.4126 19.7382 12H19.7365C19.7365 7.62775 16.1921 4.08333 11.8198 4.08333C7.44757 4.08333 3.90316 7.62775 3.90316 12ZM14.0582 12L11.0698 10.2924V13.7076L14.0582 12ZM9.56982 10.0339C9.56982 8.99735 10.6896 8.3475 11.5896 8.86178L15.0303 10.8279C15.9372 11.3461 15.9372 12.6539 15.0303 13.1721L11.5896 15.1382C10.6896 15.6525 9.56982 15.0027 9.56982 13.9661V10.0339ZM18.5521 14.0189C18.1371 13.7818 17.6276 13.7818 17.2125 14.0189L14.75 15.4261C14.3294 15.6664 14.0698 16.1137 14.0698 16.5982V19.4018C14.0698 19.8863 14.3294 20.3336 14.75 20.5739L17.2125 21.9811C17.6276 22.2182 18.1371 22.2182 18.5521 21.9811L21.0146 20.5739C21.4352 20.3336 21.6948 19.8863 21.6948 19.4018V16.5982C21.6948 16.1137 21.4352 15.6664 21.0146 15.4261L18.5521 14.0189ZM15.5698 16.6852L17.8823 15.3638L20.1948 16.6852V19.3148L17.8823 20.6362L15.5698 19.3148V16.6852ZM17.8698 18.85C18.3117 18.85 18.6698 18.4918 18.6698 18.05C18.6698 17.6082 18.3117 17.25 17.8698 17.25C17.428 17.25 17.0698 17.6082 17.0698 18.05C17.0698 18.4918 17.428 18.85 17.8698 18.85Z" clip-rule="evenodd"/></svg>