<svg xmlns="http://www.w3.org/2000/svg" width="24" height="24" viewBox="0 0 24 24"><path fill-rule="evenodd" d="M4.27856 4.42477C4.27856 3.091 5.3598 2.00976 6.69357 2.00977L17.3066 2.00978C18.6404 2.00978 19.7216 3.09101 19.7216 4.42478V20.6535C19.7216 21.7325 18.4866 22.3454 17.6273 21.6928L12.5438 17.832C12.2163 17.5832 11.763 17.5835 11.4359 17.8328L6.37448 21.6893C5.51547 22.3438 4.27856 21.7313 4.27856 20.6513V4.42477ZM6.69357 3.50977C6.18822 3.50977 5.77856 3.91942 5.77856 4.42477V20.2576L10.5268 16.6397C11.3902 15.9818 12.5866 15.9808 13.451 16.6374L18.2216 20.2606V4.42478C18.2216 3.91943 17.8119 3.50978 17.3066 3.50978L6.69357 3.50977Z" clip-rule="evenodd"/></svg>