<svg xmlns="http://www.w3.org/2000/svg" width="16" height="16" viewBox="0 0 16 16"><path fill-rule="evenodd" d="M2.68078 4.27766L5.01891 1.93953C5.27275 1.68569 5.6843 1.68569 5.93814 1.93953C6.19198 2.19337 6.19198 2.60493 5.93814 2.85877L4.69075 4.10617L8.43148 4.10617C11.1196 4.10617 13.2676 5.95635 13.2676 8.7139C13.2676 10.1094 12.6031 11.2744 11.6849 12.0772C10.774 12.8736 9.5782 13.3467 8.43127 13.3466L3.38781 13.3466C3.02883 13.3466 2.73781 13.0556 2.73781 12.6966C2.73781 12.3377 3.02883 12.0466 3.38781 12.0466L8.43128 12.0466C9.23811 12.0467 10.1354 11.7051 10.8293 11.0985C11.5158 10.4982 11.9676 9.67184 11.9676 8.7139C11.9676 6.76461 10.4953 5.40617 8.43147 5.40617L4.69075 5.40617L5.93815 6.65356C6.192 6.9074 6.192 7.31896 5.93816 7.5728C5.68432 7.82665 5.27276 7.82665 5.01892 7.57281L2.68062 5.23454C2.55157 5.11575 2.4707 4.9454 2.4707 4.75617C2.4707 4.56686 2.55163 4.39645 2.68078 4.27766Z" clip-rule="evenodd"/></svg>