<svg xmlns="http://www.w3.org/2000/svg" width="24" height="24" viewBox="0 0 24 24"><g><g><path fill-rule="evenodd" d="M12 20.5C16.6944 20.5 20.5 16.6944 20.5 12C20.5 7.30558 16.6944 3.5 12 3.5C7.30558 3.5 3.5 7.30558 3.5 12C3.5 16.6944 7.30558 20.5 12 20.5ZM12 22C17.5228 22 22 17.5228 22 12C22 6.47715 17.5228 2 12 2C6.47715 2 2 6.47715 2 12C2 17.5228 6.47715 22 12 22Z" clip-rule="evenodd"/><path d="M13.0742 16.1987C13.0742 16.7793 12.6042 17.25 12.0245 17.25C11.4447 17.25 10.9747 16.7793 10.9747 16.1987C10.9747 15.6181 11.4447 15.1475 12.0245 15.1475C12.6042 15.1475 13.0742 15.6181 13.0742 16.1987Z"/><path fill-rule="evenodd" d="M10.3963 8.49311C10.1636 8.89552 10.15 9.34827 10.15 9.46973C10.15 9.88394 9.81424 10.2197 9.40002 10.2197C8.98581 10.2197 8.65002 9.88394 8.65002 9.46973C8.65002 9.27893 8.66154 8.49681 9.09761 7.74243C9.57122 6.9231 10.4802 6.25 12.0245 6.25C13.604 6.25 14.6074 7.03736 15.0789 8.05732C15.5174 9.00554 15.4854 10.1343 15.1129 10.8966C14.9009 11.3306 14.5696 11.6252 14.2636 11.8386C14.0457 11.9907 13.7916 12.132 13.5839 12.2477C13.5173 12.2847 13.4555 12.3192 13.4011 12.3504C12.8681 12.657 12.7674 12.8096 12.7674 13.0449C12.7674 13.4591 12.4317 13.7949 12.0174 13.7949C11.6032 13.7949 11.2674 13.4591 11.2674 13.0449C11.2674 11.9003 12.1095 11.363 12.6532 11.0502C12.7486 10.9953 12.8355 10.9469 12.9163 10.902C13.1015 10.7988 13.2545 10.7136 13.4053 10.6084C13.6037 10.4701 13.7091 10.353 13.7652 10.2381C13.929 9.90285 13.9768 9.24788 13.7174 8.68682C13.4912 8.1975 13.0192 7.75 12.0245 7.75C10.9946 7.75 10.5913 8.15564 10.3963 8.49311Z" clip-rule="evenodd"/></g></g></svg>