<svg xmlns="http://www.w3.org/2000/svg" width="16" height="16" viewBox="0 0 16 16"><path fill-rule="evenodd" d="M8.00525 2.93494C7.46397 2.47196 6.68072 2.06946 5.80482 1.94787C4.61804 1.78313 3.27829 2.13801 2.16885 3.46935C1.2217 4.60595 0.92269 5.86165 1.07211 7.09656C1.21876 8.30862 1.79164 9.46828 2.52957 10.4775C3.27042 11.4908 4.20353 12.3883 5.12671 13.0812C6.04111 13.7674 6.98991 14.2859 7.77365 14.4977C7.92435 14.5385 8.07885 14.5385 8.22955 14.4977C9.01325 14.2859 9.96203 13.7674 10.8764 13.0812C11.7996 12.3883 12.7326 11.4908 13.4735 10.4775C14.2114 9.46827 14.7843 8.30861 14.9309 7.09655C15.0803 5.86163 14.7813 4.60593 13.8341 3.46933C12.7477 2.16555 11.4084 1.81881 10.2252 1.97313C9.34933 2.08737 8.5551 2.47589 8.00525 2.93494Z" clip-rule="evenodd"/></svg>