<svg xmlns="http://www.w3.org/2000/svg" width="24" height="24" viewBox="0 0 24 24"><path fill-rule="evenodd" d="M20.5 12C20.5 16.6944 16.6944 20.5 12 20.5C7.30558 20.5 3.5 16.6944 3.5 12C3.5 7.30558 7.30558 3.5 12 3.5C16.6944 3.5 20.5 7.30558 20.5 12ZM22 12C22 17.5228 17.5228 22 12 22C6.47715 22 2 17.5228 2 12C2 6.47715 6.47715 2 12 2C17.5228 2 22 6.47715 22 12ZM9.90771 7.75C8.0811 7.75 6.60034 9.23077 6.60034 11.0574C6.60034 12.6241 7.51415 14.0249 8.53201 15.0528C9.55716 16.0881 10.8173 16.8777 11.7636 17.1922C11.9171 17.2432 12.0831 17.2432 12.2366 17.1922C13.1829 16.8777 14.443 16.0881 15.4682 15.0528C16.4861 14.0249 17.3999 12.6241 17.3999 11.0574C17.3999 9.23077 15.9191 7.75 14.0925 7.75C13.2984 7.75 12.5697 8.03023 12.0001 8.496C11.4305 8.03023 10.7018 7.75 9.90771 7.75ZM8.10034 11.0574C8.10034 10.0592 8.90953 9.25 9.90771 9.25C10.5184 9.25 11.0585 9.55214 11.3869 10.0184C11.5274 10.2179 11.7561 10.3366 12.0001 10.3366C12.2441 10.3366 12.4728 10.2179 12.6133 10.0184C12.9417 9.55214 13.4818 9.25 14.0925 9.25C15.0907 9.25 15.8999 10.0592 15.8999 11.0574C15.8999 12.048 15.3025 13.0883 14.4023 13.9974C13.6071 14.8005 12.6756 15.3986 12.0001 15.6797C11.3246 15.3986 10.3931 14.8005 9.59787 13.9974C8.69771 13.0883 8.10034 12.048 8.10034 11.0574Z" clip-rule="evenodd"/></svg>