<svg xmlns="http://www.w3.org/2000/svg" width="24" height="24" viewBox="0 0 24 24"><path fill-rule="evenodd" d="M3.5498 5.9694C3.5498 4.63564 4.63103 3.5544 5.9648 3.5544H13.5241C13.9383 3.5544 14.2741 3.89018 14.2741 4.3044C14.2741 4.71861 13.9383 5.0544 13.5241 5.0544H5.9648C5.45946 5.0544 5.0498 5.46406 5.0498 5.9694V18.0408C5.0498 18.5462 5.45945 18.9558 5.9648 18.9558H18.0393C18.5447 18.9558 18.9543 18.5462 18.9543 18.0408V10.4837C18.9543 10.0695 19.2901 9.73371 19.7043 9.73371C20.1185 9.73371 20.4543 10.0695 20.4543 10.4837V18.0408C20.4543 19.3746 19.3731 20.4558 18.0393 20.4558H5.9648C4.63106 20.4558 3.5498 19.3746 3.5498 18.0408V5.9694Z" clip-rule="evenodd"/><path fill-rule="evenodd" d="M20.2387 3.76968C20.5316 4.06257 20.5316 4.53745 20.2387 4.83034L12.0328 13.0361C11.7399 13.329 11.265 13.329 10.9721 13.0361C10.6792 12.7432 10.6792 12.2683 10.9721 11.9754L19.178 3.76967C19.4709 3.47678 19.9458 3.47678 20.2387 3.76968Z" clip-rule="evenodd"/></svg>