<svg xmlns="http://www.w3.org/2000/svg" width="24" height="24" viewBox="0 0 24 24"><path d="M17.7406 15.823L10.8656 15.2888C10.8656 15.2888 16.9156 11.2821 17.3281 10.8147C17.4312 10.7145 17.5 10.581 17.5 10.414C17.5 10.2805 17.4312 10.1135 17.3281 10.0134L5.95 10.1469L14.475 11.2821C14.475 11.2821 7.94375 14.8548 7.4625 15.389V15.4558L7.42812 15.4891C7.15312 15.7563 7.1875 16.2237 7.4625 16.4574L17.7406 16.0234L18.875 22L12 18.5275L5.125 22L6.5 14.6878L1 9.41235L8.59688 8.34391L12 2L15.3687 8.3773L23 9.47913L17.5 14.6878L17.7406 15.823Z"/></svg>