<svg xmlns="http://www.w3.org/2000/svg" width="24" height="24" viewBox="0 0 24 24"><path fill-rule="evenodd" d="M15.5303 3.46967C15.8232 3.76256 15.8232 4.23744 15.5303 4.53033L13.2518 6.80887C12.9236 7.13705 12.4785 7.32143 12.0144 7.32143H11.5721H11.5708H5C4.30964 7.32143 3.75 7.88107 3.75 8.57143V18.7143C3.75 19.4046 4.30964 19.9643 5 19.9643H19C19.6904 19.9643 20.25 19.4046 20.25 18.7143V8.57143C20.25 7.88107 19.6904 7.32143 19 7.32143H16.2857C15.8715 7.32143 15.5357 6.98564 15.5357 6.57143C15.5357 6.15721 15.8715 5.82143 16.2857 5.82143H19C20.5188 5.82143 21.75 7.05264 21.75 8.57143V18.7143C21.75 20.2331 20.5188 21.4643 19 21.4643H5C3.48122 21.4643 2.25 20.2331 2.25 18.7143V8.57143C2.25 7.05265 3.48122 5.82143 5 5.82143H9.76077L8.46967 4.53033C8.17678 4.23744 8.17678 3.76256 8.46967 3.46967C8.76256 3.17678 9.23744 3.17678 9.53033 3.46967L11.8821 5.82143H12.0144C12.0807 5.82143 12.1443 5.79509 12.1911 5.74821L14.4697 3.46967C14.7626 3.17678 15.2374 3.17678 15.5303 3.46967ZM8.89282 14.7144C8.89282 14.3001 8.55704 13.9644 8.14282 13.9644C7.72861 13.9644 7.39282 14.3001 7.39282 14.7144V17.2858C7.39282 17.7 7.72861 18.0358 8.14282 18.0358C8.55704 18.0358 8.89282 17.7 8.89282 17.2858V14.7144ZM12 10.9644C12.4142 10.9644 12.75 11.3001 12.75 11.7144V17.2858C12.75 17.7 12.4142 18.0358 12 18.0358C11.5858 18.0358 11.25 17.7 11.25 17.2858V11.7144C11.25 11.3001 11.5858 10.9644 12 10.9644ZM16.6072 13.4286C16.6072 13.0144 16.2714 12.6786 15.8572 12.6786C15.443 12.6786 15.1072 13.0144 15.1072 13.4286V17.2857C15.1072 17.6999 15.443 18.0357 15.8572 18.0357C16.2714 18.0357 16.6072 17.6999 16.6072 17.2857V13.4286Z" clip-rule="evenodd"/></svg>