<svg xmlns="http://www.w3.org/2000/svg" width="24" height="24" viewBox="0 0 24 24"><path fill-rule="evenodd" d="M6.5 3.25C6.08579 3.25 5.75 3.58579 5.75 4C5.75 4.41421 6.08579 4.75 6.5 4.75H17.5C17.9142 4.75 18.25 4.41421 18.25 4C18.25 3.58579 17.9142 3.25 17.5 3.25H6.5ZM6.1 7.25C5.63056 7.25 5.25 7.63056 5.25 8.1V17.9C5.25 18.3694 5.63056 18.75 6.1 18.75H17.9C18.3694 18.75 18.75 18.3694 18.75 17.9V8.1C18.75 7.63056 18.3694 7.25 17.9 7.25H6.1ZM3.75 8.1C3.75 6.80213 4.80213 5.75 6.1 5.75H17.9C19.1979 5.75 20.25 6.80213 20.25 8.1V17.9C20.25 19.1979 19.1979 20.25 17.9 20.25H6.1C4.80213 20.25 3.75 19.1979 3.75 17.9V8.1ZM11.0003 15.7583C10.8132 15.7585 10.6258 15.6866 10.4814 15.5422L8.48142 13.5422C8.1886 13.2494 8.18332 12.7693 8.46963 12.4698C8.75594 12.1703 9.22542 12.1649 9.51824 12.4577L11 13.9394L14.4817 10.4577C14.7745 10.1649 15.244 10.1703 15.5303 10.4698C15.8166 10.7692 15.8113 11.2494 15.5185 11.5422L11.5185 15.5422C11.3743 15.6864 11.1872 15.7583 11.0003 15.7583Z" clip-rule="evenodd"/></svg>