<svg xmlns="http://www.w3.org/2000/svg" width="16" height="16" viewBox="0 0 16 16"><path fill-rule="evenodd" d="M7.27405 3.51504L8.0409 2.8334L9.27343 3.72978C10.12 4.34547 11.1902 4.56806 12.212 4.34097L12.3501 4.3103V10C12.3501 10.359 12.6411 10.65 13.0001 10.65C13.3591 10.65 13.6501 10.359 13.6501 10V3.81165C13.6501 3.23588 13.1169 2.80818 12.5549 2.93308L11.93 3.07193C11.2721 3.21813 10.5831 3.07483 10.0381 2.67842L8.54515 1.59267C8.20309 1.34391 7.73398 1.36688 7.41786 1.64787L7.09987 1.93053L6.41038 2.54341C5.87037 3.02341 5.13959 3.22834 4.42874 3.09909L3.68337 2.96357L3.41109 2.91407C2.85864 2.81362 2.3501 3.23804 2.3501 3.79955V8.61483C2.3501 10.9251 3.75667 13.0027 5.90174 13.8607L5.98666 13.8947C7.27621 14.4105 8.71059 14.4333 10.0159 13.9586L10.9722 13.6109C11.3096 13.4882 11.4836 13.1152 11.361 12.7779C11.2383 12.4405 10.8653 12.2665 10.528 12.3891L9.5716 12.7369C8.56665 13.1023 7.46231 13.0848 6.46947 12.6877L6.38455 12.6537C4.73303 11.9931 3.6501 10.3936 3.6501 8.61483V4.27884L4.19619 4.37812C5.30027 4.57887 6.43532 4.26058 7.27405 3.51504ZM8.28779 9.92559C8.03395 10.1794 7.62239 10.1794 7.36855 9.92559L5.91816 8.4752C5.66432 8.22136 5.66432 7.8098 5.91816 7.55596C6.172 7.30212 6.58356 7.30212 6.8374 7.55596L7.82009 8.53865L9.53678 6.82196C9.79062 6.56812 10.2022 6.56812 10.456 6.82196C10.7099 7.0758 10.7099 7.48736 10.456 7.7412L8.36595 9.83127C8.34332 9.86451 8.31727 9.89611 8.28779 9.92559Z" clip-rule="evenodd"/></svg>