<svg xmlns="http://www.w3.org/2000/svg" width="24" height="24" viewBox="0 0 24 24"><path fill-rule="evenodd" d="M6.75 6C6.75 6.41422 6.41421 6.75 6 6.75L3 6.75C2.58579 6.75 2.25 6.41421 2.25 6C2.25 5.58579 2.58579 5.25 3 5.25H6C6.41421 5.25 6.75 5.58579 6.75 6ZM6.75 18C6.75 18.4142 6.41421 18.75 6 18.75L3 18.75C2.58579 18.75 2.25 18.4142 2.25 18C2.25 17.5858 2.58579 17.25 3 17.25L6 17.25C6.41421 17.25 6.75 17.5858 6.75 18ZM13.5 18.75C13.9142 18.75 14.25 18.4142 14.25 18C14.25 17.5858 13.9142 17.25 13.5 17.25L10.5 17.25C10.0858 17.25 9.75 17.5858 9.75 18C9.75 18.4142 10.0858 18.75 10.5 18.75L13.5 18.75ZM14.25 6C14.25 6.41422 13.9142 6.75 13.5 6.75L10.5 6.75C10.0858 6.75 9.75 6.41421 9.75 6C9.75 5.58579 10.0858 5.25 10.5 5.25H13.5C13.9142 5.25 14.25 5.58579 14.25 6ZM21 18.75C21.4142 18.75 21.75 18.4142 21.75 18C21.75 17.5858 21.4142 17.25 21 17.25L18 17.25C17.5858 17.25 17.25 17.5858 17.25 18C17.25 18.4142 17.5858 18.75 18 18.75L21 18.75ZM21.75 6C21.75 6.41422 21.4142 6.75 21 6.75L18 6.75C17.5858 6.75 17.25 6.41421 17.25 6C17.25 5.58579 17.5858 5.25 18 5.25H21C21.4142 5.25 21.75 5.58579 21.75 6ZM21 12.75C21.4142 12.75 21.75 12.4142 21.75 12C21.75 11.5858 21.4142 11.25 21 11.25L3 11.25C2.58578 11.25 2.25 11.5858 2.25 12C2.25 12.4142 2.58578 12.75 3 12.75L21 12.75Z" clip-rule="evenodd"/></svg>