<svg xmlns="http://www.w3.org/2000/svg" width="24" height="25" viewBox="0 0 24 25"><path fill-rule="evenodd" d="M19.3536 4.95722L19.7071 5.31078C19.9024 5.50604 19.9024 5.82262 19.7071 6.01788L15.6278 10.0972C15.5671 10.1579 15.4918 10.202 15.4091 10.2251L14.0621 10.6023L14.4392 9.25525C14.4624 9.17256 14.5064 9.09723 14.5672 9.03651L18.6464 4.95722C18.8417 4.76196 19.1583 4.76196 19.3536 4.95722ZM17.5858 3.89656C18.3668 3.11551 19.6332 3.11551 20.4142 3.89656L20.7678 4.25012C21.5488 5.03116 21.5488 6.29749 20.7678 7.07854L16.6885 11.1578C16.4456 11.4007 16.1443 11.5769 15.8135 11.6695L13.6105 12.2864C12.8596 12.4966 12.1677 11.8047 12.3779 11.0538L12.9948 8.85081C13.0874 8.52006 13.2636 8.21873 13.5065 7.97585L17.5858 3.89656ZM3 6.66766C3 5.01081 4.34315 3.66766 6 3.66766H13.25C13.6642 3.66766 14 4.00345 14 4.41766C14 4.83188 13.6642 5.16766 13.25 5.16766H6C5.17157 5.16766 4.5 5.83924 4.5 6.66766V15.215L4.87799 14.7469C5.96964 13.395 7.61405 12.6093 9.35165 12.6093C10.5333 12.6093 11.6863 12.9734 12.6537 13.652L15.024 15.3146C16.2051 16.1431 17.6127 16.5876 19.0554 16.5876H19.5V11.4177C19.5 11.0034 19.8358 10.6677 20.25 10.6677C20.6642 10.6677 21 11.0034 21 11.4177V17.3376V18.6677C21 20.3245 19.6569 21.6677 18 21.6677H6C4.34315 21.6677 3 20.3245 3 18.6677V17.3433V17.3309V6.66766ZM4.5 18.6677V17.6026L6.04501 15.6893C6.85188 14.6901 8.06733 14.1093 9.35165 14.1093C10.2251 14.1093 11.0773 14.3784 11.7923 14.88L14.1626 16.5426C15.596 17.5481 17.3044 18.0876 19.0554 18.0876H19.5V18.6677C19.5 19.4961 18.8284 20.1677 18 20.1677H6C5.17157 20.1677 4.5 19.4961 4.5 18.6677Z" clip-rule="evenodd"/></svg>