<svg xmlns="http://www.w3.org/2000/svg" width="24" height="24" viewBox="0 0 24 24"><path d="M11.2459 1.83652C10.9995 1.78748 10.7388 1.86737 10.5528 2.04887C10.3669 2.23037 10.281 2.48889 10.3244 2.73602C10.5852 4.2182 10.1818 5.29812 9.60819 6.06112C9.23361 6.55935 8.77668 6.93396 8.35892 7.19024L7.7873 5.58594C7.71248 5.37593 7.54457 5.21575 7.33062 5.15026C7.11666 5.08477 6.87964 5.121 6.68595 5.24882C2.75674 7.84166 1.85563 12.7563 3.14551 16.541C3.27687 16.9264 3.70225 17.1171 4.09561 16.9668C4.48898 16.8165 4.70138 16.3822 4.57002 15.9967C3.53345 12.9553 4.16461 9.28103 6.69846 7.0727L7.2081 8.50306C7.34174 8.87813 7.75551 9.0646 8.14252 8.92416C8.91645 8.64331 9.98849 7.99224 10.7936 6.92137C11.4238 6.08309 11.877 5.00361 11.9058 3.68953C12.3457 3.92938 12.7987 4.27992 13.1695 4.76341C13.8304 5.62527 14.2784 6.97207 13.8264 9.03855C13.7563 9.35902 13.8994 9.67784 14.1806 9.82784C14.4619 9.97785 14.8171 9.92481 15.0601 9.69655C15.4268 9.35196 15.9687 8.7704 16.4328 8.1155C16.6162 7.85667 16.8043 7.5633 16.9645 7.2516C17.8994 8.37321 19.0014 10.4582 18.8555 13.401L18.8552 13.4056L18.8528 13.4389C18.8503 13.4702 18.846 13.5195 18.8388 13.5847C18.8245 13.7152 18.7988 13.9088 18.7541 14.1493C18.6645 14.6318 18.5 15.2946 18.2026 16.0125C18.0415 16.4012 18.2208 16.8311 18.6029 16.9727C18.9851 17.1143 19.4255 16.914 19.5865 16.5253C19.9351 15.684 20.1261 14.9128 20.2304 14.3512C20.2827 14.0696 20.3136 13.8385 20.3316 13.6749C20.3406 13.5931 20.3464 13.528 20.35 13.4816L20.3529 13.4435L20.354 13.4265L20.355 13.4099L20.3553 13.4045L20.3554 13.4025L20.3554 13.4013C20.5744 8.98814 18.3437 6.16442 17.0969 5.25507C16.876 5.09392 16.5772 5.07361 16.3222 5.20241C16.0672 5.3312 15.8984 5.58763 15.8845 5.86737C15.8721 6.1172 15.7365 6.46774 15.4932 6.87537C15.4028 5.60921 14.978 4.59782 14.379 3.81665C13.4602 2.61847 12.1784 2.02212 11.2459 1.83652Z"/><path fill-rule="evenodd" d="M10.0356 11.9119C10.8308 10.9032 12.3408 10.9032 13.0359 11.9119L17.9019 18.9731C18.749 20.2023 17.7841 21.9405 16.2545 21.9405H5.82214C4.29262 21.9405 3.50013 20.2023 4.46919 18.9731L10.0356 11.9119ZM11.1985 12.8014C11.3539 12.6043 11.649 12.6043 11.7848 12.8014L16.6508 19.8625C16.8163 20.1027 16.6277 20.4424 16.3289 20.4424H5.89646C5.59759 20.4424 5.44274 20.1027 5.63209 19.8625L11.1985 12.8014Z" clip-rule="evenodd"/></svg>