<svg xmlns="http://www.w3.org/2000/svg" width="24" height="24" viewBox="0 0 24 24"><g><path fill-rule="evenodd" d="M5.08844 1.96762C5.41126 1.92422 5.80809 1.92427 6.2409 1.92432H17.759C18.1918 1.92427 18.5886 1.92422 18.9114 1.96762C19.2669 2.01542 19.6426 2.12786 19.9517 2.43689C20.2607 2.74591 20.3731 3.12163 20.4209 3.47712C20.4643 3.79993 20.4643 4.19676 20.4642 4.62958V17.8619C20.4643 18.2947 20.4643 18.6916 20.4209 19.0144C20.3731 19.3699 20.2607 19.7456 19.9517 20.0546C19.6426 20.3636 19.2669 20.4761 18.9114 20.5239C18.5886 20.5673 18.1918 20.5672 17.759 20.5672L13.9626 20.5672L10.0313 23.4235C9.91588 23.5075 9.77037 23.6134 9.63427 23.6845C9.47557 23.7674 9.16687 23.8911 8.80747 23.7554C8.44807 23.6197 8.29822 23.3228 8.23392 23.1557C8.17879 23.0124 8.13963 22.8367 8.10857 22.6974L7.6316 20.5672L6.24091 20.5672C5.80809 20.5672 5.41126 20.5673 5.08844 20.5239C4.73296 20.4761 4.35724 20.3636 4.04821 20.0546C3.73919 19.7456 3.62674 19.3699 3.57895 19.0144C3.53555 18.6916 3.5356 18.2947 3.53565 17.8619V4.62958C3.5356 4.19676 3.53555 3.79993 3.57895 3.47712C3.62674 3.12164 3.73919 2.74591 4.04821 2.43689C4.35724 2.12786 4.73296 2.01542 5.08844 1.96762ZM10.9146 10.8973C10.9146 10.8031 10.9146 10.7559 10.9439 10.7266C10.9731 10.6974 11.0203 10.6974 11.1146 10.6974H12.124C12.9626 10.6327 13.6231 9.928 13.6231 9.06814C13.6231 8.16568 12.8955 7.4341 11.998 7.4341C11.166 7.4341 10.467 8.08939 10.3817 8.90259C10.371 9.00467 10.3657 9.05571 10.3372 9.0814C10.3086 9.10709 10.262 9.10709 10.1688 9.10709H8.94703C8.85217 9.10709 8.80474 9.10709 8.77515 9.07583C8.74556 9.04457 8.74807 8.99912 8.75308 8.90821C8.84714 7.20123 10.2704 5.80005 11.998 5.80005C13.793 5.80005 15.2481 7.26322 15.2481 9.06814C15.2481 10.6845 14.0811 12.0269 12.5481 12.2896C12.5066 12.2967 12.4859 12.3003 12.4741 12.3143C12.4624 12.3282 12.4624 12.3487 12.4624 12.3898V13.1867C12.4624 13.281 12.4624 13.3281 12.4331 13.3574C12.4038 13.3867 12.3566 13.3867 12.2624 13.3867H11.1146C11.0203 13.3867 10.9731 13.3867 10.9439 13.3574C10.9146 13.3281 10.9146 13.281 10.9146 13.1867L10.9146 10.8973ZM10.6052 14.9484C10.6052 14.8541 10.6052 14.807 10.6345 14.7777C10.6638 14.7484 10.7109 14.7484 10.8052 14.7484H12.7267C12.8209 14.7484 12.8681 14.7484 12.8974 14.7777C12.9267 14.807 12.9267 14.8541 12.9267 14.9484V16.35C12.9267 16.4443 12.9267 16.4915 12.8974 16.5208C12.8681 16.55 12.8209 16.55 12.7267 16.55H10.8052C10.7109 16.55 10.6638 16.55 10.6345 16.5208C10.6052 16.4915 10.6052 16.4443 10.6052 16.35V14.9484Z" clip-rule="evenodd"/></g></svg>