<svg xmlns="http://www.w3.org/2000/svg" width="24" height="24" viewBox="0 0 24 24"><path fill-rule="evenodd" d="M5 2.25C4.58579 2.25 4.25 2.58579 4.25 3C4.25 3.41421 4.58579 3.75 5 3.75H19C19.4142 3.75 19.75 3.41421 19.75 3C19.75 2.58579 19.4142 2.25 19 2.25H5ZM12.497 5.43817L19.4881 11.4306C19.8026 11.7001 19.839 12.1736 19.5695 12.4881C19.2999 12.8026 18.8264 12.839 18.5119 12.5695L12.75 7.63068V21C12.75 21.4142 12.4142 21.75 12 21.75C11.5858 21.75 11.25 21.4142 11.25 21V7.63068L5.48811 12.5695C5.17361 12.839 4.70014 12.8026 4.43057 12.4881C4.161 12.1736 4.19743 11.7001 4.51192 11.4306L11.503 5.43818C11.5562 5.39105 11.6147 5.35264 11.6767 5.32309C11.7468 5.28951 11.8209 5.26761 11.8961 5.25716C11.9306 5.25236 11.9653 5.24998 12 5.25C12.0349 5.24998 12.0698 5.25238 12.1044 5.25722C12.157 5.26455 12.2079 5.27734 12.2565 5.29501C12.2791 5.30323 12.3014 5.31259 12.3234 5.32309C12.3853 5.35263 12.4438 5.39104 12.497 5.43817Z" clip-rule="evenodd"/></svg>