<svg xmlns="http://www.w3.org/2000/svg" width="24" height="24" viewBox="0 0 24 24"><path fill-rule="evenodd" d="M5 3.25C3.75736 3.25 2.75 4.25736 2.75 5.5V12V18.5C2.75 19.7426 3.75736 20.75 5 20.75H10C10.4142 20.75 10.75 20.4142 10.75 20C10.75 19.5858 10.4142 19.25 10 19.25H5C4.58579 19.25 4.25 18.9142 4.25 18.5V12V5.5C4.25 5.08579 4.58579 4.75 5 4.75H11.5H19C19.4142 4.75 19.75 5.08579 19.75 5.5V12C19.75 12.4142 20.0858 12.75 20.5 12.75C20.9142 12.75 21.25 12.4142 21.25 12V5.5C21.25 4.25736 20.2426 3.25 19 3.25H11.5H5ZM14 13.75C12.7574 13.75 11.75 14.7574 11.75 16V19C11.75 20.2426 12.7574 21.25 14 21.25H20C21.2426 21.25 22.25 20.2426 22.25 19V16C22.25 14.7574 21.2426 13.75 20 13.75H14ZM13.25 16C13.25 15.5858 13.5858 15.25 14 15.25H20C20.4142 15.25 20.75 15.5858 20.75 16V19C20.75 19.4142 20.4142 19.75 20 19.75H14C13.5858 19.75 13.25 19.4142 13.25 19V16ZM6.14984 12C6.14984 11.5858 6.48563 11.25 6.89984 11.25H9.03318H9.93978L6.17396 7.53382C5.87913 7.24288 5.87598 6.76802 6.16692 6.47319C6.45786 6.17836 6.93273 6.17521 7.22756 6.46615L10.9498 10.1394V9.33334V7.00002C10.9498 6.5858 11.2856 6.25002 11.6998 6.25002C12.1141 6.25002 12.4498 6.5858 12.4498 7.00002V9.33334V11.6C12.4498 12.2351 11.935 12.75 11.2998 12.75H9.03318L6.89984 12.75C6.48563 12.75 6.14984 12.4142 6.14984 12Z" clip-rule="evenodd"/></svg>