<svg xmlns="http://www.w3.org/2000/svg" width="16" height="16" viewBox="0 0 16 16"><path fill-rule="evenodd" d="M3.31602 2.68335C2.95703 2.68335 2.66602 2.97436 2.66602 3.33335C2.66602 3.69233 2.95703 3.98335 3.31602 3.98335H12.6827C13.0417 3.98335 13.3327 3.69233 13.3327 3.33335C13.3327 2.97436 13.0417 2.68335 12.6827 2.68335H3.31602ZM3.31602 7.35001C2.95703 7.35001 2.66602 7.64102 2.66602 8.00001C2.66602 8.35899 2.95703 8.65001 3.31602 8.65001H8.01602C8.375 8.65001 8.66602 8.35899 8.66602 8.00001C8.66602 7.64102 8.375 7.35001 8.01602 7.35001H3.31602ZM2.66602 12.6667C2.66602 12.3077 2.95703 12.0167 3.31602 12.0167H6.68268C7.04167 12.0167 7.33268 12.3077 7.33268 12.6667C7.33268 13.0257 7.04167 13.3167 6.68268 13.3167H3.31602C2.95703 13.3167 2.66602 13.0257 2.66602 12.6667ZM13.6196 6.8989C13.7557 6.56799 13.5961 6.18832 13.2632 6.0509C12.9303 5.91349 12.5501 6.07035 12.414 6.40126L10.6612 10.6635C10.5251 10.9944 10.6847 11.3741 11.0176 11.5115C11.3505 11.6489 11.7307 11.4921 11.8668 11.1611L13.6196 6.8989ZM11.0821 13.1557C11.2131 12.8228 11.0478 12.4455 10.7129 12.3131C10.378 12.1807 10.0002 12.3433 9.86919 12.6763L9.71146 13.077C9.58042 13.41 9.7457 13.7872 10.0806 13.9196C10.4156 14.052 10.7933 13.8894 10.9244 13.5565L11.0821 13.1557Z" clip-rule="evenodd"/></svg>