<svg xmlns="http://www.w3.org/2000/svg" width="24" height="24" viewBox="0 0 24 24"><path fill-rule="evenodd" d="M7.25004 8.00001C7.25004 5.37596 9.37602 3.25 12 3.25C14.6241 3.25 16.75 5.37596 16.75 8.00001C16.75 10.6241 14.6241 12.7501 12 12.7501C9.37603 12.7501 7.25004 10.624 7.25004 8.00001ZM12 1.75C8.54759 1.75 5.75004 4.54754 5.75004 8.00001C5.75004 10.2576 6.94631 12.2353 8.73972 13.3337C5.7257 14.5359 3.54385 17.4685 3.25267 20.9373C3.21802 21.35 3.52454 21.7127 3.93731 21.7474C4.35007 21.782 4.71277 21.4755 4.74741 21.0627C5.0707 17.2115 8.12955 14.25 11.7869 14.25C13.1818 14.25 14.4826 14.6773 15.5804 15.4185C15.9236 15.6503 16.3898 15.5599 16.6216 15.2166C16.8534 14.8733 16.763 14.4071 16.4197 14.1754C15.9981 13.8907 15.5508 13.6436 15.0823 13.4387C16.9742 12.3645 18.25 10.3316 18.25 8.00001C18.25 4.54754 15.4525 1.75 12 1.75ZM22.5857 16.4685C22.8444 16.1451 22.792 15.6731 22.4685 15.4143C22.1451 15.1556 21.6731 15.208 21.4143 15.5315L17.9378 19.8772L16.0303 17.9697C15.7374 17.6768 15.2626 17.6768 14.9697 17.9697C14.6768 18.2626 14.6768 18.7374 14.9697 19.0303L17.4697 21.5303C17.6205 21.6812 17.8285 21.7607 18.0415 21.7489C18.2545 21.7371 18.4524 21.6351 18.5857 21.4685L22.5857 16.4685Z" clip-rule="evenodd"/></svg>