<svg xmlns="http://www.w3.org/2000/svg" width="24" height="24" fill="none" viewBox="0 0 24 24"><g><path fill="#FB6622" d="M15.5179 3.06022C24.3519 2.20622 22.9129 10.7922 22.9119 10.7912C22.2869 12.2302 21.2389 11.1002 21.2389 11.1002C21.8349 3.58122 15.5469 4.77122 15.5469 4.77122C14.6489 3.70422 15.5179 3.06022 15.5179 3.06022ZM19.6489 10.0452C18.9879 11.0552 18.2719 10.1712 18.2729 10.1712C18.4779 6.99222 15.8769 7.57322 15.8769 7.57322C15.1579 6.80822 15.7859 6.22722 15.7859 6.22722C20.6679 5.67622 19.6489 10.0452 19.6489 10.0452ZM5.31688 7.51922C5.31688 7.51922 9.93188 3.65922 11.7599 6.19122C11.7599 6.19122 12.4219 7.27122 11.6489 8.98822C11.6519 8.98522 15.3719 7.02822 17.0569 9.14722C17.0569 9.14722 17.9049 10.2422 16.8659 11.7962C16.8659 11.7962 19.7839 11.6972 19.7839 14.5112C19.7839 17.3222 15.6799 20.9512 10.4689 20.9512C5.25488 20.9512 2.44288 18.8592 1.87288 17.8492C1.87288 17.8492 -1.60212 13.3542 5.31688 7.51922ZM15.7649 15.3112C15.7649 15.3112 15.9969 10.9002 10.0549 11.1042C3.40288 11.3352 3.47588 15.7582 3.47588 15.7582C3.49688 16.1482 3.57288 19.4712 9.31788 19.4712C15.2979 19.4712 15.7649 15.3112 15.7649 15.3112ZM5.88288 16.1712C5.88288 16.1712 5.82388 12.5392 9.68688 12.6102C13.0989 12.6702 12.8929 15.7752 12.8929 15.7752C12.8929 15.7752 12.8669 18.7542 9.20888 18.7542C5.92088 18.7542 5.88288 16.1712 5.88288 16.1712ZM8.41088 17.2082C9.08288 17.2082 9.62288 16.7612 9.62288 16.2102C9.62288 15.6592 9.07988 15.2122 8.41088 15.2122C7.73888 15.2122 7.19588 15.6592 7.19588 16.2102C7.19588 16.7612 7.74188 17.2082 8.41088 17.2082Z" clip-rule="evenodd"/></g></svg>