<svg xmlns="http://www.w3.org/2000/svg" width="24" height="24" viewBox="0 0 24 24"><path fill-rule="evenodd" d="M12 22C17.5228 22 22 17.5228 22 12C22 6.47715 17.5228 2 12 2C6.47715 2 2 6.47715 2 12C2 17.5228 6.47715 22 12 22ZM5.63597 9.52452C7.0028 8.15768 9.21888 8.15768 10.5857 9.52452L14.4748 13.4136C15.2558 14.1947 16.5221 14.1947 17.3032 13.4136C18.0843 12.6325 18.0843 11.3662 17.3032 10.5852C16.5222 9.80413 15.2559 9.8041 14.4748 10.5852L14.1212 10.9387L13.0606 9.87807L13.4141 9.52452C14.781 8.15768 16.9971 8.15768 18.3639 9.52452C19.7307 10.8914 19.7307 13.1074 18.3639 14.4743C16.9971 15.8411 14.781 15.8411 13.4141 14.4743L9.52505 10.5852C8.74401 9.80413 7.47771 9.8041 6.69663 10.5852C5.91555 11.3663 5.91558 12.6326 6.69663 13.4136C7.47767 14.1947 8.74397 14.1947 9.52505 13.4136L9.87861 13.0601L10.9393 14.1207L10.5857 14.4743C9.21888 15.8411 7.0028 15.8411 5.63597 14.4743C4.26913 13.1074 4.26913 10.8914 5.63597 9.52452Z" clip-rule="evenodd"/></svg>