<svg xmlns="http://www.w3.org/2000/svg" width="16" height="16" viewBox="0 0 16 16"><g><path fill-rule="evenodd" d="M12.0333 7.62963C12.0333 10.0128 10.0864 11.9593 7.66667 11.9593C5.24697 11.9593 3.3 10.0128 3.3 7.62963C3.3 5.24647 5.24697 3.3 7.66667 3.3C10.0864 3.3 12.0333 5.24647 12.0333 7.62963ZM10.9594 12.2119C10.0313 12.8712 8.89461 13.2593 7.66667 13.2593C4.53705 13.2593 2 10.7388 2 7.62963C2 4.52047 4.53705 2 7.66667 2C10.7963 2 13.3333 4.52047 13.3333 7.62963C13.3333 9.0516 12.8027 10.3504 11.9273 11.3413L14.1265 13.5406C14.3804 13.7944 14.3804 14.206 14.1265 14.4598C13.8727 14.7136 13.4611 14.7136 13.2073 14.4598L10.9594 12.2119Z" clip-rule="evenodd"/></g></svg>