<svg xmlns="http://www.w3.org/2000/svg" width="24" height="24" viewBox="0 0 24 24"><g><g><path fill-rule="evenodd" d="M18.9 11.5H5.1C5.04477 11.5 5 11.5448 5 11.6V19.4C5 19.4552 5.04477 19.5 5.1 19.5H18.9C18.9552 19.5 19 19.4552 19 19.4V11.6C19 11.5448 18.9552 11.5 18.9 11.5ZM5.1 10C4.21634 10 3.5 10.7163 3.5 11.6V19.4C3.5 20.2837 4.21634 21 5.1 21H18.9C19.7837 21 20.5 20.2837 20.5 19.4V11.6C20.5 10.7163 19.7837 10 18.9 10H5.1Z" clip-rule="evenodd"/><path fill-rule="evenodd" d="M8.75896 9.30014C8.76273 9.54166 8.76639 9.77606 8.76639 10C8.76639 10.4142 8.4306 10.75 8.01639 10.75C7.60218 10.75 7.26639 10.4142 7.26639 10C7.26639 9.82291 7.26277 9.62322 7.25884 9.40606C7.23884 8.30098 7.21064 6.7436 7.60899 5.4103C7.8549 4.58719 8.27841 3.78095 9.01402 3.18346C9.75711 2.57991 10.7439 2.25 11.9999 2.25C13.2559 2.25 14.2427 2.57991 14.9858 3.18346C15.7214 3.78095 16.1449 4.58719 16.3909 5.4103C16.7892 6.7436 16.761 8.30097 16.741 9.40605C16.7371 9.62321 16.7335 9.8229 16.7335 10C16.7335 10.4142 16.3977 10.75 15.9835 10.75C15.5693 10.75 15.2335 10.4142 15.2335 10C15.2335 9.77606 15.2371 9.54165 15.2409 9.30013C15.2583 8.18809 15.278 6.92529 14.9536 5.8397C14.7639 5.20447 14.4716 4.69821 14.0401 4.34779C13.6162 4.00343 12.9847 3.75 11.9999 3.75C11.0152 3.75 10.3837 4.00343 9.95972 4.34779C9.52828 4.69821 9.236 5.20447 9.04621 5.8397C8.72188 6.92529 8.74159 8.1881 8.75896 9.30014Z" clip-rule="evenodd"/><path fill-rule="evenodd" d="M8.25 15.5C8.25 15.0858 8.58579 14.75 9 14.75H15C15.4142 14.75 15.75 15.0858 15.75 15.5C15.75 15.9142 15.4142 16.25 15 16.25H9C8.58579 16.25 8.25 15.9142 8.25 15.5Z" clip-rule="evenodd"/></g></g></svg>