<svg xmlns="http://www.w3.org/2000/svg" width="24" height="24" viewBox="0 0 24 24"><path fill-rule="evenodd" d="M1.14882 11.2478H2.07011C2.09236 11.2478 2.11438 11.2487 2.13614 11.2506C2.49177 9.18031 4.29567 7.60498 6.4675 7.60498C8.50901 7.60498 10.2254 8.99692 10.7194 10.8835C11.0862 10.8369 11.5677 10.7868 11.9661 10.7872C12.3678 10.7875 12.8548 10.8393 13.2205 10.8864L13.2781 10.8939C13.7685 9.00201 15.4875 7.60498 17.5327 7.60498C19.7054 7.60498 21.5099 9.18164 21.8645 11.2533C21.885 11.2516 21.9057 11.2507 21.9266 11.2507H22.8543C23.268 11.2507 23.6034 11.5861 23.6034 11.9999C23.6034 12.4136 23.268 12.749 22.8543 12.749H21.9266C21.9057 12.749 21.885 12.7482 21.8645 12.7465C21.5101 14.8182 19.7055 16.395 17.5327 16.395C15.2615 16.395 13.3927 14.6722 13.1617 12.4622C13.1592 12.4385 13.1569 12.4146 13.1548 12.3908C13.1144 12.3853 13.0723 12.3797 13.0289 12.3741C12.6748 12.3285 12.2663 12.2874 11.9648 12.2872C11.6605 12.2869 11.2042 12.3283 10.8468 12.3741L10.8385 12.4625C10.6073 14.6724 8.73859 16.395 6.4675 16.395C4.29576 16.395 2.49193 14.8198 2.13618 12.7496C2.11441 12.7515 2.09237 12.7524 2.07011 12.7524H1.14882C0.733314 12.7524 0.396484 12.4156 0.396484 12.0001C0.396484 11.5846 0.733314 11.2478 1.14882 11.2478ZM17.5327 9.10498C15.9338 9.10498 14.6377 10.4011 14.6377 12C14.6377 13.5988 15.9338 14.895 17.5327 14.895C19.1315 14.895 20.4277 13.5988 20.4277 12C20.4277 10.4011 19.1315 9.10498 17.5327 9.10498ZM6.4675 9.10498C4.86864 9.10498 3.57251 10.4011 3.57251 12C3.57251 13.5988 4.86864 14.895 6.4675 14.895C8.06636 14.895 9.36249 13.5988 9.36249 12C9.36249 10.4011 8.06636 9.10498 6.4675 9.10498Z" clip-rule="evenodd"/></svg>