<svg xmlns="http://www.w3.org/2000/svg" width="24" height="24" viewBox="0 0 24 24"><path d="M6.01953 4.19777C6.18482 4.6827 6.79497 4.83625 7.17009 4.4873L7.22121 4.43975C7.99097 3.72371 9.02531 3.36256 10.0735 3.44387L10.9053 3.5084C11.3221 3.54073 11.678 3.21129 11.678 2.7933C11.678 2.4292 11.4052 2.12286 11.0435 2.08085L10.674 2.03792C9.2039 1.86715 7.72523 2.27746 6.55332 3.18135L6.2569 3.40998C6.01736 3.59473 5.92194 3.91143 6.01953 4.19777Z"/><path fill-rule="evenodd" d="M2.59372 9.33893C2.16296 10.085 2.23825 10.9858 2.71833 11.6347C2.54952 11.783 2.40167 11.961 2.28326 12.1661C1.70621 13.1656 2.0375 14.4449 3.03442 15.0204L3.76659 15.4432C3.65058 15.5639 3.5472 15.7005 3.45985 15.8518C2.8828 16.8513 3.21409 18.1306 4.21101 18.7061L8.60803 21.2448C11.3778 22.8439 14.7596 22.4224 17.0468 20.4378C18.743 19.9129 20.2533 18.7718 21.2111 17.1129C22.7232 14.4939 21.9274 11.0381 19.9623 8.62229C19.2913 7.79745 18.5056 7.07248 17.7199 6.34741C17 5.68315 16.28 5.01876 15.648 4.27746C14.6511 3.70189 13.3776 4.05464 12.8005 5.05412C12.7811 5.08782 12.7306 5.17124 12.6634 5.28235C12.5926 5.39937 12.5031 5.54738 12.4118 5.69997C10.6137 4.92911 9.91667 6.29125 9.45793 7.87492L7.7344 6.87984C6.73748 6.30427 5.46394 6.65701 4.88689 7.65649C4.76848 7.86158 4.68825 8.07862 4.64422 8.29897C3.84224 8.20765 3.02447 8.59285 2.59372 9.33893ZM19.8439 16.3214C19.6505 16.6563 19.4284 16.9643 19.1823 17.2439C20.1059 14.4649 19.1652 11.4574 16.8785 9.56167C16.6562 9.3774 16.4286 9.19896 16.201 9.02052C15.7338 8.65424 15.2665 8.28781 14.8451 7.87105L13.8354 6.87232C13.9093 6.56136 14.0054 6.2085 14.169 5.84343C14.3435 5.45381 14.6188 5.51743 14.8538 5.65309C15.414 6.30868 16.0479 6.90415 16.6815 7.49934C17.5499 8.31505 18.4178 9.13027 19.0946 10.0991C20.4069 11.9773 20.9249 14.449 19.8439 16.3214ZM4.13973 10.8165C3.90474 10.6808 3.82022 10.3741 3.96214 10.1282C4.10406 9.88243 4.41201 9.80224 4.64699 9.9379L10.2193 13.1551C10.5994 13.3745 11.0853 13.2443 11.3047 12.8643C11.5241 12.4843 11.3939 11.9983 11.0139 11.7789L6.4329 9.13407C6.19791 8.9984 6.11338 8.69161 6.2553 8.4458C6.39722 8.19999 6.70518 8.1198 6.94016 8.25547L12.5125 11.4727C12.8925 11.6921 13.3785 11.5619 13.5979 11.1818C13.8173 10.8018 13.6871 10.3159 13.3071 10.0965L11.2045 8.88253C10.8693 8.689 11.3058 6.86073 12.1052 7.3223L14.0619 9.25505C14.4172 9.60596 14.8075 9.91889 15.1979 10.2319C15.4949 10.4699 15.7919 10.7081 16.0735 10.9629C17.986 12.6938 18.5685 15.439 17.217 17.7799C15.6387 20.5136 12.1426 21.4496 9.4089 19.8713L5.00586 17.3294C4.77088 17.1937 4.68635 16.8869 4.82827 16.6411C4.97019 16.3953 5.27814 16.3151 5.51312 16.4508L8.35924 18.094C8.73927 18.3134 9.2252 18.1832 9.44461 17.8032C9.66402 17.4231 9.53381 16.9372 9.15379 16.7178L3.82927 13.6437C3.59429 13.508 3.50976 13.2012 3.65168 12.9554C3.7936 12.7096 4.10156 12.6294 4.33654 12.7651L8.91753 15.4099C9.29756 15.6293 9.7835 15.4991 10.0029 15.1191C10.2223 14.7391 10.0921 14.2531 9.71208 14.0337L4.13973 10.8165Z" clip-rule="evenodd"/></svg>