<svg xmlns="http://www.w3.org/2000/svg" width="16" height="16" viewBox="0 0 16 16"><g><g><path d="M10.999 13.6213C10.999 13.2658 11.2873 12.9775 11.6428 12.9775H14.7558C15.1114 12.9775 15.3996 13.2658 15.3996 13.6213C15.3996 13.9769 15.1114 14.2651 14.7558 14.2651H11.6428C11.2873 14.2651 10.999 13.9769 10.999 13.6213Z"/><path fill-rule="evenodd" d="M8 0.299805C5.37613 0.299805 3.25 2.42593 3.25 5.0498C3.25 6.81561 4.21292 8.35599 5.64245 9.17463C3.50029 10.1458 1.9665 12.2576 1.75291 14.7443C1.72219 15.102 1.98723 15.4169 2.3449 15.4476C2.70257 15.4783 3.01742 15.2133 3.04814 14.8556C3.28789 12.0644 5.55949 9.90352 8.29285 9.90352C9.45286 9.90352 10.5251 10.2904 11.3967 10.9486C11.6831 11.165 12.0907 11.1081 12.3071 10.8217C12.5234 10.5352 12.4666 10.1276 12.1801 9.91125C11.6981 9.54716 11.1653 9.24881 10.5946 9.0295C11.8925 8.18173 12.75 6.71614 12.75 5.0498C12.75 2.42593 10.6239 0.299805 8 0.299805ZM8 1.5998C6.0941 1.5998 4.55 3.1439 4.55 5.0498C4.55 6.95571 6.0941 8.4998 8 8.4998C9.9059 8.4998 11.45 6.95571 11.45 5.0498C11.45 3.1439 9.9059 1.5998 8 1.5998Z" clip-rule="evenodd"/></g></g></svg>