<svg xmlns="http://www.w3.org/2000/svg" width="24" height="24" viewBox="0 0 24 24"><path fill-rule="evenodd" d="M12.0343 8.13287C9.90355 8.13287 8.17627 9.86016 8.17627 11.9909C8.17627 14.1216 9.90355 15.8489 12.0343 15.8489C14.165 15.8489 15.8923 14.1216 15.8923 11.9909C15.8923 9.86016 14.165 8.13287 12.0343 8.13287ZM9.67627 11.9909C9.67627 10.6886 10.732 9.63287 12.0343 9.63287C13.3366 9.63287 14.3923 10.6886 14.3923 11.9909C14.3923 13.2932 13.3366 14.3489 12.0343 14.3489C10.732 14.3489 9.67627 13.2932 9.67627 11.9909Z" clip-rule="evenodd"/><path fill-rule="evenodd" d="M13.1905 2.16993C12.4519 1.7513 11.5476 1.7513 10.809 2.16993L3.96691 6.04773C3.21029 6.47654 2.74268 7.27906 2.74268 8.14875V15.8513C2.74268 16.721 3.21029 17.5235 3.96691 17.9523L10.809 21.8301C11.5476 22.2487 12.4519 22.2487 13.1905 21.8301L20.0326 17.9523C20.7892 17.5235 21.2568 16.721 21.2568 15.8513V8.14875C21.2568 7.27906 20.7892 6.47654 20.0326 6.04773L13.1905 2.16993ZM11.5486 3.47492C11.8284 3.3163 12.171 3.3163 12.4509 3.47492L19.293 7.35271C19.5796 7.51518 19.7568 7.81924 19.7568 8.14875V15.8513C19.7568 16.1808 19.5796 16.4849 19.293 16.6473L12.4509 20.5251C12.171 20.6837 11.8284 20.6837 11.5486 20.5251L4.70651 16.6473C4.41985 16.4849 4.24268 16.1808 4.24268 15.8513V8.14875C4.24268 7.81924 4.41985 7.51518 4.70651 7.35271L11.5486 3.47492Z" clip-rule="evenodd"/></svg>