<svg xmlns="http://www.w3.org/2000/svg" width="24" height="24" viewBox="0 0 24 24"><path fill-rule="evenodd" d="M10.389 3.43C11.1049 2.19 12.8947 2.19 13.6106 3.43L21.7464 17.5216C22.4623 18.7616 21.5674 20.3116 20.1356 20.3116H3.864C2.43217 20.3116 1.53727 18.7616 2.25319 17.5216L10.389 3.43ZM12.3116 4.18C12.173 3.94 11.8266 3.94 11.688 4.18L3.55223 18.2716C3.41366 18.5116 3.58687 18.8116 3.864 18.8116H20.1356C20.4127 18.8116 20.5859 18.5116 20.4474 18.2716L12.3116 4.18Z" clip-rule="evenodd"/><path d="M11.2505 12.846C11.2505 13.26 11.5861 13.5957 12.0002 13.5957C12.4143 13.5957 12.7499 13.26 12.7499 12.846V9.34702C12.7499 8.93297 12.4143 8.59731 12.0002 8.59731C11.5861 8.59731 11.2505 8.93297 11.2505 9.34703V12.846Z"/><path d="M11 15.8706C11 16.4229 11.4477 16.8706 12 16.8706C12.5523 16.8706 13 16.4229 13 15.8706C13 15.3183 12.5523 14.8706 12 14.8706C11.4477 14.8706 11 15.3183 11 15.8706Z"/></svg>