<svg xmlns="http://www.w3.org/2000/svg" width="24" height="24" viewBox="0 0 24 24"><path fill-rule="evenodd" d="M15.3333 19.3332L12.569 22.0975C12.5065 22.16 12.4217 22.1951 12.3333 22.1951C12.1492 22.1951 12 22.0459 12 21.8618V19.3332H15.3333ZM15.3333 5.99984C16.0697 5.99984 16.6667 6.59679 16.6667 7.33317V15.9998C16.6667 17.4726 15.4728 18.6665 14 18.6665H7.33333C6.59695 18.6665 6 18.0695 6 17.3332V7.33317C6 6.59679 6.59695 5.99984 7.33333 5.99984H15.3333ZM15.7273 4.0127C17.2997 4.0127 18.5831 5.24988 18.6572 6.80391L18.6606 6.94603V15.7835C18.6606 16.4765 18.1318 17.0461 17.4557 17.1107L17.3273 17.1168V6.94603C17.3273 6.09919 16.6694 5.40601 15.8368 5.34972L15.7273 5.34603H7.33333C7.33333 4.60965 7.93029 4.0127 8.66667 4.0127H15.7273Z" clip-rule="evenodd"/></svg>