<svg xmlns="http://www.w3.org/2000/svg" width="24" height="25" viewBox="0 0 24 25"><path fill-rule="evenodd" d="M4 5.48666C4 5.07245 4.33579 4.73666 4.75 4.73666H19.25C19.6642 4.73666 20 5.07245 20 5.48666C20 5.90088 19.6642 6.23666 19.25 6.23666H4.75C4.33579 6.23666 4 5.90088 4 5.48666ZM4.00012 12.4867C4.00012 12.0725 4.33591 11.7367 4.75012 11.7367H12.0501C12.4643 11.7367 12.8001 12.0725 12.8001 12.4867C12.8001 12.9009 12.4643 13.2367 12.0501 13.2367H4.75012C4.33591 13.2367 4.00012 12.9009 4.00012 12.4867ZM4.75 18.7367C4.33579 18.7367 4 19.0725 4 19.4867C4 19.9009 4.33579 20.2367 4.75 20.2367H9.65C10.0642 20.2367 10.4 19.9009 10.4 19.4867C10.4 19.0725 10.0642 18.7367 9.65 18.7367H4.75ZM16.25 18.4258L14.5303 16.7063C14.2374 16.4134 13.7625 16.4135 13.4696 16.7064C13.1768 16.9993 13.1768 17.4742 13.4697 17.767L16.3994 20.6963C16.4111 20.708 16.423 20.7193 16.4352 20.7302C16.5727 20.8874 16.7748 20.9867 17 20.9867C17.2237 20.9867 17.4246 20.8887 17.562 20.7333C17.5755 20.7215 17.5886 20.7091 17.6015 20.6962L20.5304 17.767C20.8232 17.474 20.8232 16.9992 20.5303 16.7063C20.2374 16.4134 19.7625 16.4135 19.4696 16.7064L17.75 18.4262V9.73666C17.75 9.32245 17.4142 8.98666 17 8.98666C16.5858 8.98666 16.25 9.32245 16.25 9.73666V18.4258Z" clip-rule="evenodd"/></svg>