<svg xmlns="http://www.w3.org/2000/svg" width="24" height="24" viewBox="0 0 24 24"><path fill-rule="evenodd" d="M4.25 5.25C3.00736 5.25 2 6.25736 2 7.5V16.5C2 17.7426 3.00736 18.75 4.25 18.75H14.25C15.4926 18.75 16.5 17.7426 16.5 16.5V12V7.5C16.5 6.25736 15.4926 5.25 14.25 5.25H4.25ZM3.5 7.5C3.5 7.08579 3.83579 6.75 4.25 6.75H14.25C14.6642 6.75 15 7.08579 15 7.5V12V16.5C15 16.9142 14.6642 17.25 14.25 17.25H4.25C3.83579 17.25 3.5 16.9142 3.5 16.5V7.5ZM22 7.56752C22 6.50773 20.7639 5.92878 19.9498 6.60724L17.7699 8.42383C17.4517 8.68901 17.4087 9.16193 17.6738 9.48014C17.939 9.79835 18.4119 9.84134 18.7301 9.57617L20.5 8.10128V15.8987L18.7301 14.4238C18.4119 14.1587 17.939 14.2017 17.6738 14.5199C17.4087 14.8381 17.4517 15.311 17.7699 15.5762L19.9498 17.3928C20.7639 18.0712 22 17.4923 22 16.4325V7.56752Z" clip-rule="evenodd"/></svg>