<svg xmlns="http://www.w3.org/2000/svg" width="24" height="24" viewBox="0 0 24 24"><g><path fill-rule="evenodd" d="M5 4.55C5 3.96874 5.46896 3.5 6.0475 3.5H13.4999V7.25C13.4999 8.2165 14.2834 9 15.2499 9H19V19.45C19 20.0299 18.5299 20.5 17.95 20.5H6.05C5.4701 20.5 5 20.0299 5 19.45V4.55ZM15.25 2C15.4419 2 15.6339 2.07322 15.7803 2.21967L20.2803 6.71967C20.4268 6.86612 20.5 7.05806 20.5 7.25V19.45C20.5 20.8583 19.3583 22 17.95 22H6.05C4.64167 22 3.5 20.8583 3.5 19.45V4.55C3.5 3.14303 4.63781 2 6.0475 2H15.25ZM18.9393 7.5L14.9999 3.56054V7.25C14.9999 7.38807 15.1118 7.5 15.2499 7.5H18.9393ZM7.5 11.8397C7.5 11.4255 7.83579 11.0897 8.25 11.0897H11.7522C12.1664 11.0897 12.5022 11.4255 12.5022 11.8397C12.5022 12.2539 12.1664 12.5897 11.7522 12.5897H8.25C7.83579 12.5897 7.5 12.2539 7.5 11.8397ZM7.5 15.5C7.5 15.0858 7.83579 14.75 8.25 14.75H13.55C13.9642 14.75 14.3 15.0858 14.3 15.5C14.3 15.9142 13.9642 16.25 13.55 16.25H8.25C7.83579 16.25 7.5 15.9142 7.5 15.5Z" clip-rule="evenodd"/></g></svg>