<svg xmlns="http://www.w3.org/2000/svg" width="24" height="24" viewBox="0 0 24 24"><path d="M3.00049 5.41927C3.00049 4.0855 4.08172 3.00427 5.41548 3.00427H18.5842C19.9179 3.00427 20.9992 4.0855 20.9992 5.41927V11.4999C20.9992 11.9141 20.6634 12.2499 20.2492 12.2499C19.8349 12.2499 19.4992 11.9141 19.4992 11.4999V5.41927C19.4992 4.91393 19.0895 4.50427 18.5842 4.50427H5.41548C4.91014 4.50427 4.50049 4.91393 4.50049 5.41927V12.8395C4.50049 13.2537 4.1647 13.5895 3.75049 13.5895C3.33627 13.5895 3.00049 13.2537 3.00049 12.8395V5.41927Z"/><path d="M15.0895 13.4417C13.9478 13.4417 12.8336 13.7926 11.898 14.4469L9.84531 15.8822C8.41392 16.8832 6.7095 17.42 4.96287 17.42H4.50049V18.5806C4.50049 19.0859 4.91014 19.4956 5.41548 19.4956H13.9995C14.4137 19.4956 14.7495 19.8314 14.7495 20.2456C14.7495 20.6598 14.4137 20.9956 13.9995 20.9956H5.41548C4.08172 20.9956 3.00049 19.9143 3.00049 18.5806V17.225C3.00049 16.5042 3.58476 15.92 4.30549 15.92H4.96287C6.40199 15.92 7.80634 15.4777 8.98572 14.653L11.0384 13.2176C12.2261 12.3871 13.6403 11.9417 15.0895 11.9417H15.2802C15.6944 11.9417 16.0302 12.2775 16.0302 12.6917C16.0302 13.1059 15.6944 13.4417 15.2802 13.4417H15.0895Z"/><path d="M16.4691 17.5302C16.1762 17.2373 16.1763 16.7624 16.4692 16.4695L18.4692 14.4697C18.7621 14.1769 19.2369 14.1769 19.5298 14.4697L21.5298 16.4695C21.8227 16.7624 21.8227 17.2373 21.5298 17.5302C21.237 17.8231 20.7621 17.8231 20.4692 17.5302L19.7495 16.8106V20.7001C19.7495 21.1143 19.4137 21.4501 18.9995 21.4501C18.5853 21.4501 18.2495 21.1143 18.2495 20.7001V16.8106L17.5298 17.5302C17.2369 17.8231 16.762 17.8231 16.4691 17.5302Z"/><path fill-rule="evenodd" d="M8.91761 6.52032C7.58294 6.52032 6.50097 7.60229 6.50097 8.93697C6.50097 10.2716 7.58294 11.3536 8.91761 11.3536C10.2523 11.3536 11.3343 10.2716 11.3343 8.93697C11.3343 7.60229 10.2523 6.52032 8.91761 6.52032ZM8.00097 8.93697C8.00097 8.43072 8.41136 8.02032 8.91761 8.02032C9.42386 8.02032 9.83426 8.43072 9.83426 8.93697C9.83426 9.44322 9.42386 9.85361 8.91761 9.85361C8.41136 9.85361 8.00097 9.44322 8.00097 8.93697Z" clip-rule="evenodd"/></svg>