<svg xmlns="http://www.w3.org/2000/svg" width="24" height="24" viewBox="0 0 24 24"><path d="M4.16463 6.59083L7.68716 3.0683C7.98006 2.77541 8.45493 2.77541 8.74782 3.0683C9.04072 3.3612 9.04072 3.83607 8.74782 4.12896L6.49263 6.38416L12.6478 6.38416C16.5719 6.38416 19.677 9.07432 19.677 13.0708C19.677 15.0883 18.717 16.7772 17.3799 17.9463C16.0511 19.108 14.309 19.7949 12.6475 19.7949L5.0823 19.7949C4.66809 19.7949 4.3323 19.4591 4.3323 19.0449C4.3323 18.6307 4.66809 18.2949 5.0823 18.2949H12.6475C13.9166 18.2949 15.3143 17.7598 16.3926 16.817C17.4625 15.8816 18.177 14.5834 18.177 13.0708C18.177 10.0069 15.8516 7.88416 12.6478 7.88416L6.49263 7.88416L8.74784 10.1393C9.04073 10.4322 9.04074 10.9071 8.74784 11.2C8.45495 11.4929 7.98008 11.4929 7.68718 11.2L4.16439 7.67726C4.021 7.54065 3.93164 7.34784 3.93164 7.13416C3.93164 6.92036 4.0211 6.72745 4.16463 6.59083Z"/></svg>