<svg xmlns="http://www.w3.org/2000/svg" width="24" height="24" viewBox="0 0 24 24"><path fill-rule="evenodd" d="M7.1579 4.60329C7.44652 3.59499 8.36837 2.9 9.41717 2.9H16.0532C17.0948 2.9 17.744 4.02963 17.2196 4.92962L14.6168 9.39694H17.7441C18.9288 9.39694 19.5389 10.8139 18.7248 11.6746L18.3333 12.0886C18.0487 12.3895 17.574 12.4027 17.2731 12.118C16.9721 11.8334 16.9589 11.3587 17.2436 11.0578L17.3957 10.8969H13.3118C13.0433 10.8969 12.7953 10.7534 12.6616 10.5207C12.5278 10.2879 12.5286 10.0014 12.6638 9.76938L15.7922 4.4H9.41717C9.03781 4.4 8.70438 4.65138 8.59998 5.01609L6.15867 13.5448H9.63384C9.85568 13.5448 10.0661 13.643 10.2086 13.813C10.3511 13.983 10.4111 14.2074 10.3723 14.4258L9.52119 19.2221L10.4984 18.189C10.783 17.888 11.2577 17.8748 11.5586 18.1595C11.8595 18.4441 11.8728 18.9188 11.5881 19.2197L10.2668 20.6167C9.346 21.5901 7.72264 20.7724 7.95675 19.4531L8.73904 15.0448H5.95971C5.06252 15.0448 4.41493 14.1858 4.66184 13.3233L7.1579 4.60329ZM17.3326 18.5814L18.1736 20.6961C18.3062 21.0296 18.6842 21.1925 19.0178 21.0598C19.3513 20.9272 19.5142 20.5492 19.3815 20.2156L16.7075 13.4923C16.4129 12.7515 15.3644 12.7515 15.0698 13.4923L12.3958 20.2156C12.2631 20.5492 12.426 20.9272 12.7596 21.0598C13.0931 21.1925 13.4711 21.0296 13.6038 20.6961L14.4448 18.5814H17.3326ZM16.8155 17.2815L15.8887 14.951L14.9618 17.2815H16.8155Z" clip-rule="evenodd"/></svg>