<svg xmlns="http://www.w3.org/2000/svg" width="24" height="24" viewBox="0 0 24 24"><path fill-rule="evenodd" d="M13.5 11.25C13.0858 11.25 12.75 10.9142 12.75 10.5V4C12.75 3.58579 13.0858 3.25 13.5 3.25C13.9142 3.25 14.25 3.58579 14.25 4V8.68934L19.4697 3.46967C19.7626 3.17678 20.2374 3.17678 20.5303 3.46967C20.8232 3.76256 20.8232 4.23744 20.5303 4.53033L15.3107 9.75H20C20.4142 9.75 20.75 10.0858 20.75 10.5C20.75 10.9142 20.4142 11.25 20 11.25H13.5ZM4 12.75C3.58579 12.75 3.25 13.0858 3.25 13.5C3.25 13.9142 3.58579 14.25 4 14.25H8.68934L3.46967 19.4697C3.17678 19.7626 3.17678 20.2374 3.46967 20.5303C3.76256 20.8232 4.23744 20.8232 4.53033 20.5303L9.75 15.3107V19.9999C9.75 20.4142 10.0858 20.7499 10.5 20.7499C10.9142 20.7499 11.25 20.4142 11.25 19.9999L11.25 13.5C11.25 13.1117 10.9549 12.7923 10.5767 12.7539C10.5515 12.7513 10.5259 12.75 10.5 12.75H4Z" clip-rule="evenodd"/></svg>