<svg xmlns="http://www.w3.org/2000/svg" width="24" height="24" viewBox="0 0 24 24"><path fill-rule="evenodd" d="M11.8957 4.25C15.2821 4.25 18.1638 6.34099 19.2874 9.26882C19.4055 9.57667 19.7045 9.76188 20.0166 9.74976C20.0244 9.75 20.0322 9.75012 20.04 9.75012C20.4543 9.75012 20.79 9.41434 20.79 9.00012V5.50012C20.79 5.08591 20.4543 4.75012 20.04 4.75012C19.6258 4.75012 19.29 5.08591 19.29 5.50012V6.29246C17.5686 4.13378 14.8944 2.75 11.8957 2.75C6.71867 2.75 2.5 6.8794 2.5 12C2.5 17.1206 6.71867 21.25 11.8957 21.25C12.3032 21.25 12.7051 21.2244 13.0995 21.1747C13.5105 21.1229 13.8017 20.7478 13.7499 20.3368C13.6981 19.9259 13.323 19.6347 12.912 19.6865C12.5796 19.7284 12.2404 19.75 11.8957 19.75C7.52296 19.75 4 16.2682 4 12C4 7.73176 7.52296 4.25 11.8957 4.25ZM13.1943 13.8643C13.539 14.094 14.0046 14.0009 14.2344 13.6563C14.4642 13.3116 14.371 12.846 14.0264 12.6162L12.5002 11.5987V8.5C12.5002 8.08579 12.1644 7.75 11.7502 7.75C11.336 7.75 11.0002 8.08579 11.0002 8.5V11.9815C10.9989 12.0348 11.0033 12.088 11.0133 12.1401C11.022 12.1863 11.0349 12.2309 11.0517 12.2737C11.1057 12.4119 11.2012 12.5355 11.334 12.6241L13.1943 13.8643ZM22.0605 18.2168C22.0605 19.9336 20.7305 21.1699 18.9023 21.1699C17.584 21.1699 16.541 20.5254 15.9551 19.2891C15.6445 18.6387 15.4863 17.8301 15.4863 16.8691C15.4863 14.0508 16.7754 12.3691 18.9258 12.3691C20.2148 12.3691 21.1992 12.9316 21.6211 13.7344C21.7148 13.9043 21.7559 14.0508 21.7559 14.2148C21.7559 14.5605 21.5098 14.8242 21.1113 14.8242C20.8125 14.8242 20.625 14.6836 20.3906 14.3848C19.998 13.8457 19.5469 13.5996 18.9199 13.5996C17.6426 13.5996 16.9629 14.7773 16.9336 16.7227V16.8105H16.9629C17.2969 16.0312 18.1406 15.4453 19.2891 15.4453C20.918 15.4453 22.0605 16.6172 22.0605 18.2168ZM17.1914 18.2461C17.1914 19.1953 17.9355 19.9395 18.8789 19.9395C19.8223 19.9395 20.5723 19.2012 20.5723 18.2754C20.5781 17.3027 19.8691 16.6113 18.8965 16.6113C17.9238 16.6113 17.1914 17.3027 17.1914 18.2461Z" clip-rule="evenodd"/></svg>