<svg xmlns="http://www.w3.org/2000/svg" width="24" height="24" viewBox="0 0 24 24"><path fill-rule="evenodd" d="M19.5374 9.26882C18.4139 6.34099 15.5321 4.25 12.1458 4.25C7.77302 4.25 4.25006 7.73176 4.25006 12C4.25006 16.2682 7.77302 19.75 12.1458 19.75C15.8087 19.75 18.8799 17.3039 19.7762 14.0001C19.8847 13.6003 20.2967 13.3642 20.6964 13.4726C21.0962 13.5811 21.3324 13.9931 21.2239 14.3929C20.1506 18.3486 16.4875 21.25 12.1458 21.25C6.96873 21.25 2.75006 17.1206 2.75006 12C2.75006 6.8794 6.96873 2.75 12.1458 2.75C15.1445 2.75 17.8188 4.13384 19.5402 6.29261V5.50012C19.5402 5.08591 19.876 4.75012 20.2902 4.75012C20.7044 4.75012 21.0402 5.08591 21.0402 5.50012L21.0402 9.00012C21.0402 9.41434 20.7044 9.75012 20.2902 9.75012C20.2824 9.75012 20.2745 9.75 20.2667 9.74976C19.9546 9.76191 19.6556 9.57669 19.5374 9.26882Z" clip-rule="evenodd"/><path d="M14.4369 14.6218C14.7762 14.8594 15.2439 14.7769 15.4814 14.4376C15.719 14.0983 15.6366 13.6306 15.2973 13.3931L12.75 11.6095V8.5C12.75 8.08579 12.4142 7.75 12 7.75C11.5858 7.75 11.25 8.08579 11.25 8.5V11.9935V12C11.25 12.26 11.3689 12.4797 11.5699 12.6143L14.4369 14.6218Z"/></svg>