<svg xmlns="http://www.w3.org/2000/svg" width="24" height="24" viewBox="0 0 24 24"><path fill-rule="evenodd" d="M3 19.4V4.6C3 3.71634 3.71634 3 4.6 3H19.4C20.2837 3 21 3.71634 21 4.6V19.4C21 20.2837 20.2837 21 19.4 21H4.6C3.71634 21 3 20.2837 3 19.4ZM9.00898 14.7634L9.00897 14.7634C7.3521 15.3051 5.87223 15.7888 5.5603 17.7011C5.48917 18.1372 5.85817 18.5 6.3 18.5H17.7C18.1418 18.5 18.5 18.1418 18.5 17.7V11.3C18.5 10.8582 18.1395 10.4968 17.6983 10.521C14.9419 10.6719 13.9345 11.6126 12.9038 12.575C12.3616 13.0812 11.813 13.5935 11 14C10.3496 14.3252 9.66541 14.5489 9.00898 14.7634ZM7.75 10C8.7165 10 9.5 9.2165 9.5 8.25C9.5 7.2835 8.7165 6.5 7.75 6.5C6.7835 6.5 6 7.2835 6 8.25C6 9.2165 6.7835 10 7.75 10Z" clip-rule="evenodd"/></svg>