<svg xmlns="http://www.w3.org/2000/svg" width="24" height="24" viewBox="0 0 24 24"><g><path fill-rule="evenodd" d="M4.4 3C3.07452 3 2 4.07452 2 5.4V15.9C2 17.2255 3.07452 18.3 4.4 18.3H12.6916L15.7648 21.6526C16.2361 22.1667 17.0938 21.8735 17.1518 21.1784L17.3916 18.3H19.6C20.9255 18.3 22 17.2255 22 15.9V5.4C22 4.07452 20.9255 3 19.6 3H4.4ZM11.2563 10.8948C11.2563 10.4812 11.5916 10.146 12.0051 10.146C12.4187 10.146 12.7539 10.4812 12.7539 10.8948V13.837C12.7539 14.2505 12.4187 14.5858 12.0051 14.5858C11.5916 14.5858 11.2563 14.2505 11.2563 13.837V10.8948ZM12.005 6.81598C11.392 6.81598 10.895 7.31294 10.895 7.92598C10.895 8.53902 11.392 9.03598 12.005 9.03598C12.6181 9.03598 13.115 8.53902 13.115 7.92598C13.115 7.31294 12.6181 6.81598 12.005 6.81598Z" clip-rule="evenodd"/></g></svg>