<svg xmlns="http://www.w3.org/2000/svg" width="24" height="24" viewBox="0 0 24 24"><path d="M8.5 4.07782C8.5 2.24411 10.4861 1.09899 12.0731 2.01775C13.7298 2.9769 14.663 4.82463 14.4516 6.72727L14.3379 7.74996H17.9194C20.4493 7.74996 22.2533 10.2038 21.4987 12.6185L19.6761 18.4508C19.1559 20.1155 17.5599 21.197 15.8279 21.0902C13.456 20.9438 9.78636 20.75 7 20.75H4.49936C3.53225 20.75 2.75 19.9658 2.75 19V9.49996C2.75 8.53346 3.5335 7.74996 4.5 7.74996H5.1371C6.55156 7.74996 7.81995 6.87883 8.32771 5.55864C8.4416 5.26254 8.5 4.94801 8.5 4.63076V4.07782Z"/></svg>