<svg xmlns="http://www.w3.org/2000/svg" width="24" height="24" viewBox="0 0 24 24"><path fill-rule="evenodd" d="M7.1579 4.63329C7.44652 3.62499 8.36837 2.93 9.41717 2.93H16.0532C17.0948 2.93 17.744 4.05963 17.2196 4.95962L14.6168 9.42694H17.7441C18.9288 9.42694 19.5389 10.8439 18.7248 11.7046L10.2668 20.6467C9.346 21.6201 7.72264 20.8024 7.95675 19.4831L8.73904 15.0748H5.95971C5.06252 15.0748 4.41493 14.2158 4.66184 13.3533L7.1579 4.63329ZM9.41717 4.43C9.03781 4.43 8.70438 4.68138 8.59998 5.04608L6.15867 13.5748H9.63384C9.85568 13.5748 10.0661 13.673 10.2086 13.843C10.3511 14.013 10.4111 14.2374 10.3723 14.4558L9.52119 19.2521L17.3957 10.9269H13.3118C13.0433 10.9269 12.7953 10.7834 12.6616 10.5507C12.5278 10.3179 12.5286 10.0314 12.6638 9.79938L15.7922 4.43H9.41717Z" clip-rule="evenodd"/></svg>