<svg xmlns="http://www.w3.org/2000/svg" width="16" height="16" viewBox="0 0 16 16"><path fill-rule="evenodd" d="M9.5496 10.8908L11.4215 12.8794C11.4508 12.9176 11.4833 12.9542 11.5188 12.9887C11.5324 13.0019 11.5463 13.0147 11.5605 13.027C11.9389 13.4194 12.5303 13.404 12.8881 12.9907C12.8994 12.9798 12.9105 12.9685 12.9213 12.957L14.9231 10.8298C15.3017 10.4275 15.2875 9.78948 14.8915 9.4047C14.4954 9.01991 13.8675 9.03409 13.4889 9.43636L13.2041 9.73899V5.06666C13.2041 3.18889 11.6819 1.66666 9.80414 1.66666H7.69971C7.14742 1.66666 6.69971 2.11437 6.69971 2.66666C6.69971 3.21894 7.14742 3.66666 7.69971 3.66666L9.80414 3.66666C10.5773 3.66666 11.2041 4.29346 11.2041 5.06666V9.74707L10.8544 9.37551C10.4758 8.97329 9.87677 8.98643 9.51646 9.40487C9.15616 9.82331 9.17099 10.4886 9.5496 10.8908ZM1.06214 6.59292C1.42379 7.01019 2.02495 7.0234 2.40486 6.62241L2.76452 6.2428V10.9333C2.76452 12.8111 4.28675 14.3333 6.16452 14.3333H8.29837C8.85065 14.3333 9.29837 13.8856 9.29837 13.3333C9.29837 12.781 8.85065 12.3333 8.29837 12.3333H6.16452C5.39132 12.3333 4.76452 11.7065 4.76452 10.9333V6.24838L5.06097 6.56136C5.44083 6.96239 6.07084 6.97661 6.46814 6.59312C6.86543 6.20962 6.87956 5.57364 6.4997 5.1726L4.4848 3.04539C4.47449 3.03451 4.464 3.0239 4.45333 3.01359C4.09342 2.59835 3.49634 2.58327 3.11614 2.97832C3.10308 2.98969 3.09024 3.00146 3.07764 3.01363C3.043 3.04707 3.01127 3.08242 2.98246 3.11938L1.0952 5.11132C0.715289 5.51231 0.700485 6.17564 1.06214 6.59292Z" clip-rule="evenodd"/></svg>