<svg xmlns="http://www.w3.org/2000/svg" width="24" height="24" viewBox="0 0 24 24"><path fill-rule="evenodd" d="M5.39206 8.45067C4.42789 10.024 4.05677 11.8898 4.34544 13.7124C4.6341 15.535 5.56362 17.1947 6.96679 18.3932C8.36997 19.5916 10.1547 20.25 12 20.25C13.8453 20.25 15.63 19.5916 17.0332 18.3932C18.4364 17.1947 19.3659 15.535 19.6546 13.7124C19.9432 11.8898 19.5721 10.024 18.6079 8.45066C17.8826 7.26708 16.8576 6.30738 15.647 5.66177C15.2815 5.46684 15.1433 5.01254 15.3382 4.64706C15.5331 4.28158 15.9874 4.14331 16.3529 4.33824C17.7977 5.10879 19.0212 6.25422 19.8869 7.66692C21.0377 9.54481 21.4806 11.7717 21.1361 13.947C20.7916 16.1224 19.6821 18.1034 18.0074 19.5338C16.3326 20.9641 14.2025 21.75 12 21.75C9.79755 21.75 7.66738 20.9641 5.99262 19.5338C4.31786 18.1034 3.20844 16.1224 2.8639 13.947C2.51936 11.7717 2.96232 9.54481 4.1131 7.66692C4.97879 6.25423 6.20229 5.10881 7.64706 4.33826C8.01254 4.14333 8.46684 4.28159 8.66176 4.64707C8.85669 5.01255 8.71843 5.46685 8.35295 5.66178C7.14243 6.3074 6.11735 7.2671 5.39206 8.45067Z" clip-rule="evenodd"/><path fill-rule="evenodd" d="M12 2.25C12.4142 2.25 12.75 2.58579 12.75 3V11C12.75 11.4142 12.4142 11.75 12 11.75C11.5858 11.75 11.25 11.4142 11.25 11V3C11.25 2.58579 11.5858 2.25 12 2.25Z" clip-rule="evenodd"/></svg>