<svg xmlns="http://www.w3.org/2000/svg" width="24" height="24" viewBox="0 0 24 24"><path fill-rule="evenodd" d="M5 4.1C5 3.21635 5.71634 2.5 6.6 2.5H17.4C18.2837 2.5 19 3.21634 19 4.1V19.9C19 20.7837 18.2837 21.5 17.4 21.5H6.6C5.71635 21.5 5 20.7837 5 19.9V4.1ZM7 5.1C7 4.76863 7.26863 4.5 7.6 4.5H16.4C16.7314 4.5 17 4.76863 17 5.1V14.15C17 14.4814 16.7314 14.75 16.4 14.75H7.6C7.26863 14.75 7 14.4814 7 14.15V5.1ZM11.975 19.5C12.7344 19.5 13.35 18.8844 13.35 18.125C13.35 17.3656 12.7344 16.75 11.975 16.75C11.2156 16.75 10.6 17.3656 10.6 18.125C10.6 18.8844 11.2156 19.5 11.975 19.5Z" clip-rule="evenodd"/></svg>