<svg xmlns="http://www.w3.org/2000/svg" width="24" height="24" viewBox="0 0 24 24"><path fill-rule="evenodd" d="M6.01367 5.5C5.18524 5.5 4.51367 6.17157 4.51367 7C4.51367 7.82843 5.18524 8.5 6.01367 8.5C6.8421 8.5 7.51367 7.82843 7.51367 7C7.51367 6.17157 6.8421 5.5 6.01367 5.5ZM3.01367 7C3.01367 5.34315 4.35682 4 6.01367 4C7.67053 4 9.01367 5.34315 9.01367 7C9.01367 8.65685 7.67053 10 6.01367 10C4.35682 10 3.01367 8.65685 3.01367 7ZM10.25 5C10.25 4.58579 10.5858 4.25 11 4.25H21.5C21.9142 4.25 22.25 4.58579 22.25 5C22.25 5.41421 21.9142 5.75 21.5 5.75H11C10.5858 5.75 10.25 5.41421 10.25 5ZM11 8.27686C10.5858 8.27686 10.25 8.61264 10.25 9.02686C10.25 9.44107 10.5858 9.77686 11 9.77686H19.5C19.9142 9.77686 20.25 9.44107 20.25 9.02686C20.25 8.61264 19.9142 8.27686 19.5 8.27686H11ZM11 18.2769C10.5858 18.2769 10.25 18.6126 10.25 19.0269C10.25 19.4411 10.5858 19.7769 11 19.7769H19.5C19.9142 19.7769 20.25 19.4411 20.25 19.0269C20.25 18.6126 19.9142 18.2769 19.5 18.2769H11ZM11 14.25C10.5858 14.25 10.25 14.5858 10.25 15C10.25 15.4142 10.5858 15.75 11 15.75H21.5C21.9142 15.75 22.25 15.4142 22.25 15C22.25 14.5858 21.9142 14.25 21.5 14.25H11ZM4.51367 17.0001C4.51367 16.1717 5.18524 15.5001 6.01367 15.5001C6.8421 15.5001 7.51367 16.1717 7.51367 17.0001C7.51367 17.8285 6.8421 18.5001 6.01367 18.5001C5.18524 18.5001 4.51367 17.8285 4.51367 17.0001ZM6.01367 14.0001C4.35682 14.0001 3.01367 15.3433 3.01367 17.0001C3.01367 18.657 4.35682 20.0001 6.01367 20.0001C7.67053 20.0001 9.01367 18.657 9.01367 17.0001C9.01367 15.3433 7.67053 14.0001 6.01367 14.0001Z" clip-rule="evenodd"/></svg>