<svg xmlns="http://www.w3.org/2000/svg" width="24" height="24" viewBox="0 0 24 24"><path fill-rule="evenodd" d="M21.7504 4.5C21.7504 4.91421 21.4146 5.25 21.0004 5.25L14 5.25C13.5858 5.25 13.25 4.91421 13.25 4.5C13.25 4.08579 13.5858 3.75 14 3.75L21.0004 3.75C21.4146 3.75 21.7504 4.08579 21.7504 4.5ZM21 9.74995C21.4142 9.74995 21.75 9.41417 21.75 8.99995C21.75 8.58574 21.4142 8.24995 21 8.24995H14C13.5858 8.24995 13.25 8.58574 13.25 8.99995C13.25 9.41417 13.5858 9.74995 14 9.74995H21ZM21.75 15C21.75 15.4142 21.4142 15.75 21 15.75H14C13.5858 15.75 13.25 15.4142 13.25 15C13.25 14.5857 13.5858 14.25 14 14.25H21C21.4142 14.25 21.75 14.5857 21.75 15ZM21.75 20C21.75 20.4142 21.4142 20.75 21 20.75H14C13.5858 20.75 13.25 20.4142 13.25 20C13.25 19.5858 13.5858 19.25 14 19.25H21C21.4142 19.25 21.75 19.5858 21.75 20ZM10.8823 13.2231C11.4173 12.877 11.433 12.0997 10.9124 11.7323L4.91901 7.50161C4.32284 7.08078 3.5 7.50714 3.5 8.23688V16.3456C3.5 17.0589 4.2901 17.4887 4.88893 17.1012L10.8823 13.2231Z" clip-rule="evenodd"/></svg>