<svg xmlns="http://www.w3.org/2000/svg" width="16" height="16" viewBox="0 0 16 16"><g><path fill-rule="evenodd" d="M5.9001 2.1501C5.76203 2.1501 5.6501 2.26203 5.6501 2.4001V3.3501H10.3501V2.4001C10.3501 2.26203 10.2382 2.1501 10.1001 2.1501H5.9001ZM4.3501 2.4001V3.3501H2.0001C1.64111 3.3501 1.3501 3.64111 1.3501 4.0001C1.3501 4.35908 1.64111 4.6501 2.0001 4.6501H14.0001C14.3591 4.6501 14.6501 4.35908 14.6501 4.0001C14.6501 3.64111 14.3591 3.3501 14.0001 3.3501H11.6501V2.4001C11.6501 1.54406 10.9561 0.850098 10.1001 0.850098H5.9001C5.04406 0.850098 4.3501 1.54406 4.3501 2.4001ZM4.1501 6.24937C4.1501 5.89038 3.85908 5.59937 3.5001 5.59937C3.14111 5.59937 2.8501 5.89038 2.8501 6.24937V13.1C2.8501 13.9561 3.54406 14.65 4.4001 14.65H11.6001C12.4561 14.65 13.1501 13.9561 13.1501 13.1V6.25006C13.1501 5.89108 12.8591 5.60006 12.5001 5.60006C12.1411 5.60006 11.8501 5.89108 11.8501 6.25006V13.1C11.8501 13.2381 11.7382 13.35 11.6001 13.35H4.4001C4.26203 13.35 4.1501 13.2381 4.1501 13.1V6.24937ZM6.4999 6.3999C6.83127 6.3999 7.0999 6.66853 7.0999 6.9999V10.9999C7.0999 11.3313 6.83127 11.5999 6.4999 11.5999C6.16853 11.5999 5.8999 11.3313 5.8999 10.9999V6.9999C5.8999 6.66853 6.16853 6.3999 6.4999 6.3999ZM10.0999 6.9999C10.0999 6.66853 9.83127 6.3999 9.4999 6.3999C9.16853 6.3999 8.8999 6.66853 8.8999 6.9999V10.9999C8.8999 11.3313 9.16853 11.5999 9.4999 11.5999C9.83127 11.5999 10.0999 11.3313 10.0999 10.9999V6.9999Z" clip-rule="evenodd"/></g></svg>