<svg xmlns="http://www.w3.org/2000/svg" width="24" height="24" viewBox="0 0 24 24"><g><g><path fill-rule="evenodd" d="M12 20.5C16.6944 20.5 20.5 16.6944 20.5 12C20.5 7.30558 16.6944 3.5 12 3.5C7.30558 3.5 3.5 7.30558 3.5 12C3.5 16.6944 7.30558 20.5 12 20.5ZM12 22C17.5228 22 22 17.5228 22 12C22 6.47715 17.5228 2 12 2C6.47715 2 2 6.47715 2 12C2 17.5228 6.47715 22 12 22Z" clip-rule="evenodd"/><path fill-rule="evenodd" d="M10.4141 15.1753C10.1212 14.8825 10.1212 14.4076 10.4141 14.1147L15.159 9.36979C15.4519 9.0769 15.9268 9.0769 16.2197 9.36979C16.5126 9.66269 16.5126 10.1376 16.2197 10.4305L11.4748 15.1753C11.1819 15.4682 10.707 15.4682 10.4141 15.1753Z" clip-rule="evenodd"/><path fill-rule="evenodd" d="M7.78034 11.4805C8.07323 11.1876 8.54811 11.1876 8.841 11.4805L11.4748 14.1143C11.7677 14.4072 11.7677 14.8825 11.4748 15.1753C11.1819 15.4682 10.707 15.4682 10.4141 15.1753L7.78034 12.5412C7.48745 12.2483 7.48745 11.7734 7.78034 11.4805Z" clip-rule="evenodd"/></g></g></svg>