<svg xmlns="http://www.w3.org/2000/svg" width="24" height="24" viewBox="0 0 24 24"><path fill-rule="evenodd" d="M5.22069 4.25C4.68459 4.25 4.25 4.68459 4.25 5.2207V18.7793C4.25 19.3154 4.68458 19.75 5.22069 19.75H18.7793C19.3154 19.75 19.75 19.3154 19.75 18.7793V5.22068C19.75 4.68461 19.3154 4.25 18.7793 4.25H5.22069ZM2.75 5.2207C2.75 3.85616 3.85616 2.75 5.22069 2.75H18.7793C20.1438 2.75 21.25 3.85614 21.25 5.22068V18.7793C21.25 20.1439 20.1437 21.25 18.7793 21.25H5.22069C3.85617 21.25 2.75 20.1438 2.75 18.7793V5.2207Z" clip-rule="evenodd"/><path fill-rule="evenodd" d="M16.95 9.40004C17.2814 9.64857 17.3485 10.1187 17.1 10.45L14.6684 13.6922C14.1017 14.4477 13.0177 14.5744 12.2921 13.9697L10.6513 12.6024C10.5917 12.5527 10.504 12.5567 10.4492 12.6115L8.03033 15.0304C7.73744 15.3233 7.26256 15.3233 6.96967 15.0304C6.67678 14.7375 6.67678 14.2626 6.96967 13.9697L9.3885 11.5509C9.99194 10.9474 10.9559 10.9037 11.6115 11.45L13.2524 12.8174C13.3183 12.8724 13.4169 12.8609 13.4684 12.7922L15.9 9.55004C16.1485 9.21867 16.6186 9.15152 16.95 9.40004Z" clip-rule="evenodd"/></svg>