<svg xmlns="http://www.w3.org/2000/svg" width="24" height="24" viewBox="0 0 24 24"><path fill-rule="evenodd" d="M7.6 2.5C6.71634 2.5 6 3.21635 6 4.1V9H4.8C3.52974 9 2.5 10.0297 2.5 11.3V19C2.5 20.3807 3.61929 21.5 5 21.5H19C20.3807 21.5 21.5 20.3807 21.5 19V4.1C21.5 3.21634 20.7837 2.5 19.9 2.5H7.6ZM5 20C5.55228 20 6 19.5523 6 19V10.5H4.8C4.69391 10.5 4.59264 10.5207 4.5 10.5582C4.20682 10.6768 4 10.9643 4 11.3V19C4 19.5523 4.44772 20 5 20ZM9.5 6.25C9.08579 6.25 8.75 6.58579 8.75 7C8.75 7.41421 9.08579 7.75 9.5 7.75H17.5C17.9142 7.75 18.25 7.41421 18.25 7C18.25 6.58579 17.9142 6.25 17.5 6.25H9.5ZM9.5 15.25C9.08579 15.25 8.75 15.5858 8.75 16C8.75 16.4142 9.08579 16.75 9.5 16.75H14C14.4142 16.75 14.75 16.4142 14.75 16C14.75 15.5858 14.4142 15.25 14 15.25H9.5ZM8.75 11.5C8.75 11.0858 9.08579 10.75 9.5 10.75H17.5C17.9142 10.75 18.25 11.0858 18.25 11.5C18.25 11.9142 17.9142 12.25 17.5 12.25H9.5C9.08579 12.25 8.75 11.9142 8.75 11.5Z" clip-rule="evenodd"/></svg>