<svg xmlns="http://www.w3.org/2000/svg" width="24" height="24" viewBox="0 0 24 24"><path fill-rule="evenodd" d="M2.5 12C2.5 6.75329 6.75329 2.5 12 2.5C17.2467 2.5 21.5 6.75329 21.5 12C21.5 13.8171 20.9891 15.5168 20.1031 16.9612L20.8697 19.4397C21.1667 20.3999 20.2664 21.3002 19.3061 21.0032L16.7684 20.2183C15.3664 21.0333 13.7367 21.5 12 21.5C6.75329 21.5 2.5 17.2467 2.5 12ZM14.1762 13.3244C14.4828 13.494 14.8434 13.5431 15.1856 13.4611C15.5277 13.3791 15.8244 13.1727 16.0178 12.885C16.211 12.5975 16.2874 12.2493 16.2328 11.9095C16.1782 11.5696 15.9962 11.2611 15.7211 11.0464C15.4458 10.8315 15.0979 10.7266 14.7467 10.7542C14.3956 10.7818 14.0692 10.9395 13.832 11.1941C13.7224 11.3117 13.6356 11.446 13.5739 11.5903L12.524 10.4252C12.589 10.3371 12.6592 10.2524 12.7345 10.1715C13.229 9.64086 13.9057 9.31562 14.6293 9.25881C15.3529 9.202 16.0723 9.41758 16.6441 9.86397C17.2161 10.3105 17.5988 10.9556 17.7138 11.6715C17.8288 12.3875 17.6674 13.1197 17.2627 13.7217C16.8582 14.3236 16.2409 14.7507 15.535 14.9198C14.8293 15.0889 14.085 14.9881 13.4501 14.6369C13.1675 14.4805 12.9156 14.2795 12.703 14.0438L12.6995 14.04L10.1816 11.2089C10.08 11.0967 9.95947 11.0006 9.82379 10.9255C9.51717 10.7559 9.1566 10.7068 8.81442 10.7888C8.47234 10.8707 8.17561 11.0771 7.98223 11.3648C7.78898 11.6524 7.71261 12.0006 7.76721 12.3404C7.82182 12.6803 8.00382 12.9888 8.27893 13.2035C8.55421 13.4184 8.90214 13.5232 9.25329 13.4957C9.6044 13.4681 9.93084 13.3104 10.168 13.0558C10.2776 12.9382 10.3645 12.8039 10.4261 12.6596L11.4675 13.8362C11.4049 13.9202 11.3375 14.001 11.2655 14.0783C10.7711 14.609 10.0943 14.9342 9.3707 14.991C8.64712 15.0479 7.92773 14.8323 7.35591 14.3859C6.78391 13.9394 6.40124 13.2943 6.28621 12.5784C6.17116 11.8624 6.33262 11.1302 6.73728 10.5281C7.14181 9.92622 7.75912 9.49913 8.46498 9.33004C9.17075 9.16098 9.91504 9.26175 10.5499 9.61298C10.8326 9.76934 11.0845 9.97035 11.297 10.206L11.3005 10.2099L13.8184 13.0409C13.92 13.1532 14.0405 13.2493 14.1762 13.3244Z" clip-rule="evenodd"/></svg>