<svg xmlns="http://www.w3.org/2000/svg" width="24" height="24" viewBox="0 0 24 24"><path fill-rule="evenodd" d="M12.2168 4.05625C12.1206 3.88945 11.8799 3.88946 11.7837 4.05625L9.40609 8.17853C9.40609 8.17853 9.40609 8.17852 9.40609 8.17853C9.15803 8.60863 8.73893 8.91313 8.25322 9.01614M8.25322 9.01614L3.598 10.0034C3.598 10.0034 3.59801 10.0034 3.598 10.0034C3.40969 10.0434 3.33522 10.2723 3.46415 10.4154C3.46416 10.4154 3.46414 10.4154 3.46415 10.4154L6.64992 13.9503C6.98242 14.3192 7.14246 14.812 7.09034 15.3056L6.59077 20.0381C6.57057 20.2296 6.7653 20.3711 6.94118 20.2927L11.2877 18.3552C11.2877 18.3552 11.2877 18.3552 11.2877 18.3552C11.7412 18.153 12.2592 18.1531 12.7126 18.3551L17.0591 20.2927C17.2351 20.3711 17.4297 20.2295 17.4095 20.0382L16.91 15.3057C16.91 15.3057 16.91 15.3057 16.91 15.3057C16.8579 14.812 17.018 14.3192 17.3503 13.9504C17.3503 13.9504 17.3503 13.9504 17.3503 13.9504L20.5361 10.4154C20.6651 10.2723 20.5907 10.0434 20.4024 10.0034L15.7472 9.01614C15.7472 9.01614 15.7472 9.01615 15.7472 9.01614C15.2615 8.91315 14.8423 8.60872 14.5943 8.17853C14.5943 8.1785 14.5943 8.17856 14.5943 8.17853L12.2168 4.05625M11.8984 19.7252L7.55192 21.6627C6.32083 22.2115 4.95757 21.221 5.09906 19.8807L5.59863 15.1482C5.60608 15.0776 5.58317 15.0072 5.53579 14.9547L2.34989 11.4196C1.44762 10.4183 1.96823 8.81573 3.28679 8.53608L7.94202 7.54877C8.0114 7.53406 8.07127 7.49057 8.10671 7.42913L10.4843 3.30683C11.1577 2.13926 12.8428 2.13926 13.5162 3.30684L15.8937 7.42912C15.929 7.49043 15.9889 7.53404 16.0583 7.54877L20.7136 8.53609C22.0321 8.81572 22.5528 10.4183 21.6504 11.4196L18.4646 14.9546C18.4172 15.0072 18.3943 15.0777 18.4017 15.1481L18.9012 19.8806C19.0428 21.2211 17.6795 22.2115 16.4484 21.6627L12.1021 19.7253C12.1021 19.7253 12.1021 19.7253 12.1021 19.7253C12.0372 19.6964 11.9631 19.6964 11.8984 19.7252Z" clip-rule="evenodd"/></svg>