<svg xmlns="http://www.w3.org/2000/svg" width="24" height="24" viewBox="0 0 24 24"><path fill-rule="evenodd" d="M6.32634 3.132C6.46157 2.90482 6.70642 2.76562 6.9708 2.76562H17.0165C17.2821 2.76562 17.528 2.90619 17.6628 3.13514C17.7976 3.36409 17.8012 3.64727 17.6722 3.87957L16.0915 6.72784C19.5355 8.07678 21.6348 11.1326 21.6348 14.4484C21.6348 16.702 20.6429 18.625 18.9278 19.9666C17.2264 21.2975 14.8501 22.0318 12.0787 22.0318C9.30724 22.0318 6.93088 21.2975 5.22945 19.9666C3.51435 18.625 2.52246 16.702 2.52246 14.4484C2.52246 11.1742 4.51572 8.15844 7.89292 6.78912L6.31151 3.87318C6.18547 3.64077 6.19111 3.35918 6.32634 3.132ZM8.23074 4.26562L9.63008 6.84586C9.73757 7.04404 9.75019 7.28006 9.66447 7.48859C9.57874 7.69711 9.40376 7.856 9.18796 7.92128C5.8904 8.9188 4.02246 11.6007 4.02246 14.4484C4.02246 16.2234 4.7883 17.7171 6.15362 18.7851C7.53261 19.8638 9.55934 20.5318 12.0787 20.5318C14.598 20.5318 16.6247 19.8638 18.0037 18.7851C19.369 17.7171 20.1348 16.2234 20.1348 14.4484C20.1348 11.5778 18.1663 8.84275 14.7921 7.86967C14.5726 7.80637 14.394 7.64648 14.3068 7.43534C14.2195 7.2242 14.2333 6.98483 14.3442 6.78509L15.7425 4.26562H8.23074Z" clip-rule="evenodd"/><path fill-rule="evenodd" d="M9.7773 10.466C10.0852 10.1889 10.5594 10.2138 10.8365 10.5217L12.0787 11.9019L13.3209 10.5217C13.598 10.2138 14.0722 10.1889 14.3801 10.466C14.688 10.7431 14.7129 11.2173 14.4358 11.5252L12.8287 13.3109V13.7728H14.3283C14.7425 13.7728 15.0783 14.1086 15.0783 14.5228C15.0783 14.937 14.7425 15.2728 14.3283 15.2728H12.8287V17.0224C12.8287 17.4366 12.4929 17.7724 12.0787 17.7724C11.6645 17.7724 11.3287 17.4366 11.3287 17.0224V15.2728H9.8291C9.41489 15.2728 9.0791 14.937 9.0791 14.5228C9.0791 14.1086 9.41489 13.7728 9.8291 13.7728H11.3287V13.3109L9.72155 11.5252C9.44446 11.2173 9.46941 10.7431 9.7773 10.466Z" clip-rule="evenodd"/></svg>