<svg xmlns="http://www.w3.org/2000/svg" width="24" height="24" viewBox="0 0 24 24"><g><path fill-rule="evenodd" d="M5.32397 3.98743C5.32397 3.57321 5.65976 3.23743 6.07397 3.23743H11.3531C14.7469 3.23743 16.8427 5.53331 16.8427 7.99054C16.8427 9.07824 16.6072 10.3773 15.8193 11.4221C15.6239 11.6811 15.3993 11.9183 15.1441 12.1292C15.8139 12.3913 16.3787 12.7668 16.8352 13.2326C17.7618 14.1783 18.174 15.4273 18.174 16.6541C18.174 17.9109 17.6907 19.1629 16.6751 20.0958C15.6591 21.0291 14.1713 21.589 12.252 21.589H6.07397C5.65976 21.589 5.32397 21.2532 5.32397 20.839V12.4548V3.98743ZM14.6217 10.5189C14.1302 11.1706 13.2788 11.7048 11.7373 11.7048H6.82397V4.73743H11.3531C14.0194 4.73743 15.3427 6.45917 15.3427 7.99054C15.3427 8.89715 15.1411 9.83015 14.6217 10.5189ZM6.82397 20.089V13.2049H12.7015C14.1869 13.2049 15.161 13.6673 15.7638 14.2825C16.3739 14.9051 16.674 15.7557 16.674 16.6541C16.674 17.5224 16.3443 18.3629 15.6604 18.9911C14.9768 19.619 13.8786 20.089 12.252 20.089H6.82397Z" clip-rule="evenodd"/></g></svg>