<svg xmlns="http://www.w3.org/2000/svg" width="24" height="24" viewBox="0 0 24 24"><path fill-rule="evenodd" d="M14.5279 4.46948C14.2349 4.17669 13.7601 4.17686 13.4673 4.46986C13.1745 4.76286 13.1747 5.23773 13.4677 5.53052L18.1905 10.25L10 10.25C7.87538 10.25 6.30116 10.7904 5.35688 12.3641C4.48694 13.814 4.25 16.015 4.25 19C4.25 19.4142 4.58579 19.75 5 19.75C5.41421 19.75 5.75 19.4142 5.75 19C5.75 15.985 6.01306 14.186 6.64312 13.1359C7.19884 12.2097 8.12462 11.75 10 11.75L18.1871 11.75L13.4697 16.4675C13.1768 16.7604 13.1768 17.2352 13.4697 17.5281C13.7626 17.821 14.2374 17.821 14.5303 17.5281L20.5303 11.5281C20.8232 11.2352 20.8232 10.7604 20.5303 10.4675C20.5277 10.4648 20.5251 10.4622 20.5224 10.4597L14.5279 4.46948Z" clip-rule="evenodd"/></svg>