<svg xmlns="http://www.w3.org/2000/svg" width="24" height="24" viewBox="0 0 24 24"><path fill-rule="evenodd" d="M4.35 4.5C3.05213 4.5 2 5.53643 2 6.81492V16.9648C2 18.2433 3.05213 19.2797 4.35 19.2797H11.25C11.6642 19.2797 12 18.9489 12 18.5409C12 18.1329 11.6642 17.8021 11.25 17.8021H4.35C3.88056 17.8021 3.5 17.4272 3.5 16.9648V6.81492C3.5 6.35249 3.88056 5.97761 4.35 5.97761H19.6506C20.12 5.97761 20.5006 6.35249 20.5006 6.81493V11.2379C20.5006 11.6459 20.8364 11.9767 21.2506 11.9767C21.6648 11.9767 22.0006 11.6459 22.0006 11.2379V6.81493C22.0006 5.53643 20.9485 4.5 19.6506 4.5H4.35ZM6.5 8.93284C6.08579 8.93284 5.75 9.26361 5.75 9.67164C5.75 10.0797 6.08579 10.4104 6.5 10.4104H16C16.4142 10.4104 16.75 10.0797 16.75 9.67164C16.75 9.26361 16.4142 8.93284 16 8.93284H6.5ZM5.75 13.5653C5.75 13.1573 6.08579 12.8265 6.5 12.8265H10.5502C10.9644 12.8265 11.3002 13.1573 11.3002 13.5653C11.3002 13.9733 10.9644 14.3041 10.5502 14.3041H6.5C6.08579 14.3041 5.75 13.9733 5.75 13.5653ZM17.75 13.6119C16.0931 13.6119 14.75 14.935 14.75 16.5672C14.75 17.1152 14.9015 17.6284 15.1654 18.0684L19.274 14.0211C18.8274 13.7611 18.3064 13.6119 17.75 13.6119ZM17.75 19.5224C17.1937 19.5224 16.6727 19.3732 16.226 19.1132L20.3346 15.066C20.5986 15.5059 20.75 16.0191 20.75 16.5672C20.75 18.1993 19.4069 19.5224 17.75 19.5224ZM13.25 16.5672C13.25 14.119 15.2647 12.1343 17.75 12.1343C20.2353 12.1343 22.25 14.119 22.25 16.5672C22.25 19.0154 20.2353 21 17.75 21C15.2647 21 13.25 19.0154 13.25 16.5672Z" clip-rule="evenodd"/></svg>