<svg xmlns="http://www.w3.org/2000/svg" width="24" height="24" viewBox="0 0 24 24"><path fill-rule="evenodd" d="M15.5 10.5C15.5 12.433 13.933 14 12 14C10.067 14 8.5 12.433 8.5 10.5C8.5 8.567 10.067 7 12 7C13.933 7 15.5 8.567 15.5 10.5ZM14 10.5C14 11.6046 13.1046 12.5 12 12.5C10.8954 12.5 10 11.6046 10 10.5C10 9.39543 10.8954 8.5 12 8.5C13.1046 8.5 14 9.39543 14 10.5Z" clip-rule="evenodd"/><path fill-rule="evenodd" d="M12.0002 2.53168C9.86638 2.53168 7.81995 3.37934 6.3111 4.88818C4.80225 6.39703 3.95459 8.44346 3.95459 10.5773C3.95459 12.2602 4.5697 13.9786 5.40207 15.5457C6.23887 17.1211 7.32626 18.6012 8.34105 19.8221C10.2743 22.1482 13.7261 22.1482 15.6594 19.8221C16.6742 18.6012 17.7616 17.1211 18.5984 15.5457C19.4307 13.9786 20.0458 12.2602 20.0458 10.5773C20.0458 8.44346 19.1982 6.39703 17.6893 4.88818C16.1805 3.37934 14.134 2.53168 12.0002 2.53168ZM7.37176 5.94884C8.5993 4.7213 10.2642 4.03168 12.0002 4.03168C13.7362 4.03168 15.4011 4.7213 16.6287 5.94884C17.8562 7.17638 18.5458 8.84128 18.5458 10.5773C18.5458 11.9139 18.05 13.3803 17.2736 14.842C16.5017 16.2954 15.4824 17.6883 14.5058 18.8634C13.1723 20.4678 10.8281 20.4678 9.49463 18.8633C8.51802 17.6883 7.49877 16.2954 6.7268 14.842C5.9504 13.3803 5.45459 11.9139 5.45459 10.5773C5.45459 8.84128 6.14422 7.17638 7.37176 5.94884Z" clip-rule="evenodd"/></svg>