<svg xmlns="http://www.w3.org/2000/svg" width="16" height="16" viewBox="0 0 16 16"><path fill-rule="evenodd" d="M15 8C15 11.866 11.866 15 8 15C4.13401 15 1 11.866 1 8C1 4.13401 4.13401 1 8 1C11.866 1 15 4.13401 15 8ZM11.4893 6.57804C11.7257 6.30787 11.6983 5.89723 11.4281 5.66083C11.158 5.42444 10.7473 5.45182 10.5109 5.72198L7.46844 9.19911L5.45972 7.19039C5.20588 6.93655 4.79432 6.93655 4.54048 7.19039C4.28664 7.44423 4.28664 7.85579 4.54048 8.10963L6.73815 10.3073C7.16764 10.7368 7.87085 10.7134 8.27082 10.2563L11.4893 6.57804Z" clip-rule="evenodd"/></svg>