<svg xmlns="http://www.w3.org/2000/svg" width="16" height="16" viewBox="0 0 16 16"><path fill-rule="evenodd" d="M3.35 4.2C3.81944 4.2 4.2 3.81944 4.2 3.35C4.2 2.88056 3.81944 2.5 3.35 2.5C2.88056 2.5 2.5 2.88056 2.5 3.35C2.5 3.81944 2.88056 4.2 3.35 4.2ZM6.0001 2.68335C5.64111 2.68335 5.3501 2.97436 5.3501 3.33335C5.3501 3.69233 5.64111 3.98335 6.0001 3.98335H13.5001C13.8591 3.98335 14.1501 3.69233 14.1501 3.33335C14.1501 2.97436 13.8591 2.68335 13.5001 2.68335H6.0001ZM6.0001 7.3501C5.64111 7.3501 5.3501 7.64111 5.3501 8.0001C5.3501 8.35908 5.64111 8.6501 6.0001 8.6501H13.5001C13.8591 8.6501 14.1501 8.35908 14.1501 8.0001C14.1501 7.64111 13.8591 7.3501 13.5001 7.3501H6.0001ZM5.3501 12.6668C5.3501 12.3079 5.64111 12.0168 6.0001 12.0168H13.5001C13.8591 12.0168 14.1501 12.3079 14.1501 12.6668C14.1501 13.0258 13.8591 13.3168 13.5001 13.3168H6.0001C5.64111 13.3168 5.3501 13.0258 5.3501 12.6668ZM4.2 8.01675C4.2 8.48619 3.81944 8.86675 3.35 8.86675C2.88056 8.86675 2.5 8.48619 2.5 8.01675C2.5 7.54731 2.88056 7.16675 3.35 7.16675C3.81944 7.16675 4.2 7.54731 4.2 8.01675ZM3.35 13.5C3.81944 13.5 4.2 13.1195 4.2 12.65C4.2 12.1806 3.81944 11.8 3.35 11.8C2.88056 11.8 2.5 12.1806 2.5 12.65C2.5 13.1195 2.88056 13.5 3.35 13.5Z" clip-rule="evenodd"/></svg>