<svg xmlns="http://www.w3.org/2000/svg" width="25" height="24" viewBox="0 0 25 24"><path fill-rule="evenodd" d="M5.625 4.5C4.17525 4.5 3 5.67525 3 7.125C3 8.57475 4.17525 9.75 5.625 9.75C7.07475 9.75 8.25 8.57475 8.25 7.125C8.25 5.67525 7.07475 4.5 5.625 4.5ZM1.5 7.125C1.5 4.84683 3.34683 3 5.625 3C7.90317 3 9.75 4.84683 9.75 7.125C9.75 9.40317 7.90317 11.25 5.625 11.25C3.34683 11.25 1.5 9.40317 1.5 7.125ZM10.5 6.75H15.75C16.1642 6.75 16.5 7.08579 16.5 7.5V12V16.5C16.5 16.9142 16.1642 17.25 15.75 17.25H5.75C5.33579 17.25 5 16.9142 5 16.5V11.9942C4.47627 11.9696 3.9726 11.8683 3.5 11.7013V16.5C3.5 17.7426 4.50736 18.75 5.75 18.75H15.75C16.9926 18.75 18 17.7426 18 16.5V12V7.5C18 6.25736 16.9926 5.25 15.75 5.25H10.2826C10.424 5.72528 10.5 6.22877 10.5 6.75ZM21.4498 6.60724C22.2639 5.92878 23.5 6.50773 23.5 7.56752V16.4325C23.5 17.4923 22.2639 18.0712 21.4498 17.3928L19.2699 15.5762C18.9517 15.311 18.9087 14.8381 19.1738 14.5199C19.439 14.2017 19.9119 14.1587 20.2301 14.4238L22 15.8987V8.10128L20.2301 9.57617C19.9119 9.84134 19.439 9.79835 19.1738 9.48014C18.9087 9.16193 18.9517 8.68901 19.2699 8.42383L21.4498 6.60724ZM6.0999 6.24999C6.0999 5.91862 5.83127 5.64999 5.4999 5.64999C5.16853 5.64999 4.8999 5.91862 4.8999 6.24999V7.19648C4.8999 7.43052 5.01687 7.64908 5.21161 7.77891L5.91708 8.24922C6.1928 8.43304 6.56532 8.35853 6.74913 8.08281C6.93294 7.8071 6.85844 7.43458 6.58272 7.25076L6.0999 6.92888V6.24999Z" clip-rule="evenodd"/></svg>