<svg xmlns="http://www.w3.org/2000/svg" width="24" height="24" viewBox="0 0 24 24"><path fill-rule="evenodd" d="M4.35 4.5C3.05213 4.5 2 5.55213 2 6.85V17.1537C2 18.4515 3.05213 19.5037 4.35 19.5037H11C11.4142 19.5037 11.75 19.1679 11.75 18.7537C11.75 18.3394 11.4142 18.0037 11 18.0037H4.35C3.88056 18.0037 3.5 17.6231 3.5 17.1537V6.85C3.5 6.38056 3.88056 6 4.35 6H19.6506C20.12 6 20.5006 6.38056 20.5006 6.85V11.34C20.5006 11.7542 20.8364 12.09 21.2506 12.09C21.6648 12.09 22.0006 11.7542 22.0006 11.34V6.85C22.0006 5.55213 20.9485 4.5 19.6506 4.5H4.35ZM6.5 9C6.08579 9 5.75 9.33579 5.75 9.75C5.75 10.1642 6.08579 10.5 6.5 10.5H16C16.4142 10.5 16.75 10.1642 16.75 9.75C16.75 9.33579 16.4142 9 16 9H6.5ZM5.75 13.7026C5.75 13.2884 6.08579 12.9526 6.5 12.9526H10.5502C10.9644 12.9526 11.3002 13.2884 11.3002 13.7026C11.3002 14.1168 10.9644 14.4526 10.5502 14.4526H6.5C6.08579 14.4526 5.75 14.1168 5.75 13.7026ZM17.5 13.5C15.7051 13.5 14.25 14.9551 14.25 16.75C14.25 18.5449 15.7051 20 17.5 20C19.2949 20 20.75 18.5449 20.75 16.75C20.75 14.9551 19.2949 13.5 17.5 13.5ZM12.75 16.75C12.75 14.1266 14.8766 12 17.5 12C20.1234 12 22.25 14.1266 22.25 16.75C22.25 19.3734 20.1234 21.5 17.5 21.5C14.8766 21.5 12.75 19.3734 12.75 16.75ZM19.5862 15.4979C19.8547 15.7362 19.8792 16.147 19.6409 16.4155L17.7899 18.5012C17.465 18.8673 16.8989 18.8841 16.5529 18.5379L15.4539 17.4383C15.2001 17.1843 15.2002 16.7728 15.4541 16.519C15.7081 16.2652 16.1196 16.2654 16.3734 16.5193L17.1347 17.281L18.6686 15.5526C18.9069 15.2841 19.3177 15.2596 19.5862 15.4979Z" clip-rule="evenodd"/></svg>