<svg xmlns="http://www.w3.org/2000/svg" width="24" height="24" viewBox="0 0 24 24"><path fill-rule="evenodd" d="M17.75 4C17.75 4.41421 17.4142 4.75 17 4.75L13.7168 4.75L10.8986 20.25H14C14.4142 20.25 14.75 20.5858 14.75 21C14.75 21.4142 14.4142 21.75 14 21.75H10.0148C10.0055 21.7502 9.99623 21.7502 9.9869 21.75H6C5.58579 21.75 5.25 21.4142 5.25 21C5.25 20.5858 5.58579 20.25 6 20.25H9.37406L12.1922 4.75L9 4.75C8.58579 4.75 8.25 4.41422 8.25 4C8.25 3.58579 8.58579 3.25 9 3.25H17C17.4142 3.25 17.75 3.58579 17.75 4Z" clip-rule="evenodd"/></svg>