<svg xmlns="http://www.w3.org/2000/svg" width="24" height="24" viewBox="0 0 24 24"><path fill-rule="evenodd" d="M12.2132 3.55735C12.277 3.59424 12.33 3.64701 12.3671 3.71047L16.4035 10.6209L19.797 7.7031C19.9746 7.55038 20.243 7.56988 20.3964 7.74664C20.4631 7.82347 20.5 7.92162 20.5 8.02315V17.8782C20.5 19.05 19.546 20 18.3692 20L5.63072 19.9998C4.45395 19.9998 3.5 19.0498 3.5 17.878V8.02315C3.5 7.78955 3.69031 7.60018 3.92503 7.60018C4.02706 7.60018 4.12568 7.63671 4.20288 7.70309L7.59632 10.6209L11.6322 3.71049C11.7502 3.50853 12.0103 3.43997 12.2132 3.55735ZM16.2255 12.8121C16.1072 12.9106 15.9288 12.8799 15.8504 12.7475L12 6.25L8.14963 12.7475C8.07115 12.8799 7.89278 12.9106 7.77452 12.8121L5 10.5V17.9817C5 18.2454 5.20821 18.4661 5.4804 18.4963L5.54428 18.4998L18.4557 18.5C18.7369 18.5 18.9652 18.2981 18.9964 18.0419L19 17.9819V10.5L16.2255 12.8121Z" clip-rule="evenodd"/></svg>