<svg xmlns="http://www.w3.org/2000/svg" width="24" height="24" viewBox="0 0 24 24"><path fill-rule="evenodd" d="M11.9995 20.5C16.6939 20.5 20.4995 16.6944 20.4995 12C20.4995 7.30558 16.6939 3.5 11.9995 3.5C7.30509 3.5 3.49951 7.30558 3.49951 12C3.49951 16.6944 7.30509 20.5 11.9995 20.5ZM11.9995 22C17.5224 22 21.9995 17.5228 21.9995 12C21.9995 6.47715 17.5224 2 11.9995 2C6.47666 2 1.99951 6.47715 1.99951 12C1.99951 17.5228 6.47666 22 11.9995 22ZM9.49951 6.25C9.91373 6.25 10.2495 6.58578 10.2495 7V9C10.2495 9.41421 9.91373 9.75 9.49951 9.75C9.0853 9.75 8.74951 9.41421 8.74951 9V7C8.74951 6.58578 9.0853 6.25 9.49951 6.25ZM15.25 7C15.25 6.58578 14.9142 6.25 14.5 6.25C14.0858 6.25 13.75 6.58578 13.75 7V9C13.75 9.41421 14.0858 9.75 14.5 9.75C14.9142 9.75 15.25 9.41421 15.25 9V7Z" clip-rule="evenodd"/></svg>