<svg xmlns="http://www.w3.org/2000/svg" width="24" height="24" viewBox="0 0 24 24"><path fill-rule="evenodd" d="M2.5 11.9999C2.50001 7.03023 6.52878 3.00146 11.4985 3.00146C16.4683 3.00146 20.497 7.03023 20.497 11.9999V20.2484C20.497 20.6627 20.1612 20.9984 19.747 20.9984C19.3328 20.9984 18.997 20.6627 18.997 20.2484V11.9999C18.997 7.85865 15.6399 4.50146 11.4985 4.50146C7.3572 4.50146 4.00001 7.85866 4 11.9999C4 16.1412 7.3572 19.4984 11.4985 19.4984H16.8601C17.2743 19.4984 17.6101 19.8342 17.6101 20.2484C17.6101 20.6627 17.2743 20.9984 16.8601 20.9984H11.4985C6.52876 20.9984 2.5 16.9697 2.5 11.9999Z" clip-rule="evenodd"/><path fill-rule="evenodd" d="M9.1972 9.19303C9.50508 8.91593 9.9793 8.94088 10.2564 9.24876L11.4986 10.629L12.7409 9.24876C13.018 8.94088 13.4922 8.91593 13.8001 9.19303C14.1079 9.47013 14.1329 9.94435 13.8558 10.2522L12.2486 12.0379V12.4999H13.7482C14.1624 12.4999 14.4982 12.8357 14.4982 13.2499C14.4982 13.6641 14.1624 13.9999 13.7482 13.9999H12.2486V15.7494C12.2486 16.1636 11.9128 16.4994 11.4986 16.4994C11.0844 16.4994 10.7486 16.1636 10.7486 15.7494V13.9999H9.24902C8.83481 13.9999 8.49902 13.6641 8.49902 13.2499C8.49902 12.8357 8.83481 12.4999 9.24902 12.4999H10.7486V12.0379L9.14147 10.2522C8.86437 9.94435 8.88932 9.47013 9.1972 9.19303Z" clip-rule="evenodd"/></svg>