<svg xmlns="http://www.w3.org/2000/svg" width="24" height="24" viewBox="0 0 24 24"><path fill-rule="evenodd" d="M3.31863 4.93661C3.44102 4.67051 3.70711 4.5 4.00001 4.5H13C13.4142 4.5 13.75 4.83579 13.75 5.25C13.75 5.66421 13.4142 6 13 6H5.63068L10.5695 11.7619C10.8039 12.0355 10.8108 12.4372 10.5857 12.7185L5.56048 19H13C13.4142 19 13.75 19.3358 13.75 19.75C13.75 20.1642 13.4142 20.5 13 20.5H4.00001C3.71171 20.5 3.44892 20.3347 3.32403 20.0749C3.19914 19.815 3.23426 19.5066 3.41436 19.2815L9.02634 12.2665L3.43057 5.73809C3.23995 5.51571 3.19624 5.20271 3.31863 4.93661ZM15.5641 11.6397C15.9011 11.3989 16.3696 11.477 16.6103 11.8141L18.5 14.4597L20.3897 11.8141C20.6305 11.477 21.0989 11.3989 21.4359 11.6397C21.773 11.8805 21.8511 12.3489 21.6103 12.6859L19.4217 15.75L21.6103 18.8141C21.8511 19.1511 21.773 19.6195 21.4359 19.8603C21.0989 20.1011 20.6305 20.023 20.3897 19.6859L18.5 17.0403L16.6103 19.6859C16.3696 20.023 15.9011 20.1011 15.5641 19.8603C15.227 19.6195 15.149 19.1511 15.3897 18.8141L17.5783 15.75L15.3897 12.6859C15.149 12.3489 15.227 11.8805 15.5641 11.6397Z" clip-rule="evenodd"/></svg>