<svg xmlns="http://www.w3.org/2000/svg" width="24" height="24" viewBox="0 0 24 24"><path fill-rule="evenodd" d="M15.413 4.21532C13.6572 3.44553 11.6928 3.29191 9.83866 3.77938C7.98455 4.26686 6.34968 5.36681 5.19954 6.90061C4.04941 8.43441 3.45156 10.312 3.50307 12.2284C3.55459 14.1448 4.25245 15.9876 5.48332 17.4574C6.7142 18.9272 8.4058 19.9377 10.2834 20.3249C12.161 20.712 14.1144 20.4531 15.8263 19.5901C17.5382 18.7271 18.9081 17.3107 19.7135 15.571C20.5189 13.8312 20.7125 11.8703 20.263 10.0067C20.1658 9.60401 20.4135 9.19884 20.8162 9.1017C21.2188 9.00457 21.624 9.25224 21.7211 9.65491C22.2501 11.8475 22.0222 14.1544 21.0747 16.2011C20.1272 18.2479 18.5155 19.9142 16.5015 20.9295C14.4875 21.9448 12.1895 22.2494 9.9805 21.7939C7.77153 21.3385 5.78141 20.1496 4.33332 18.4204C2.88523 16.6913 2.06422 14.5233 2.00361 12.2687C1.94301 10.0141 2.64636 7.80519 3.99946 6.00072C5.35256 4.19625 7.27594 2.90219 9.45724 2.32869C11.6385 1.75518 13.9497 1.93592 16.0153 2.84155C16.3947 3.00787 16.5674 3.45023 16.401 3.82958C16.2347 4.20894 15.7924 4.38164 15.413 4.21532ZM10 10.25C10 10.9404 9.44036 11.5 8.75 11.5C8.05964 11.5 7.5 10.9404 7.5 10.25C7.5 9.55964 8.05964 9 8.75 9C9.44036 9 10 9.55964 10 10.25ZM15.25 11.5C15.9404 11.5 16.5 10.9404 16.5 10.25C16.5 9.55964 15.9404 9 15.25 9C14.5596 9 14 9.55964 14 10.25C14 10.9404 14.5596 11.5 15.25 11.5ZM8.71263 13.8073C9.09518 13.6485 9.53406 13.8299 9.69288 14.2124C9.81823 14.5144 10.002 14.7889 10.2338 15.0201C10.4656 15.2514 10.7409 15.435 11.044 15.5602C11.3471 15.6855 11.672 15.75 12.0002 15.75C12.3284 15.75 12.6533 15.6855 12.9564 15.5602C13.2595 15.435 13.5348 15.2514 13.7666 15.0201C13.9984 14.7889 14.1822 14.5144 14.3075 14.2124C14.4663 13.8299 14.9052 13.6485 15.2878 13.8073C15.6703 13.9661 15.8517 14.405 15.6929 14.7876C15.4919 15.2718 15.1973 15.7116 14.826 16.082C14.4548 16.4524 14.0141 16.7461 13.5293 16.9465C13.0445 17.1469 12.5249 17.25 12.0002 17.25C11.4755 17.25 10.9559 17.1469 10.4711 16.9465C9.98626 16.7461 9.54562 16.4524 9.17437 16.082C8.80311 15.7116 8.50853 15.2718 8.30752 14.7876C8.1487 14.405 8.33007 13.9661 8.71263 13.8073ZM19.0002 3H19C18.9999 4.64384 17.6604 5.97882 16 5.99952C17.6604 6.02022 19 7.35533 19 8.99928V9H19.0002V8.99928C19.0002 7.35533 20.3398 6.02023 22.0002 5.99952C20.3398 5.97881 19.0003 4.64383 19.0002 3Z" clip-rule="evenodd"/></svg>