<svg xmlns="http://www.w3.org/2000/svg" width="24" height="24" viewBox="0 0 24 24"><path fill-rule="evenodd" d="M3.75 19.6V4.4C3.75 3.07452 4.82258 2 6.14807 2L13.3504 2C13.5161 2 13.6499 2.13432 13.6499 2.3V6C13.6499 7.43579 14.814 8.59986 16.25 8.59986H19.95C20.1157 8.59986 20.25 8.73155 20.25 8.89723V19.6033C20.25 20.9288 19.1755 22 17.85 22H6.15C4.82452 22 3.75 20.9255 3.75 19.6ZM7.75 10.6999C7.33579 10.6999 7 11.0356 7 11.4499C7 11.8641 7.33579 12.1999 7.75 12.1999H11.25C11.6642 12.1999 12 11.8641 12 11.4499C12 11.0356 11.6642 10.6999 11.25 10.6999H7.75ZM7 15.05C7 14.6357 7.33579 14.3 7.75 14.3H13.25C13.6642 14.3 14 14.6357 14 15.05C14 15.4642 13.6642 15.8 13.25 15.8H7.75C7.33579 15.8 7 15.4642 7 15.05ZM15.1122 2.16214C14.9232 1.97315 14.6001 2.107 14.6001 2.37427V6.05C14.6001 6.93366 15.3164 7.65 16.2001 7.65H19.8757C20.143 7.65 20.2769 7.32686 20.0879 7.13787L15.1122 2.16214Z" clip-rule="evenodd"/></svg>