<svg xmlns="http://www.w3.org/2000/svg" width="24" height="24" viewBox="0 0 24 24"><path fill-rule="evenodd" d="M9.5 11.25C9.91421 11.25 10.25 11.5858 10.25 12C10.25 12.4142 9.91421 12.75 9.5 12.75H5C4.58579 12.75 4.25 12.4142 4.25 12C4.25 11.5858 4.58579 11.25 5 11.25H9.5Z" clip-rule="evenodd"/><path fill-rule="evenodd" d="M5 18.25L9.5 18.25C9.91421 18.25 10.25 18.5858 10.25 19C10.25 19.4142 9.91421 19.75 9.5 19.75H5C4.58579 19.75 4.25 19.4142 4.25 19C4.25 18.5858 4.58579 18.25 5 18.25Z" clip-rule="evenodd"/><path fill-rule="evenodd" d="M19 5.75C19.4142 5.75 19.75 5.41421 19.75 5C19.75 4.58579 19.4142 4.25 19 4.25L10.25 4.25C9.83579 4.25 9.5 4.58578 9.5 5C9.5 5.41421 9.83579 5.75 10.25 5.75L19 5.75Z" clip-rule="evenodd"/><path fill-rule="evenodd" d="M21.5 15C21.5 17.7614 19.2614 20 16.5 20C13.7386 20 11.5 17.7614 11.5 15C11.5 12.2386 13.7386 10 16.5 10C19.2614 10 21.5 12.2386 21.5 15ZM16.5 18.5C18.433 18.5 20 16.933 20 15C20 14.4454 19.871 13.9208 19.6413 13.4548L14.9548 18.1413C15.4208 18.371 15.9454 18.5 16.5 18.5ZM16.5 11.5C14.567 11.5 13 13.067 13 15C13 15.8327 13.2908 16.5976 13.7764 17.1984L18.6984 12.2764C18.0976 11.7908 17.3327 11.5 16.5 11.5Z" clip-rule="evenodd"/><path d="M4.25 5C4.25 5.41421 4.58579 5.75 5 5.75L7 5.75V6.75C7 7.16421 7.33579 7.5 7.75 7.5C8.16421 7.5 8.5 7.16421 8.5 6.75L8.5 3.25C8.5 2.83579 8.16421 2.5 7.75 2.5C7.33579 2.5 7 2.83579 7 3.25V4.25L5 4.25C4.58579 4.25 4.25 4.58578 4.25 5Z"/></svg>