<svg xmlns="http://www.w3.org/2000/svg" width="16" height="16" viewBox="0 0 16 16"><path fill-rule="evenodd" d="M5.62608 3.23553C4.86765 3.13025 3.97904 3.32778 3.16755 4.30158C2.46007 5.15056 2.25432 6.0447 2.3627 6.94041C2.47384 7.85898 2.92131 8.81075 3.57898 9.71025C4.23372 10.6057 5.07146 11.4143 5.90704 12.0414C6.69725 12.6345 7.44676 13.0363 8.00159 13.2102C8.5564 13.0363 9.30587 12.6345 10.0961 12.0414C10.9316 11.4143 11.7693 10.6057 12.4241 9.71025C13.0817 8.81075 13.5292 7.85898 13.6403 6.9404C13.7487 6.04469 13.5429 5.15055 12.8355 4.30157C12.0545 3.36436 11.1676 3.16122 10.3933 3.26221C9.57162 3.36939 8.88145 3.82063 8.59558 4.17415C8.29108 4.5507 7.71113 4.55283 7.4058 4.17147C7.11575 3.80918 6.43445 3.34774 5.62608 3.23553ZM8.00525 2.93494C7.46397 2.47196 6.68072 2.06946 5.80482 1.94787C4.61804 1.78313 3.27829 2.13801 2.16885 3.46935C1.2217 4.60595 0.92269 5.86165 1.07211 7.09656C1.21876 8.30862 1.79164 9.46828 2.52957 10.4775C3.27042 11.4908 4.20353 12.3883 5.12671 13.0812C6.04111 13.7674 6.98991 14.2859 7.77365 14.4977C7.92435 14.5385 8.07885 14.5385 8.22955 14.4977C9.01325 14.2859 9.96203 13.7674 10.8764 13.0812C11.7996 12.3883 12.7326 11.4908 13.4735 10.4775C14.2114 9.46827 14.7843 8.30861 14.9309 7.09655C15.0803 5.86163 14.7813 4.60593 13.8341 3.46933C12.7477 2.16555 11.4084 1.81881 10.2252 1.97313C9.34933 2.08737 8.5551 2.47589 8.00525 2.93494Z" clip-rule="evenodd"/></svg>