<svg xmlns="http://www.w3.org/2000/svg" width="24" height="25" viewBox="0 0 24 25"><path fill-rule="evenodd" d="M4 5.48666C4 5.07245 4.33579 4.73666 4.75 4.73666H19.25C19.6642 4.73666 20 5.07245 20 5.48666C20 5.90088 19.6642 6.23666 19.25 6.23666H4.75C4.33579 6.23666 4 5.90088 4 5.48666Z" clip-rule="evenodd"/><path fill-rule="evenodd" d="M4 12.4867C4 12.0725 4.33579 11.7367 4.75 11.7367H19.25C19.6642 11.7367 20 12.0725 20 12.4867C20 12.9009 19.6642 13.2367 19.25 13.2367H4.75C4.33579 13.2367 4 12.9009 4 12.4867Z" clip-rule="evenodd"/><path fill-rule="evenodd" d="M4 19.4867C4 19.0725 4.33579 18.7367 4.75 18.7367H12.25C12.6642 18.7367 13 19.0725 13 19.4867C13 19.9009 12.6642 20.2367 12.25 20.2367H4.75C4.33579 20.2367 4 19.9009 4 19.4867Z" clip-rule="evenodd"/></svg>