<svg xmlns="http://www.w3.org/2000/svg" width="24" height="24" viewBox="0 0 24 24"><path fill-rule="evenodd" d="M19.2874 9.26882C18.1638 6.34099 15.2821 4.25 11.8957 4.25C7.52296 4.25 4 7.73176 4 12C4 16.2682 7.52296 19.75 11.8957 19.75C12.2404 19.75 12.5796 19.7284 12.912 19.6865C13.323 19.6347 13.6981 19.9259 13.7499 20.3368C13.8017 20.7478 13.5105 21.1229 13.0995 21.1747C12.7051 21.2244 12.3032 21.25 11.8957 21.25C6.71867 21.25 2.5 17.1206 2.5 12C2.5 6.8794 6.71867 2.75 11.8957 2.75C14.8944 2.75 17.5686 4.13378 19.29 6.29246V5.50012C19.29 5.08591 19.6258 4.75012 20.04 4.75012C20.4543 4.75012 20.79 5.08591 20.79 5.50012V9.00012C20.79 9.41434 20.4543 9.75012 20.04 9.75012C20.0322 9.75012 20.0244 9.75 20.0166 9.74976C19.7045 9.76188 19.4055 9.57667 19.2874 9.26882ZM11 11.9932V8.5C11 8.08579 11.3358 7.75 11.75 7.75C12.1642 7.75 12.5 8.08579 12.5 8.5V11.5986L14.0264 12.6162C14.371 12.846 14.4642 13.3116 14.2344 13.6563C14.0046 14.0009 13.539 14.094 13.1943 13.8643L11.3435 12.6304C11.2413 12.5644 11.1562 12.4742 11.0963 12.3679C11.0319 12.2534 10.9989 12.1238 11 11.9932ZM21.8789 18.6504C21.8789 20.1504 20.5664 21.1699 18.7148 21.1699C17.2324 21.1699 16.2715 20.5664 15.832 19.7168C15.7207 19.5117 15.6738 19.3184 15.6738 19.1191C15.6738 18.7207 15.9258 18.4688 16.3477 18.4688C16.6582 18.4688 16.8457 18.6035 17.0039 18.9141C17.2969 19.5527 17.8066 19.9336 18.7324 19.9336C19.6934 19.9336 20.3438 19.3828 20.3438 18.6152C20.3496 17.7129 19.6934 17.209 18.6094 17.209H18.1289C17.7539 17.209 17.5312 16.9805 17.5312 16.6465C17.5312 16.3125 17.7539 16.084 18.1289 16.084H18.5742C19.5059 16.084 20.127 15.5508 20.127 14.8008C20.127 14.0684 19.6465 13.5762 18.709 13.5762C17.9121 13.5762 17.4492 13.9043 17.168 14.5664C17.0039 14.9297 16.8398 15.0645 16.4883 15.0645C16.0664 15.0645 15.8438 14.8184 15.8438 14.4316C15.8438 14.2207 15.8848 14.0332 15.9902 13.8281C16.3887 12.9902 17.3262 12.375 18.7031 12.375C20.4551 12.375 21.5801 13.2891 21.5801 14.5957C21.5801 15.6562 20.8242 16.3652 19.8047 16.5762V16.6055C21.0527 16.7227 21.8789 17.4727 21.8789 18.6504Z" clip-rule="evenodd"/></svg>