<svg xmlns="http://www.w3.org/2000/svg" width="24" height="24" viewBox="0 0 24 24"><path fill-rule="evenodd" d="M5.03564 6.44424C5.03564 6.43281 5.03722 6.42661 5.038 6.42407C5.03884 6.42134 5.03987 6.41926 5.04124 6.41722C5.04436 6.41257 5.05175 6.40483 5.06466 6.39886C5.07757 6.39289 5.08825 6.39227 5.09381 6.3929C5.09626 6.39318 5.09851 6.39375 5.10113 6.39488C5.10357 6.39593 5.10932 6.39874 5.11803 6.40614L11.6542 11.9619C11.6777 11.9819 11.6777 12.0181 11.6542 12.0381L5.11803 17.5939C5.10932 17.6013 5.10357 17.6041 5.10113 17.6051C5.09851 17.6063 5.09626 17.6068 5.09381 17.6071C5.08825 17.6077 5.07757 17.6071 5.06466 17.6011C5.05175 17.5952 5.04436 17.5874 5.04124 17.5828C5.03987 17.5807 5.03884 17.5787 5.038 17.5759C5.03722 17.5734 5.03564 17.5672 5.03564 17.5558V6.44424ZM6.0895 5.26323C5.0828 4.40754 3.53564 5.123 3.53564 6.44424V17.5558C3.53564 18.877 5.0828 19.5925 6.0895 18.7368L12.1069 13.6219V17.5558C12.1069 18.877 13.6541 19.5925 14.6608 18.7368L21.197 13.181C21.9252 12.562 21.9252 11.438 21.197 10.819L14.6608 5.26323C13.6541 4.40754 12.1069 5.123 12.1069 6.44424V10.3781L6.0895 5.26323ZM13.6069 6.44424C13.6069 6.43281 13.6085 6.42661 13.6093 6.42407C13.6101 6.42134 13.6112 6.41926 13.6125 6.41722C13.6156 6.41257 13.623 6.40483 13.6359 6.39886C13.6489 6.39289 13.6595 6.39227 13.6651 6.3929C13.6676 6.39318 13.6698 6.39375 13.6724 6.39488C13.6749 6.39593 13.6806 6.39874 13.6893 6.40614L20.2255 11.9619C20.249 11.9819 20.249 12.0181 20.2255 12.0381L13.6893 17.5939C13.6806 17.6013 13.6749 17.6041 13.6724 17.6051C13.6698 17.6063 13.6676 17.6068 13.6651 17.6071C13.6595 17.6077 13.6489 17.6071 13.6359 17.6011C13.623 17.5952 13.6156 17.5874 13.6125 17.5828C13.6112 17.5807 13.6101 17.5787 13.6093 17.5759C13.6085 17.5734 13.6069 17.5672 13.6069 17.5558V6.44424Z" clip-rule="evenodd"/></svg>