<svg xmlns="http://www.w3.org/2000/svg" width="24" height="24" viewBox="0 0 24 24"><path fill-rule="evenodd" d="M11.2863 14.5654L7.89298 10.9961C7.60757 10.6959 7.61904 10.2206 7.91861 9.9346C8.21818 9.64858 8.6924 9.6601 8.97782 9.96032L11.1193 12.213L11.0491 3.00569C11.0459 2.59085 11.3786 2.25198 11.7922 2.2488C12.2058 2.24562 12.5436 2.57934 12.5468 2.99418L12.6175 12.2697L14.8967 10.0281C15.192 9.73765 15.6662 9.74226 15.9558 10.0384C16.2455 10.3345 16.2409 10.81 15.9456 11.1004L12.3771 14.6101C12.0818 14.9006 11.6076 14.896 11.3179 14.5999C11.3069 14.5886 11.2964 14.5772 11.2863 14.5654ZM21 11.7249C20.5858 11.7249 20.25 11.3891 20.25 10.9749V7.3875C20.25 7.10342 19.9536 6.71216 19.3761 6.71216H19.3755L15.9994 6.7095C15.5852 6.70918 15.2497 6.37313 15.25 5.95891C15.2503 5.5447 15.5864 5.20918 16.0006 5.2095L19.3761 5.21216H19.3766C20.5926 5.21245 21.75 6.09732 21.75 7.3875V10.9749C21.75 11.3891 21.4142 11.7249 21 11.7249ZM2.25 7.38608C2.25 6.16006 3.27181 5.21075 4.47631 5.21075H8C8.41421 5.21075 8.75 5.54654 8.75 5.96075C8.75 6.37497 8.41421 6.71075 8 6.71075H4.47631C4.05012 6.71075 3.75 7.03773 3.75 7.38608V18.5759C3.75 18.9243 4.05011 19.2512 4.47631 19.2512H11C11.4142 19.2512 11.75 19.587 11.75 20.0012C11.75 20.4155 11.4142 20.7512 11 20.7512H4.47631C3.27183 20.7512 2.25 19.802 2.25 18.5759V7.38608ZM16.6945 18.344L14.5646 16.1427C14.2765 15.845 13.8096 15.845 13.5215 16.1427C13.2335 16.4404 13.2335 16.923 13.5215 17.2207L16.1638 19.9515C16.1668 19.9547 16.1699 19.9579 16.1729 19.9611C16.461 20.2587 16.928 20.2587 17.216 19.9611L21.9785 15.0391C22.2665 14.7414 22.2665 14.2587 21.9785 13.9611C21.6905 13.6634 21.2235 13.6634 20.9354 13.9611L16.6945 18.344Z" clip-rule="evenodd"/></svg>