<svg xmlns="http://www.w3.org/2000/svg" width="24" height="24" fill="none" viewBox="0 0 24 24"><g><path fill="#22AC38" d="M19.2 0H4.8C2.14903 0 0 2.14903 0 4.8V19.2C0 21.851 2.14903 24 4.8 24H19.2C21.851 24 24 21.851 24 19.2V4.8C24 2.14903 21.851 0 19.2 0Z"/><path fill="white" d="M9.70866 13.9091C9.63276 13.9469 9.54714 13.9677 9.45567 13.9677C9.2455 13.9677 9.06258 13.8561 8.96722 13.6897L8.9322 13.6122L7.40262 10.3521C7.38511 10.3161 7.37538 10.2764 7.37538 10.2367C7.37538 10.0873 7.49992 9.96438 7.65561 9.96438C7.71788 9.96438 7.77626 9.98518 7.82296 10.0193L9.62692 11.2673C9.75925 11.3505 9.91688 11.3997 10.0862 11.3997C10.1874 11.3997 10.2827 11.3808 10.3742 11.3505L18.8588 7.68005C17.3371 5.93843 14.8325 4.80005 11.9991 4.80005C7.35981 4.80005 3.6001 7.84456 3.6001 11.6001C3.6001 13.65 4.73074 15.4956 6.50161 16.7418C6.64367 16.8401 6.73708 17.0027 6.73708 17.1843C6.73708 17.2448 6.72346 17.2996 6.70789 17.3582C6.56583 17.8707 6.3401 18.6914 6.33037 18.7292C6.31285 18.7935 6.28561 18.8597 6.28561 18.9278C6.28561 19.0772 6.41015 19.2001 6.56583 19.2001C6.62616 19.2001 6.67676 19.1774 6.72735 19.149L8.56634 18.1184C8.70451 18.0409 8.85046 17.9936 9.01198 17.9936C9.09761 17.9936 9.18129 18.0069 9.25913 18.0296C10.1173 18.2697 11.0417 18.4021 12.0011 18.4021C16.6384 18.4021 20.4001 15.3576 20.4001 11.6001C20.4001 10.4618 20.0537 9.39141 19.4427 8.4478L9.77093 13.875L9.70866 13.9091Z"/></g></svg>