<svg xmlns="http://www.w3.org/2000/svg" width="24" height="24" viewBox="0 0 24 24"><g><g><path fill-rule="evenodd" d="M3.99707 12.7207L3.99707 18.2207C3.99707 19.1872 4.78057 19.9707 5.74707 19.9707H9.04707C10.124 19.9707 10.9971 19.0977 10.9971 18.0207V13.9207C10.9971 12.8437 10.124 11.9707 9.04707 11.9707L6.75404 11.9707H5.51653C5.56608 11.0628 5.7072 10.3847 5.90475 9.82406C6.15357 9.11794 6.50598 8.55591 6.95929 7.91012C7.31854 7.39832 7.90316 6.92742 8.44301 6.56903C8.70566 6.39466 8.94331 6.2563 9.11442 6.16203C9.19972 6.11503 9.26784 6.07935 9.31346 6.05598C9.33626 6.0443 9.35339 6.03572 9.36418 6.03037L9.37551 6.02479L9.37725 6.02394C9.75023 5.84428 9.90711 5.39634 9.72766 5.0232C9.54814 4.64991 9.09973 4.49296 8.72644 4.67248L8.72342 4.67394L8.71747 4.67684L8.69787 4.68648C8.68146 4.69462 8.65847 4.70615 8.62958 4.72095C8.57184 4.75053 8.49032 4.79328 8.39058 4.84824C8.19158 4.95787 7.91744 5.11748 7.61338 5.31934C7.0198 5.7134 6.25124 6.30798 5.73156 7.04833C5.25455 7.72789 4.80779 8.42372 4.49001 9.32555C4.1719 10.2283 3.99707 11.2954 3.99707 12.7207ZM5.49707 18.2207C5.49707 18.3588 5.609 18.4707 5.74707 18.4707H9.04707C9.2956 18.4707 9.49707 18.2692 9.49707 18.0207V13.9207C9.49707 13.6722 9.2956 13.4707 9.04707 13.4707H6.09237H5.49707L5.49707 14.8202L5.49707 18.2207Z" clip-rule="evenodd"/><path fill-rule="evenodd" d="M12.9971 12.7207L12.9971 18.2207C12.9971 19.1872 13.7806 19.9707 14.7471 19.9707H18.0471C19.124 19.9707 19.9971 19.0977 19.9971 18.0207V13.9207C19.9971 12.8437 19.124 11.9707 18.0471 11.9707L15.754 11.9707H14.5165C14.5661 11.0628 14.7072 10.3847 14.9047 9.82406C15.1536 9.11794 15.506 8.55591 15.9593 7.91012C16.3185 7.39832 16.9032 6.92742 17.443 6.56903C17.7057 6.39466 17.9433 6.2563 18.1144 6.16203C18.1997 6.11503 18.2678 6.07935 18.3135 6.05598C18.3363 6.0443 18.3534 6.03572 18.3642 6.03037L18.3755 6.02479L18.3773 6.02394C18.7502 5.84428 18.9071 5.39634 18.7277 5.0232C18.5481 4.64991 18.0997 4.49296 17.7264 4.67248L17.7234 4.67394L17.7175 4.67684L17.6979 4.68648C17.6815 4.69462 17.6585 4.70615 17.6296 4.72095C17.5718 4.75053 17.4903 4.79328 17.3906 4.84824C17.1916 4.95787 16.9174 5.11748 16.6134 5.31934C16.0198 5.7134 15.2512 6.30798 14.7316 7.04833C14.2545 7.72789 13.8078 8.42372 13.49 9.32555C13.1719 10.2283 12.9971 11.2954 12.9971 12.7207ZM14.4971 18.2207C14.4971 18.3588 14.609 18.4707 14.7471 18.4707H18.0471C18.2956 18.4707 18.4971 18.2692 18.4971 18.0207L18.4971 13.9207C18.4971 13.6722 18.2956 13.4707 18.0471 13.4707H15.0924H14.4971V14.8202L14.4971 18.2207Z" clip-rule="evenodd"/></g></g></svg>