<svg xmlns="http://www.w3.org/2000/svg" width="24" height="24" viewBox="0 0 24 24"><path fill-rule="evenodd" d="M14.5 5.62133C14.5 3.6168 12.0764 2.61292 10.659 4.03034L7.65901 7.03034C7.51836 7.17099 7.32759 7.25001 7.12868 7.25001H4.25C3.00736 7.25001 2 8.25737 2 9.50001V14.5C2 15.7427 3.00736 16.75 4.25 16.75H7.12868C7.32759 16.75 7.51836 16.829 7.65901 16.9697L10.659 19.9697C12.0764 21.3871 14.5 20.3832 14.5 18.3787V5.62133ZM11.7197 5.091C12.1921 4.61853 13 4.95315 13 5.62133V18.3787C13 19.0469 12.1921 19.3815 11.7197 18.909L8.71967 15.909C8.29771 15.4871 7.72542 15.25 7.12868 15.25H4.25C3.83579 15.25 3.5 14.9142 3.5 14.5V9.50001C3.5 9.0858 3.83579 8.75001 4.25 8.75001H7.12868C7.72542 8.75001 8.29771 8.51296 8.71967 8.091L11.7197 5.091Z" clip-rule="evenodd"/><path d="M18.9318 17.7403C18.6346 18.0992 18.0968 18.0969 17.7673 17.7674C17.4378 17.4378 17.4423 16.9063 17.7316 16.541C18.1512 16.0114 18.4963 15.4251 18.7559 14.7984C19.1234 13.9112 19.3125 12.9603 19.3125 12C19.3125 11.0397 19.1234 10.0888 18.7559 9.20164C18.4963 8.57489 18.1512 7.98859 17.7316 7.45898C17.4423 7.09373 17.4378 6.56218 17.7673 6.23267C18.0968 5.90317 18.6346 5.90085 18.9318 6.25975C19.5038 6.95057 19.9705 7.72428 20.3149 8.55586C20.7672 9.64779 21 10.8181 21 12C21 13.1819 20.7672 14.3522 20.3149 15.4442C19.9705 16.2757 19.5038 17.0495 18.9318 17.7403Z"/></svg>