<svg xmlns="http://www.w3.org/2000/svg" width="24" height="24" viewBox="0 0 24 24"><path fill-rule="evenodd" d="M20.5 12C20.5 16.6944 16.6944 20.5 12 20.5C7.30558 20.5 3.5 16.6944 3.5 12C3.5 7.30558 7.30558 3.5 12 3.5C16.6944 3.5 20.5 7.30558 20.5 12ZM22 12C22 17.5228 17.5228 22 12 22C6.47715 22 2 17.5228 2 12C2 6.47715 6.47715 2 12 2C17.5228 2 22 6.47715 22 12ZM16.6828 8.31035C16.8121 8.02574 16.7514 7.69074 16.5303 7.46967C16.3093 7.2486 15.9743 7.18786 15.6896 7.31722L10.3791 9.7311C10.0919 9.86167 9.86167 10.0919 9.7311 10.3791L7.31722 15.6896C7.18786 15.9743 7.2486 16.3093 7.46967 16.5303C7.69074 16.7514 8.02574 16.8121 8.31035 16.6828L13.6209 14.2689C13.9081 14.1383 14.1383 13.9081 14.2689 13.6209L16.6828 8.31035ZM9.51038 14.4896L11.0664 11.0664L14.4896 9.51038L12.9336 12.9336L9.51038 14.4896Z" clip-rule="evenodd"/></svg>