<svg xmlns="http://www.w3.org/2000/svg" width="16" height="16" viewBox="0 0 16 16"><path d="M3.6 2C2.71634 2 2 2.71635 2 3.6V5.73333C2 6.61699 2.71635 7.33333 3.6 7.33333H6.53333C6.97516 7.33333 7.33333 6.97516 7.33333 6.53333V3.6C7.33333 2.71634 6.61699 2 5.73333 2H3.6Z"/><path d="M3.6 8.66667C2.71634 8.66667 2 9.38301 2 10.2667V12.4C2 13.2837 2.71635 14 3.6 14H5.73333C6.61699 14 7.33333 13.2837 7.33333 12.4V9.46667C7.33333 9.02484 6.97516 8.66667 6.53333 8.66667H3.6Z"/><path d="M8.6665 9.46667C8.6665 9.02484 9.02468 8.66667 9.4665 8.66667H12.3998C13.2835 8.66667 13.9998 9.38301 13.9998 10.2667V12.4C13.9998 13.2837 13.2835 14 12.3998 14H10.2665C9.38285 14 8.6665 13.2837 8.6665 12.4V9.46667Z"/><path d="M10.2665 2C9.38285 2 8.6665 2.71635 8.6665 3.6V6.53333C8.6665 6.97516 9.02468 7.33333 9.46651 7.33333H12.3998C13.2835 7.33333 13.9998 6.61699 13.9998 5.73333V3.6C13.9998 2.71634 13.2835 2 12.3998 2H10.2665Z"/></svg>