<svg xmlns="http://www.w3.org/2000/svg" width="24" height="24" viewBox="0 0 24 24"><path fill-rule="evenodd" d="M6.95601 17.1852C7.39095 17.5501 7.94057 17.7502 8.50834 17.7502H13.7533C14.3249 17.7502 14.8672 17.4973 15.2346 17.0594L15.4482 16.8049L20.163 11.1859C21.0204 10.1642 20.8871 8.64093 19.8654 7.7836L14.7559 3.49621C13.7341 2.63888 12.2109 2.77215 11.3535 3.79388L4.49499 11.9676C3.63766 12.9893 3.77093 14.5126 4.79266 15.3699L6.91485 17.1506L6.95601 17.1852ZM8.50834 16.2502C8.29322 16.2502 8.08498 16.1744 7.92019 16.0361L7.87903 16.0016L5.75684 14.2208C5.36972 13.896 5.31923 13.3189 5.64406 12.9318L12.5026 4.75806C12.8274 4.37094 13.4046 4.32045 13.7917 4.64528L18.9012 8.93267C19.2883 9.2575 19.3388 9.83464 19.014 10.2218L14.2991 15.8407L14.0855 16.0953C14.0031 16.1935 13.8815 16.2502 13.7533 16.2502H8.50834ZM17.0001 21.75C17.4143 21.75 17.7501 21.4143 17.7501 21C17.7501 20.5858 17.4143 20.25 17.0001 20.25H5.00006C4.58585 20.25 4.25006 20.5858 4.25006 21C4.25006 21.4143 4.58585 21.75 5.00006 21.75H17.0001Z" clip-rule="evenodd"/></svg>