<svg xmlns="http://www.w3.org/2000/svg" width="24" height="24" viewBox="0 0 24 24"><path fill-rule="evenodd" d="M5.66 2.75C5.15742 2.75 4.75 3.15742 4.75 3.66V20.34C4.75 20.8426 5.15742 21.25 5.66 21.25H18.34C18.8426 21.25 19.25 20.8426 19.25 20.34V3.66C19.25 3.15742 18.8426 2.75 18.34 2.75H5.66ZM3.25 3.66C3.25 2.32899 4.32899 1.25 5.66 1.25H18.34C19.671 1.25 20.75 2.32899 20.75 3.66V20.34C20.75 21.671 19.671 22.75 18.34 22.75H5.66C4.32899 22.75 3.25 21.671 3.25 20.34V3.66ZM5.85 9.25C5.85 8.89102 6.14102 8.6 6.5 8.6H8C8.91127 8.6 9.65 9.33873 9.65 10.25V12V13.75C9.65 14.6613 8.91127 15.4 8 15.4H6.5C6.14102 15.4 5.85 15.109 5.85 14.75C5.85 14.391 6.14102 14.1 6.5 14.1H8C8.1933 14.1 8.35 13.9433 8.35 13.75V12.65H6.5C6.14102 12.65 5.85 12.359 5.85 12C5.85 11.641 6.14102 11.35 6.5 11.35H8.35V10.25C8.35 10.0567 8.1933 9.9 8 9.9H6.5C6.14102 9.9 5.85 9.60898 5.85 9.25ZM15.15 9.34998C15.15 8.99099 14.859 8.69998 14.5 8.69998C14.141 8.69998 13.85 8.99099 13.85 9.34998V11.4173C13.85 12.3286 14.5887 13.0673 15.5 13.0673H16.35V14.85C16.35 15.209 16.641 15.5 17 15.5C17.359 15.5 17.65 15.209 17.65 14.85V12.4173V9.34998C17.65 8.99099 17.359 8.69998 17 8.69998C16.641 8.69998 16.35 8.99099 16.35 9.34998V11.7673H15.5C15.3067 11.7673 15.15 11.6106 15.15 11.4173V9.34998ZM10.85 10.75C10.85 10.391 11.141 10.1 11.5 10.1H12C12.359 10.1 12.65 10.391 12.65 10.75C12.65 11.109 12.359 11.4 12 11.4H11.5C11.141 11.4 10.85 11.109 10.85 10.75ZM11.5 13.1C11.141 13.1 10.85 13.391 10.85 13.75C10.85 14.109 11.141 14.4 11.5 14.4H12C12.359 14.4 12.65 14.109 12.65 13.75C12.65 13.391 12.359 13.1 12 13.1H11.5Z" clip-rule="evenodd"/></svg>