<svg xmlns="http://www.w3.org/2000/svg" width="24" height="24" viewBox="0 0 24 24"><path fill-rule="evenodd" d="M12 3.5C7.30558 3.5 3.5 7.30558 3.5 12C3.5 16.6944 7.30558 20.5 12 20.5C16.6944 20.5 20.5 16.6944 20.5 12C20.5 11.8961 20.4562 11.7996 20.3119 11.7102C20.1526 11.6115 19.9112 11.5574 19.6679 11.5943C19.3535 11.642 19.0319 11.6667 18.705 11.6667C15.1842 11.6667 12.33 8.81248 12.33 5.29166C12.33 4.96409 12.3548 4.64181 12.4027 4.32672C12.4394 4.08487 12.3856 3.8449 12.2875 3.68658C12.1987 3.54331 12.1029 3.5 12 3.5ZM2 12C2 6.47715 6.47715 2 12 2C12.7151 2 13.2529 2.39702 13.5624 2.89627C13.8625 3.38048 13.9718 3.98521 13.8856 4.55211C13.849 4.79287 13.83 5.0398 13.83 5.29166C13.83 7.98405 16.0126 10.1667 18.705 10.1667C18.9563 10.1667 19.2027 10.1477 19.443 10.1113C20.0109 10.0251 20.6167 10.1345 21.1019 10.4351C21.6021 10.745 22 11.2836 22 12C22 17.5228 17.5228 22 12 22C6.47715 22 2 17.5228 2 12Z" clip-rule="evenodd"/></svg>