<svg xmlns="http://www.w3.org/2000/svg" width="24" height="24" viewBox="0 0 24 24"><path fill-rule="evenodd" d="M10.8358 6.35498C8.58666 6.35498 6.76335 8.17829 6.76335 10.4274C6.76335 10.6611 6.78295 10.8896 6.82044 11.1115C6.85816 11.3348 6.79296 11.5632 6.64304 11.733C6.49313 11.9027 6.27454 11.9956 6.0483 11.9857C6.00559 11.9839 5.9626 11.9829 5.91934 11.9829C4.31647 11.9829 3.01709 13.2823 3.01709 14.8852C3.01709 16.4877 4.31592 17.7869 5.91832 17.7874H5.91934L17.0615 17.7531L17.0638 17.7531C19.1365 17.7531 20.8167 16.0728 20.8167 14.0001C20.8167 11.9275 19.1365 10.2472 17.0638 10.2472C15.4419 10.2472 14.0585 11.2764 13.5347 12.7198C13.3934 13.1091 12.9633 13.3102 12.5739 13.1689C12.1845 13.0276 11.9834 12.5974 12.1247 12.2081C12.8569 10.1904 14.7909 8.74722 17.0638 8.74722C19.9649 8.74722 22.3167 11.099 22.3167 14.0001C22.3167 16.9009 19.9655 19.2525 17.0649 19.2531H17.0638L5.92165 19.2874L5.91934 19.2874C3.48804 19.2874 1.51709 17.3165 1.51709 14.8852C1.51709 12.6765 3.14368 10.8477 5.26431 10.5314C5.26367 10.4968 5.26335 10.4621 5.26335 10.4274C5.26335 7.34986 7.75823 4.85498 10.8358 4.85498C12.5555 4.85498 14.0938 5.63488 15.1148 6.85754C15.3803 7.17547 15.3378 7.64844 15.0198 7.91394C14.7019 8.17944 14.2289 8.13693 13.9634 7.819C13.2152 6.923 12.0922 6.35498 10.8358 6.35498Z" clip-rule="evenodd"/></svg>