<svg xmlns="http://www.w3.org/2000/svg" width="24" height="24" viewBox="0 0 24 24"><path fill-rule="evenodd" d="M4 12C4 7.58172 7.58172 4 12 4C16.4183 4 20 7.58172 20 12C20 13.6414 19.5065 15.1653 18.6599 16.4341C18.5345 16.6219 18.5005 16.8562 18.5672 17.072L19.2966 19.4301L16.8896 18.6857C16.6801 18.6208 16.4527 18.651 16.2673 18.7682C15.0328 19.5483 13.5703 20 12 20C7.58172 20 4 16.4183 4 12ZM12 2.5C6.75329 2.5 2.5 6.75329 2.5 12C2.5 17.2467 6.75329 21.5 12 21.5C13.7367 21.5 15.3664 21.0333 16.7684 20.2183L19.3061 21.0032C20.2664 21.3002 21.1667 20.3999 20.8697 19.4397L20.1031 16.9612C20.9891 15.5168 21.5 13.8171 21.5 12C21.5 6.75329 17.2467 2.5 12 2.5ZM8 11C7.44772 11 7 11.4477 7 12C7 12.5523 7.44772 13 8 13C8.55228 13 9 12.5523 9 12C9 11.4477 8.55228 11 8 11ZM11 12C11 11.4477 11.4477 11 12 11C12.5523 11 13 11.4477 13 12C13 12.5523 12.5523 13 12 13C11.4477 13 11 12.5523 11 12ZM16 11C15.4477 11 15 11.4477 15 12C15 12.5523 15.4477 13 16 13C16.5523 13 17 12.5523 17 12C17 11.4477 16.5523 11 16 11Z" clip-rule="evenodd"/></svg>