<svg xmlns="http://www.w3.org/2000/svg" width="24" height="24" viewBox="0 0 24 24"><path fill-rule="evenodd" d="M13.1657 6C13.1657 5.58579 13.5015 5.25 13.9157 5.25H17.6461C18.3116 5.25 18.8548 5.61434 19.2052 6.08545C19.5557 6.55656 19.75 7.17231 19.75 7.82007V10.8176C19.75 11.2318 19.4142 11.5676 19 11.5676C18.5858 11.5676 18.25 11.2318 18.25 10.8176V7.82007C18.25 7.46264 18.1412 7.16835 18.0017 6.98073C17.8621 6.7931 17.7283 6.75 17.6461 6.75L13.9157 6.75C13.5015 6.75 13.1657 6.41421 13.1657 6ZM4.99831 6.98072C4.85875 7.16833 4.75 7.46262 4.75 7.82007V11C4.75 11.4142 4.41421 11.75 4 11.75C3.58579 11.75 3.25 11.4142 3.25 11L3.25 7.82007C3.25 7.17232 3.44432 6.55657 3.79477 6.08545C4.14522 5.61433 4.68836 5.25 5.35388 5.25H9.13043C9.54465 5.25 9.88043 5.58579 9.88043 6C9.88043 6.41421 9.54465 6.75 9.13043 6.75H5.35388C5.27168 6.75 5.13787 6.79311 4.99831 6.98072ZM19 14.8516C19.4142 14.8516 19.75 15.1874 19.75 15.6016V19.1799C19.75 19.8277 19.5556 20.4434 19.2052 20.9145C18.8548 21.3856 18.3116 21.75 17.6461 21.75H13.8828C13.4686 21.75 13.1328 21.4142 13.1328 21C13.1328 20.5858 13.4686 20.25 13.8828 20.25H17.6461C17.7283 20.25 17.8621 20.2069 18.0017 20.0193C18.1412 19.8316 18.25 19.5373 18.25 19.1799V15.6016C18.25 15.1874 18.5858 14.8516 19 14.8516ZM4 15.25C4.41421 15.25 4.75 15.5858 4.75 16V19.1799C4.75 19.5371 4.85858 19.8312 4.99802 20.0189C5.13726 20.2063 5.27087 20.2497 5.35305 20.25H9.12418C9.53839 20.25 9.87418 20.5858 9.87418 21C9.87418 21.4142 9.53839 21.75 9.12418 21.75H5.35137C4.68653 21.7489 4.1439 21.3844 3.79399 20.9135C3.44405 20.4425 3.25 19.8272 3.25 19.1799L3.25 16C3.25 15.5858 3.58579 15.25 4 15.25Z" clip-rule="evenodd"/><path fill-rule="evenodd" d="M13.1065 5.22984C13.0786 4.81524 12.8913 4.42688 12.5833 4.14658C12.2706 3.86204 11.8588 3.71186 11.437 3.72823C11.0151 3.7446 10.617 3.92616 10.3283 4.23355C10.0397 4.54095 9.8835 4.94974 9.89365 5.37184L9.89387 5.38086V6.00011C9.89387 6.41433 9.55808 6.75012 9.14387 6.75011C8.72966 6.75012 8.39387 6.41433 8.39387 6.00012V5.39828C8.37684 4.58595 8.67857 3.79919 9.23487 3.20676C9.79336 2.61199 10.5635 2.26099 11.3788 2.22936C12.1941 2.19773 12.9893 2.48795 13.5928 3.03718C14.1964 3.5864 14.5601 4.35077 14.6053 5.16547L14.6065 5.18624V6.00011C14.6065 6.41433 14.2707 6.75011 13.8565 6.75011C13.4423 6.75011 13.1065 6.41433 13.1065 6.00011V5.22984Z" clip-rule="evenodd"/><path fill-rule="evenodd" d="M13.1065 20.2298C13.0786 19.8152 12.8913 19.4269 12.5833 19.1466C12.2706 18.862 11.8588 18.7119 11.437 18.7282C11.0151 18.7446 10.617 18.9262 10.3283 19.2335C10.0397 19.5409 9.8835 19.9497 9.89365 20.3718L9.89387 20.3809V21.0001C9.89387 21.4143 9.55808 21.7501 9.14387 21.7501C8.72966 21.7501 8.39387 21.4143 8.39387 21.0001V20.3983C8.37684 19.586 8.67857 18.7992 9.23487 18.2068C9.79336 17.612 10.5635 17.261 11.3788 17.2294C12.1941 17.1977 12.9893 17.488 13.5928 18.0372C14.1964 18.5864 14.5601 19.3508 14.6053 20.1655L14.6065 20.1862V21.0001C14.6065 21.4143 14.2707 21.7501 13.8565 21.7501C13.4423 21.7501 13.1065 21.4143 13.1065 21.0001V20.2298Z" clip-rule="evenodd"/><path fill-rule="evenodd" d="M4.84121 15.1416C5.25581 15.1137 5.64417 14.9264 5.92447 14.6184C6.209 14.3058 6.35918 13.894 6.34281 13.4721C6.32645 13.0503 6.14489 12.6522 5.8375 12.3635C5.5301 12.0749 5.1213 11.9187 4.6992 11.9288L4.69019 11.929H4.00001C3.58579 11.929 3.25001 11.5932 3.25001 11.179C3.25001 10.7648 3.58579 10.429 4.00001 10.429H4.67277C5.4851 10.412 6.27185 10.7137 6.86428 11.27C7.45906 11.8285 7.81005 12.5986 7.84169 13.414C7.87332 14.2293 7.5831 15.0245 7.03387 15.628C6.48465 16.2315 5.72027 16.5952 4.90558 16.6405L4.88481 16.6416H4.00001C3.5858 16.6416 3.25001 16.3058 3.25001 15.8916C3.25001 15.4774 3.58579 15.1416 4.00001 15.1416H4.84121Z" clip-rule="evenodd"/><path fill-rule="evenodd" d="M19.7702 14.8199C20.1848 14.792 20.5731 14.6047 20.8534 14.2967C21.138 13.984 21.2881 13.5722 21.2718 13.1503C21.2554 12.7285 21.0738 12.3304 20.7665 12.0417C20.4591 11.7531 20.0503 11.5969 19.6282 11.607L19.6191 11.6072H18.9999C18.5857 11.6072 18.2499 11.2715 18.2499 10.8573C18.2499 10.443 18.5857 10.1072 18.9999 10.1072L19.6017 10.1072C20.414 10.0902 21.2008 10.3919 21.7932 10.9482C22.388 11.5067 22.739 12.2768 22.7706 13.0922C22.8023 13.9075 22.5121 14.7027 21.9628 15.3062C21.4136 15.9098 20.6492 16.2735 19.8345 16.3187L19.8138 16.3199H18.9999C18.5857 16.3199 18.2499 15.9841 18.2499 15.5699C18.2499 15.1556 18.5857 14.8199 18.9999 14.8199H19.7702Z" clip-rule="evenodd"/></svg>