<svg xmlns="http://www.w3.org/2000/svg" width="24" height="24" viewBox="0 0 24 24"><path fill-rule="evenodd" d="M14.4873 16.1469L17.3281 19.1648C17.3647 19.2124 17.4051 19.2579 17.4493 19.3008C17.4662 19.3172 17.4834 19.333 17.5009 19.3482C17.9741 19.8397 18.7145 19.8204 19.1619 19.3025C19.1756 19.2892 19.1892 19.2754 19.2025 19.2613L22.2052 16.0705C22.6784 15.5676 22.6607 14.7701 22.1657 14.2891C21.6706 13.8081 20.8857 13.8258 20.4125 14.3287L19.556 15.2388V7.59979C19.556 4.92121 17.3846 2.74979 14.706 2.74979H11.5494C10.859 2.74979 10.2994 3.30943 10.2994 3.99979C10.2994 4.69015 10.859 5.24979 11.5494 5.24979L14.706 5.24979C16.0039 5.24979 17.056 6.30192 17.056 7.59979V15.249L16.1183 14.2527C15.645 13.75 14.8963 13.7664 14.4459 14.2894C13.9955 14.8125 14.014 15.6441 14.4873 16.1469ZM1.76529 9.708C2.21736 10.2296 2.96881 10.2461 3.4437 9.74486L4.39665 8.73905V16.4001C4.39665 19.0787 6.56807 21.2501 9.24665 21.2501H12.4474C13.1378 21.2501 13.6974 20.6904 13.6974 20.0001C13.6974 19.3097 13.1378 18.7501 12.4474 18.7501H9.24665C7.94878 18.7501 6.89665 17.6979 6.89665 16.4001V8.74487L7.77141 9.66839C8.24624 10.1697 9.03375 10.1875 9.53037 9.7081C10.027 9.22873 10.0446 8.43374 9.56982 7.93245L6.54748 4.74164C6.53432 4.72775 6.52093 4.71423 6.50731 4.70109C6.05763 4.1833 5.31257 4.16446 4.83758 4.65699C4.82094 4.67145 4.80458 4.68643 4.78852 4.70193C4.74495 4.74399 4.70506 4.78848 4.66887 4.83499L1.80663 7.856C1.33173 8.35724 1.31323 9.1864 1.76529 9.708Z" clip-rule="evenodd"/></svg>