<svg xmlns="http://www.w3.org/2000/svg" width="24" height="24" viewBox="0 0 24 24"><path fill-rule="evenodd" d="M12.75 3.74976C12.75 3.33554 12.4142 2.99976 12 2.99976C11.5858 2.99976 11.25 3.33554 11.25 3.74976V14.5792L7.46513 11.5514C7.14168 11.2926 6.66972 11.3451 6.41096 11.6685C6.1522 11.992 6.20464 12.4639 6.52809 12.7227L10.8378 16.1705C11.5171 16.7139 12.4824 16.7139 13.1617 16.1705L17.4715 12.7227C17.7949 12.4639 17.8473 11.992 17.5886 11.6685C17.3298 11.3451 16.8579 11.2926 16.5344 11.5514L12.75 14.5789V3.74976ZM4.50293 16.8054C4.50293 16.3912 4.16714 16.0554 3.75293 16.0554C3.33872 16.0554 3.00293 16.3912 3.00293 16.8054V19.5803C3.00293 20.914 4.08412 21.9953 5.41791 21.9953L18.5618 21.9954C19.8956 21.9954 20.9768 20.9142 20.9768 19.5804V16.8054C20.9768 16.3912 20.641 16.0554 20.2268 16.0554C19.8126 16.0554 19.4768 16.3912 19.4768 16.8054V19.5804C19.4768 20.0858 19.0672 20.4954 18.5618 20.4954L5.41792 20.4953C4.9126 20.4953 4.50293 20.0856 4.50293 19.5803V16.8054Z" clip-rule="evenodd"/></svg>