<svg xmlns="http://www.w3.org/2000/svg" width="25" height="24" viewBox="0 0 25 24"><path fill-rule="evenodd" d="M6.1 3.375C4.80213 3.375 3.75 4.42713 3.75 5.725V13.775C3.75 15.0729 4.80213 16.125 6.1 16.125H8.625C9.03921 16.125 9.375 15.7892 9.375 15.375C9.375 14.9608 9.03921 14.625 8.625 14.625H6.1C5.63056 14.625 5.25 14.2444 5.25 13.775V5.725C5.25 5.25556 5.63056 4.875 6.1 4.875H19.4C19.8694 4.875 20.25 5.25556 20.25 5.725V13.775C20.25 14.2444 19.8694 14.625 19.4 14.625H16.875C16.4608 14.625 16.125 14.9608 16.125 15.375C16.125 15.7892 16.4608 16.125 16.875 16.125H19.4C20.6979 16.125 21.75 15.0729 21.75 13.775V5.725C21.75 4.42713 20.6979 3.375 19.4 3.375H6.1ZM13.7892 14.925C13.3274 14.125 12.1727 14.125 11.7108 14.925L9.2426 19.2C8.78072 20 9.35807 21 10.2818 21H15.2182C16.1419 21 16.7193 20 16.2574 19.2L13.7892 14.925ZM10.8014 19.5L12.75 16.125L14.6986 19.5H10.8014Z" clip-rule="evenodd"/></svg>