<svg xmlns="http://www.w3.org/2000/svg" width="24" height="24" viewBox="0 0 24 24"><path fill-rule="evenodd" d="M5.63295 4.16895C5.43413 4.16895 5.27295 4.33012 5.27295 4.52895L5.27295 19.4709C5.27295 19.6697 5.43413 19.8309 5.63295 19.8309L17.8116 19.8309C18.3169 19.8309 18.7266 19.4212 18.7266 18.9159V5.08396C18.7266 4.57862 18.3169 4.16896 17.8116 4.16896H16.0154V9.70896C16.0154 10.1232 15.6796 10.459 15.2654 10.459C14.8512 10.459 14.5154 10.1232 14.5154 9.70896V3.41896C14.5154 3.00475 14.8512 2.66896 15.2654 2.66896H17.8116C19.1453 2.66896 20.2266 3.7502 20.2266 5.08396V18.9159C20.2266 20.2497 19.1453 21.3309 17.8116 21.3309L5.63295 21.3309C4.6057 21.3309 3.77295 20.4981 3.77295 19.4709L3.77295 4.52895C3.77295 3.5017 4.6057 2.66895 5.63295 2.66895H11.9995C12.4137 2.66895 12.7495 3.00473 12.7495 3.41895C12.7495 3.83316 12.4137 4.16895 11.9995 4.16895H5.63295Z" clip-rule="evenodd"/></svg>