<svg xmlns="http://www.w3.org/2000/svg" width="16" height="16" viewBox="0 0 16 16"><g><g><path fill-rule="evenodd" d="M8 13.7C11.148 13.7 13.7 11.148 13.7 8C13.7 4.85198 11.148 2.3 8 2.3C4.85198 2.3 2.3 4.85198 2.3 8C2.3 11.148 4.85198 13.7 8 13.7ZM8 15C11.866 15 15 11.866 15 8C15 4.13401 11.866 1 8 1C4.13401 1 1 4.13401 1 8C1 11.866 4.13401 15 8 15Z" clip-rule="evenodd"/><path fill-rule="evenodd" d="M4.77597 5.17574C5.01028 4.94142 5.39018 4.94142 5.62449 5.17574L6.75927 6.31051C7.05188 6.60312 7.01749 7.08706 6.68644 7.33534L5.16023 8.48C4.89513 8.67882 4.51905 8.6251 4.32023 8.36C4.12141 8.0949 4.17513 7.71882 4.44023 7.52L5.48679 6.73508L4.77597 6.02426C4.54165 5.78995 4.54165 5.41005 4.77597 5.17574Z" clip-rule="evenodd"/><path fill-rule="evenodd" d="M11.224 5.17574C10.9897 4.94142 10.6098 4.94142 10.3755 5.17574L9.24073 6.31051C8.94812 6.60312 8.98251 7.08706 9.31356 7.33534L10.8398 8.48C11.1049 8.67882 11.4809 8.6251 11.6798 8.36C11.8786 8.0949 11.8249 7.71882 11.5598 7.52L10.5132 6.73508L11.224 6.02426C11.4583 5.78995 11.4583 5.41005 11.224 5.17574Z" clip-rule="evenodd"/><path fill-rule="evenodd" d="M5.59072 10.4791C6.09522 9.91648 7.07034 9.44236 8.00487 9.45029C8.94827 9.4583 9.91104 9.91407 10.4227 10.5281C10.6172 10.7615 10.5857 11.1083 10.3523 11.3027C10.1189 11.4972 9.77213 11.4657 9.57767 11.2323C9.28936 10.8863 8.64238 10.5557 7.99553 10.5503C7.37951 10.545 6.70518 10.8839 6.40968 11.2134C6.20688 11.4396 5.85916 11.4585 5.63301 11.2557C5.40686 11.0529 5.38793 10.7052 5.59072 10.4791Z" clip-rule="evenodd"/></g></g></svg>