<svg xmlns="http://www.w3.org/2000/svg" width="16" height="16" viewBox="0 0 16 16"><g><path fill-rule="evenodd" d="M4.53838 6.70746C4.53838 6.58543 4.53583 6.44665 4.53305 6.29483C4.51873 5.51367 4.49808 4.38742 4.78509 3.4236C4.96302 2.82611 5.27223 2.23135 5.81575 1.78843C6.36595 1.34008 7.0914 1.1001 8.00029 1.1001C8.90917 1.1001 9.63462 1.34008 10.1848 1.78843C10.7283 2.23135 11.0376 2.82611 11.2155 3.4236C11.5025 4.38741 11.4818 5.51364 11.4675 6.2948C11.4647 6.44659 11.4622 6.58546 11.4622 6.70746H12.4C13.2837 6.70746 14 7.4238 14 8.30746V12.8976C14 13.7813 13.2837 14.4976 12.4 14.4976H3.6C2.71635 14.4976 2 13.7813 2 12.8976V8.30746C2 7.4238 2.71634 6.70746 3.6 6.70746H4.53838ZM5.83315 6.20321C5.8211 5.41607 5.80776 4.54437 6.03102 3.79463C6.16065 3.35933 6.35671 3.02459 6.63698 2.79619C6.91058 2.57323 7.32747 2.4001 8.00029 2.4001C8.6731 2.4001 9.08999 2.57323 9.3636 2.79619C9.64387 3.02459 9.83992 3.35933 9.96955 3.79463C10.1928 4.54436 10.1795 5.41606 10.1674 6.20319C10.1648 6.37599 10.1622 6.545 10.1622 6.70746H5.83838C5.83838 6.54493 5.83579 6.37609 5.83315 6.20321ZM5.23184 10.6026C5.23184 10.2436 5.52285 9.9526 5.88184 9.9526H10.1171C10.4761 9.9526 10.7671 10.2436 10.7671 10.6026C10.7671 10.9616 10.4761 11.2526 10.1171 11.2526H5.88184C5.52285 11.2526 5.23184 10.9616 5.23184 10.6026Z" clip-rule="evenodd"/></g></svg>