<svg xmlns="http://www.w3.org/2000/svg" width="24" height="24" viewBox="0 0 24 24"><path fill-rule="evenodd" d="M3.84918 5.26594C4.94324 4.86632 6.02508 4.6665 7.09471 4.6665C8.43276 4.6665 9.76967 4.97918 11.1055 5.60453C11.3163 5.70325 11.4511 5.91508 11.4511 6.14793L11.451 16.457C11.451 16.5895 11.3436 16.697 11.2111 16.697C11.1759 16.697 11.1411 16.6892 11.1093 16.6743C9.7722 16.0478 8.43402 15.7345 7.09471 15.7345C5.90866 15.7345 4.70758 15.9802 3.4915 16.4715C3.18427 16.5957 2.83457 16.4472 2.71044 16.14C2.68158 16.0686 2.66675 15.9922 2.66675 15.9152L2.66676 6.95667C2.66676 6.20071 3.13911 5.52531 3.84918 5.26594ZM12.8947 5.60453C14.2305 4.97918 15.5674 4.6665 16.9054 4.6665C17.9751 4.6665 19.0569 4.86632 20.151 5.26594C20.8611 5.52531 21.3334 6.20072 21.3334 6.95668L21.3334 15.9152C21.3334 16.2466 21.0648 16.5152 20.7334 16.5152C20.6564 16.5152 20.5801 16.5004 20.5086 16.4715C19.2926 15.9802 18.0915 15.7345 16.9054 15.7345C15.5661 15.7345 14.2279 16.0478 12.8909 16.6743C12.7709 16.7305 12.628 16.6788 12.5718 16.5588C12.5568 16.5269 12.5491 16.4922 12.5491 16.457L12.5491 6.14796C12.5491 5.91509 12.6838 5.70326 12.8947 5.60453ZM16.9054 16.887C18.2164 16.887 19.524 17.1566 20.8233 17.6924C21.2416 17.8649 21.443 18.349 21.2731 18.7738C21.1032 19.1986 20.6263 19.403 20.208 19.2305C19.1005 18.7738 18.0012 18.5472 16.9054 18.5472C15.8257 18.5472 14.7426 18.7673 13.6515 19.2106C13.4445 19.2908 13.2252 19.3317 13.0033 19.3318L10.9243 19.333C10.7286 19.3331 10.535 19.2924 10.3559 19.2136C9.26235 18.7682 8.17685 18.5472 7.09471 18.5472C5.99892 18.5472 4.89968 18.7738 3.79216 19.2305C3.37381 19.403 2.89695 19.1985 2.72705 18.7738C2.55715 18.349 2.75855 17.8649 3.17689 17.6924C4.47616 17.1566 5.78371 16.887 7.09471 16.887C8.18369 16.887 9.27029 17.073 10.3517 17.4431C10.391 17.4565 10.4359 17.4724 10.4864 17.4908C10.8147 17.6103 11.1614 17.6715 11.5108 17.6717L12.4845 17.6722C12.8351 17.6724 13.1829 17.6112 13.5123 17.4913C13.5605 17.4737 13.6034 17.4585 13.641 17.4456C14.7249 17.0739 15.814 16.887 16.9054 16.887Z" clip-rule="evenodd"/></svg>