<svg xmlns="http://www.w3.org/2000/svg" width="24" height="24" viewBox="0 0 24 24"><path fill-rule="evenodd" d="M5.41548 3.00427C4.08172 3.00427 3.00049 4.0855 3.00049 5.41927V8.29687V16.67V18.5806C3.00049 19.9143 4.08172 20.9956 5.41548 20.9956H18.5842C19.9179 20.9956 20.9991 19.9143 20.9991 18.5806V5.41927C20.9991 4.0855 19.9179 3.00427 18.5842 3.00427H5.41548ZM4.50049 5.41927C4.50049 4.91393 4.91014 4.50427 5.41548 4.50427H18.5842C19.0895 4.50427 19.4992 4.91393 19.4992 5.41927V18.5806C19.4992 19.0859 19.0895 19.4956 18.5842 19.4956H5.41548C4.91014 19.4956 4.50049 19.0859 4.50049 18.5806V17.42H4.96287C6.7095 17.42 8.41392 16.8832 9.84531 15.8822L11.5235 14.7087C12.7029 13.884 14.1073 13.4417 15.5464 13.4417H17.0797C17.4939 13.4417 17.8297 13.1059 17.8297 12.6917C17.8297 12.2775 17.4939 11.9417 17.0797 11.9417H15.5464C13.7998 11.9417 12.0953 12.4785 10.664 13.4794L8.98572 14.653C7.80634 15.4777 6.40199 15.92 4.96287 15.92H4.50049V8.29687V5.41927ZM8.00084 8.93697C8.00084 8.43072 8.41124 8.02032 8.91749 8.02032C9.42374 8.02032 9.83413 8.43072 9.83413 8.93697C9.83413 9.44322 9.42374 9.85361 8.91749 9.85361C8.41124 9.85361 8.00084 9.44322 8.00084 8.93697ZM8.91749 6.52032C7.58281 6.52032 6.50085 7.60229 6.50085 8.93697C6.50085 10.2716 7.58281 11.3536 8.91749 11.3536C10.2522 11.3536 11.3341 10.2716 11.3341 8.93697C11.3341 7.60229 10.2522 6.52032 8.91749 6.52032Z" clip-rule="evenodd"/></svg>