<svg xmlns="http://www.w3.org/2000/svg" width="24" height="24" viewBox="0 0 24 24"><path fill-rule="evenodd" d="M4.89587 4.7583C4.32923 4.7583 3.86987 5.21765 3.86987 5.7843V11.2503H9.98169C10.3959 11.2503 10.7317 11.5861 10.7317 12.0003C10.7317 12.4146 10.3959 12.7503 9.98169 12.7503H3.11987C2.70566 12.7503 2.36987 12.4146 2.36987 12.0003V5.7843C2.36987 4.38923 3.5008 3.2583 4.89587 3.2583H19.1039C20.4989 3.2583 21.6299 4.38921 21.6299 5.7843V18.2163C21.6299 19.6114 20.4989 20.7423 19.1039 20.7423H4.89587C3.50078 20.7423 2.36987 19.6113 2.36987 18.2163V14.9973C2.36987 14.5831 2.70566 14.2473 3.11987 14.2473C3.53409 14.2473 3.86987 14.5831 3.86987 14.9973V18.2163C3.86987 18.7829 4.32924 19.2423 4.89587 19.2423H19.1039C19.6705 19.2423 20.1299 18.7829 20.1299 18.2163V5.7843C20.1299 5.21767 19.6705 4.7583 19.1039 4.7583H4.89587Z" clip-rule="evenodd"/></svg>