<svg xmlns="http://www.w3.org/2000/svg" width="24" height="24" viewBox="0 0 24 24"><path d="M9.5 20.25C9.5 20.9404 8.94036 21.5 8.25 21.5C7.55964 21.5 7 20.9404 7 20.25C7 19.5596 7.55964 19 8.25 19C8.94036 19 9.5 19.5596 9.5 20.25Z"/><path d="M18.5 20.25C18.5 20.9404 17.9404 21.5 17.25 21.5C16.5596 21.5 16 20.9404 16 20.25C16 19.5596 16.5596 19 17.25 19C17.9404 19 18.5 19.5596 18.5 20.25Z"/><path d="M2.70099 1.77764C2.30193 1.66661 1.88843 1.90009 1.77739 2.29915C1.66636 2.6982 1.89985 3.11171 2.2989 3.22274L4.2766 3.77301C4.29631 3.7785 4.31069 3.79544 4.3129 3.81578L5.59926 15.654C5.72885 16.8466 6.73589 17.7502 7.93551 17.7502H18.9999C19.4142 17.7502 19.7499 17.4144 19.7499 17.0002C19.7499 16.586 19.4142 16.2502 18.9999 16.2502H7.93551C7.5016 16.2502 7.13735 15.9234 7.09048 15.492L6.08428 6.23198L19.5557 5.811C20.0948 5.79415 20.513 6.27716 20.4193 6.8083L19.474 12.1649C19.4073 12.5427 19.0959 12.829 18.7139 12.8637L8.93211 13.753C8.51959 13.7905 8.21559 14.1553 8.25309 14.5678C8.29059 14.9803 8.6554 15.2843 9.06791 15.2468L18.8497 14.3575C19.9059 14.2615 20.7669 13.47 20.9512 12.4256L21.8965 7.06898C22.1556 5.60053 20.9992 4.26515 19.5088 4.31173L5.92176 4.73633L5.80412 3.65374C5.7356 3.02314 5.28977 2.49793 4.67868 2.32791L2.70099 1.77764Z"/></svg>