<svg xmlns="http://www.w3.org/2000/svg" width="24" height="24" viewBox="0 0 24 24"><path fill-rule="evenodd" d="M5.75004 8.00001C5.75004 4.54754 8.54759 1.75 12 1.75C15.4525 1.75 18.25 4.54754 18.25 8.00001C18.25 10.3316 16.9742 12.3645 15.0823 13.4387C15.4442 13.597 15.5475 14.0484 15.3194 14.3708L15.2555 14.4611C15.0369 14.7702 14.6256 14.8665 14.2739 14.7264C13.4999 14.4181 12.6619 14.25 11.7869 14.25C8.12955 14.25 5.0707 17.2115 4.74741 21.0627C4.71277 21.4755 4.35007 21.782 3.93731 21.7474C3.52454 21.7127 3.21802 21.35 3.25267 20.9373C3.54385 17.4685 5.7257 14.5359 8.73972 13.3337C6.94631 12.2353 5.75004 10.2576 5.75004 8.00001ZM12 3.25C9.37602 3.25 7.25004 5.37596 7.25004 8.00001C7.25004 10.624 9.37603 12.7501 12 12.7501C14.6241 12.7501 16.75 10.6241 16.75 8.00001C16.75 5.37596 14.6241 3.25 12 3.25Z" clip-rule="evenodd"/><path fill-rule="evenodd" d="M17.6347 22.425C17.8719 22.5339 18.1288 22.5934 18.3897 22.6C18.6503 22.5933 18.9068 22.5338 19.1437 22.425C19.3568 22.3306 19.5618 22.2189 19.7567 22.091C20.2028 21.7965 20.6191 21.4593 20.9997 21.084C21.4258 20.6764 21.8039 20.2215 22.1267 19.728C22.5027 19.139 22.7167 18.571 22.7637 18.039C22.8527 17.018 22.5527 16.05 21.9407 15.381C21.6908 15.1034 21.3852 14.8816 21.0439 14.7298C20.7026 14.578 20.3332 14.4997 19.9597 14.5C19.3257 14.5 18.7737 14.784 18.3897 15.056C18.0057 14.784 17.4527 14.5 16.8187 14.5C16.4452 14.4997 16.0758 14.578 15.7345 14.7298C15.3932 14.8816 15.0876 15.1034 14.8377 15.381C14.2257 16.05 13.9257 17.018 14.0157 18.039C14.0617 18.571 14.2757 19.139 14.6517 19.728C14.974 20.2209 15.3511 20.6758 15.7757 21.084C16.1575 21.4592 16.5748 21.7964 17.0217 22.091C17.2166 22.2189 17.4216 22.3306 17.6347 22.425ZM16.338 16.1055C16.4889 16.0365 16.6528 16.0005 16.8187 16C17.2317 16 17.7047 16.407 17.8347 16.55L18.0921 16.8303C18.2503 17.0025 18.5217 17.003 18.6804 16.8314L18.9407 16.55C19.0737 16.407 19.5467 16 19.9597 16C20.1252 15.9999 20.2889 16.0351 20.4398 16.1032C20.5907 16.1713 20.7253 16.2708 20.8347 16.395C21.1687 16.754 21.3217 17.308 21.2687 17.908C21.2437 18.193 21.1037 18.543 20.8627 18.921C20.6024 19.3168 20.2982 19.6818 19.9557 20.009C19.6457 20.3147 19.3067 20.5896 18.9437 20.83C18.8184 20.913 18.6866 20.9859 18.5497 21.048C18.4994 21.0709 18.4468 21.0884 18.3927 21.1C18.3359 21.0902 18.2807 21.0727 18.2287 21.048C18.0918 20.9859 17.96 20.913 17.8347 20.83C17.4721 20.591 17.1332 20.3177 16.8227 20.014C16.4802 19.6868 16.176 19.3218 15.9157 18.926C15.6747 18.548 15.5347 18.198 15.5097 17.913C15.4567 17.31 15.6147 16.759 15.9437 16.4C16.0527 16.2749 16.1871 16.1744 16.338 16.1055Z" clip-rule="evenodd"/></svg>