<svg xmlns="http://www.w3.org/2000/svg" width="16" height="16" viewBox="0 0 16 16"><path fill-rule="evenodd" d="M5.51025 7.3602C5.51025 6.02919 6.58925 4.9502 7.92025 4.9502H12.4003C13.7313 4.9502 14.8103 6.02919 14.8103 7.3602V12.6402C14.8103 13.9712 13.7313 15.0502 12.4003 15.0502H7.92025C6.58925 15.0502 5.51025 13.9712 5.51025 12.6402V7.3602ZM7.92025 6.2502C7.30722 6.2502 6.81025 6.74716 6.81025 7.3602V12.6402C6.81025 13.2532 7.30722 13.7502 7.92025 13.7502H12.4003C13.0133 13.7502 13.5103 13.2532 13.5103 12.6402V7.3602C13.5103 6.74716 13.0133 6.2502 12.4003 6.2502H7.92025Z" clip-rule="evenodd"/><path fill-rule="evenodd" d="M1.50928 3.36019C1.50928 2.02919 2.58827 0.950195 3.91928 0.950195H9.19928C10.5303 0.950195 11.6093 2.02919 11.6093 3.3602V3.6002C11.6093 3.95918 11.3183 4.2502 10.9593 4.2502C10.6003 4.2502 10.3093 3.95918 10.3093 3.6002V3.3602C10.3093 2.74716 9.81231 2.2502 9.19928 2.2502H3.91928C3.30624 2.2502 2.80928 2.74716 2.80928 3.36019V9.4402C2.80928 10.0532 3.30624 10.5502 3.91928 10.5502H4.15928C4.51826 10.5502 4.80928 10.8412 4.80928 11.2002C4.80928 11.5592 4.51826 11.8502 4.15928 11.8502H3.91928C2.58827 11.8502 1.50928 10.7712 1.50928 9.4402V3.36019Z" clip-rule="evenodd"/></svg>