<svg xmlns="http://www.w3.org/2000/svg" width="16" height="16" viewBox="0 0 16 16"><path fill-rule="evenodd" d="M2.1501 8.0001C2.1501 7.47785 2.56094 6.38439 3.55702 5.3999C4.52205 4.44609 5.98695 3.6501 8.0001 3.6501C10.0133 3.6501 11.4781 4.44609 12.4432 5.3999C13.4393 6.38439 13.8501 7.47785 13.8501 8.0001C13.8501 8.52235 13.4393 9.6158 12.4432 10.6003C11.4781 11.5541 10.0133 12.3501 8.0001 12.3501C5.98695 12.3501 4.52205 11.5541 3.55702 10.6003C2.56094 9.6158 2.1501 8.52235 2.1501 8.0001ZM8.0001 2.3501C5.61325 2.3501 3.82815 3.3041 2.64317 4.4753C1.48925 5.6158 0.850098 7.02235 0.850098 8.0001C0.850098 8.97785 1.48925 10.3844 2.64317 11.5249C3.82815 12.6961 5.61325 13.6501 8.0001 13.6501C10.3869 13.6501 12.172 12.6961 13.357 11.5249C14.5109 10.3844 15.1501 8.97785 15.1501 8.0001C15.1501 7.02235 14.5109 5.6158 13.357 4.4753C12.172 3.3041 10.3869 2.3501 8.0001 2.3501ZM7.63913 6.64719C7.79741 6.60498 7.96023 6.59126 8.12044 6.6051C8.45058 6.63364 8.74134 6.38914 8.76988 6.059C8.79841 5.72886 8.55391 5.4381 8.22377 5.40956C7.92626 5.38385 7.6238 5.40933 7.32989 5.48772C6.67403 5.66264 6.11258 6.08712 5.7655 6.67047C5.41842 7.25381 5.31323 7.94975 5.47241 8.60962C5.63159 9.26947 6.04251 9.84092 6.61738 10.2019C7.19225 10.5628 7.88548 10.6846 8.54896 10.5413C9.21244 10.3979 9.79355 10.0008 10.1681 9.43474C10.5427 8.86867 10.6811 8.17855 10.5537 7.51183C10.4915 7.18635 10.1772 6.97293 9.85172 7.03513C9.52624 7.09734 9.31282 7.41162 9.37502 7.7371C9.44363 8.0961 9.36913 8.4677 9.16742 8.77251C8.96572 9.07731 8.65281 9.29115 8.29555 9.36834C7.93829 9.44552 7.56501 9.37993 7.25547 9.18557C6.94592 8.99122 6.72466 8.68352 6.63895 8.32821C6.55324 7.9729 6.60988 7.59816 6.79677 7.28405C6.98366 6.96995 7.28597 6.74138 7.63913 6.64719Z" clip-rule="evenodd"/></svg>