<svg xmlns="http://www.w3.org/2000/svg" width="24" height="24" viewBox="0 0 24 24"><path d="M5.00008 2.25C4.58587 2.25 4.25008 2.58579 4.25008 3C4.25008 3.41421 4.58587 3.75 5.00008 3.75H19.0001C19.4143 3.75 19.7501 3.41421 19.7501 3C19.7501 2.58579 19.4143 2.25 19.0001 2.25H5.00008Z"/><path d="M12.7501 11.25V7.63067L18.512 12.5695C18.8265 12.839 19.3 12.8026 19.5695 12.4881C19.8391 12.1736 19.8027 11.7001 19.4882 11.4306L12.4985 5.43942C12.4202 5.36962 12.3302 5.3188 12.2348 5.28745C12.2044 5.27746 12.1732 5.26936 12.1413 5.26327C11.9248 5.22189 11.6922 5.27586 11.5119 5.43043L8.68168 7.85633C8.36719 8.12589 8.33077 8.59937 8.60033 8.91386C8.8699 9.22836 9.34337 9.26478 9.65787 8.99521L11.2501 7.63045V11.25C11.2501 11.6642 11.5859 12 12.0001 12C12.4143 12 12.7501 11.6642 12.7501 11.25Z"/><path d="M6.32016 9.88063L4.96976 8.53022C4.67686 8.23732 4.67686 7.76245 4.96976 7.46956C5.26265 7.17666 5.73752 7.17666 6.03042 7.46956L18.5304 19.9696C18.8233 20.2624 18.8233 20.7373 18.5304 21.0302C18.2375 21.3231 17.7626 21.3231 17.4698 21.0302L12.7501 16.3105V21C12.7501 21.4142 12.4143 21.75 12.0001 21.75C11.5859 21.75 11.2501 21.4142 11.2501 21V14.8105L7.38396 10.9444L5.48811 12.5694C5.17361 12.839 4.70014 12.8026 4.43057 12.4881C4.161 12.1736 4.19743 11.7001 4.51192 11.4305L6.32016 9.88063Z"/></svg>