<svg xmlns="http://www.w3.org/2000/svg" width="24" height="24" viewBox="0 0 24 24"><g><g><path fill-rule="evenodd" d="M6.25 13C6.25 12.5858 6.58579 12.25 7 12.25H17C17.4142 12.25 17.75 12.5858 17.75 13C17.75 13.4142 17.4142 13.75 17 13.75H7C6.58579 13.75 6.25 13.4142 6.25 13Z" clip-rule="evenodd"/><path fill-rule="evenodd" d="M6.25 16.5C6.25 16.0858 6.58579 15.75 7 15.75H12C12.4142 15.75 12.75 16.0858 12.75 16.5C12.75 16.9142 12.4142 17.25 12 17.25H7C6.58579 17.25 6.25 16.9142 6.25 16.5Z" clip-rule="evenodd"/><path fill-rule="evenodd" d="M5.1 3.25C3.80213 3.25 2.75 4.30213 2.75 5.6V19.4C2.75 20.6979 3.80213 21.75 5.1 21.75H18.9C20.1979 21.75 21.25 20.6979 21.25 19.4V5.6C21.25 4.30213 20.1979 3.25 18.9 3.25H16.75V3C16.75 2.58579 16.4142 2.25 16 2.25C15.5858 2.25 15.25 2.58579 15.25 3V3.25H8.75V3C8.75 2.58579 8.41421 2.25 8 2.25C7.58579 2.25 7.25 2.58579 7.25 3V3.25H5.1ZM5.1 4.75C4.63056 4.75 4.25 5.13056 4.25 5.6V8.75H19.75V5.6C19.75 5.13056 19.3694 4.75 18.9 4.75H16.75V5.5C16.75 5.91421 16.4142 6.25 16 6.25C15.5858 6.25 15.25 5.91421 15.25 5.5V4.75H8.75V5.5C8.75 5.91421 8.41421 6.25 8 6.25C7.58579 6.25 7.25 5.91421 7.25 5.5V4.75H5.1ZM4.25 19.4C4.25 19.8694 4.63056 20.25 5.1 20.25H18.9C19.3694 20.25 19.75 19.8694 19.75 19.4V10.25H4.25V19.4Z" clip-rule="evenodd"/></g></g></svg>