<svg xmlns="http://www.w3.org/2000/svg" width="24" height="24" viewBox="0 0 24 24"><path fill-rule="evenodd" d="M6.3111 4.88818C7.81995 3.37934 9.86638 2.53168 12.0002 2.53168C14.134 2.53168 16.1805 3.37934 17.6893 4.88818C19.1982 6.39703 20.0458 8.44346 20.0458 10.5773C20.0458 12.2602 19.4307 13.9786 18.5984 15.5457C17.7616 17.1211 16.6742 18.6012 15.6594 19.8221C13.7261 22.1482 10.2743 22.1482 8.34105 19.8221C7.32626 18.6012 6.23887 17.1211 5.40207 15.5457C4.5697 13.9786 3.95459 12.2602 3.95459 10.5773C3.95459 8.44346 4.80225 6.39703 6.3111 4.88818ZM12 13.5C13.6569 13.5 15 12.1569 15 10.5C15 8.84315 13.6569 7.5 12 7.5C10.3431 7.5 9 8.84315 9 10.5C9 12.1569 10.3431 13.5 12 13.5Z" clip-rule="evenodd"/></svg>