<svg xmlns="http://www.w3.org/2000/svg" width="24" height="24" viewBox="0 0 24 24"><path d="M19.4699 1.91434C20.0385 1.57514 20.7494 2.03417 20.6742 2.69191L18.8015 19.0784C18.7353 19.6572 18.1449 20.0215 17.5979 19.8209L12.9826 18.1287C12.6742 18.0156 12.3286 18.1322 12.1519 18.4091L10.2245 21.4288C9.79431 22.1027 8.75067 21.798 8.75067 20.9985V17.134C8.75067 16.9504 8.81389 16.7723 8.92971 16.6297L14.7376 9.48163C14.9298 9.24501 14.9121 8.90134 14.6965 8.68576C14.4585 8.44773 14.0705 8.45442 13.8409 8.70051L7.91018 15.0548C7.58848 15.3995 7.08286 15.5007 6.65327 15.3065L2.57035 13.4603C1.98167 13.1941 1.93528 12.3758 2.4901 12.0448L19.4699 1.91434Z"/></svg>