<svg xmlns="http://www.w3.org/2000/svg" width="16" height="16" viewBox="0 0 16 16"><path fill-rule="evenodd" d="M8.0001 3.6501C7.51608 3.6501 7.06548 3.69605 6.64731 3.77824C6.29506 3.84748 5.95338 3.61805 5.88415 3.26581C5.81491 2.91356 6.04434 2.57189 6.39658 2.50265C6.89871 2.40396 7.43332 2.3501 8.0001 2.3501C10.3869 2.3501 12.172 3.3041 13.357 4.4753C14.5109 5.6158 15.1501 7.02235 15.1501 8.0001C15.1501 8.62099 14.8933 9.39149 14.4511 10.1338C14.1116 10.7039 13.6448 11.2882 13.0479 11.8131L13.5425 12.2737C13.8053 12.5183 13.82 12.9296 13.5753 13.1923C13.3307 13.4551 12.9194 13.4697 12.6567 13.2251L11.6591 12.2963C11.6215 12.2683 11.5864 12.2359 11.5548 12.1991L9.73049 10.5006C9.67155 10.6261 9.57215 10.7339 9.43925 10.8021C9.08514 10.984 8.69706 11.0985 8.29473 11.1363C7.56004 11.2053 6.82443 11.0142 6.21623 10.5963C5.60803 10.1784 5.16585 9.56026 4.96683 8.84967C4.76781 8.13909 4.82457 7.38118 5.12722 6.70817C5.17961 6.59167 5.26208 6.49813 5.36134 6.4326L3.90814 5.07956C3.34463 5.55389 2.91793 6.09168 2.62495 6.60172C2.28248 7.19795 2.1501 7.70699 2.1501 8.0001C2.1501 8.52235 2.56094 9.6158 3.55702 10.6003C4.52205 11.5541 5.98695 12.3501 8.0001 12.3501C8.46811 12.3501 8.90486 12.3071 9.31124 12.23C9.66393 12.1631 10.0041 12.3947 10.0711 12.7474C10.138 13.1001 9.90636 13.4402 9.55367 13.5072C9.06606 13.5997 8.54811 13.6501 8.0001 13.6501C5.61325 13.6501 3.82815 12.6961 2.64317 11.5249C1.48925 10.3844 0.850098 8.97785 0.850098 8.0001C0.850098 7.402 1.08836 6.66683 1.49768 5.95422C1.84101 5.3565 2.32433 4.73953 2.95091 4.18831L2.40385 3.67895C2.14111 3.43432 2.12643 3.02303 2.37106 2.76029C2.61568 2.49756 3.02698 2.48288 3.28971 2.7275L12.0906 10.9218C12.6287 10.4692 13.0424 9.95846 13.3342 9.46855C13.7059 8.84458 13.8501 8.30619 13.8501 8.0001C13.8501 7.47785 13.4393 6.38439 12.4432 5.3999C11.4781 4.44609 10.0133 3.6501 8.0001 3.6501ZM6.28914 7.29645C6.13235 7.67769 6.10717 8.10101 6.21866 8.49905C6.33554 8.91638 6.59523 9.27943 6.95243 9.52486C7.30963 9.77029 7.74165 9.88253 8.17314 9.84199C8.40135 9.82055 8.62174 9.7571 8.82393 9.65654L6.28914 7.29645ZM8.00021 4.8501C7.64122 4.85009 7.3502 5.1411 7.3502 5.50008C7.35019 5.85907 7.6412 6.15009 8.00018 6.1501C8.14928 6.1501 8.29883 6.16813 8.44557 6.20454C8.86621 6.30889 9.23686 6.55762 9.49286 6.90732C9.69447 7.18272 9.8149 7.507 9.84348 7.84363C9.87384 8.20133 10.1884 8.46669 10.5461 8.43633C10.9038 8.40597 11.1692 8.09138 11.1388 7.73368C11.0902 7.16052 10.8851 6.60837 10.5418 6.13941C10.1059 5.54398 9.47483 5.12048 8.75861 4.94279C8.50879 4.88081 8.25411 4.8501 8.00021 4.8501Z" clip-rule="evenodd"/></svg>