<svg xmlns="http://www.w3.org/2000/svg" width="24" height="24" viewBox="0 0 24 24"><path fill-rule="evenodd" d="M5.63797 18.363C4.56459 17.2896 4.56459 15.5493 5.63797 14.4759L8.11285 12.001C8.60156 11.5123 8.60156 10.72 8.11285 10.2312C7.62413 9.74253 6.83177 9.74253 6.34306 10.2312L3.86819 12.7061C1.81738 14.7569 1.81738 18.0819 3.86819 20.1328C5.919 22.1836 9.24402 22.1836 11.2948 20.1328L13.7697 17.6579C14.2584 17.1692 14.2584 16.3768 13.7697 15.8881C13.281 15.3994 12.4886 15.3994 11.9999 15.8881L9.52504 18.363C8.45166 19.4364 6.71136 19.4364 5.63797 18.363ZM10.5857 5.9886C10.097 6.47731 10.097 7.26967 10.5857 7.75839C11.0744 8.2471 11.8668 8.2471 12.3555 7.75839L14.4768 5.63706C15.5502 4.56368 17.2905 4.56368 18.3639 5.63707C19.4373 6.71045 19.4373 8.45075 18.3639 9.52413L16.2426 11.6455C15.7538 12.1342 15.7538 12.9265 16.2426 13.4152C16.7313 13.904 17.5236 13.904 18.0123 13.4152L20.1337 11.2939C22.1845 9.24311 22.1845 5.91809 20.1337 3.86728C18.0829 1.81647 14.7578 1.81647 12.707 3.86728L10.5857 5.9886ZM8.03732 13.9435C7.5486 14.4322 7.5486 15.2246 8.03732 15.7133C8.52603 16.202 9.31839 16.202 9.80711 15.7133L15.464 10.0564C15.9527 9.5677 15.9527 8.77533 15.464 8.28662C14.9752 7.79791 14.1829 7.79791 13.6942 8.28662L8.03732 13.9435Z" clip-rule="evenodd"/></svg>