<svg xmlns="http://www.w3.org/2000/svg" width="24" height="24" viewBox="0 0 24 24"><path fill-rule="evenodd" d="M5.75 4C5.75 3.58579 6.08579 3.25 6.5 3.25H17.5C17.9142 3.25 18.25 3.58579 18.25 4C18.25 4.41421 17.9142 4.75 17.5 4.75H6.5C6.08579 4.75 5.75 4.41421 5.75 4ZM5.25 8.1C5.25 7.63056 5.63056 7.25 6.1 7.25H17.9C18.3694 7.25 18.75 7.63056 18.75 8.1V17.9C18.75 18.3694 18.3694 18.75 17.9 18.75H6.1C5.63056 18.75 5.25 18.3694 5.25 17.9V8.1ZM6.1 5.75C4.80213 5.75 3.75 6.80213 3.75 8.1V17.9C3.75 19.1979 4.80213 20.25 6.1 20.25H17.9C19.1979 20.25 20.25 19.1979 20.25 17.9V8.1C20.25 6.80213 19.1979 5.75 17.9 5.75H6.1ZM9.48253 14.4573C9.18971 14.7501 9.18443 15.2303 9.47074 15.5298C9.75706 15.8292 10.2265 15.8346 10.5194 15.5418L12.0006 14.0606L13.4822 15.5422C13.775 15.8351 14.2445 15.8297 14.5308 15.5302C14.8171 15.2307 14.8119 14.7506 14.5191 14.4578L13.0612 12.9999L14.5194 11.5418C14.8122 11.249 14.8174 10.7688 14.5311 10.4694C14.2448 10.1699 13.7753 10.1645 13.4825 10.4573L12.0006 11.9393L10.5191 10.4578C10.2262 10.1649 9.75675 10.1703 9.47044 10.4698C9.18413 10.7693 9.18941 11.2494 9.48222 11.5422L10.9399 12.9999L9.48253 14.4573Z" clip-rule="evenodd"/></svg>