<svg xmlns="http://www.w3.org/2000/svg" width="24" height="24" viewBox="0 0 24 24"><path fill-rule="evenodd" d="M17.4697 20.5303L16.6893 19.75H16H4.5C2.98121 19.75 1.75 18.5188 1.75 17V7C1.75 6.38349 1.95326 5.81431 2.2954 5.35606L1.46967 4.53033C1.17678 4.23744 1.17678 3.76256 1.46967 3.46967C1.76256 3.17678 2.23744 3.17678 2.53033 3.46967L18.5303 19.4697C18.8232 19.7626 18.8232 20.2374 18.5303 20.5303C18.2374 20.8232 17.7626 20.8232 17.4697 20.5303ZM3.38109 6.44175L15.1893 18.25H4.5C3.80964 18.25 3.25 17.6904 3.25 17V7C3.25 6.7994 3.29705 6.60987 3.38109 6.44175Z" clip-rule="evenodd"/><path fill-rule="evenodd" d="M6.75 5C6.75 4.58579 7.08578 4.25 7.5 4.25H10.25H16C17.5188 4.25 18.75 5.48122 18.75 7V8.59718L19.6793 7.78402C20.6815 6.90709 22.25 7.61882 22.25 8.95052V14.775C22.25 16.0523 20.7918 16.7814 19.77 16.015L18.75 15.25V16C18.75 16.4142 18.4142 16.75 18 16.75C17.5858 16.75 17.25 16.4142 17.25 16V14.15C17.25 13.3672 18.1437 12.9203 18.77 13.39L20.67 14.815C20.6784 14.8213 20.684 14.8237 20.6866 14.8247C20.6894 14.8257 20.6918 14.8262 20.6944 14.8264C20.7002 14.8268 20.7104 14.8257 20.7224 14.8197C20.7343 14.8138 20.7413 14.8062 20.7444 14.8014C20.7459 14.7992 20.7469 14.7969 20.7478 14.7941C20.7486 14.7914 20.75 14.7855 20.75 14.775V8.95052C20.75 8.93885 20.7484 8.93258 20.7476 8.93007C20.7468 8.92737 20.7458 8.92534 20.7444 8.92333C20.7413 8.91875 20.7338 8.91095 20.7207 8.90498C20.7075 8.89901 20.6967 8.89852 20.6912 8.8992C20.6888 8.8995 20.6866 8.90008 20.684 8.90123C20.6816 8.9023 20.6759 8.90521 20.6671 8.91289L18.8256 10.5242C18.2113 11.0617 17.25 10.6255 17.25 9.80925V7C17.25 6.30965 16.6904 5.75 16 5.75H10.25H7.5C7.08578 5.75 6.75 5.41422 6.75 5Z" clip-rule="evenodd"/></svg>