<svg xmlns="http://www.w3.org/2000/svg" width="24" height="24" viewBox="0 0 24 24"><path fill-rule="evenodd" d="M7.04396 3.39597C8.88482 3.01345 10.9829 3.18126 12.8424 4.42149C15.5788 6.24652 18.6394 5.65383 20.4604 4.42405C20.6903 4.2688 20.9871 4.25312 21.232 4.38329C21.477 4.51345 21.6301 4.7682 21.6301 5.0456V14.6967C21.6301 15.1995 21.3325 15.6403 21.0493 15.9523C20.7397 16.2934 20.3196 16.6207 19.8363 16.9046C18.8741 17.4697 17.5685 17.9167 16.167 17.9201C14.5374 17.988 13.3808 17.5215 12.376 17.1162C12.3132 17.0909 12.2511 17.0658 12.1895 17.0411C11.1555 16.627 10.2339 16.3011 8.8489 16.498C8.43881 16.5563 8.05911 16.2711 8.00081 15.861C7.94251 15.451 8.2277 15.0713 8.63779 15.013C10.4234 14.7591 11.6486 15.2087 12.7472 15.6487C12.7994 15.6696 12.8513 15.6905 12.9029 15.7112C13.9174 16.119 14.8107 16.4781 16.1178 16.4209C16.1287 16.4204 16.1396 16.4202 16.1506 16.4202C17.2525 16.4202 18.3052 16.0643 19.0766 15.6112C19.462 15.3848 19.7537 15.1478 19.9387 14.944C20.0996 14.7669 20.1265 14.6755 20.1301 14.6728V6.31698C17.903 7.32303 14.821 7.54412 12.0102 5.6694C10.5559 4.6995 8.88889 4.54464 7.34913 4.8646C5.98261 5.14855 4.76924 5.7969 3.97088 6.50867L8.27746 20.6172C8.39839 21.0134 8.17526 21.4326 7.77909 21.5535C7.38293 21.6744 6.96374 21.4513 6.84281 21.0551L2.40281 6.50949C2.32432 6.25237 2.38945 5.97292 2.57352 5.77699C3.57667 4.70922 5.21708 3.77558 7.04396 3.39597Z" clip-rule="evenodd"/></svg>