<svg xmlns="http://www.w3.org/2000/svg" width="24" height="24" viewBox="0 0 24 24"><path d="M10.7864 8.4103C9.76889 7.298 8.44613 6.38793 6.81812 5.88234C6.51287 4.16333 7.63213 2.54543 9.26014 2.14096C10.4811 1.73649 11.9057 2.24208 12.7197 3.15214C13.7648 4.53106 13.6354 6.7924 13.5337 7.50023C13.4319 8.81477 12.3127 10.5338 12.2109 10.6349C11.9057 9.82596 11.3969 9.11813 10.7864 8.4103ZM8.34438 11.2416C6.81812 11.4438 5.29186 12.2528 4.1726 13.3651C3.05335 12.9606 2.23934 12.0506 2.03584 10.9383C1.71979 8.51142 3.5621 7.298 4.88486 7.09576C6.51287 6.7245 7.73388 7.60135 8.95489 8.51142C10.1011 9.5226 10.9899 11.1405 10.9899 11.2416C10.0741 11.0394 9.15839 11.1405 8.34438 11.2416ZM13.3302 11.545C13.8389 10.9383 14.2612 9.9595 14.4494 9.32036C14.768 8.28109 15.0599 6.18569 14.6529 4.66892C15.9757 3.65774 17.8072 3.65774 19.13 4.97227C20.3654 6.11839 20.1475 7.90471 19.944 8.4103C19.2809 9.99134 18.0107 10.736 16.6879 11.2416C15.4669 11.6461 13.4319 11.545 13.3302 11.545ZM10.6846 12.5562C10.1759 13.1629 9.76889 13.9718 9.46364 14.8819C9.05664 16.1964 8.82108 17.9411 9.36189 19.4322C8.03913 20.4434 6.10587 20.4434 4.88486 19.23C3.68683 18.1058 3.86735 16.2975 4.07085 15.7919C4.66991 14.1869 6.00412 13.4662 7.32688 12.9606C8.24263 12.6573 10.5829 12.5562 10.6846 12.5562ZM19.944 10.736C20.9615 11.1405 21.8772 12.0506 21.979 13.1629C22.2124 15.7332 20.4527 16.8031 19.13 17.0054C17.6037 17.0054 16.2809 16.4998 15.0599 15.5897C14.0424 14.7808 13.0249 13.0617 13.0249 12.9606C13.9407 13.1629 14.8564 13.0617 15.6704 12.9606C17.2984 12.5562 18.723 11.8483 19.944 10.736ZM13.2284 15.5897C14.2931 16.6703 15.6704 17.6121 17.2984 18.1177C17.6037 19.8367 16.4844 21.3534 14.8564 21.859C13.6354 22.2635 12.2109 21.7579 11.3969 20.8479C10.2954 19.3666 10.3794 17.3087 10.4811 16.6009C10.5829 15.2863 11.7022 13.5673 11.8039 13.4662C12.1092 14.174 12.5255 14.9061 13.2284 15.5897Z"/></svg>