<svg xmlns="http://www.w3.org/2000/svg" width="24" height="24" viewBox="0 0 24 24"><path fill-rule="evenodd" d="M12 5.75C8.54822 5.75 5.75 8.54822 5.75 12C5.75 15.4518 8.54822 18.25 12 18.25C15.4518 18.25 18.25 15.4518 18.25 12C18.25 8.54822 15.4518 5.75 12 5.75ZM4.25 12C4.25 7.71979 7.71979 4.25 12 4.25C16.2802 4.25 19.75 7.71979 19.75 12C19.75 16.2802 16.2802 19.75 12 19.75C7.71979 19.75 4.25 16.2802 4.25 12ZM0 12C0 11.5858 0.335786 11.25 0.75 11.25H2.25C2.66421 11.25 3 11.5858 3 12C3 12.4142 2.66421 12.75 2.25 12.75H0.75C0.335786 12.75 0 12.4142 0 12ZM21.75 11.25C21.3358 11.25 21 11.5858 21 12C21 12.4142 21.3358 12.75 21.75 12.75H23.25C23.6642 12.75 24 12.4142 24 12C24 11.5858 23.6642 11.25 23.25 11.25H21.75Z" clip-rule="evenodd"/></svg>
