<svg xmlns="http://www.w3.org/2000/svg" width="24" height="24" viewBox="0 0 24 24"><path fill-rule="evenodd" d="M11.9502 15.8C14.0213 15.8 15.7002 14.1211 15.7002 12.05C15.7002 9.97898 14.0213 8.30005 11.9502 8.30005C9.87913 8.30005 8.2002 9.97898 8.2002 12.05C8.2002 14.1211 9.87913 15.8 11.9502 15.8ZM14.2002 12.05C14.2002 13.2927 13.1928 14.3 11.9502 14.3C10.7076 14.3 9.7002 13.2927 9.7002 12.05C9.7002 10.8074 10.7076 9.80005 11.9502 9.80005C13.1928 9.80005 14.2002 10.8074 14.2002 12.05Z" clip-rule="evenodd"/><path fill-rule="evenodd" d="M23 12C23 14.8038 18 21 12 21C6 21 1 14.8038 1 12C1 9.19621 5 3 12 3C19 3 23 9.19621 23 12ZM21.5 12C21.5 12.3192 21.3325 12.961 20.8257 13.8396C20.3409 14.6801 19.6209 15.6053 18.717 16.4638C16.8871 18.2017 14.4881 19.5 12 19.5C9.51189 19.5 7.11285 18.2017 5.28299 16.4638C4.37907 15.6053 3.65914 14.6801 3.17434 13.8396C2.66753 12.961 2.5 12.3192 2.5 12C2.5 11.6117 2.65297 10.9334 3.07778 10.0782C3.49067 9.24692 4.11593 8.33974 4.94253 7.50233C6.59091 5.83238 8.97353 4.5 12 4.5C15.0265 4.5 17.4091 5.83238 19.0575 7.50233C19.8841 8.33974 20.5093 9.24692 20.9222 10.0782C21.347 10.9334 21.5 11.6117 21.5 12Z" clip-rule="evenodd"/></svg>