<svg xmlns="http://www.w3.org/2000/svg" width="16" height="16" viewBox="0 0 16 16"><path fill-rule="evenodd" d="M2.33398 3.33331C2.33398 2.78103 2.7817 2.33331 3.33398 2.33331H12.6673C13.2196 2.33331 13.6673 2.78103 13.6673 3.33331C13.6673 3.8856 13.2196 4.33331 12.6673 4.33331H3.33398C2.7817 4.33331 2.33398 3.8856 2.33398 3.33331ZM2.33398 8C2.33398 7.44772 2.7817 7 3.33398 7H6.66732C7.2196 7 7.66732 7.44772 7.66732 8C7.66732 8.55228 7.2196 9 6.66732 9H3.33398C2.7817 9 2.33398 8.55228 2.33398 8ZM3.33398 11.6667C2.7817 11.6667 2.33398 12.1144 2.33398 12.6667C2.33398 13.2189 2.7817 13.6667 3.33398 13.6667H6.66732C7.2196 13.6667 7.66732 13.2189 7.66732 12.6667C7.66732 12.1144 7.2196 11.6667 6.66732 11.6667H3.33398ZM11.334 14.3333C10.7817 14.3333 10.334 13.8856 10.334 13.3333V11.6668L8.66586 11.6666C8.11357 11.6666 7.66589 11.2188 7.66594 10.6666C7.66598 10.1143 8.11373 9.6666 8.66602 9.66664L10.334 9.66678V7.99998C10.334 7.44769 10.7817 6.99998 11.334 6.99998C11.8863 6.99998 12.334 7.44769 12.334 7.99998V9.66694L13.9993 9.66707C14.5516 9.66711 14.9993 10.1149 14.9993 10.6671C14.9992 11.2194 14.5515 11.6671 13.9992 11.6671L12.334 11.6669V13.3333C12.334 13.8856 11.8863 14.3333 11.334 14.3333Z" clip-rule="evenodd"/></svg>