<svg xmlns="http://www.w3.org/2000/svg" width="24" height="24" viewBox="0 0 24 24"><path fill-rule="evenodd" d="M11.6683 2.50733C12.6798 2.45679 13.6877 2.66834 14.5925 3.12144C15.4973 3.57458 16.2679 4.25388 16.8272 5.0929C17.3865 5.932 17.7147 6.90142 17.7785 7.90504C17.8047 8.31852 17.4908 8.67467 17.0774 8.70054C16.664 8.72641 16.3076 8.41219 16.2813 7.99871C16.2344 7.25969 15.9926 6.54452 15.5792 5.92423C15.1657 5.30387 14.5946 4.79972 13.9217 4.46276C13.2489 4.12577 12.4983 3.96805 11.7446 4.00571C10.9909 4.04337 10.2614 4.27504 9.62831 4.67691C8.99532 5.07874 8.48111 5.63653 8.13574 6.29414C7.7904 6.95168 7.62556 7.6867 7.65702 8.42647C7.68849 9.16624 7.91524 9.88609 8.31562 10.5146C8.71604 11.1431 9.27643 11.6587 9.94201 12.0093C10.3087 12.2024 10.4497 12.6561 10.2569 13.0226C10.0641 13.3891 9.61061 13.5297 9.24394 13.3366C8.34871 12.865 7.59232 12.1701 7.05063 11.3198C6.50889 10.4695 6.20096 9.49351 6.15822 8.48883C6.11549 7.48412 6.33949 6.48665 6.80749 5.59556C7.27545 4.70453 7.97077 3.9514 8.8235 3.41007C9.67617 2.86879 10.6569 2.55786 11.6683 2.50733ZM21.3903 18.2678C20.9369 19.1665 20.2536 19.9324 19.4083 20.4894C18.563 21.0465 17.5854 21.3752 16.5728 21.4436C15.5602 21.5119 14.5475 21.3175 13.6351 20.8801C13.2611 20.7008 13.1063 20.2545 13.2893 19.8833C13.4722 19.5121 13.9236 19.3565 14.2976 19.5358C14.9753 19.8607 15.727 20.0049 16.4778 19.9542C17.2286 19.9035 17.9524 19.6598 18.5775 19.2479C19.2025 18.836 19.7074 18.27 20.0423 17.6061C20.3773 16.9422 20.5307 16.203 20.4872 15.4618C20.4437 14.7205 20.2047 14.0027 19.7933 13.3799C19.3819 12.757 18.8125 12.251 18.1417 11.9123C17.471 11.5736 16.7224 11.4142 15.9706 11.4496C15.2189 11.485 14.4901 11.7138 13.8566 12.1129C13.5045 12.3347 13.039 12.2328 12.8168 11.8853C12.5947 11.5378 12.6999 11.0763 13.052 10.8545C13.9087 10.3148 14.8929 10.0061 15.9067 9.95843C16.9205 9.91075 17.9288 10.1257 18.8319 10.5817C19.735 11.0377 20.5017 11.719 21.0561 12.5583C21.6106 13.3976 21.9334 14.366 21.9922 15.3677C22.051 16.3693 21.8436 17.3692 21.3903 18.2678ZM2.04285 16.4426C2.16586 17.4388 2.55053 18.3863 3.15881 19.1908C3.76709 19.9953 4.57757 20.6285 5.50954 21.0278C6.44147 21.4271 7.46235 21.5786 8.4708 21.4677C9.47923 21.3569 10.4405 20.9875 11.2593 20.3965C12.0782 19.8055 12.7266 19.0131 13.1399 18.0976C13.5533 17.1821 13.7173 16.1751 13.6152 15.1766C13.5732 14.7663 13.2034 14.4658 12.7891 14.5053C12.3749 14.5448 12.0732 14.9095 12.1151 15.3198C12.1907 16.0583 12.0695 16.804 11.763 17.4828C11.4565 18.1617 10.9754 18.7499 10.3672 19.1888C9.75906 19.6278 9.04535 19.9019 8.29708 19.9842C7.54884 20.0664 6.79233 19.9539 6.10257 19.6584C5.41284 19.3629 4.81367 18.8946 4.36421 18.3001C3.91476 17.7057 3.63038 17.0055 3.53941 16.2687C3.44844 15.5319 3.55404 14.7839 3.84627 14.099C4.13851 13.4141 4.60719 12.8162 5.20602 12.365C5.53653 12.1159 5.5992 11.6478 5.34601 11.3194C5.09282 10.9909 4.61963 10.9265 4.28913 11.1756C3.48278 11.7832 2.85109 12.5887 2.45694 13.5124C2.06278 14.4362 1.91985 15.4463 2.04285 16.4426Z" clip-rule="evenodd"/></svg>