<svg xmlns="http://www.w3.org/2000/svg" width="24" height="24" viewBox="0 0 24 24"><path fill-rule="evenodd" d="M2 7.5C2 6.25736 3.00736 5.25 4.25 5.25H14.25C15.4926 5.25 16.5 6.25736 16.5 7.5V16.5C16.5 17.7426 15.4926 18.75 14.25 18.75H4.25C3.00736 18.75 2 17.7426 2 16.5V7.5ZM19.9498 6.6073C20.7639 5.92883 22 6.50778 22 7.56757V16.4325C22 17.4923 20.7639 18.0713 19.9498 17.3928L17.7699 15.5762C17.592 15.428 17.5001 15.2148 17.5 15C17.5 14.9999 17.5 14.9999 17.5 14.9998C17.5 14.9997 17.5 14.9996 17.5 14.9995V9.00064C17.5 9.00052 17.5 9.00039 17.5 9.00027C17.5 9.00018 17.5 9.00009 17.5 9C17.5001 8.78525 17.592 8.57211 17.7699 8.42389L19.9498 6.6073Z" clip-rule="evenodd"/></svg>