<svg xmlns="http://www.w3.org/2000/svg" width="24" height="24" viewBox="0 0 24 24"><g><path fill-rule="evenodd" d="M6.2409 1.92432C5.80809 1.92427 5.41126 1.92422 5.08844 1.96762C4.73296 2.01542 4.35724 2.12786 4.04821 2.43689C3.73919 2.74591 3.62674 3.12164 3.57895 3.47712C3.53555 3.79993 3.5356 4.19676 3.53565 4.62958V17.8619C3.5356 18.2947 3.53555 18.6916 3.57895 19.0144C3.62674 19.3699 3.73919 19.7456 4.04821 20.0546C4.35724 20.3636 4.73296 20.4761 5.08844 20.5239C5.41126 20.5673 5.80809 20.5672 6.24091 20.5672L7.6316 20.5672L8.10857 22.6974C8.13963 22.8367 8.17879 23.0124 8.23392 23.1557C8.29822 23.3228 8.44807 23.6197 8.80747 23.7554C9.16687 23.8911 9.47557 23.7674 9.63427 23.6845C9.77037 23.6134 9.91588 23.5075 10.0313 23.4235L13.9626 20.5672L17.759 20.5672C18.1918 20.5672 18.5886 20.5673 18.9114 20.5239C19.2669 20.4761 19.6426 20.3636 19.9517 20.0546C20.2607 19.7456 20.3731 19.3699 20.4209 19.0144C20.4643 18.6916 20.4643 18.2947 20.4642 17.8619V4.62958C20.4643 4.19676 20.4643 3.79993 20.4209 3.47712C20.3731 3.12163 20.2607 2.74591 19.9517 2.43689C19.6426 2.12786 19.2669 2.01542 18.9114 1.96762C18.5886 1.92422 18.1918 1.92427 17.759 1.92432H6.2409ZM5.11132 3.49618L5.10889 3.49756L5.10751 3.49999C5.1065 3.50193 5.10489 3.50524 5.10281 3.51029C5.09385 3.53207 5.07856 3.58043 5.06558 3.67699C5.03724 3.88771 5.03565 4.18172 5.03565 4.67432V17.8172C5.03565 18.3098 5.03724 18.6038 5.06558 18.8145C5.07856 18.9111 5.09385 18.9594 5.10281 18.9812C5.10489 18.9863 5.1065 18.9896 5.10751 18.9915L5.10887 18.994L5.11132 18.9953C5.11326 18.9963 5.11657 18.9979 5.12162 19C5.1434 19.009 5.19176 19.0243 5.28832 19.0373C5.49904 19.0656 5.79305 19.0672 6.28565 19.0672H8.23224C8.58331 19.0672 8.88741 19.3107 8.96412 19.6533L9.48244 21.9681L13.278 19.2104C13.4062 19.1173 13.5605 19.0672 13.7189 19.0672H17.7142C18.2068 19.0672 18.5008 19.0656 18.7116 19.0373C18.8081 19.0243 18.8565 19.009 18.8783 19C18.8833 18.9979 18.8866 18.9963 18.8886 18.9953L18.891 18.994L18.8924 18.9915C18.8934 18.9896 18.895 18.9863 18.8971 18.9812C18.906 18.9594 18.9213 18.9111 18.9343 18.8145C18.9626 18.6038 18.9642 18.3098 18.9642 17.8172V4.67432C18.9642 4.18172 18.9626 3.88771 18.9343 3.67699C18.9213 3.58043 18.906 3.53207 18.8971 3.51029C18.895 3.50524 18.8934 3.50193 18.8924 3.49999L18.891 3.49756L18.8886 3.49618C18.8866 3.49517 18.8833 3.49356 18.8783 3.49148C18.8565 3.48252 18.8081 3.46723 18.7116 3.45425C18.5008 3.42592 18.2068 3.42432 17.7142 3.42432H6.28565C5.79305 3.42432 5.49904 3.42592 5.28832 3.45425C5.19176 3.46723 5.1434 3.48252 5.12162 3.49148C5.11657 3.49356 5.11326 3.49517 5.11132 3.49618ZM10.9458 10.7826C10.9165 10.8119 10.9165 10.859 10.9165 10.9532L10.9165 13.2427C10.9165 13.3369 10.9165 13.384 10.9458 13.4133C10.9751 13.4426 11.0222 13.4426 11.1165 13.4426H12.2643C12.3586 13.4426 12.4057 13.4426 12.435 13.4133C12.4643 13.384 12.4643 13.3369 12.4643 13.2426V12.4457C12.4643 12.4047 12.4643 12.3841 12.4761 12.3702C12.4879 12.3562 12.5086 12.3527 12.55 12.3455C14.0831 12.0828 15.2501 10.7405 15.2501 9.12406C15.2501 7.31914 13.795 5.85596 12 5.85596C10.2724 5.85596 8.8491 7.25714 8.75504 8.96413C8.75003 9.05503 8.74753 9.10049 8.77711 9.13175C8.8067 9.16301 8.85413 9.16301 8.94899 9.16301H10.1707C10.264 9.16301 10.3106 9.16301 10.3391 9.13732C10.3677 9.11162 10.373 9.06058 10.3837 8.95851C10.469 8.14531 11.168 7.49001 12 7.49001C12.8975 7.49001 13.6251 8.2216 13.6251 9.12406C13.6251 9.98391 12.9646 10.6886 12.1259 10.7533H11.1165C11.0223 10.7533 10.9751 10.7533 10.9458 10.7826ZM10.6364 14.8336C10.6072 14.8629 10.6072 14.91 10.6072 15.0043V16.406C10.6072 16.5002 10.6072 16.5474 10.6364 16.5767C10.6657 16.606 10.7129 16.606 10.8072 16.606H12.7286C12.8229 16.606 12.87 16.606 12.8993 16.5767C12.9286 16.5474 12.9286 16.5002 12.9286 16.406V15.0043C12.9286 14.91 12.9286 14.8629 12.8993 14.8336C12.87 14.8043 12.8229 14.8043 12.7286 14.8043H10.8072C10.7129 14.8043 10.6657 14.8043 10.6364 14.8336Z" clip-rule="evenodd"/></g></svg>