<svg xmlns="http://www.w3.org/2000/svg" width="24" height="24" viewBox="0 0 24 24"><path fill-rule="evenodd" d="M19.5 8.15296V13.5109C18.9949 13.1875 18.3943 13 17.75 13C15.9551 13 14.5 14.4551 14.5 16.25C14.5 18.0449 15.9551 19.5 17.75 19.5C19.5449 19.5 21 18.0449 21 16.25L20.9997 16.208L21 16.1878V4.54538C21 3.81229 20.372 3.23657 19.6417 3.30008L9.14171 4.21312C8.49577 4.26929 8 4.81004 8 5.45843V15.0109C7.49485 14.6875 6.89432 14.5 6.25 14.5C4.45507 14.5 3 15.9551 3 17.75C3 19.5449 4.45507 21 6.25 21C8.04493 21 9.5 19.5449 9.5 17.75L9.49999 17.7421L9.5 17.7383V9.10534L19.5 8.15296Z" clip-rule="evenodd"/></svg>