<svg xmlns="http://www.w3.org/2000/svg" width="24" height="24" viewBox="0 0 24 24"><path fill-rule="evenodd" d="M5.5 3.75C5.08579 3.75 4.75 4.08579 4.75 4.5C4.75 4.91421 5.08579 5.25 5.5 5.25H19.5C19.9142 5.25 20.25 4.91421 20.25 4.5C20.25 4.08579 19.9142 3.75 19.5 3.75H5.5ZM6.6365 8.08419C6.97516 7.34529 8.02505 7.34529 8.36372 8.08419L9.91139 11.4609L13.0374 13.166C13.6975 13.5261 13.6975 14.4739 13.0374 14.834L9.91139 16.5391L8.36372 19.9158C8.02506 20.6547 6.97516 20.6547 6.6365 19.9158L5.08882 16.5391L1.96286 14.834C1.30274 14.4739 1.30274 13.5261 1.96286 13.166L5.08882 11.4609L6.6365 8.08419ZM7.50011 9.80005L6.37627 12.2521C6.29087 12.4384 6.1475 12.5921 5.96756 12.6902L3.56635 14L5.96756 15.3098C6.1475 15.4079 6.29087 15.5616 6.37627 15.7479L7.50011 18.1999L8.62395 15.7479C8.70935 15.5616 8.85272 15.4079 9.03265 15.3098L11.4339 14L9.03265 12.6902C8.85272 12.5921 8.70935 12.4384 8.62395 12.2521L7.50011 9.80005ZM16.4773 13.6359C16.7804 12.9747 17.7197 12.9747 18.0228 13.6359L18.7447 15.2109L20.1982 16.0038C20.7889 16.326 20.7889 17.174 20.1982 17.4962L18.7447 18.2891L18.0228 19.8641C17.7197 20.5253 16.7804 20.5253 16.4773 19.8641L15.7554 18.2891L14.3019 17.4962C13.7112 17.174 13.7112 16.326 14.3019 16.0038L15.7554 15.2109L16.4773 13.6359ZM12.75 9.25C12.75 8.83579 13.0858 8.5 13.5 8.5L19.5 8.5C19.9142 8.5 20.25 8.83579 20.25 9.25C20.25 9.66421 19.9142 10 19.5 10L13.5 10C13.0858 10 12.75 9.66421 12.75 9.25Z" clip-rule="evenodd"/></svg>