<svg xmlns="http://www.w3.org/2000/svg" width="24" height="24" viewBox="0 0 24 24"><path d="M15.4491 3.68651C14.9998 3.16235 14.2107 3.10165 13.6865 3.55093C13.1624 4.00021 13.1017 4.78933 13.5509 5.31349L17.7822 10.25H3.5C2.80964 10.25 2.25 10.8096 2.25 11.5C2.25 12.1904 2.80964 12.75 3.5 12.75H17.7822L13.5509 17.6865C13.1017 18.2107 13.1624 18.9998 13.6865 19.4491C14.2107 19.8983 14.9998 19.8376 15.4491 19.3135L21.4445 12.3189C21.6348 12.0995 21.75 11.8132 21.75 11.5C21.75 11.1868 21.6348 10.9006 21.4445 10.6812L15.4491 3.68651Z"/></svg>