<svg xmlns="http://www.w3.org/2000/svg" width="24" height="24" viewBox="0 0 24 24"><path fill-rule="evenodd" d="M12 4C7.58172 4 4 7.58172 4 12C4 16.4183 7.58172 20 12 20C13.5703 20 15.0328 19.5483 16.2673 18.7682C16.4527 18.651 16.6801 18.6208 16.8896 18.6857L19.2966 19.4301L18.5672 17.072C18.5005 16.8562 18.5345 16.6219 18.6599 16.4341C19.5065 15.1653 20 13.6414 20 12C20 7.58172 16.4183 4 12 4ZM2.5 12C2.5 6.75329 6.75329 2.5 12 2.5C17.2467 2.5 21.5 6.75329 21.5 12C21.5 13.8171 20.9891 15.5168 20.1031 16.9612L20.8697 19.4397C21.1667 20.3999 20.2664 21.3002 19.3061 21.0032L16.7684 20.2183C15.3664 21.0333 13.7367 21.5 12 21.5C6.75329 21.5 2.5 17.2467 2.5 12Z" clip-rule="evenodd"/></svg>