<svg xmlns="http://www.w3.org/2000/svg" width="24" height="24" viewBox="0 0 24 24"><path fill-rule="evenodd" d="M8.25 12C8.25 11.5858 8.58579 11.25 9 11.25H20C20.4142 11.25 20.75 11.5858 20.75 12C20.75 12.4142 20.4142 12.75 20 12.75H9C8.58579 12.75 8.25 12.4142 8.25 12Z" clip-rule="evenodd"/><path fill-rule="evenodd" d="M8.25 5C8.25 4.58579 8.58579 4.25 9 4.25H20C20.4142 4.25 20.75 4.58579 20.75 5C20.75 5.41421 20.4142 5.75 20 5.75H9C8.58579 5.75 8.25 5.41421 8.25 5Z" clip-rule="evenodd"/><path fill-rule="evenodd" d="M8.25 19C8.25 18.5858 8.58579 18.25 9 18.25H20C20.4142 18.25 20.75 18.5858 20.75 19C20.75 19.4142 20.4142 19.75 20 19.75H9C8.58579 19.75 8.25 19.4142 8.25 19Z" clip-rule="evenodd"/><path d="M6.5 5C6.5 5.69036 5.94036 6.25 5.25 6.25C4.55964 6.25 4 5.69036 4 5C4 4.30964 4.55964 3.75 5.25 3.75C5.94036 3.75 6.5 4.30964 6.5 5Z"/><path d="M6.5 12C6.5 12.6904 5.94036 13.25 5.25 13.25C4.55964 13.25 4 12.6904 4 12C4 11.3096 4.55964 10.75 5.25 10.75C5.94036 10.75 6.5 11.3096 6.5 12Z"/><path d="M6.5 19C6.5 19.6904 5.94036 20.25 5.25 20.25C4.55964 20.25 4 19.6904 4 19C4 18.3096 4.55964 17.75 5.25 17.75C5.94036 17.75 6.5 18.3096 6.5 19Z"/></svg>