<svg xmlns="http://www.w3.org/2000/svg" width="24" height="24" viewBox="0 0 24 24"><path fill-rule="evenodd" d="M7.51733 4.4736C8.72282 4.02083 10.1254 3.75 11.7511 3.75C17.7873 3.75 20.5849 7.46463 21.7364 9.91103C22.5312 11.6 22.406 13.5516 21.3429 15.1297C20.7273 16.0434 19.8118 17.1171 18.5154 18.0297C18.45 18.0757 18.3836 18.1213 18.3162 18.1665C17.9722 18.3973 17.5063 18.3054 17.2756 17.9614C17.0448 17.6174 17.1367 17.1515 17.4807 16.9208C17.5386 16.8819 17.5957 16.8427 17.652 16.803C18.768 16.0175 19.5619 15.0887 20.0989 14.2916C20.8615 13.1595 20.9532 11.7697 20.3792 10.5498C19.3762 8.41893 17.0053 5.25 11.7511 5.25C10.2952 5.25 9.07221 5.49192 8.04473 5.87782C7.65696 6.02346 7.22455 5.82718 7.07892 5.43941C6.93328 5.05165 7.12956 4.61924 7.51733 4.4736ZM5.49846 6.38226C5.7715 6.69374 5.74034 7.16759 5.42886 7.44063C4.30209 8.42835 3.57374 9.58879 3.12222 10.5462C2.54603 11.7681 2.638 13.161 3.40303 14.2947C4.60886 16.0816 7.1138 18.5548 11.7511 18.5548C12.9878 18.5548 14.0661 18.3795 15.0039 18.0931C15.4001 17.9721 15.8193 18.1952 15.9403 18.5914C16.0613 18.9875 15.8382 19.4067 15.442 19.5277C14.358 19.8587 13.1319 20.0548 11.7511 20.0548C6.4729 20.0548 3.55399 17.2 2.15965 15.1338C1.09334 13.5536 0.96784 11.598 1.76551 9.90645C2.2793 8.81695 3.11899 7.47073 4.44009 6.31266C4.75157 6.03962 5.22542 6.07078 5.49846 6.38226Z" clip-rule="evenodd"/><path fill-rule="evenodd" d="M20.0479 20.0124C19.7649 20.3149 19.2903 20.3307 18.9878 20.0478L3.48781 5.54774C3.18532 5.26476 3.1695 4.79015 3.45247 4.48767C3.73545 4.18518 4.21006 4.16936 4.51254 4.45233L20.0125 18.9524C20.315 19.2353 20.3308 19.7099 20.0479 20.0124Z" clip-rule="evenodd"/><path fill-rule="evenodd" d="M9.55891 11.5354C9.35551 12.6017 10.1132 13.6993 11.3667 13.9089C11.9985 14.0146 12.6063 13.8644 13.0745 13.549C13.4219 13.315 13.8888 13.4007 14.1173 13.7404C14.3459 14.0802 14.2495 14.5454 13.902 14.7794C13.109 15.3136 12.104 15.5527 11.0856 15.3824C9.1023 15.0507 7.70475 13.2524 8.07945 11.288C8.13881 10.9768 8.23978 10.6814 8.37614 10.4067C8.56139 10.0335 9.01337 9.87345 9.38568 10.0493C9.75799 10.2252 9.90963 10.6703 9.72439 11.0435C9.64859 11.1962 9.59223 11.3607 9.55891 11.5354ZM10.7778 9.17302C10.758 8.76143 11.0786 8.40468 11.494 8.37619C11.7957 8.3555 12.1042 8.36946 12.4135 8.42119C14.1978 8.71961 15.4999 10.1964 15.4796 11.922C15.4747 12.3345 15.1337 12.6722 14.7179 12.6762C14.3021 12.6802 13.9689 12.349 13.9738 11.9364C13.985 10.9877 13.2531 10.0821 12.1324 9.89462C11.9401 9.86245 11.7501 9.85406 11.5658 9.86669C11.1505 9.89518 10.7976 9.58461 10.7778 9.17302Z" clip-rule="evenodd"/></svg>