<svg xmlns="http://www.w3.org/2000/svg" width="24" height="24" viewBox="0 0 24 24"><path d="M11.2563 10.8948C11.2563 10.4812 11.5916 10.146 12.0051 10.146C12.4187 10.146 12.7539 10.4812 12.7539 10.8948V13.837C12.7539 14.2505 12.4187 14.5858 12.0051 14.5858C11.5916 14.5858 11.2563 14.2505 11.2563 13.837V10.8948Z"/><path d="M10.895 7.92592C10.895 7.31288 11.392 6.81592 12.005 6.81592C12.6181 6.81592 13.115 7.31288 13.115 7.92592C13.115 8.53895 12.6181 9.03592 12.005 9.03592C11.392 9.03592 10.895 8.53895 10.895 7.92592Z"/><path fill-rule="evenodd" d="M2.02637 5.35347C2.02637 4.01971 3.1076 2.93848 4.44137 2.93848H19.5583C20.8921 2.93848 21.9733 4.01971 21.9733 5.35348L21.9733 15.7455C21.9733 17.0792 20.892 18.1604 19.5583 18.1604H18.169C17.7548 18.1604 17.419 17.8247 17.419 17.4104C17.419 16.9962 17.7548 16.6604 18.169 16.6604H19.5583C20.0636 16.6604 20.4733 16.2508 20.4733 15.7455L20.4733 5.35348C20.4733 4.84814 20.0636 4.43848 19.5583 4.43848H4.44137C3.93603 4.43848 3.52637 4.84814 3.52637 5.35347V15.7454C3.52637 16.2508 3.93603 16.6604 4.44137 16.6604H12.3355C13.0592 16.6604 13.7448 16.9851 14.2035 17.5449L16.6908 20.5807C16.9533 20.9011 16.9064 21.3736 16.586 21.6361C16.2656 21.8986 15.7931 21.8517 15.5305 21.5313L13.0432 18.4955C12.8694 18.2834 12.6097 18.1604 12.3355 18.1604H4.44137C3.1076 18.1604 2.02637 17.0792 2.02637 15.7454V5.35347Z" clip-rule="evenodd"/></svg>