<svg xmlns="http://www.w3.org/2000/svg" width="24" height="24" viewBox="0 0 24 24"><path fill-rule="evenodd" d="M6.2409 1.92432C5.80809 1.92427 5.41126 1.92422 5.08844 1.96762C4.73296 2.01542 4.35724 2.12786 4.04821 2.43689C3.73919 2.74591 3.62674 3.12164 3.57895 3.47712C3.53555 3.79993 3.5356 4.19676 3.53565 4.62958V17.8619C3.5356 18.2947 3.53555 18.6916 3.57895 19.0144C3.62674 19.3699 3.73919 19.7456 4.04821 20.0546C4.35724 20.3636 4.73296 20.4761 5.08844 20.5239C5.41126 20.5673 5.80809 20.5672 6.24091 20.5672L7.6316 20.5672L8.10857 22.6974C8.13963 22.8367 8.17879 23.0124 8.23392 23.1557C8.29822 23.3228 8.44807 23.6197 8.80747 23.7554C9.16687 23.8911 9.47557 23.7674 9.63427 23.6845C9.77037 23.6134 9.91588 23.5075 10.0313 23.4235L13.9626 20.5672L17.759 20.5672C18.1918 20.5672 18.5886 20.5673 18.9114 20.5239C19.2669 20.4761 19.6426 20.3636 19.9517 20.0546C20.2607 19.7456 20.3731 19.3699 20.4209 19.0144C20.4643 18.6916 20.4643 18.2947 20.4642 17.8619V4.62958C20.4643 4.19676 20.4643 3.79993 20.4209 3.47712C20.3731 3.12163 20.2607 2.74591 19.9517 2.43689C19.6426 2.12786 19.2669 2.01542 18.9114 1.96762C18.5886 1.92422 18.1918 1.92427 17.759 1.92432H6.2409ZM11.5074 7.3084C11.9059 7.42173 12.137 7.83658 12.0236 8.23499L11.7975 9.02979H13.738L14.0809 7.82458C14.1942 7.42617 14.609 7.19507 15.0074 7.3084C15.4059 7.42173 15.637 7.83658 15.5236 8.23499L15.2975 9.02979H15.75C16.1642 9.02979 16.5 9.36557 16.5 9.77979C16.5 10.194 16.1642 10.5298 15.75 10.5298H14.8709L14.3019 12.5298H15.25C15.6642 12.5298 16 12.8656 16 13.2798C16 13.694 15.6642 14.0298 15.25 14.0298H13.8753L13.4714 15.4496C13.358 15.8481 12.9432 16.0792 12.5448 15.9658C12.1464 15.8525 11.9153 15.4376 12.0286 15.0392L12.3157 14.0298H10.3753L9.97136 15.4496C9.85803 15.8481 9.44318 16.0792 9.04478 15.9658C8.64637 15.8525 8.41527 15.4376 8.5286 15.0392L8.81574 14.0298H8.25C7.83579 14.0298 7.5 13.694 7.5 13.2798C7.5 12.8656 7.83579 12.5298 8.25 12.5298H9.24243L9.81135 10.5298H8.75C8.33579 10.5298 8 10.194 8 9.77979C8 9.36557 8.33579 9.02979 8.75 9.02979H10.238L10.5809 7.82458C10.6942 7.42617 11.109 7.19507 11.5074 7.3084ZM11.3709 10.5298L10.8019 12.5298H12.7424L13.3113 10.5298H11.3709Z" clip-rule="evenodd"/></svg>