<svg xmlns="http://www.w3.org/2000/svg" width="24" height="24" viewBox="0 0 24 24"><g><path fill-rule="evenodd" d="M12 22C17.5228 22 22 17.5228 22 12C22 6.47715 17.5228 2 12 2C6.47715 2 2 6.47715 2 12C2 17.5228 6.47715 22 12 22ZM11.2222 14.3827C13.0111 14.3827 14.4444 12.9446 14.4444 11.1914C14.4444 9.43808 13.0111 8 11.2222 8C9.43335 8 8 9.43808 8 11.1914C8 12.9446 9.43335 14.3827 11.2222 14.3827ZM11.2222 15.8827C12.1693 15.8827 13.0513 15.6057 13.7905 15.1289L15.6919 17.0303C15.9848 17.3232 16.4597 17.3232 16.7526 17.0303C17.0455 16.7374 17.0455 16.2625 16.7526 15.9697L14.9077 14.1247C15.5564 13.3214 15.9444 12.3014 15.9444 11.1914C15.9444 8.60039 13.8302 6.5 11.2222 6.5C8.61421 6.5 6.5 8.60039 6.5 11.1914C6.5 13.7823 8.61421 15.8827 11.2222 15.8827Z" clip-rule="evenodd"/></g></svg>