<svg xmlns="http://www.w3.org/2000/svg" width="16" height="16" viewBox="0 0 16 16"><path fill-rule="evenodd" d="M2.06077 3.07834C1.48334 2.39592 1.96839 1.3501 2.86232 1.3501H13.1403C14.033 1.3501 14.5184 2.3934 13.9435 3.07631L10.5249 7.13727V12.2293C10.5249 12.6586 10.2635 13.0447 9.86484 13.2042L6.91484 14.3842C6.22513 14.6601 5.47488 14.1521 5.47488 13.4093V7.1132L2.06077 3.07834ZM3.40135 2.6501L6.52643 6.34338C6.68685 6.53297 6.77488 6.77327 6.77488 7.02162V13.04L9.22488 12.06V7.04605C9.22488 6.79861 9.31226 6.55912 9.47161 6.36983L12.603 2.6501H3.40135Z" clip-rule="evenodd"/></svg>