<svg xmlns="http://www.w3.org/2000/svg" width="16" height="16" viewBox="0 0 16 16"><path fill-rule="evenodd" d="M4 1.75C2.75736 1.75 1.75 2.75736 1.75 4V12.1C1.75 13.3426 2.75736 14.35 4 14.35H12.1C13.3426 14.35 14.35 13.3426 14.35 12.1V7.10833C14.35 6.74935 14.059 6.45833 13.7 6.45833C13.341 6.45833 13.05 6.74935 13.05 7.10833V12.1C13.05 12.6247 12.6247 13.05 12.1 13.05H4C3.47533 13.05 3.05 12.6247 3.05 12.1V4C3.05 3.47533 3.47533 3.05 4 3.05H8.99167C9.35065 3.05 9.64167 2.75899 9.64167 2.4C9.64167 2.04101 9.35065 1.75 8.99167 1.75H4ZM13.9597 2.95962C14.2136 2.70578 14.2136 2.29422 13.9597 2.04038C13.7059 1.78654 13.2943 1.78654 13.0405 2.04038L8.04048 7.04038C7.78664 7.29422 7.78664 7.70578 8.04048 7.95962C8.29432 8.21346 8.70588 8.21346 8.95972 7.95962L13.9597 2.95962Z" clip-rule="evenodd"/></svg>