<svg xmlns="http://www.w3.org/2000/svg" width="24" height="24" viewBox="0 0 24 24"><g><path fill-rule="evenodd" d="M22 12C22 17.5228 17.5228 22 12 22C6.47715 22 2 17.5228 2 12C2 6.47715 6.47715 2 12 2C17.5228 2 22 6.47715 22 12ZM15.5303 8.46967C15.8232 8.76256 15.8232 9.23744 15.5303 9.53033L13.0601 12.0005L15.5303 14.4707C15.8232 14.7636 15.8232 15.2384 15.5303 15.5313C15.2374 15.8242 14.7626 15.8242 14.4697 15.5313L11.9995 13.0611L9.53033 15.5303C9.23744 15.8232 8.76256 15.8232 8.46967 15.5303C8.17678 15.2374 8.17678 14.7625 8.46967 14.4696L10.9388 12.0005L8.46975 9.53143C8.17685 9.23854 8.17685 8.76366 8.46975 8.47077C8.76264 8.17788 9.23751 8.17788 9.53041 8.47077L11.9995 10.9398L14.4696 8.46967C14.7625 8.17678 15.2374 8.17678 15.5303 8.46967Z" clip-rule="evenodd"/></g></svg>