<svg xmlns="http://www.w3.org/2000/svg" width="24" height="25" viewBox="0 0 24 25"><path fill-rule="evenodd" d="M4 5.48666C4 5.07245 4.33579 4.73666 4.75 4.73666H19.25C19.6642 4.73666 20 5.07245 20 5.48666C20 5.90088 19.6642 6.23666 19.25 6.23666H4.75C4.33579 6.23666 4 5.90088 4 5.48666ZM4 12.4867C4 12.0725 4.33579 11.7367 4.75 11.7367H9.65C10.0642 11.7367 10.4 12.0725 10.4 12.4867C10.4 12.9009 10.0642 13.2367 9.65 13.2367H4.75C4.33579 13.2367 4 12.9009 4 12.4867ZM4.75 18.7367C4.33579 18.7367 4 19.0725 4 19.4867C4 19.9009 4.33579 20.2367 4.75 20.2367H12.05C12.4642 20.2367 12.8 19.9009 12.8 19.4867C12.8 19.0725 12.4642 18.7367 12.05 18.7367H4.75ZM17.75 11.2976L19.4697 13.017C19.7626 13.3099 20.2375 13.3099 20.5304 13.017C20.8232 12.724 20.8232 12.2492 20.5303 11.9563L17.6006 9.027C17.2686 8.69508 16.7305 8.69512 16.3985 9.02708L13.4696 11.9564C13.1768 12.2493 13.1768 12.7242 13.4697 13.017C13.7626 13.3099 14.2375 13.3099 14.5304 13.017L16.25 11.2971V20.2411C16.25 20.6553 16.5858 20.9911 17 20.9911C17.4142 20.9911 17.75 20.6553 17.75 20.2411V11.2976Z" clip-rule="evenodd"/></svg>