<svg xmlns="http://www.w3.org/2000/svg" width="24" height="24" viewBox="0 0 24 24"><path fill-rule="evenodd" d="M2.70099 1.77764C2.30193 1.66661 1.88843 1.90009 1.77739 2.29915C1.66636 2.6982 1.89985 3.11171 2.2989 3.22274L4.2766 3.77301C4.29631 3.7785 4.31069 3.79544 4.3129 3.81578L5.59926 15.654C5.72885 16.8466 6.73589 17.7502 7.93551 17.7502H18.9999C19.4142 17.7502 19.7499 17.4144 19.7499 17.0002C19.7499 16.586 19.4142 16.2502 18.9999 16.2502H7.93551C7.5016 16.2502 7.13735 15.9234 7.09048 15.492L7.08269 15.4203L18.8485 14.3573C19.9052 14.2618 20.7668 13.4701 20.9512 12.4252L21.8964 7.0693C22.1555 5.60085 20.9992 4.26547 19.5088 4.31205L5.92179 4.73664L5.80412 3.65374C5.7356 3.02314 5.28977 2.49793 4.67868 2.32791L2.70099 1.77764ZM9.49995 20.2502C9.49995 20.9405 8.9403 21.5002 8.24995 21.5002C7.55959 21.5002 6.99995 20.9405 6.99995 20.2502C6.99995 19.5598 7.55959 19.0002 8.24995 19.0002C8.9403 19.0002 9.49995 19.5598 9.49995 20.2502ZM17.2499 21.5002C17.9403 21.5002 18.4999 20.9405 18.4999 20.2502C18.4999 19.5598 17.9403 19.0002 17.2499 19.0002C16.5596 19.0002 15.9999 19.5598 15.9999 20.2502C15.9999 20.9405 16.5596 21.5002 17.2499 21.5002Z" clip-rule="evenodd"/></svg>