<svg xmlns="http://www.w3.org/2000/svg" width="24" height="24" viewBox="0 0 24 24"><g><g><path fill-rule="evenodd" d="M9.44048 6.02296C8.57177 7.52212 8.01318 9.6376 8.01318 12C8.01318 14.3624 8.57177 16.4779 9.44048 17.977C10.3202 19.4951 11.4265 20.25 12.5 20.25V21.75C10.6667 21.75 9.15467 20.4756 8.14263 18.7291C7.11962 16.9636 6.51318 14.5791 6.51318 12C6.51318 9.42087 7.11962 7.03635 8.14263 5.2709C9.15467 3.52439 10.6667 2.25 12.5 2.25V3.75C11.4265 3.75 10.3202 4.50486 9.44048 6.02296Z" clip-rule="evenodd"/><path fill-rule="evenodd" d="M14.5595 6.02296C15.4282 7.52212 15.9868 9.6376 15.9868 12C15.9868 14.3624 15.4282 16.4779 14.5595 17.977C13.6798 19.4951 12.5735 20.25 11.5 20.25V21.75C13.3333 21.75 14.8453 20.4756 15.8574 18.7291C16.8804 16.9636 17.4868 14.5791 17.4868 12C17.4868 9.42087 16.8804 7.03635 15.8574 5.2709C14.8453 3.52439 13.3333 2.25 11.5 2.25V3.75C12.5735 3.75 13.6798 4.50486 14.5595 6.02296Z" clip-rule="evenodd"/><path fill-rule="evenodd" d="M12 20.5C16.6944 20.5 20.5 16.6944 20.5 12C20.5 7.30558 16.6944 3.5 12 3.5C7.30558 3.5 3.5 7.30558 3.5 12C3.5 16.6944 7.30558 20.5 12 20.5ZM12 22C17.5228 22 22 17.5228 22 12C22 6.47715 17.5228 2 12 2C6.47715 2 2 6.47715 2 12C2 17.5228 6.47715 22 12 22Z" clip-rule="evenodd"/><path fill-rule="evenodd" d="M2.75 9C2.75 8.58579 3.08579 8.25 3.5 8.25H20.5C20.9142 8.25 21.25 8.58579 21.25 9C21.25 9.41421 20.9142 9.75 20.5 9.75H3.5C3.08579 9.75 2.75 9.41421 2.75 9Z" clip-rule="evenodd"/><path fill-rule="evenodd" d="M2.75 15C2.75 14.5858 3.08579 14.25 3.5 14.25H20.5C20.9142 14.25 21.25 14.5858 21.25 15C21.25 15.4142 20.9142 15.75 20.5 15.75H3.5C3.08579 15.75 2.75 15.4142 2.75 15Z" clip-rule="evenodd"/></g></g></svg>