<svg xmlns="http://www.w3.org/2000/svg" width="24" height="24" viewBox="0 0 24 24"><path fill-rule="evenodd" d="M22 12C22 17.5228 17.5228 22 12 22C6.47715 22 2 17.5228 2 12C2 6.47715 6.47715 2 12 2C17.5228 2 22 6.47715 22 12ZM10.9445 13.5842L8.84099 11.4808C8.5481 11.1879 8.07322 11.1879 7.78033 11.4808C7.48744 11.7737 7.48744 12.2485 7.78033 12.5414L10.4091 15.1702C10.4108 15.1719 10.4124 15.1736 10.4141 15.1753C10.707 15.4681 11.1819 15.4681 11.4748 15.1753L16.2197 10.4304C16.5126 10.1375 16.5126 9.66259 16.2197 9.36969C15.9268 9.0768 15.4519 9.0768 15.159 9.36969L10.9445 13.5842Z" clip-rule="evenodd"/></svg>