<svg xmlns="http://www.w3.org/2000/svg" width="24" height="24" viewBox="0 0 24 24"><path d="M19.4536 6.60065L15.9214 3.06855C15.6286 2.77565 15.1537 2.77565 14.8608 3.06855C14.5679 3.36144 14.5679 3.83631 14.8608 4.12921L17.1158 6.38422L10.9603 6.38422C7.03624 6.38422 3.93115 9.07438 3.93115 13.0708C3.93115 15.0883 4.89107 16.7772 6.22824 17.9463C7.55702 19.1081 9.29909 19.795 10.9606 19.7949L18.5258 19.7949C18.94 19.7949 19.2758 19.4591 19.2758 19.0449C19.2758 18.6307 18.94 18.2949 18.5258 18.2949H10.9606C9.69151 18.2949 8.29384 17.7598 7.21555 16.8171C6.14565 15.8816 5.43115 14.5835 5.43115 13.0708C5.43115 10.007 7.75649 7.88422 10.9603 7.88422L17.1162 7.88422L14.8608 10.1396C14.5679 10.4325 14.5679 10.9074 14.8608 11.2003C15.1537 11.4931 15.6285 11.4932 15.9214 11.2003L19.457 7.66474C19.5976 7.52409 19.6766 7.33333 19.6766 7.13441C19.6766 7.08761 19.6723 7.04126 19.6638 6.99591C19.6352 6.84269 19.56 6.70585 19.4536 6.60065Z"/></svg>