<svg xmlns="http://www.w3.org/2000/svg" width="16" height="16" viewBox="0 0 16 16"><path fill-rule="evenodd" d="M13.4597 3.45972C13.7136 3.20588 13.7136 2.79432 13.4597 2.54048C13.2059 2.28664 12.7943 2.28664 12.5405 2.54048L8.0001 7.08086L3.45972 2.54048C3.20588 2.28664 2.79432 2.28664 2.54048 2.54048C2.28664 2.79432 2.28664 3.20588 2.54048 3.45972L7.08086 8.0001L2.54048 12.5405C2.28664 12.7943 2.28664 13.2059 2.54048 13.4597C2.79432 13.7136 3.20588 13.7136 3.45972 13.4597L8.0001 8.91934L12.5405 13.4597C12.7943 13.7136 13.2059 13.7136 13.4597 13.4597C13.7136 13.2059 13.7136 12.7943 13.4597 12.5405L8.91934 8.0001L13.4597 3.45972Z" clip-rule="evenodd"/></svg>