<svg xmlns="http://www.w3.org/2000/svg" width="24" height="24" viewBox="0 0 24 24"><path fill-rule="evenodd" d="M4.66 3.75C4.15742 3.75 3.75 4.15742 3.75 4.66V19.34C3.75 19.8426 4.15742 20.25 4.66 20.25H19.34C19.8426 20.25 20.25 19.8426 20.25 19.34V4.66C20.25 4.15742 19.8426 3.75 19.34 3.75H4.66ZM2.25 4.66C2.25 3.32899 3.32899 2.25 4.66 2.25H19.34C20.671 2.25 21.75 3.32899 21.75 4.66V19.34C21.75 20.671 20.671 21.75 19.34 21.75H4.66C3.32899 21.75 2.25 20.671 2.25 19.34V4.66ZM5.85 9.25C5.85 8.89102 6.14102 8.6 6.5 8.6H7C7.91127 8.6 8.65 9.33873 8.65 10.25V12V14.75C8.65 15.109 8.35898 15.4 8 15.4C7.64102 15.4 7.35 15.109 7.35 14.75V12V10.25C7.35 10.0567 7.1933 9.9 7 9.9H6.5C6.14102 9.9 5.85 9.60898 5.85 9.25ZM15.5 8.6C15.141 8.6 14.85 8.89102 14.85 9.25C14.85 9.60898 15.141 9.9 15.5 9.9H16C16.1933 9.9 16.35 10.0567 16.35 10.25V12V14.75C16.35 15.109 16.641 15.4 17 15.4C17.359 15.4 17.65 15.109 17.65 14.75V12V10.25C17.65 9.33873 16.9113 8.6 16 8.6H15.5ZM11.1 10.5C11.1 10.141 11.391 9.85 11.75 9.85H12.25C12.609 9.85 12.9 10.141 12.9 10.5C12.9 10.859 12.609 11.15 12.25 11.15H11.75C11.391 11.15 11.1 10.859 11.1 10.5ZM11.75 12.85C11.391 12.85 11.1 13.141 11.1 13.5C11.1 13.859 11.391 14.15 11.75 14.15H12.25C12.609 14.15 12.9 13.859 12.9 13.5C12.9 13.141 12.609 12.85 12.25 12.85H11.75Z" clip-rule="evenodd"/></svg>