<svg xmlns="http://www.w3.org/2000/svg" width="24" height="24" viewBox="0 0 24 24"><path fill-rule="evenodd" d="M12 3.25C9.37602 3.25 7.25004 5.37596 7.25004 8.00001C7.25004 10.624 9.37603 12.7501 12 12.7501C14.6241 12.7501 16.75 10.6241 16.75 8.00001C16.75 5.37596 14.6241 3.25 12 3.25ZM5.75004 8.00001C5.75004 4.54754 8.54759 1.75 12 1.75C15.4525 1.75 18.25 4.54754 18.25 8.00001C18.25 10.3316 16.9742 12.3645 15.0823 13.4387C15.5508 13.6436 15.9981 13.8907 16.4197 14.1754C16.763 14.4071 16.8534 14.8733 16.6216 15.2166C16.3898 15.5599 15.9236 15.6503 15.5804 15.4185C14.4826 14.6773 13.1818 14.25 11.7869 14.25C8.12955 14.25 5.0707 17.2115 4.74741 21.0627C4.71277 21.4755 4.35007 21.782 3.93731 21.7474C3.52454 21.7127 3.21802 21.35 3.25267 20.9373C3.54385 17.4685 5.7257 14.5359 8.73972 13.3337C6.94631 12.2353 5.75004 10.2576 5.75004 8.00001ZM19.25 15.5C19.25 15.0858 18.9143 14.75 18.5 14.75C18.0858 14.75 17.75 15.0858 17.75 15.5V17.75H15.5C15.0858 17.75 14.75 18.0858 14.75 18.5C14.75 18.9142 15.0858 19.25 15.5 19.25H17.75L17.75 21.5C17.75 21.9142 18.0858 22.25 18.5 22.25C18.9143 22.25 19.25 21.9142 19.25 21.5V19.25H21.5C21.9143 19.25 22.25 18.9142 22.25 18.5C22.25 18.0858 21.9143 17.75 21.5 17.75H19.25V15.5Z" clip-rule="evenodd"/></svg>