<svg xmlns="http://www.w3.org/2000/svg" width="24" height="24" viewBox="0 0 24 24"><path fill-rule="evenodd" d="M5.62394 3.25C4.31284 3.25 3.25 4.31286 3.25 5.62394V18.373C3.25 19.6842 4.31287 20.747 5.62394 20.747H18.3761C19.6872 20.747 20.75 19.6842 20.75 18.373V14C20.75 13.5858 20.4142 13.25 20 13.25C19.5858 13.25 19.25 13.5858 19.25 14V18.373C19.25 18.8557 18.8588 19.247 18.3761 19.247H5.62394C5.14127 19.247 4.75 18.8557 4.75 18.373V5.62394C4.75 5.14128 5.14128 4.75 5.62394 4.75H10C10.4142 4.75 10.75 4.41421 10.75 4C10.75 3.58579 10.4142 3.25 10 3.25H5.62394ZM20 3.25H14C13.5858 3.25 13.25 3.58579 13.25 4C13.25 4.41421 13.5858 4.75 14 4.75H18.1893L11.4697 11.4697C11.1768 11.7626 11.1768 12.2374 11.4697 12.5303C11.7626 12.8232 12.2374 12.8232 12.5303 12.5303L19.25 5.81066V10C19.25 10.4142 19.5858 10.75 20 10.75C20.4142 10.75 20.75 10.4142 20.75 10V4C20.75 3.68748 20.5588 3.4196 20.2871 3.30691C20.1987 3.27024 20.1017 3.25 20 3.25Z" clip-rule="evenodd"/></svg>