<svg xmlns="http://www.w3.org/2000/svg" width="24" height="24" viewBox="0 0 24 24"><path fill-rule="evenodd" d="M10 1.75C6.54762 1.75 3.75 4.54762 3.75 8C3.75 10.4041 5.10659 12.4907 7.09619 13.5362C4.31489 14.5964 2.27817 17.1351 2.00308 20.1839C1.96586 20.5965 2.27011 20.9611 2.68265 20.9983C3.09519 21.0355 3.45979 20.7313 3.49701 20.3187C3.78992 17.0725 6.57857 14.5042 10.0009 14.5042C10.0263 14.5042 10.0513 14.5029 10.0761 14.5004C13.4625 14.5385 16.2118 17.0939 16.5026 20.3185C16.5398 20.731 16.9044 21.0353 17.3169 20.9981C17.7295 20.9609 18.0337 20.5963 17.9965 20.1838C17.7216 17.1351 15.6872 14.5958 12.9081 13.5339C14.8954 12.4877 16.25 10.4024 16.25 8C16.25 4.54762 13.4524 1.75 10 1.75ZM5.25 8C5.25 5.37605 7.37605 3.25 10 3.25C12.624 3.25 14.75 5.37605 14.75 8C14.75 10.624 12.624 12.75 10 12.75C7.37605 12.75 5.25 10.624 5.25 8ZM16.9849 13.9518C16.9334 13.9324 16.8835 13.9071 16.8365 13.8759C16.7616 13.8265 16.6976 13.765 16.6462 13.695C16.5147 13.5172 16.4721 13.2947 16.5176 13.0879C16.5382 12.9945 16.5768 12.9043 16.6334 12.8228C16.663 12.78 16.6966 12.741 16.7336 12.7059C17.071 12.3707 17.3879 11.8792 17.6517 11.3378C18.0934 10.4313 18.3038 9.35724 18.2414 8.27212C18.2065 7.66513 18.1068 6.98347 17.94 6.49033C17.8073 6.09796 18.0178 5.67228 18.4102 5.53955C18.8026 5.40682 19.2282 5.6173 19.361 6.00967C19.5883 6.6818 19.7002 7.51265 19.7389 8.18591C19.8152 9.51259 19.5607 10.8444 19.0002 11.9948C18.835 12.3337 18.6397 12.6824 18.415 13.0102C19.2748 13.5575 19.9651 14.3183 20.5009 15.088C21.2135 16.1117 21.694 17.2103 21.9615 18.0128C22.0925 18.4057 21.8802 18.8305 21.4872 18.9615C21.0943 19.0925 20.6695 18.8802 20.5385 18.4872C20.306 17.7897 19.8836 16.8269 19.2697 15.945C18.655 15.0619 17.8889 14.3175 16.9849 13.9518Z" clip-rule="evenodd"/></svg>