<svg xmlns="http://www.w3.org/2000/svg" width="24" height="24" viewBox="0 0 24 24"><g><path fill-rule="evenodd" d="M13.2203 8.75034C12.9357 8.43242 12.8 8.00836 12.8471 7.58431L12.9608 6.56162C13.1065 5.25035 12.4633 3.97692 11.3215 3.31589C10.7346 2.97608 10 3.39961 10 4.07782V4.63076C10 5.13211 9.90771 5.62918 9.72773 6.09711C8.99716 7.99659 7.17222 9.24996 5.1371 9.24996H4.5C4.36193 9.24996 4.25 9.36189 4.25 9.49996V19C4.25 19.1388 4.36207 19.25 4.49936 19.25H7C9.83637 19.25 13.5459 19.4465 15.9203 19.593C16.9724 19.6579 17.9328 19.0004 18.2444 18.0034L20.067 12.1711C20.5198 10.7222 19.4374 9.24996 17.9194 9.24996H14.3379C13.9113 9.24996 13.5048 9.06826 13.2203 8.75034ZM14.4809 6.24996C14.5013 4.52079 13.5908 2.89642 12.0731 2.01775C10.4861 1.09899 8.5 2.24411 8.5 4.07782V4.63076C8.5 4.94801 8.4416 5.26254 8.32771 5.55864C7.81995 6.87883 6.55156 7.74996 5.1371 7.74996H4.5C3.5335 7.74996 2.75 8.53346 2.75 9.49996V19C2.75 19.9658 3.53225 20.75 4.49936 20.75H7C9.78636 20.75 13.456 20.9438 15.8279 21.0902C17.5599 21.197 19.1559 20.1155 19.6761 18.4508L21.4987 12.6185C22.2533 10.2038 20.4493 7.74996 17.9194 7.74996H14.3379L14.4516 6.72727C14.4693 6.56761 14.479 6.40834 14.4809 6.24996Z" clip-rule="evenodd"/></g></svg>