<svg xmlns="http://www.w3.org/2000/svg" width="16" height="16" viewBox="0 0 16 16"><path fill-rule="evenodd" d="M3.6 8H12.4C12.5657 8 12.7 8.13431 12.7 8.3V12.9C12.7 13.0657 12.5657 13.2 12.4 13.2H3.6C3.43431 13.2 3.3 13.0657 3.3 12.9V8.3C3.3 8.13431 3.43432 8 3.6 8ZM6 9.95C5.64102 9.95 5.35 10.241 5.35 10.6C5.35 10.959 5.64102 11.25 6 11.25H10C10.359 11.25 10.65 10.959 10.65 10.6C10.65 10.241 10.359 9.95 10 9.95H6Z" clip-rule="evenodd"/><path fill-rule="evenodd" d="M6.14062 6.41344L6.1406 6.4124C6.1231 5.64637 6.10251 4.7452 6.29488 3.94329C6.41317 3.45018 6.59839 3.07055 6.85852 2.81726C7.10247 2.57972 7.46629 2.4 8.06652 2.4C8.97931 2.4 9.59969 2.97491 9.80581 3.43902C9.95151 3.76711 10.3356 3.91496 10.6637 3.76926C10.9918 3.62355 11.1396 3.23947 10.9939 2.91138C10.6003 2.02509 9.54319 1.1 8.06652 1.1C7.17293 1.1 6.469 1.38208 5.95161 1.88586C5.45039 2.3739 5.18066 3.0151 5.03074 3.64004C4.79383 4.62763 4.82228 5.76591 4.84144 6.53238L4.84551 6.7H3.6C2.71634 6.7 2 7.41634 2 8.3V12.9C2 13.7837 2.71635 14.5 3.6 14.5H12.4C13.2837 14.5 14 13.7837 14 12.9V8.3C14 7.41634 13.2837 6.7 12.4 6.7H6.14672C6.14504 6.60701 6.14285 6.51133 6.14062 6.41344ZM3.6 8H12.4C12.5657 8 12.7 8.13431 12.7 8.3V12.9C12.7 13.0657 12.5657 13.2 12.4 13.2H3.6C3.43431 13.2 3.3 13.0657 3.3 12.9V8.3C3.3 8.13431 3.43432 8 3.6 8Z" clip-rule="evenodd"/></svg>