<svg xmlns="http://www.w3.org/2000/svg" width="24" height="24" viewBox="0 0 24 24"><g><g><path fill-rule="evenodd" d="M7.82153 12C7.82153 11.5858 8.15732 11.25 8.57153 11.25H15.4287C15.8429 11.25 16.1787 11.5858 16.1787 12C16.1787 12.4142 15.8429 12.75 15.4287 12.75H8.57153C8.15732 12.75 7.82153 12.4142 7.82153 12Z" clip-rule="evenodd"/><path fill-rule="evenodd" d="M8.96436 8C8.96436 7.58579 9.30014 7.25 9.71436 7.25H14.2858C14.7 7.25 15.0358 7.58579 15.0358 8C15.0358 8.41421 14.7 8.75 14.2858 8.75H9.71436C9.30014 8.75 8.96436 8.41421 8.96436 8Z" clip-rule="evenodd"/><path fill-rule="evenodd" d="M20.75 16C20.75 15.9468 20.7445 15.8949 20.7339 15.8449L20.7368 15.8597C20.7456 15.9059 20.75 15.9529 20.75 16ZM3.26325 15.8597C3.25443 15.9059 3.25 15.9529 3.25 16C3.25 15.9468 3.25554 15.8949 3.26608 15.8448L3.26325 15.8597Z" clip-rule="evenodd"/><path fill-rule="evenodd" d="M7.52697 3.25C6.44667 3.25 5.51884 4.01778 5.31671 5.079L3.26608 15.8448L3.26325 15.8597C3.25443 15.9059 3.25 15.9529 3.25 16V18.5C3.25 19.7426 4.25736 20.75 5.5 20.75H18.5C19.7426 20.75 20.75 19.7426 20.75 18.5V16C20.75 15.9529 20.7456 15.9059 20.7368 15.8597L20.7339 15.8449L18.6833 5.079C18.4812 4.01778 17.5533 3.25 16.473 3.25H7.52697ZM7.52697 4.75C7.16687 4.75 6.85759 5.00593 6.79021 5.35967L4.90634 15.25H19.0937L17.2098 5.35966C17.1424 5.00593 16.8331 4.75 16.473 4.75H7.52697ZM4.75 18.5C4.75 18.9142 5.08579 19.25 5.5 19.25H18.5C18.9142 19.25 19.25 18.9142 19.25 18.5V16.75H4.75V18.5Z" clip-rule="evenodd"/></g></g></svg>