<svg xmlns="http://www.w3.org/2000/svg" width="24" height="24" viewBox="0 0 24 24"><path fill-rule="evenodd" d="M11.9999 4.50391C7.85999 4.50391 4.50391 7.85999 4.50391 11.9999C4.50391 16.1399 7.85999 19.496 11.9999 19.496C13.0134 19.496 13.9781 19.2952 14.8579 18.9321C14.9486 18.8946 15.0458 18.8754 15.144 18.8754H19.0722V14.6165C19.0722 14.5356 19.0852 14.4553 19.1109 14.3787C19.3605 13.6322 19.496 12.8327 19.496 11.9999C19.496 7.85999 16.1399 4.50391 11.9999 4.50391ZM3.00391 11.9999C3.00391 7.03156 7.03156 3.00391 11.9999 3.00391C16.9683 3.00391 20.996 7.03156 20.996 11.9999C20.996 12.9527 20.8476 13.8722 20.5722 14.7358V19.0704C20.5722 19.7911 19.9879 20.3754 19.2672 20.3754H15.2893C14.2696 20.7762 13.1595 20.996 11.9999 20.996C7.03156 20.996 3.00391 16.9683 3.00391 11.9999Z" clip-rule="evenodd"/><path fill-rule="evenodd" d="M11.9999 14.2259C13.2293 14.2259 14.2259 13.2293 14.2259 11.9999C14.2259 10.7705 13.2293 9.77393 11.9999 9.77393C10.7705 9.77393 9.77393 10.7705 9.77393 11.9999C9.77393 13.2293 10.7705 14.2259 11.9999 14.2259ZM11.9999 15.7259C14.0577 15.7259 15.7259 14.0577 15.7259 11.9999C15.7259 9.9421 14.0577 8.27393 11.9999 8.27393C9.9421 8.27393 8.27393 9.9421 8.27393 11.9999C8.27393 14.0577 9.9421 15.7259 11.9999 15.7259Z" clip-rule="evenodd"/></svg>