<svg xmlns="http://www.w3.org/2000/svg" width="24" height="24" viewBox="0 0 24 24"><g><path fill-rule="evenodd" d="M7.6499 17.9756L17.8499 12.0866C17.8767 12.0712 17.8842 12.059 17.8879 12.0523C17.8939 12.0416 17.8999 12.0235 17.8999 12C17.8999 11.9765 17.8939 11.9585 17.8879 11.9478C17.8842 11.941 17.8767 11.9289 17.8499 11.9134L7.6499 6.02445C7.62314 6.009 7.60882 6.00854 7.60114 6.00868C7.58888 6.00889 7.57027 6.01269 7.5499 6.02445C7.52954 6.03621 7.51694 6.05043 7.51062 6.06094C7.50667 6.06752 7.4999 6.08015 7.4999 6.11106L7.4999 17.889C7.4999 17.9199 7.50667 17.9325 7.51062 17.9391C7.51694 17.9496 7.52954 17.9638 7.5499 17.9756C7.57027 17.9874 7.58888 17.9912 7.60114 17.9914C7.60882 17.9915 7.62314 17.9911 7.6499 17.9756ZM18.5999 13.3857C19.6666 12.7698 19.6666 11.2302 18.5999 10.6144L8.3999 4.72541C7.33324 4.10957 5.9999 4.87937 5.9999 6.11106L5.9999 17.889C5.9999 19.1207 7.33324 19.8905 8.3999 19.2746L18.5999 13.3857Z" clip-rule="evenodd"/></g></svg>