<svg xmlns="http://www.w3.org/2000/svg" width="24" height="24" viewBox="0 0 24 24"><path fill-rule="evenodd" d="M1.75 6.1C1.75 4.80213 2.80213 3.75 4.1 3.75H16.4C17.6979 3.75 18.75 4.80213 18.75 6.1V7.58788L19.9484 7.00609C21.2435 6.37733 22.75 7.32062 22.75 8.76028V14.9667C22.75 16.3234 21.3991 17.2654 20.1261 16.7966L18.75 16.2898V17.9C18.75 19.1979 17.6979 20.25 16.4 20.25H4.1C2.80213 20.25 1.75 19.1979 1.75 17.9V6.1ZM18.75 14.6913L20.6445 15.389C20.9383 15.4972 21.25 15.2798 21.25 14.9667V8.76028C21.25 8.42805 20.9023 8.21037 20.6035 8.35547L18.75 9.25531V14.6913ZM4.1 5.25C3.63056 5.25 3.25 5.63056 3.25 6.1V17.9C3.25 18.3694 3.63056 18.75 4.1 18.75H16.4C16.8694 18.75 17.25 18.3694 17.25 17.9V15.2143V8.78571V6.1C17.25 5.63056 16.8694 5.25 16.4 5.25H4.1ZM12.85 12.0866L8.65 14.5115C8.62323 14.5269 8.60892 14.5274 8.60124 14.5272C8.58898 14.527 8.57037 14.5232 8.55 14.5115C8.52963 14.4997 8.51704 14.4855 8.51072 14.475C8.50677 14.4684 8.5 14.4558 8.5 14.4249V9.57513C8.5 9.54422 8.50677 9.5316 8.51072 9.52501C8.51704 9.5145 8.52963 9.50029 8.55 9.48853C8.57037 9.47677 8.58898 9.47297 8.60124 9.47275C8.60892 9.47262 8.62323 9.47307 8.65 9.48853L12.85 11.9134C12.8768 11.9289 12.8843 11.941 12.888 11.9477C12.894 11.9585 12.9 11.9765 12.9 12C12.9 12.0235 12.894 12.0415 12.888 12.0523C12.8843 12.059 12.8768 12.0711 12.85 12.0866ZM13.6 10.6144C14.6667 11.2302 14.6667 12.7698 13.6 13.3856L9.4 15.8105C8.33333 16.4264 7 15.6566 7 14.4249V9.57513C7 8.34345 8.33333 7.57365 9.4 8.18949L13.6 10.6144Z" clip-rule="evenodd"/></svg>
