<svg xmlns="http://www.w3.org/2000/svg" width="24" height="24" viewBox="0 0 24 24"><path fill-rule="evenodd" d="M6.53422 7.21347C6.211 7.46274 6.15863 7.91727 6.41719 8.22887C6.67584 8.54037 7.14748 8.59093 7.4708 8.34166L11.2495 5.4283V15.7889C11.2495 16.1816 11.5853 16.5 11.9995 16.5C12.4137 16.5 12.7495 16.1816 12.7495 15.7889V5.42308L16.5351 8.34166C16.8583 8.59093 17.33 8.54037 17.5886 8.22887C17.8473 7.91727 17.7948 7.46274 17.4716 7.21347L13.1642 3.89255C12.4853 3.36915 11.5206 3.36915 10.8416 3.89255L6.53422 7.21347ZM4.50293 15C4.50293 14.5858 4.16714 14.25 3.75293 14.25C3.33872 14.25 3.00293 14.5858 3.00293 15V18.4696C3.00293 19.7883 4.14727 20.7499 5.42055 20.7499L18.5853 20.75C19.8586 20.75 21.0029 19.7885 21.0029 18.4697V15C21.0029 14.5858 20.6671 14.25 20.2529 14.25C19.8387 14.25 19.5029 14.5858 19.5029 15V18.4697C19.5029 18.8413 19.1541 19.25 18.5853 19.25L5.42056 19.2499C4.85181 19.2499 4.50293 18.8412 4.50293 18.4696V15Z" clip-rule="evenodd"/></svg>