<svg xmlns="http://www.w3.org/2000/svg" width="24" height="24" viewBox="0 0 24 24"><path fill-rule="evenodd" d="M12.2773 8.21936L8.25201 12L12.2773 15.7806C12.5742 16.0596 12.5742 16.5118 12.2773 16.7908C11.9803 17.0697 11.4987 17.0697 11.2017 16.7908L6.78214 12.6398C6.40595 12.2864 6.40595 11.7136 6.78214 11.3602L11.2017 7.20921C11.4987 6.93026 11.9803 6.93026 12.2773 7.20921C12.5742 7.48815 12.5742 7.94042 12.2773 8.21936ZM17.2773 8.21936L13.252 12L17.2773 15.7806C17.5742 16.0596 17.5742 16.5118 17.2773 16.7908C16.9803 17.0697 16.4987 17.0697 16.2017 16.7908L11.7821 12.6398C11.406 12.2864 11.406 11.7136 11.7821 11.3602L16.2017 7.20921C16.4987 6.93026 16.9803 6.93026 17.2773 7.20921C17.5742 7.48815 17.5742 7.94042 17.2773 8.21936Z" clip-rule="evenodd"/></svg>