<svg xmlns="http://www.w3.org/2000/svg" width="24" height="24" viewBox="0 0 24 24"><path d="M4.75 4.57776C4.75 3.53801 5.75353 2.79311 6.74876 3.09415L11.7539 4.60809C11.9144 4.65663 12.0856 4.65663 12.2461 4.60809L17.2512 3.09415C18.2465 2.79311 19.25 3.53801 19.25 4.57776V15.6638C19.25 16.3671 18.7765 16.9823 18.0966 17.1622L12.6013 18.6167C12.2072 18.721 11.7928 18.721 11.3987 18.6167L5.90342 17.1622C5.22353 16.9823 4.75 16.3671 4.75 15.6638V4.57776Z"/><path d="M3.25 11.5C3.25 11.0858 2.91421 10.75 2.5 10.75C2.08579 10.75 1.75 11.0858 1.75 11.5V17.7666C1.75 18.8341 2.46955 19.7675 3.50194 20.0392L11.4019 22.1182C11.794 22.2213 12.206 22.2213 12.5981 22.1182L20.4981 20.0392C21.5304 19.7675 22.25 18.8341 22.25 17.7666V11.5C22.25 11.0858 21.9142 10.75 21.5 10.75C21.0858 10.75 20.75 11.0858 20.75 11.5V17.7666C20.75 18.1527 20.4897 18.4903 20.1163 18.5886L12.2163 20.6675C12.0745 20.7049 11.9255 20.7049 11.7837 20.6675L3.88368 18.5886C3.51026 18.4903 3.25 18.1527 3.25 17.7666V11.5Z"/></svg>