<svg xmlns="http://www.w3.org/2000/svg" width="24" height="24" viewBox="0 0 24 24"><path fill-rule="evenodd" d="M5.41549 3.00439C4.08172 3.00439 3.00049 4.08563 3.00049 5.41939V8.297V12.8396C3.00049 13.2538 3.33627 13.5896 3.75049 13.5896C4.1647 13.5896 4.50049 13.2538 4.50049 12.8396V8.297V5.41939C4.50049 4.91405 4.91015 4.50439 5.41549 4.50439H18.5842C19.0895 4.50439 19.4992 4.91405 19.4992 5.41939V18.5807C19.4992 19.086 19.0895 19.4957 18.5842 19.4957H5.41549C4.91015 19.4957 4.50049 19.086 4.50049 18.5807V17.4201H4.96288C6.70951 17.4201 8.41393 16.8833 9.84532 15.8824L11.5236 14.7088C12.7029 13.8841 14.1073 13.4418 15.5464 13.4418H17.0797C17.4939 13.4418 17.8297 13.1061 17.8297 12.6918C17.8297 12.2776 17.4939 11.9418 17.0797 11.9418H15.5464C13.7998 11.9418 12.0954 12.4787 10.664 13.4796L8.98574 14.6531C7.80635 15.4778 6.402 15.9201 4.96288 15.9201H4.30549C3.58476 15.9201 3.00049 16.5044 3.00049 17.2251V18.5807C3.00049 19.9145 4.08172 20.9957 5.41549 20.9957H18.5842C19.918 20.9957 20.9992 19.9145 20.9992 18.5807V5.41939C20.9992 4.08563 19.918 3.00439 18.5842 3.00439H5.41549ZM8.00085 8.93703C8.00085 8.43078 8.41125 8.02039 8.9175 8.02039C9.42375 8.02039 9.83415 8.43078 9.83415 8.93703C9.83415 9.44328 9.42375 9.85368 8.9175 9.85368C8.41125 9.85368 8.00085 9.44328 8.00085 8.93703ZM8.9175 6.52039C7.58282 6.52039 6.50085 7.60236 6.50085 8.93703C6.50085 10.2717 7.58282 11.3537 8.9175 11.3537C10.2522 11.3537 11.3341 10.2717 11.3341 8.93703C11.3341 7.60236 10.2522 6.52039 8.9175 6.52039Z" clip-rule="evenodd"/></svg>