<svg xmlns="http://www.w3.org/2000/svg" width="24" height="24" viewBox="0 0 24 24"><path fill-rule="evenodd" d="M4.5 5.25C4.5 4.83579 4.83579 4.5 5.25 4.5H18.75C19.1642 4.5 19.5 4.83579 19.5 5.25V11.75C19.5 12.1642 19.8358 12.5 20.25 12.5C20.6642 12.5 21 12.1642 21 11.75V5.25C21 4.00736 19.9926 3 18.75 3H5.25C4.00736 3 3 4.00736 3 5.25V17.75C3 18.9926 4.00736 20 5.25 20H9.75C10.1642 20 10.5 19.6642 10.5 19.25C10.5 18.8358 10.1642 18.5 9.75 18.5H5.25C4.83579 18.5 4.5 18.1642 4.5 17.75V5.25ZM13.5 14C12.6716 14 12 14.6716 12 15.5V19.5C12 20.3284 12.6716 21 13.5 21H20.5C21.3284 21 22 20.3284 22 19.5V15.5C22 14.6716 21.3284 14 20.5 14H13.5ZM6.75 11H9.93934L6.21967 7.28033C5.92678 6.98744 5.92678 6.51256 6.21967 6.21967C6.51256 5.92678 6.98744 5.92678 7.28033 6.21967L11 9.93934V6.75C11 6.33579 11.3358 6 11.75 6C12.1642 6 12.5 6.33579 12.5 6.75V11.25C12.5 11.9404 11.9404 12.5 11.25 12.5H6.75C6.33579 12.5 6 12.1642 6 11.75C6 11.3358 6.33579 11 6.75 11Z" clip-rule="evenodd"/></svg>