<svg xmlns="http://www.w3.org/2000/svg" width="24" height="24" viewBox="0 0 24 24"><path fill-rule="evenodd" d="M4 5C4 4.58579 4.33579 4.25 4.75 4.25H19.25C19.6642 4.25 20 4.58579 20 5C20 5.41421 19.6642 5.75 19.25 5.75H4.75C4.33579 5.75 4 5.41421 4 5ZM4 12C4 11.5858 4.33579 11.25 4.75 11.25H19.25C19.6642 11.25 20 11.5858 20 12C20 12.4142 19.6642 12.75 19.25 12.75H4.75C4.33579 12.75 4 12.4142 4 12ZM4.75 18.25C4.33579 18.25 4 18.5858 4 19C4 19.4142 4.33579 19.75 4.75 19.75H19.25C19.6642 19.75 20 19.4142 20 19C20 18.5858 19.6642 18.25 19.25 18.25H4.75Z" clip-rule="evenodd"/></svg>