<svg xmlns="http://www.w3.org/2000/svg" width="24" height="24" viewBox="0 0 24 24"><g><g><path fill-rule="evenodd" d="M15.4814 14.4376C15.2439 14.7769 14.7762 14.8594 14.4369 14.6218L11.5699 12.6143C11.2306 12.3767 11.1481 11.909 11.3857 11.5697C11.6233 11.2304 12.0909 11.148 12.4302 11.3855L15.2973 13.3931C15.6366 13.6306 15.719 14.0983 15.4814 14.4376Z" clip-rule="evenodd"/><path fill-rule="evenodd" d="M12 12.75C11.5858 12.75 11.25 12.4142 11.25 12V8.5C11.25 8.08579 11.5858 7.75 12 7.75C12.4142 7.75 12.75 8.08579 12.75 8.5V12C12.75 12.4142 12.4142 12.75 12 12.75Z" clip-rule="evenodd"/><path fill-rule="evenodd" d="M12 19.5C16.1421 19.5 19.5 16.1421 19.5 12C19.5 7.85786 16.1421 4.5 12 4.5C7.85786 4.5 4.5 7.85786 4.5 12C4.5 16.1421 7.85786 19.5 12 19.5ZM12 21C16.9706 21 21 16.9706 21 12C21 7.02944 16.9706 3 12 3C7.02944 3 3 7.02944 3 12C3 16.9706 7.02944 21 12 21Z" clip-rule="evenodd"/></g></g></svg>