<svg xmlns="http://www.w3.org/2000/svg" width="24" height="24" viewBox="0 0 24 24"><path d="M10.8968 3.76015C11.5817 3.37487 12.4181 3.37487 13.103 3.76015L19.5929 7.4107C20.4424 7.88858 20.4424 9.11176 19.5929 9.58964L13.103 13.2402C12.4181 13.6255 11.5817 13.6255 10.8968 13.2402L4.40694 9.58964C3.55738 9.11176 3.55737 7.88858 4.40694 7.4107L10.8968 3.76015Z"/><path d="M3.83814 12.1472C4.03306 11.7817 4.48736 11.6435 4.85285 11.8384L11.647 15.4619C11.8676 15.5796 12.1323 15.5796 12.3528 15.4619L19.147 11.8384C19.5124 11.6435 19.9667 11.7817 20.1617 12.1472C20.3566 12.5127 20.2183 12.967 19.8528 13.1619L13.0587 16.7855C12.397 17.1384 11.6028 17.1384 10.9411 16.7855L4.14696 13.1619C3.78148 12.967 3.64322 12.5127 3.83814 12.1472Z"/><path d="M4.85285 15.3384C4.48736 15.1435 4.03306 15.2817 3.83814 15.6472C3.64322 16.0127 3.78148 16.467 4.14696 16.6619L10.9411 20.2855C11.6028 20.6384 12.397 20.6384 13.0587 20.2855L19.8528 16.6619C20.2183 16.467 20.3566 16.0127 20.1617 15.6472C19.9667 15.2817 19.5124 15.1435 19.147 15.3384L12.3528 18.9619C12.1323 19.0796 11.8676 19.0796 11.647 18.9619L4.85285 15.3384Z"/></svg>