<svg xmlns="http://www.w3.org/2000/svg" width="24" height="24" viewBox="0 0 24 24"><path d="M12.2358 5.84615C13.1554 5.84615 14.3081 5.20534 14.9946 4.35092C15.6163 3.5766 16.0696 2.49523 16.0696 1.41386C16.0696 1.267 16.0567 1.12015 16.0308 1C15.0076 1.04005 13.7771 1.70756 13.0388 2.60203C12.456 3.2829 11.9249 4.35092 11.9249 5.44565C11.9249 5.60585 11.9508 5.76605 11.9638 5.81945C12.0285 5.8328 12.1321 5.84615 12.2358 5.84615ZM8.99769 22C10.2541 22 10.811 21.1322 12.3782 21.1322C13.9714 21.1322 14.3211 21.9733 15.7199 21.9733C17.0929 21.9733 18.0125 20.665 18.8803 19.3833C19.8517 17.9148 20.2532 16.473 20.2791 16.4062C20.1885 16.3795 17.5592 15.2715 17.5592 12.1608C17.5592 9.46408 19.6315 8.2492 19.7481 8.15575C18.3752 6.12651 16.2898 6.07311 15.7199 6.07311C14.1786 6.07311 12.9222 7.03433 12.1321 7.03433C11.2773 7.03433 10.1504 6.12651 8.81635 6.12651C6.2777 6.12651 3.7002 8.28925 3.7002 12.3744C3.7002 14.911 4.65867 17.5944 5.83733 19.3299C6.8476 20.7985 7.72836 22 8.99769 22Z"/></svg>