<svg xmlns="http://www.w3.org/2000/svg" width="24" height="24" viewBox="0 0 24 24"><path fill-rule="evenodd" d="M22 12C22 17.5228 17.5228 22 12 22C6.47715 22 2 17.5228 2 12C2 6.47715 6.47715 2 12 2C17.5228 2 22 6.47715 22 12ZM12 7C12.5523 7 13 7.44772 13 8V12.5C13 13.0523 12.5523 13.5 12 13.5C11.4477 13.5 11 13.0523 11 12.5V8C11 7.44772 11.4477 7 12 7ZM12 17.5C12.6904 17.5 13.25 16.9404 13.25 16.25C13.25 15.5596 12.6904 15 12 15C11.3096 15 10.75 15.5596 10.75 16.25C10.75 16.9404 11.3096 17.5 12 17.5Z" clip-rule="evenodd"/></svg>