<svg xmlns="http://www.w3.org/2000/svg" width="24" height="24" viewBox="0 0 24 24"><g><g><path fill-rule="evenodd" d="M9.34445 4H4.1C4.04477 4 4 4.04477 4 4.1V9.34444C4 9.39967 4.04477 9.44444 4.1 9.44444H9.34444C9.39967 9.44444 9.44444 9.39967 9.44444 9.34445V4.1C9.44444 4.04477 9.39967 4 9.34445 4ZM4.1 2.5C3.21634 2.5 2.5 3.21634 2.5 4.1V9.34444C2.5 10.2281 3.21634 10.9444 4.1 10.9444H9.34444C10.2281 10.9444 10.9444 10.2281 10.9444 9.34445V4.1C10.9444 3.21634 10.2281 2.5 9.34445 2.5H4.1Z" clip-rule="evenodd"/><path fill-rule="evenodd" d="M9.34445 14.5557H4.1C4.04477 14.5557 4 14.6004 4 14.6557V19.9001C4 19.9553 4.04477 20.0001 4.1 20.0001H9.34444C9.39967 20.0001 9.44444 19.9553 9.44444 19.9001V14.6557C9.44444 14.6004 9.39967 14.5557 9.34445 14.5557ZM4.1 13.0557C3.21634 13.0557 2.5 13.772 2.5 14.6557V19.9001C2.5 20.7838 3.21634 21.5001 4.1 21.5001H9.34444C10.2281 21.5001 10.9444 20.7838 10.9444 19.9001V14.6557C10.9444 13.772 10.2281 13.0557 9.34445 13.0557H4.1Z" clip-rule="evenodd"/><path fill-rule="evenodd" d="M19.9001 4H14.6557C14.6004 4 14.5557 4.04477 14.5557 4.1V9.34444C14.5557 9.39967 14.6004 9.44444 14.6557 9.44444H19.9001C19.9553 9.44444 20.0001 9.39967 20.0001 9.34445V4.1C20.0001 4.04477 19.9553 4 19.9001 4ZM14.6557 2.5C13.772 2.5 13.0557 3.21634 13.0557 4.1V9.34444C13.0557 10.2281 13.772 10.9444 14.6557 10.9444H19.9001C20.7838 10.9444 21.5001 10.2281 21.5001 9.34445V4.1C21.5001 3.21634 20.7838 2.5 19.9001 2.5H14.6557Z" clip-rule="evenodd"/><path fill-rule="evenodd" d="M14 21.25C14.4142 21.25 14.75 20.9142 14.75 20.5V14.75L16.25 14.75V17.5C16.25 17.9142 16.5858 18.25 17 18.25H20.5C20.6989 18.25 20.8897 18.171 21.0303 18.0303C21.171 17.8897 21.25 17.6989 21.25 17.5V14C21.25 13.5858 20.9142 13.25 20.5 13.25C20.0858 13.25 19.75 13.5858 19.75 14V16.75H17.75V14C17.75 13.8011 17.671 13.6103 17.5303 13.4697C17.3897 13.329 17.1989 13.25 17 13.25L14 13.25C13.5858 13.25 13.25 13.5858 13.25 14V20.5C13.25 20.9142 13.5858 21.25 14 21.25ZM16.25 20.5C16.25 20.9142 16.5858 21.25 17 21.25H20.5C20.9142 21.25 21.25 20.9142 21.25 20.5C21.25 20.0858 20.9142 19.75 20.5 19.75H17C16.5858 19.75 16.25 20.0858 16.25 20.5Z" clip-rule="evenodd"/><path d="M7.77786 6.72206C7.77786 7.30503 7.30527 7.77762 6.7223 7.77762C6.13934 7.77762 5.66675 7.30503 5.66675 6.72206C5.66675 6.13909 6.13934 5.6665 6.7223 5.6665C7.30527 5.6665 7.77786 6.13909 7.77786 6.72206Z"/><path d="M7.77786 17.2777C7.77786 17.8607 7.30527 18.3333 6.7223 18.3333C6.13934 18.3333 5.66675 17.8607 5.66675 17.2777C5.66675 16.6948 6.13934 16.2222 6.7223 16.2222C7.30527 16.2222 7.77786 16.6948 7.77786 17.2777Z"/><path d="M18.3333 6.72206C18.3333 7.30503 17.8607 7.77762 17.2777 7.77762C16.6948 7.77762 16.2222 7.30503 16.2222 6.72206C16.2222 6.13909 16.6948 5.6665 17.2777 5.6665C17.8607 5.6665 18.3333 6.13909 18.3333 6.72206Z"/></g></g></svg>