<svg xmlns="http://www.w3.org/2000/svg" width="24" height="24" viewBox="0 0 24 24"><path fill-rule="evenodd" d="M12 1.75C10.8838 1.75 9.77846 1.96986 8.74719 2.39702C7.71592 2.82419 6.77889 3.45029 5.98959 4.23959C5.20029 5.02889 4.57419 5.96592 4.14702 6.99719C3.71986 8.02846 3.5 9.13377 3.5 10.25C3.5 11.9378 4.27473 13.6531 5.20765 14.9256C5.67898 15.5685 6.21249 16.1289 6.75009 16.5363C7.26455 16.9263 7.88006 17.25 8.5 17.25H15.5C16.1201 17.25 16.7357 16.926 17.2501 16.5359C17.7876 16.1282 18.3211 15.5676 18.7924 14.9246C19.7252 13.652 20.5 11.9367 20.5 10.25C20.5 9.13376 20.2801 8.02846 19.853 6.99719C19.4258 5.96592 18.7997 5.02889 18.0104 4.23959C17.2211 3.45029 16.2841 2.82419 15.2528 2.39702C14.2215 1.96986 13.1162 1.75 12 1.75ZM9.32122 3.78284C10.1705 3.43106 11.0807 3.25 12 3.25C12.9193 3.25 13.8295 3.43106 14.6788 3.78284C15.5281 4.13463 16.2997 4.65024 16.9497 5.30025C17.5998 5.95026 18.1154 6.72194 18.4672 7.57122C18.8189 8.4205 19 9.33075 19 10.25C19 11.5133 18.3998 12.923 17.5826 14.0379C17.1789 14.5886 16.7436 15.0374 16.3437 15.3407C15.9206 15.6615 15.6299 15.75 15.5 15.75H8.5C8.36994 15.75 8.0792 15.6615 7.65616 15.3409C7.25626 15.0378 6.82103 14.5893 6.41735 14.0387C5.60027 12.9242 5 11.5145 5 10.25C5 9.33075 5.18106 8.4205 5.53284 7.57122C5.88463 6.72194 6.40024 5.95026 7.05025 5.30025C7.70026 4.65024 8.47194 4.13463 9.32122 3.78284ZM8.0498 19C8.0498 18.5858 8.38559 18.25 8.7998 18.25H15.1998C15.614 18.25 15.9498 18.5858 15.9498 19C15.9498 19.4142 15.614 19.75 15.1998 19.75H8.7998C8.38559 19.75 8.0498 19.4142 8.0498 19ZM9.25 21.5C9.25 21.0858 9.58579 20.75 10 20.75H14C14.4142 20.75 14.75 21.0858 14.75 21.5C14.75 21.9142 14.4142 22.25 14 22.25H10C9.58579 22.25 9.25 21.9142 9.25 21.5Z" clip-rule="evenodd"/></svg>
