<svg xmlns="http://www.w3.org/2000/svg" width="24" height="24" viewBox="0 0 24 24"><path fill-rule="evenodd" d="M12.0001 21.3332C6.84542 21.3332 2.66675 17.1545 2.66675 11.9998C2.66675 6.84518 6.84542 2.6665 12.0001 2.6665C17.1547 2.6665 21.3334 6.84518 21.3334 11.9998C21.3334 17.1545 17.1547 21.3332 12.0001 21.3332ZM11.3393 10.0454C11.6717 10.4308 11.9487 10.8162 12.1149 11.2566C12.1703 11.2016 12.7797 10.2657 12.8351 9.54996C12.8905 9.16459 12.9609 7.93341 12.3919 7.18267C11.9487 6.68719 11.1732 6.41192 10.5084 6.63214C9.62202 6.85235 9.01264 7.7332 9.17884 8.66911C10.0652 8.94438 10.7854 9.43986 11.3393 10.0454ZM10.0098 11.5869C10.453 11.5319 10.9516 11.4768 11.4501 11.5869C11.4501 11.5319 10.9662 10.651 10.3422 10.1005C9.67741 9.60502 9.01264 9.12762 8.12628 9.32975C7.40611 9.43986 6.40308 10.1005 6.57515 11.4218C6.68594 12.0274 7.12913 12.5228 7.7385 12.7431C8.34787 12.1375 9.17884 11.697 10.0098 11.5869ZM12.7243 11.7521C12.7797 11.7521 13.8876 11.8072 14.5524 11.5869C15.2726 11.3117 15.9641 10.9062 16.3251 10.0454C16.4359 9.77018 16.5546 8.79763 15.8819 8.17363C15.1618 7.45794 14.1646 7.45794 13.4445 8.00847C13.666 8.83427 13.5071 9.9751 13.3337 10.5409C13.2312 10.8889 13.0013 11.4218 12.7243 11.7521ZM11.2839 12.3026C11.2285 12.3026 9.9544 12.3577 9.45582 12.5228C8.73566 12.7981 8.00926 13.1905 7.6831 14.0643C7.57231 14.3396 7.47402 15.3241 8.12628 15.9361C8.79105 16.5968 9.84361 16.5968 10.5638 16.0463C10.2693 15.2344 10.3976 14.2845 10.6192 13.5689C10.7854 13.0734 11.007 12.633 11.2839 12.3026ZM16.3251 11.3117C15.6604 11.9173 14.8848 12.3026 13.9984 12.5228C13.5552 12.5779 13.0567 12.6329 12.5581 12.5228C12.5581 12.5779 13.1121 13.5138 13.666 13.9542C14.3308 14.4497 15.051 14.725 15.8819 14.725C16.6021 14.6149 17.5602 14.0323 17.4331 12.6329C17.3777 12.0274 16.8791 11.5319 16.3251 11.3117ZM12.6689 13.9542C12.2862 13.582 12.0595 13.1835 11.8933 12.7981C11.8379 12.8532 11.2285 13.7891 11.1732 14.5048C11.1178 14.8901 11.072 16.0105 11.6717 16.817C12.1149 17.3125 12.8905 17.5877 13.5552 17.3675C14.4416 17.0923 15.051 16.2665 14.8848 15.3306C13.9984 15.0553 13.2486 14.5425 12.6689 13.9542Z" clip-rule="evenodd"/></svg>