<svg xmlns="http://www.w3.org/2000/svg" width="24" height="24" viewBox="0 0 24 24"><path fill-rule="evenodd" d="M12 20.5C16.6944 20.5 20.5 16.6944 20.5 12C20.5 7.30558 16.6944 3.5 12 3.5C7.30558 3.5 3.5 7.30558 3.5 12C3.5 16.6944 7.30558 20.5 12 20.5ZM12 22C17.5228 22 22 17.5228 22 12C22 6.47715 17.5228 2 12 2C6.47715 2 2 6.47715 2 12C2 17.5228 6.47715 22 12 22ZM13.1101 7.2099C13.1101 7.82294 12.6132 8.3199 12.0001 8.3199C11.3871 8.3199 10.8901 7.82294 10.8901 7.2099C10.8901 6.59687 11.3871 6.0999 12.0001 6.0999C12.6132 6.0999 13.1101 6.59687 13.1101 7.2099ZM11.8006 11.4177C11.8104 11.4137 11.8165 11.4127 11.8193 11.4124C11.8222 11.412 11.8248 11.4121 11.8274 11.4126C11.8332 11.4135 11.843 11.417 11.8532 11.4255C11.8634 11.434 11.8685 11.4428 11.8704 11.4483C11.8713 11.4507 11.8718 11.4531 11.8719 11.456C11.872 11.4588 11.872 11.4648 11.8694 11.4748L10.7173 15.9822C10.4046 17.2057 11.6581 18.2461 12.8491 17.7518C12.8491 17.7518 13.9399 17.1948 14.3104 16.9038C14.681 16.6127 14.7691 16.4263 14.6443 16.1387C14.4762 15.7513 14.1022 15.6262 13.716 15.7865L12.2591 16.3912C12.2493 16.3953 12.2433 16.3963 12.2405 16.3966C12.2375 16.3969 12.235 16.3968 12.2324 16.3964C12.2265 16.3954 12.2168 16.3919 12.2065 16.3834C12.1963 16.3749 12.1913 16.3661 12.1893 16.3607C12.1889 16.3594 12.1886 16.3582 12.1883 16.357C12.1881 16.3557 12.1879 16.3544 12.1878 16.3529C12.1877 16.3501 12.1878 16.3442 12.1903 16.3341L13.3424 11.8267C13.6551 10.6032 12.493 9.43943 11.2106 10.0572L9.75373 10.6619C9.36747 10.8222 9.16018 11.1962 9.34936 11.6324C9.52907 12.0468 9.94745 11.9412 10.4302 11.8194C10.4556 11.8129 10.4812 11.8065 10.507 11.8L11.8006 11.4177Z" clip-rule="evenodd"/></svg>