<svg xmlns="http://www.w3.org/2000/svg" width="24" height="24" viewBox="0 0 24 24"><path fill-rule="evenodd" d="M12 2.25C12.4142 2.25 12.75 2.58579 12.75 3V16.3693L18.5119 11.4306C18.8264 11.161 19.2999 11.1974 19.5695 11.5119C19.839 11.8264 19.8026 12.2999 19.4881 12.5694L12.497 18.5618C12.4441 18.6087 12.3859 18.647 12.3243 18.6765L12.3138 18.6814C12.2244 18.7227 12.1254 18.7468 12.0212 18.7497C11.98 18.7509 11.9386 18.7487 11.8976 18.7431C11.8419 18.7355 11.7882 18.7217 11.7371 18.7026C11.717 18.6951 11.6972 18.6867 11.6777 18.6774C11.6154 18.6478 11.5565 18.6092 11.503 18.5618L4.51192 12.5694C4.19743 12.2999 4.161 11.8264 4.43057 11.5119C4.70014 11.1974 5.17361 11.161 5.48811 11.4306L11.25 16.3693V3C11.25 2.58579 11.5858 2.25 12 2.25ZM5 20.25C4.58579 20.25 4.25 20.5858 4.25 21C4.25 21.4142 4.58579 21.75 5 21.75H19C19.4142 21.75 19.75 21.4142 19.75 21C19.75 20.5858 19.4142 20.25 19 20.25H5Z" clip-rule="evenodd"/></svg>