<svg xmlns="http://www.w3.org/2000/svg" width="24" height="24" viewBox="0 0 24 24"><path d="M9.72766 5.02316C9.90712 5.39632 9.75022 5.84427 9.37722 6.02392L9.37551 6.02475L9.36418 6.03033C9.35339 6.03568 9.33626 6.04426 9.31346 6.05594C9.26784 6.07931 9.19973 6.11499 9.11442 6.16199C8.94331 6.25627 8.70566 6.39462 8.44301 6.56899C7.90316 6.92738 7.31854 7.39828 6.95929 7.91009C6.50598 8.55587 6.15357 9.1179 5.90475 9.82402C5.7072 10.3847 5.56608 11.0628 5.51653 11.9707H9.04707C10.124 11.9707 10.9971 12.8437 10.9971 13.9207V18.0207C10.9971 19.0976 10.124 19.9707 9.04707 19.9707H5.74707C4.78057 19.9707 3.99707 19.1872 3.99707 18.2207V12.7207C3.99707 11.2953 4.1719 10.2283 4.49001 9.32551C4.80779 8.42368 5.25455 7.72785 5.73156 7.04829C6.25124 6.30794 7.0198 5.71336 7.61338 5.3193C7.91744 5.11745 8.19158 4.95783 8.39058 4.8482C8.49032 4.79324 8.57184 4.75049 8.62958 4.72091C8.65847 4.70611 8.68146 4.69458 8.69787 4.68645L8.71747 4.6768L8.72342 4.6739L8.7254 4.67295L8.72644 4.67244C9.09973 4.49292 9.54814 4.64987 9.72766 5.02316Z"/><path d="M18.3768 6.02412L18.3755 6.02475L18.3642 6.03033C18.3534 6.03568 18.3363 6.04426 18.3135 6.05594C18.2678 6.07931 18.1997 6.11499 18.1144 6.16199C17.9433 6.25627 17.7057 6.39462 17.443 6.56899C16.9032 6.92738 16.3185 7.39828 15.9593 7.91009C15.506 8.55587 15.1536 9.1179 14.9047 9.82402C14.7072 10.3847 14.5661 11.0628 14.5165 11.9707H18.0471C19.124 11.9707 19.9971 12.8437 19.9971 13.9207L19.9971 18.0207C19.9971 19.0976 19.124 19.9707 18.0471 19.9707H14.7471C13.7806 19.9707 12.9971 19.1872 12.9971 18.2207L12.9971 12.7207C12.9971 11.2953 13.1719 10.2283 13.49 9.32551C13.8078 8.42368 14.2545 7.72785 14.7316 7.04829C15.2512 6.30794 16.0198 5.71336 16.6134 5.3193C16.9174 5.11745 17.1916 4.95783 17.3906 4.8482C17.4903 4.79324 17.5718 4.75049 17.6296 4.72091C17.6585 4.70611 17.6815 4.69458 17.6979 4.68645L17.7175 4.6768L17.7234 4.6739L17.7254 4.67295L17.7264 4.67244C18.0997 4.49292 18.5481 4.64987 18.7277 5.02316C18.9071 5.39624 18.7496 5.84439 18.3768 6.02412Z"/></svg>