<svg xmlns="http://www.w3.org/2000/svg" width="24" height="24" viewBox="0 0 24 24"><path fill-rule="evenodd" d="M8.27953 15.3679C7.41788 15.719 6.5615 16.2109 5.80881 16.9169C6.50936 14.518 7.83556 12.0089 9.59899 9.84938C12.072 6.821 15.2902 4.6161 18.6478 4.2914C18.3967 5.3545 17.5745 7.09657 15.0641 8.8897C14.7347 9.12499 14.6514 9.57921 14.876 9.91603C15.3143 10.5735 15.4733 11.1256 15.4846 11.5737C15.4959 12.0184 15.3633 12.4155 15.126 12.7715C14.6335 13.5102 13.6953 14.0531 12.8181 14.2724C12.5333 14.3436 12.2046 14.3999 11.808 14.4678L11.808 14.4678C11.5385 14.5139 11.2375 14.5654 10.8977 14.6306C10.1038 14.783 9.18942 14.9972 8.27953 15.3679ZM19.5 2.75C15.2099 2.75 11.2676 5.43443 8.43716 8.90062C5.60419 12.3698 3.75 16.782 3.75 20.5C3.75 20.8721 4.02289 21.188 4.39109 21.2421C4.75929 21.2961 5.11143 21.072 5.21837 20.7155C5.88874 18.4809 7.31669 17.3799 8.84547 16.7571C9.62308 16.4403 10.4275 16.2483 11.1804 16.1037C11.4401 16.0539 11.7087 16.0075 11.9705 15.9623L11.9705 15.9623H11.9705C12.4213 15.8845 12.8519 15.8101 13.1819 15.7276C14.3047 15.4469 15.6165 14.7398 16.374 13.6035C16.7617 13.022 17.0041 12.3254 16.9841 11.5357C16.9691 10.942 16.8066 10.3274 16.4862 9.69931C19.6858 7.19826 20.25 4.68992 20.25 3.5C20.25 3.08579 19.9142 2.75 19.5 2.75ZM8.25238 19.75C7.83817 19.75 7.50238 20.0858 7.50238 20.5C7.50238 20.9142 7.83817 21.25 8.25238 21.25H18.5C18.9142 21.25 19.25 20.9142 19.25 20.5C19.25 20.0858 18.9142 19.75 18.5 19.75H8.25238Z" clip-rule="evenodd"/></svg>