<svg xmlns="http://www.w3.org/2000/svg" width="24" height="24" viewBox="0 0 24 24"><path fill-rule="evenodd" d="M17.8661 19.6339C18.3543 20.122 19.1457 20.122 19.6339 19.6339C20.122 19.1457 20.122 18.3543 19.6339 17.8661L13.7678 12L19.6339 6.13388C20.122 5.64573 20.122 4.85427 19.6339 4.36612C19.1457 3.87796 18.3543 3.87796 17.8661 4.36612L12 10.2322L6.13388 4.36612C5.64573 3.87796 4.85427 3.87796 4.36612 4.36612C3.87796 4.85427 3.87796 5.64573 4.36612 6.13388L10.2322 12L4.36612 17.8661C3.87796 18.3543 3.87796 19.1457 4.36612 19.6339C4.85427 20.122 5.64573 20.122 6.13389 19.6339L12 13.7678L17.8661 19.6339Z" clip-rule="evenodd"/></svg>