<svg xmlns="http://www.w3.org/2000/svg" width="24" height="24" viewBox="0 0 24 24"><path fill-rule="evenodd" d="M13.3045 8.24077L4.1518 17.3935C3.85891 17.6864 3.85891 18.1613 4.1518 18.4542L4.21194 18.5143C4.50483 18.8072 4.97971 18.8072 5.2726 18.5143L14.4292 9.3577C14.4055 9.33915 14.3827 9.31897 14.3609 9.29717L13.3045 8.24077ZM14.3652 7.18011L15.4216 8.23651C15.4434 8.25831 15.4636 8.28112 15.4821 8.30478L17.0144 6.77253C17.3073 6.47964 17.3073 6.00476 17.0144 5.71187L16.9542 5.65173C16.6613 5.35883 16.1865 5.35883 15.8936 5.65173L14.3652 7.18011ZM3.09114 16.3328C2.21246 17.2115 2.21246 18.6361 3.09114 19.5148L3.15128 19.575C4.02996 20.4536 5.45458 20.4536 6.33326 19.575L18.075 7.83319C18.9537 6.95451 18.9537 5.52989 18.075 4.65121L18.0149 4.59107C17.1362 3.71239 15.7116 3.71239 14.8329 4.59107L3.09114 16.3328ZM3.75037 6.74928L5.50494 7.24419L5.99985 8.99913L6.49476 7.24457L8.24932 6.74966L6.49476 6.25475L5.99985 4.50019L5.50494 6.25437L3.75037 6.74928ZM17.2504 11.9993L19.0049 12.4942L19.4998 14.2491L19.9948 12.4946L21.7493 11.9997L19.9948 11.5048L19.4998 9.75019L19.0049 11.5044L17.2504 11.9993ZM13.5899 17.909L11.2502 17.249L13.5899 16.589L14.2499 14.2498L14.9099 16.5895L17.2496 17.2495L14.9099 17.9095L14.2499 20.2492L13.5899 17.909Z" clip-rule="evenodd"/></svg>