<svg xmlns="http://www.w3.org/2000/svg" width="16" height="16" viewBox="0 0 16 16"><path fill-rule="evenodd" d="M10.971 2.14951C10.4221 1.4909 9.3501 1.87901 9.3501 2.73636V13.4998C9.3501 13.8588 9.64111 14.1498 10.0001 14.1498C10.3591 14.1498 10.6501 13.8588 10.6501 13.4998V3.79511L12.0008 5.41584C12.2306 5.69162 12.6405 5.72887 12.9162 5.49905C13.192 5.26923 13.2293 4.85936 12.9994 4.58358L10.971 2.14951Z" clip-rule="evenodd"/><path d="M5.50011 1.8501C5.8591 1.8501 6.15011 2.14111 6.15011 2.5001V13.2636C6.15011 14.1209 5.07811 14.509 4.52925 13.8504L2.50077 11.4162C2.27095 11.1404 2.30821 10.7306 2.58399 10.5008C2.85977 10.2709 3.26964 10.3082 3.49946 10.584L4.85011 12.2048V2.5001C4.85011 2.14111 5.14113 1.8501 5.50011 1.8501Z"/></svg>