<svg xmlns="http://www.w3.org/2000/svg" width="24" height="24" viewBox="0 0 24 24"><path fill-rule="evenodd" d="M10.4395 19.3565C7.04627 18.6347 4.5 15.6193 4.5 12.0104C4.5 7.86253 7.86253 4.5 12.0104 4.5C15.6193 4.5 18.6347 7.04626 19.3565 10.4395C18.4934 10.0351 17.53 9.80907 16.5147 9.80907C12.8113 9.80907 9.80908 12.8113 9.80908 16.5147C9.80908 17.53 10.0351 18.4934 10.4395 19.3565ZM18.9809 11.929L11.929 18.9809C11.5334 18.2471 11.3091 17.4077 11.3091 16.5147C11.3091 13.6397 13.6397 11.3091 16.5147 11.3091C17.4077 11.3091 18.2471 11.5334 18.9809 11.929ZM12.4822 20.5491L20.5491 12.4822C20.8511 12.1801 21.0277 11.7692 20.9965 11.3432C20.655 6.67844 16.7623 3 12.0104 3C7.0341 3 3 7.0341 3 12.0104C3 16.7623 6.67844 20.655 11.3432 20.9965C11.7692 21.0277 12.1801 20.8511 12.4822 20.5491Z" clip-rule="evenodd"/></svg>