<svg xmlns="http://www.w3.org/2000/svg" width="24" height="24" viewBox="0 0 24 24"><path fill-rule="evenodd" d="M13.2017 3.55C12.9531 3.21863 12.483 3.15147 12.1517 3.4C11.8203 3.64853 11.7531 4.11863 12.0017 4.45L13.1378 5.96488H12.0157C11.3253 5.96488 10.7657 6.52451 10.7657 7.21486V12.4027C10.7657 13.093 11.3254 13.6527 12.0157 13.6527H14.5665V15.1955H10.6333C10.2191 15.1955 9.88331 15.5313 9.88331 15.9455C9.88331 16.3598 10.2191 16.6955 10.6333 16.6955H14.5665V19.7464C14.5665 20.1606 14.9023 20.4964 15.3165 20.4964C15.7307 20.4964 16.0665 20.1606 16.0665 19.7464V16.6955H19.9996C20.4138 16.6955 20.7496 16.3598 20.7496 15.9455C20.7496 15.5313 20.4138 15.1955 19.9996 15.1955H16.0665V13.6527H18.6174C19.3077 13.6527 19.8674 13.093 19.8674 12.4027V7.21487C19.8674 6.52451 19.3077 5.96488 18.6174 5.96488H17.4953L18.6314 4.45C18.8799 4.11863 18.8128 3.64853 18.4814 3.4C18.15 3.15147 17.6799 3.21863 17.4314 3.55L15.8025 5.7219C15.7461 5.79714 15.7059 5.87954 15.6814 5.96488H14.9517C14.9272 5.87954 14.887 5.79714 14.8306 5.7219L13.2017 3.55ZM16.0665 12.1527H18.3674V10.7228H16.0665V12.1527ZM18.3674 9.22281V7.46488H16.0665V9.22281H18.3674ZM14.5665 7.46488H12.2657V9.22281H14.5665V7.46488ZM12.2657 10.7228V12.1527H14.5665V10.7228H12.2657ZM5 4.33595C4.58579 4.33595 4.25 4.67174 4.25 5.08595C4.25 5.50016 4.58579 5.83595 5 5.83595H8.05083V8.13678H5.54298C5.1676 8.13678 4.85004 8.41429 4.79974 8.78629L4.25677 12.8022C4.22777 13.0167 4.29284 13.2332 4.43526 13.3962C4.57768 13.5592 4.78357 13.6527 5 13.6527H8.05083V17.0314C8.05083 17.5168 7.65732 17.9103 7.17191 17.9103H5C4.58579 17.9103 4.25 18.2461 4.25 18.6603C4.25 19.0745 4.58579 19.4103 5 19.4103H7.17191C8.48575 19.4103 9.55083 18.3453 9.55083 17.0314V12.9027C9.55083 12.4885 9.21505 12.1527 8.80083 12.1527H5.85823L6.1984 9.63678H8.80083C9.21505 9.63678 9.55083 9.30099 9.55083 8.88678V5.08595C9.55083 4.67174 9.21505 4.33595 8.80083 4.33595H5Z" clip-rule="evenodd"/></svg>