<svg xmlns="http://www.w3.org/2000/svg" width="24" height="24" viewBox="0 0 24 24"><path fill-rule="evenodd" d="M4.93325 9.87164C5.13169 9.83716 5.3358 9.81919 5.5441 9.81919C6.72619 9.81919 7.68446 10.7775 7.68446 11.9595V15.8894C7.68446 17.0714 6.72619 18.0297 5.5441 18.0297C3.58689 18.0297 2.00024 16.4431 2.00024 14.4859V13.363C2.00024 12.2085 2.55234 11.1829 3.40692 10.5359C3.52915 5.89479 7.32978 2.17001 12.0004 2.17001C16.671 2.17001 20.4717 5.8949 20.5938 10.5361C21.4483 11.1831 22.0002 12.2086 22.0002 13.363V14.4859C22.0002 16.1961 20.7888 17.6233 19.1773 17.9563C17.639 20.2838 14.999 21.8192 12.0003 21.8192H11.5091C11.1021 21.8192 10.7722 21.4893 10.7722 21.0824C10.7722 20.6754 11.1021 20.3455 11.5091 20.3455H12.0003C14.1969 20.3455 16.1612 19.3512 17.4678 17.7882C16.7833 17.4311 16.316 16.7148 16.316 15.8894V11.9595C16.316 10.7775 17.2743 9.81919 18.4564 9.81919C18.6648 9.81919 18.869 9.83718 19.0675 9.87169C18.6274 6.36025 15.6311 3.6437 12.0004 3.6437C8.36964 3.6437 5.37339 6.36022 4.93325 9.87164ZM3.47393 13.363C3.47393 12.2197 4.40078 11.2929 5.5441 11.2929C5.91229 11.2929 6.21077 11.5913 6.21077 11.9595V15.8894C6.21077 16.2576 5.91229 16.556 5.5441 16.556C4.40078 16.556 3.47393 15.6292 3.47393 14.4859V13.363ZM17.7897 11.9595C17.7897 11.5913 18.0882 11.2929 18.4564 11.2929C19.5997 11.2929 20.5266 12.2197 20.5266 13.363V14.4859C20.5266 15.6292 19.5997 16.556 18.4564 16.556C18.0882 16.556 17.7897 16.2576 17.7897 15.8894V11.9595Z" clip-rule="evenodd"/></svg>