<svg xmlns="http://www.w3.org/2000/svg" width="16" height="16" viewBox="0 0 16 16"><path fill-rule="evenodd" d="M14.5589 2.70088C14.668 1.91566 13.824 1.35015 13.1393 1.7496L2.15155 8.1591C1.50391 8.53689 1.52436 9.48889 2.20418 9.82881L2.94408 10.1988C2.97667 10.2151 2.92675 10.1901 2.95936 10.2064L5.35002 11.4017V14C5.35002 14.359 5.64103 14.65 6.00002 14.65C6.359 14.65 6.65002 14.359 6.65002 14V11.0141C6.65021 11.005 6.65021 10.996 6.65002 10.9869V10.9359L10.4596 7.12629C10.7135 6.87245 10.7135 6.46089 10.4596 6.20705C10.2058 5.95321 9.79424 5.95321 9.5404 6.20705L5.64945 10.098L3.36546 8.956L13.1722 3.23541L11.8101 13.0426L8.27241 11.4098C7.94646 11.2594 7.56028 11.4017 7.40984 11.7276C7.25941 12.0536 7.40169 12.4397 7.72763 12.5902L11.6937 14.4207C12.2726 14.6879 12.9451 14.3203 13.0328 13.6888L14.5589 2.70088Z" clip-rule="evenodd"/></svg>