<svg xmlns="http://www.w3.org/2000/svg" width="24" height="24" viewBox="0 0 24 24"><path fill-rule="evenodd" d="M7.25 3.99976C7.25 3.58554 6.91421 3.24976 6.5 3.24976C6.08579 3.24976 5.75 3.58554 5.75 3.99976V20.9998C5.75 21.414 6.08579 21.7498 6.5 21.7498C6.91421 21.7498 7.25 21.414 7.25 20.9998L7.25 12.75H7.25931H7.2829H7.30646H7.32998H7.35348H7.37694H7.40037H7.42376H7.44712H7.47045H7.49375H7.51702H7.54025H7.56345H7.58662H7.60976H7.63287H7.65594H7.67899H7.702H7.72499H7.74794H7.77086H7.79376H7.81662H7.83945H7.86225H7.88503H7.90777H7.93048H7.95317H7.97583H7.99845H8.02105H8.04362H8.06616H8.08867H8.11116H8.13361H8.15604H8.17844H8.20082H8.22316H8.24548H8.26777H8.29003H8.31227H8.33448H8.35667H8.37882H8.40096H8.42306H8.44514H8.46719H8.48922H8.51123H8.5332H8.55515H8.57708H8.59898H8.62086H8.64271H8.66454H8.68635H8.70813H8.72988H8.75161H8.77332H8.795H8.81667H8.8383H8.85992H8.88151H8.90308H8.92463H8.94615H8.96765H8.98913H9.01059H9.03202H9.05344H9.07483H9.0962H9.11755H9.13888H9.16018H9.18147H9.20273H9.22398H9.2452H9.26641H9.28759H9.30875H9.3299H9.35102H9.37213H9.39321H9.41428H9.43533H9.45635H9.47736H9.49835H9.51933H9.54028H9.56122H9.58213H9.60303H9.62391H9.64478H9.66563H9.68646H9.70727H9.72806H9.74884H9.7696H9.79035H9.81108H9.83179H9.85249H9.87317H9.89383H9.91448H9.93512H9.95573H9.97634H9.99693H10.0175H10.0381H10.0586H10.0791H10.0996H10.1201H10.1406H10.1611H10.1816H10.202H10.2224H10.2429H10.2633H10.2837H10.304H10.3244H10.3448H10.3651H10.3854H10.4058H10.4261H10.4464H10.4666H10.4869H10.5072H10.5274H10.5477H10.5679H10.5881H10.6083H10.6285H10.6487H10.6689H10.689H10.7092H10.7293H10.7495H10.7696H10.7897H10.8098H10.8299H10.85H10.8701H10.8902H10.9102H10.9303H10.9503H10.9704H10.9904H11.0104H11.0304H11.0504H11.0704H11.0904H11.1104H11.1304H11.1504H11.1704H11.1903H11.2103H11.2302H11.2502H11.2701H11.2901H11.31H11.3299H11.3498H11.3697H11.3896H11.4096H11.4295H11.4493H11.4692H11.4891H11.509H11.5289H11.5488H11.5686H11.5885H11.6084H11.6282H11.6481H11.668H11.6878H11.7077H11.7275H11.7474H11.7672H11.7871H11.8069H11.8267H11.8466H11.8664H11.8863H11.9061H11.9259H11.9458H11.9656H11.9854H12.0053H12.0251H12.0449H12.0648H12.0846H12.1044H12.1243H12.1441H12.164H12.1838H12.2036H12.2235H12.2433H12.2632H12.283H12.3029H12.3227H12.3426H12.3624H12.3823H12.4022H12.422H12.4419H12.4618H12.4817H12.5015H12.5214H12.5413H12.5612H12.5811H12.601H12.6209H12.6408H12.6607H12.6806H12.7006H12.7205H12.7404H12.7604H12.7803H12.8003H12.8202H12.8402H12.8601H12.8801H12.9001H12.9201H12.9401H12.9601H12.9801H13.0001H13.0201H13.0402H13.0602H13.0803H13.1003H13.1204H13.1405H13.1605H13.1806H13.2007H13.2208H13.241H13.2611H13.2812H13.3014H13.3215H13.3417H13.3619H13.382H13.4022H13.4224H13.4427H13.4629H13.4831H13.5034H13.5236H13.5439H13.5642H13.5845H13.6048H13.6251H13.6454H13.6658H13.6861H13.7065H13.7269H13.7473H13.7677H13.7881H13.8085H13.829H13.8494H13.8699H13.8904H13.9109H13.9314H13.9519H13.9725H13.993H14.0136H14.0342H14.0548H14.0754H14.0961H14.1167H14.1374H14.1581H14.1788H14.1995H14.2202H14.2409H14.2617H14.2825H14.3033H14.3241H14.3449H14.3658H14.3866H14.4075H14.4284H14.4493H14.4703H14.4912H14.5122H14.5332H14.5542H14.5752H14.5963H14.6173H14.6384H14.6595H14.6806H14.7018H14.723H14.7441H14.7653H14.7866H14.8078H14.8291H14.8504H14.8717H14.893H14.9143H14.9357H14.9571H14.9785H15H15.0214H15.0429H15.0644H15.0859H15.1075H15.129H15.1506H15.1722H15.1939H15.2155H15.2372H15.2589H15.2807H15.3024H15.3242H15.346H15.3678H15.3897H15.4116H15.4335H15.4554H15.4773H15.4993H15.5213H15.5433H15.5654H15.5875H15.6096H15.6317H15.6539H15.6761H15.6983H15.7205H15.7428H15.7651H15.7874H15.8097H15.8321H15.8545H15.8769H15.8994H15.9219H15.9444H15.9669H15.9895H16.0121H16.0347H16.0574H16.0801H16.1028H16.1255H16.1483H16.1711H16.1939H16.2168H16.2397H16.2626H16.2856H16.3085H16.3316H16.3546H16.3777H16.4008H16.4239H16.4471H16.4703H16.4935H16.5168H16.5401H16.5634H16.5868H16.6102H16.6336H16.6571H16.6806H16.7041H16.7276H16.75V20.9998C16.75 21.414 17.0858 21.7498 17.5 21.7498C17.9142 21.7498 18.25 21.414 18.25 20.9998L18.25 12.0008V12V11.9992V3.99976C18.25 3.58554 17.9142 3.24976 17.5 3.24976C17.0858 3.24976 16.75 3.58554 16.75 3.99976V11.25H16.7276H16.7041H16.6806H16.6571H16.6336H16.6102H16.5868H16.5634H16.5401H16.5168H16.4935H16.4703H16.4471H16.4239H16.4008H16.3777H16.3546H16.3316H16.3085H16.2856H16.2626H16.2397H16.2168H16.1939H16.1711H16.1483H16.1255H16.1028H16.0801H16.0574H16.0347H16.0121H15.9895H15.9669H15.9444H15.9219H15.8994H15.8769H15.8545H15.8321H15.8097H15.7874H15.7651H15.7428H15.7205H15.6983H15.6761H15.6539H15.6317H15.6096H15.5875H15.5654H15.5433H15.5213H15.4993H15.4773H15.4554H15.4335H15.4116H15.3897H15.3678H15.346H15.3242H15.3024H15.2807H15.2589H15.2372H15.2155H15.1939H15.1722H15.1506H15.129H15.1075H15.0859H15.0644H15.0429H15.0214H15H14.9785H14.9571H14.9357H14.9143H14.893H14.8717H14.8504H14.8291H14.8078H14.7866H14.7653H14.7441H14.723H14.7018H14.6806H14.6595H14.6384H14.6173H14.5963H14.5752H14.5542H14.5332H14.5122H14.4912H14.4703H14.4493H14.4284H14.4075H14.3866H14.3658H14.3449H14.3241H14.3033H14.2825H14.2617H14.2409H14.2202H14.1995H14.1788H14.1581H14.1374H14.1167H14.0961H14.0754H14.0548H14.0342H14.0136H13.993H13.9725H13.9519H13.9314H13.9109H13.8904H13.8699H13.8494H13.829H13.8085H13.7881H13.7677H13.7473H13.7269H13.7065H13.6861H13.6658H13.6454H13.6251H13.6048H13.5845H13.5642H13.5439H13.5236H13.5034H13.4831H13.4629H13.4427H13.4224H13.4022H13.382H13.3619H13.3417H13.3215H13.3014H13.2812H13.2611H13.241H13.2208H13.2007H13.1806H13.1605H13.1405H13.1204H13.1003H13.0803H13.0602H13.0402H13.0201H13.0001H12.9801H12.9601H12.9401H12.9201H12.9001H12.8801H12.8601H12.8402H12.8202H12.8003H12.7803H12.7604H12.7404H12.7205H12.7006H12.6806H12.6607H12.6408H12.6209H12.601H12.5811H12.5612H12.5413H12.5214H12.5015H12.4817H12.4618H12.4419H12.422H12.4022H12.3823H12.3624H12.3426H12.3227H12.3029H12.283H12.2632H12.2433H12.2235H12.2036H12.1838H12.164H12.1441H12.1243H12.1044H12.0846H12.0648H12.0449H12.0251H12.0053H11.9854H11.9656H11.9458H11.9259H11.9061H11.8863H11.8664H11.8466H11.8267H11.8069H11.7871H11.7672H11.7474H11.7275H11.7077H11.6878H11.668H11.6481H11.6282H11.6084H11.5885H11.5686H11.5488H11.5289H11.509H11.4891H11.4692H11.4493H11.4295H11.4096H11.3896H11.3697H11.3498H11.3299H11.31H11.2901H11.2701H11.2502H11.2302H11.2103H11.1903H11.1704H11.1504H11.1304H11.1104H11.0904H11.0704H11.0504H11.0304H11.0104H10.9904H10.9704H10.9503H10.9303H10.9102H10.8902H10.8701H10.85H10.8299H10.8098H10.7897H10.7696H10.7495H10.7293H10.7092H10.689H10.6689H10.6487H10.6285H10.6083H10.5881H10.5679H10.5477H10.5274H10.5072H10.4869H10.4666H10.4464H10.4261H10.4058H10.3854H10.3651H10.3448H10.3244H10.304H10.2837H10.2633H10.2429H10.2224H10.202H10.1816H10.1611H10.1406H10.1201H10.0996H10.0791H10.0586H10.0381H10.0175H9.99693H9.97634H9.95573H9.93512H9.91448H9.89383H9.87317H9.85249H9.83179H9.81108H9.79035H9.7696H9.74884H9.72806H9.70727H9.68646H9.66563H9.64478H9.62391H9.60303H9.58213H9.56122H9.54028H9.51933H9.49835H9.47736H9.45635H9.43533H9.41428H9.39321H9.37213H9.35102H9.3299H9.30875H9.28759H9.26641H9.2452H9.22398H9.20273H9.18147H9.16018H9.13888H9.11755H9.0962H9.07483H9.05344H9.03202H9.01059H8.98913H8.96765H8.94615H8.92463H8.90308H8.88151H8.85992H8.8383H8.81667H8.795H8.77332H8.75161H8.72988H8.70813H8.68635H8.66454H8.64271H8.62086H8.59898H8.57708H8.55515H8.5332H8.51123H8.48922H8.46719H8.44514H8.42306H8.40096H8.37882H8.35667H8.33448H8.31227H8.29003H8.26777H8.24548H8.22316H8.20082H8.17844H8.15604H8.13361H8.11116H8.08867H8.06616H8.04362H8.02105H7.99845H7.97583H7.95317H7.93048H7.90777H7.88503H7.86225H7.83945H7.81662H7.79376H7.77086H7.74794H7.72499H7.702H7.67899H7.65594H7.63287H7.60976H7.58662H7.56345H7.54025H7.51702H7.49375H7.47045H7.44712H7.42376H7.40037H7.37694H7.35348H7.32998H7.30646H7.2829H7.25931H7.25L7.25 3.99976Z" clip-rule="evenodd"/></svg>