<svg xmlns="http://www.w3.org/2000/svg" width="24" height="24" viewBox="0 0 24 24"><path fill-rule="evenodd" d="M19.1658 6.64332C19.9136 7.06142 20.3742 7.83407 20.3742 8.67026V15.3298C20.3742 16.1659 19.9136 16.9386 19.1658 17.3567L13.2105 20.6864C12.4628 21.1045 11.5415 21.1045 10.7937 20.6864L4.83843 17.3567C4.09066 16.9386 3.63 16.1659 3.63 15.3298V8.67026C3.63 7.83407 4.09066 7.06142 4.83843 6.64332L10.7937 3.31358C11.5415 2.89547 12.4628 2.89547 13.2105 3.31358L19.1658 6.64332ZM17.2693 8.07182C17.8192 8.37843 18.1578 8.94504 18.1578 9.55825V14.4419C18.1578 15.0551 17.8192 15.6217 17.2693 15.9283L12.8904 18.3701C12.3406 18.6767 11.6632 18.6767 11.1134 18.3701L6.73449 15.9283C6.18466 15.6217 5.84595 15.0551 5.84595 14.4419V9.55825C5.84595 8.94504 6.18466 8.37843 6.73449 8.07182L11.1134 5.63001C11.6632 5.3234 12.3406 5.3234 12.8904 5.63001L17.2693 8.07182ZM11.9391 7.37494L9.64272 11.2271L7.75319 9.63537L7.75317 14.3968C7.75317 14.7644 8.05962 15.0623 8.43764 15.0623L15.4408 15.0624C15.8188 15.0624 16.1253 14.7645 16.1253 14.397L16.1252 9.63537L14.2357 11.2271L11.9391 7.37494Z" clip-rule="evenodd"/></svg>