<svg xmlns="http://www.w3.org/2000/svg" width="24" height="24" viewBox="0 0 24 24"><path fill-rule="evenodd" d="M10 5C10 4.44772 10.4477 4 11 4H21C21.5523 4 22 4.44772 22 5C22 5.55228 21.5523 6 21 6H11C10.4477 6 10 5.55228 10 5ZM14 11C13.4477 11 13 11.4477 13 12C13 12.5523 13.4477 13 14 13H21C21.5523 13 22 12.5523 22 12C22 11.4477 21.5523 11 21 11H14ZM14 18C13.4477 18 13 18.4477 13 19C13 19.5523 13.4477 20 14 20H21C21.5523 20 22 19.5523 22 19C22 18.4477 21.5523 18 21 18H14ZM5.665 18.25C5.15966 18.25 4.75 17.8403 4.75 17.335L4.75 12.7502H10C10.4142 12.7502 10.75 12.4144 10.75 12.0002C10.75 11.586 10.4142 11.2502 10 11.2502L4.75 11.2502L4.75 6.665C4.75 6.15966 5.15966 5.75 5.665 5.75H7C7.41421 5.75 7.75 5.41421 7.75 5C7.75 4.58579 7.41421 4.25 7 4.25L5.665 4.25C4.33123 4.25 3.25 5.33123 3.25 6.665V12.0002V17.335C3.25 18.6688 4.33123 19.75 5.665 19.75H10C10.4142 19.75 10.75 19.4142 10.75 19C10.75 18.5858 10.4142 18.25 10 18.25H5.665Z" clip-rule="evenodd"/></svg>