<svg xmlns="http://www.w3.org/2000/svg" width="24" height="24" viewBox="0 0 24 24"><path fill-rule="evenodd" d="M12.0028 2C9.73774 2 5.71387 3.36379 5.71387 9.32523V10.5203C5.71387 10.5203 3.55005 14.9604 3.55005 17.4742C3.55005 18.1392 3.72005 18.4993 3.83131 18.4993C3.94506 18.4993 4.73259 18.0155 5.57886 16.4267C5.57886 16.4267 5.39886 18.6243 7.48267 20.3943C7.48267 20.3943 5.71387 20.8893 5.71387 21.5756C5.71387 22.2619 9.79149 22.0069 12.0028 21.5756C14.2416 22.0006 18.2905 22.2631 18.2905 21.5756C18.2905 20.8881 16.5217 20.3943 16.5217 20.3943C18.6068 18.6243 18.4268 16.4267 18.4268 16.4267C19.2718 18.0155 20.0606 18.4993 20.1731 18.4993C20.2843 18.4993 20.4556 18.1392 20.4556 17.4742C20.4556 14.9604 18.2905 10.5203 18.2905 10.5203V9.32523C18.2905 3.36379 14.2679 2 12.0028 2Z" clip-rule="evenodd"/></svg>