<svg xmlns="http://www.w3.org/2000/svg" width="24" height="24" viewBox="0 0 24 24"><path fill-rule="evenodd" d="M7.25004 7.75001C7.25004 5.12596 9.37602 3 12 3C14.6241 3 16.75 5.12596 16.75 7.75001C16.75 10.3741 14.6241 12.5001 12 12.5001C9.37603 12.5001 7.25004 10.374 7.25004 7.75001ZM12 1.5C8.54759 1.5 5.75004 4.29754 5.75004 7.75001C5.75004 10.0076 6.94631 11.9853 8.73972 13.0837C5.7257 14.2859 3.54385 17.2185 3.25267 20.6873C3.21802 21.1 3.52454 21.4627 3.93731 21.4974C4.35007 21.532 4.71277 21.2255 4.74741 20.8127C5.0707 16.9615 8.12955 14 11.7869 14C12.9957 14 14.1331 14.3208 15.1288 14.888C15.4888 15.093 15.9467 14.9674 16.1517 14.6075C16.3567 14.2476 16.2312 13.7896 15.8712 13.5846C15.6159 13.4392 15.3526 13.3069 15.0823 13.1887C16.9742 12.1145 18.25 10.0816 18.25 7.75001C18.25 4.29754 15.4525 1.5 12 1.5ZM15.5404 16.2904C15.7943 16.0365 16.2058 16.0365 16.4597 16.2904L18.5 18.3308L20.5404 16.2904C20.7943 16.0365 21.2058 16.0365 21.4597 16.2904C21.7135 16.5442 21.7135 16.9558 21.4597 17.2096L19.4193 19.25L21.4597 21.2904C21.7135 21.5442 21.7135 21.9558 21.4597 22.2096C21.2058 22.4635 20.7943 22.4635 20.5404 22.2096L18.5 20.1692L16.4597 22.2096C16.2058 22.4635 15.7943 22.4635 15.5404 22.2096C15.2866 21.9558 15.2866 21.5442 15.5404 21.2904L17.5808 19.25L15.5404 17.2096C15.2866 16.9558 15.2866 16.5442 15.5404 16.2904Z" clip-rule="evenodd"/></svg>