<svg xmlns="http://www.w3.org/2000/svg" width="24" height="24" viewBox="0 0 24 24"><path fill-rule="evenodd" d="M16.5971 3.30103C17.9154 2.89542 19.25 3.88113 19.25 5.26038V15.5039C19.25 16.4309 18.628 17.2425 17.7329 17.4835L12.5329 18.8835C12.1839 18.9774 11.8161 18.9774 11.4671 18.8835L6.26705 17.4835C5.372 17.2425 4.75 16.4309 4.75 15.5039V5.26038C4.75 3.88113 6.08462 2.89542 7.40288 3.30103L11.8383 4.66577C11.9436 4.69819 12.0564 4.69819 12.1617 4.66577L16.5971 3.30103ZM17.75 5.26038C17.75 4.89034 17.3919 4.62588 17.0383 4.7347L12.6029 6.09943C12.21 6.2203 11.79 6.2203 11.3971 6.09943L6.96175 4.7347C6.60807 4.62588 6.25 4.89034 6.25 5.26038V15.5039C6.25 15.7526 6.41688 15.9704 6.65701 16.035L11.857 17.435C11.9507 17.4602 12.0493 17.4602 12.143 17.435L17.343 16.035C17.5831 15.9704 17.75 15.7526 17.75 15.5039V5.26038Z" clip-rule="evenodd"/><path fill-rule="evenodd" d="M2.5 10.75C2.91421 10.75 3.25 11.0858 3.25 11.5V17.7203C3.25 18.1337 3.52864 18.4952 3.92841 18.6004L11.7684 20.6635C11.9202 20.7035 12.0798 20.7035 12.2316 20.6635L20.0716 18.6004C20.4714 18.4952 20.75 18.1337 20.75 17.7203V11.5C20.75 11.0858 21.0858 10.75 21.5 10.75C21.9142 10.75 22.25 11.0858 22.25 11.5V17.7203C22.25 18.8151 21.5121 19.7724 20.4533 20.051L12.6133 22.1141C12.2113 22.2199 11.7887 22.2199 11.3867 22.1141L3.54667 20.051C2.48793 19.7724 1.75 18.8151 1.75 17.7203V11.5C1.75 11.0858 2.08579 10.75 2.5 10.75Z" clip-rule="evenodd"/></svg>