<svg xmlns="http://www.w3.org/2000/svg" width="24" height="24" viewBox="0 0 24 24"><path fill-rule="evenodd" d="M12 5.75C7.85786 5.75 4.5 9.10786 4.5 13.25C4.5 17.3921 7.85786 20.75 12 20.75C16.1421 20.75 19.5 17.3921 19.5 13.25C19.5 9.10786 16.1421 5.75 12 5.75ZM3 13.25C3 8.27944 7.02944 4.25 12 4.25C16.9706 4.25 21 8.27944 21 13.25C21 18.2206 16.9706 22.25 12 22.25C7.02944 22.25 3 18.2206 3 13.25Z" clip-rule="evenodd"/><path fill-rule="evenodd" d="M7.62412 3.08405C7.85388 3.4287 7.76075 3.89435 7.4161 4.12412L4.4161 6.12412C4.07146 6.35388 3.60581 6.26075 3.37604 5.9161C3.14628 5.57146 3.23941 5.10581 3.58405 4.87604L6.58405 2.87604C6.9287 2.64628 7.39435 2.73941 7.62412 3.08405Z" clip-rule="evenodd"/><path fill-rule="evenodd" d="M16.3759 3.08405C16.1461 3.4287 16.2392 3.89435 16.5839 4.12412L19.5839 6.12412C19.9285 6.35388 20.3942 6.26075 20.624 5.9161C20.8537 5.57146 20.7606 5.10581 20.4159 4.87604L17.4159 2.87604C17.0713 2.64628 16.6056 2.73941 16.3759 3.08405Z" clip-rule="evenodd"/><path fill-rule="evenodd" d="M11.0795 13.8364C11.1432 13.963 11.2416 14.0691 11.3623 14.1422C11.2366 14.0663 11.1409 13.9591 11.0795 13.8364ZM11 13.5C11 13.5332 11.0022 13.5658 11.0063 13.5979C11.0073 13.6054 11.0084 13.6129 11.0097 13.6204C11.0023 13.5754 10.999 13.5297 11 13.4838V13.5Z" clip-rule="evenodd"/><path d="M13.973 15.6496C14.3318 15.8567 14.7905 15.7338 14.9976 15.3751C15.2047 15.0164 15.0818 14.5577 14.723 14.3506L12.5 13.0671V10.5C12.5 10.0858 12.1642 9.75 11.75 9.75C11.3358 9.75 11 10.0858 11 10.5V13.4838V13.5C11 13.5332 11.0022 13.5658 11.0063 13.5979C11.0073 13.6054 11.0084 13.6129 11.0097 13.6204C11.0219 13.6954 11.0454 13.7683 11.0795 13.8364C11.1432 13.963 11.2416 14.0691 11.3623 14.1422L11.3798 14.1524L13.973 15.6496Z"/></svg>