<svg xmlns="http://www.w3.org/2000/svg" width="24" height="24" viewBox="0 0 24 24"><path fill-rule="evenodd" d="M19.25 5.94141L19.25 18.0586C19.25 18.4495 19.1311 18.7742 18.9753 18.9837L18.5568 4.75C18.6639 4.75032 18.82 4.80734 18.9756 5.01672C19.1313 5.22634 19.25 5.55079 19.25 5.94141ZM18.5564 4.75L18.5567 4.75L18.9753 18.9837C18.8194 19.1933 18.663 19.25 18.5559 19.25L5.44414 19.25C5.33705 19.25 5.18067 19.1933 5.02476 18.9837C4.86886 18.7742 4.75 18.4495 4.75 18.0586L4.75 15C4.75 14.5858 4.41421 14.25 4 14.25C3.58579 14.25 3.25 14.5858 3.25 15V18.0586C3.25 18.7399 3.45445 19.3859 3.82124 19.879C4.18802 20.3721 4.75371 20.75 5.44414 20.75L18.5559 20.75C19.2463 20.75 19.812 20.3721 20.1788 19.879C20.5456 19.3859 20.75 18.7399 20.75 18.0586L20.75 5.94141C20.75 5.26066 20.5459 4.61505 20.1796 4.12212C19.8134 3.62923 19.2485 3.2511 18.5588 3.25L18.558 3.25L18.5576 3.25L18.5563 3.25L18.5541 3.25L6.64916 3.25H5.44414C4.75369 3.25 4.188 3.62796 3.82123 4.12102C3.45445 4.61409 3.25 5.26016 3.25 5.94141V9.9C3.25 11.1979 4.30213 12.25 5.6 12.25H9.5H13.8264L11.4405 14.9257C11.1648 15.2349 11.1918 15.7091 11.5008 15.9849C11.8098 16.2607 12.2838 16.2337 12.5595 15.9245L16.0509 12.0091C16.3033 11.7362 16.3154 11.3223 16.0893 11.036C16.0685 11.0096 16.0457 10.9843 16.0208 10.9603L12.5254 7.52561C12.23 7.23529 11.7551 7.23944 11.4648 7.53489C11.1745 7.83034 11.1787 8.30519 11.4741 8.59551L13.6666 10.75L9.5 10.75L5.6 10.75C5.13056 10.75 4.75 10.3694 4.75 9.9L4.75 5.94141C4.75 5.55051 4.86885 5.22588 5.02477 5.01628C5.18068 4.80668 5.33707 4.75 5.44414 4.75L6.64916 4.75L18.5554 4.75H18.5564Z" clip-rule="evenodd"/></svg>