<svg xmlns="http://www.w3.org/2000/svg" width="16" height="16" viewBox="0 0 16 16"><path fill-rule="evenodd" d="M2.01685 3.33335C2.01685 2.97436 2.30786 2.68335 2.66685 2.68335H12.6668C13.0258 2.68335 13.3168 2.97436 13.3168 3.33335C13.3168 3.69233 13.0258 3.98335 12.6668 3.98335H2.66685C2.30786 3.98335 2.01685 3.69233 2.01685 3.33335ZM2.66685 5.36792C2.30786 5.36792 2.01685 5.65893 2.01685 6.01792C2.01685 6.3769 2.30786 6.66792 2.66685 6.66792H10.3335C10.6925 6.66792 10.9835 6.3769 10.9835 6.01792C10.9835 5.65893 10.6925 5.36792 10.3335 5.36792H2.66685ZM2.66685 12.0347C2.30786 12.0347 2.01685 12.3257 2.01685 12.6847C2.01685 13.0437 2.30786 13.3347 2.66685 13.3347H10.3335C10.6925 13.3347 10.9835 13.0437 10.9835 12.6847C10.9835 12.3257 10.6925 12.0347 10.3335 12.0347H2.66685ZM2.66685 9.3501C2.30786 9.3501 2.01685 9.64111 2.01685 10.0001C2.01685 10.3591 2.30786 10.6501 2.66685 10.6501H12.6668C13.0258 10.6501 13.3168 10.3591 13.3168 10.0001C13.3168 9.64111 13.0258 9.3501 12.6668 9.3501H2.66685Z" clip-rule="evenodd"/></svg>