<svg xmlns="http://www.w3.org/2000/svg" width="24" height="24" viewBox="0 0 24 24"><path fill-rule="evenodd" d="M20.6783 10.7968C20.736 10.6731 20.7606 10.5321 20.7423 10.3866C20.199 6.07502 16.4867 2.75 11.9991 2.75C7.51158 2.75 3.79926 6.07502 3.25596 10.3866C3.20418 10.7976 3.49535 11.1727 3.90631 11.2245C4.31728 11.2763 4.69241 10.9851 4.7442 10.5741C5.19265 7.01521 8.2648 4.25 11.9991 4.25C15.333 4.25 18.139 6.4539 19.0217 9.4589L16.2107 8.75288C15.8101 8.65226 15.4043 8.89755 15.3044 9.30074C15.2044 9.70393 15.4482 10.1123 15.8488 10.213L19.819 11.2101C20.1728 11.299 20.5306 11.1181 20.6783 10.7968ZM3.30542 13.2409C3.25947 13.3553 3.24113 13.4826 3.25764 13.6136C3.80094 17.9251 7.51326 21.2502 12.0008 21.2502C16.4883 21.2502 20.2007 17.9252 20.744 13.6136C20.7957 13.2026 20.5046 12.8275 20.0936 12.7757C19.6827 12.7239 19.3075 13.0151 19.2557 13.4261C18.8073 16.985 15.7351 19.7502 12.0008 19.7502C8.66676 19.7502 5.86054 17.546 4.9781 14.5407L7.78922 15.2468C8.18981 15.3474 8.59557 15.1021 8.69551 14.6989C8.79545 14.2957 8.55172 13.8873 8.15113 13.7867L4.18088 12.7895C3.81336 12.6972 3.44148 12.896 3.30542 13.2409Z" clip-rule="evenodd"/></svg>