<svg xmlns="http://www.w3.org/2000/svg" width="24" height="24" viewBox="0 0 24 24"><path fill-rule="evenodd" d="M9.65038 4.75C9.27105 4.75 8.93151 4.9853 8.79832 5.34048L8.19891 6.9389C8.01596 7.42678 7.54955 7.75 7.0285 7.75H4.66C4.15742 7.75 3.75 8.15742 3.75 8.66V18.34C3.75 18.8426 4.15742 19.25 4.66 19.25H19.34C19.8426 19.25 20.25 18.8426 20.25 18.34V8.66C20.25 8.15742 19.8426 7.75 19.34 7.75H18.8125H16.9715C16.4504 7.75 15.984 7.42678 15.8011 6.9389L15.2017 5.34048C15.0685 4.9853 14.7289 4.75 14.3496 4.75H9.65038ZM7.39383 4.81379C7.74656 3.87316 8.64579 3.25 9.65038 3.25H14.3496C15.3542 3.25 16.2534 3.87316 16.6062 4.81379L17.1448 6.25H18.8125H19.34C20.671 6.25 21.75 7.32899 21.75 8.66V18.34C21.75 19.671 20.671 20.75 19.34 20.75H4.66C3.32899 20.75 2.25 19.671 2.25 18.34V8.66C2.25 7.32899 3.32899 6.25 4.66 6.25H6.85525L7.39383 4.81379ZM11.9998 9.7C12.0634 9.7 12.1248 9.70011 12.1841 9.7008L11.8798 10.005C11.6065 10.2784 11.6065 10.7216 11.8798 10.995C12.1532 11.2683 12.5964 11.2683 12.8698 10.995L13.9948 9.86998C14.2681 9.59661 14.2681 9.15339 13.9948 8.88003C13.6655 8.55074 13.2548 8.41716 12.9155 8.35746C12.5881 8.29988 12.2552 8.29995 12.0197 8.3H12.0197L11.9998 8.3C9.54214 8.3 7.5498 10.2923 7.5498 12.75C7.5498 13.6298 7.80587 14.452 8.24778 15.1435C8.45596 15.4693 8.88881 15.5646 9.21457 15.3564C9.54033 15.1483 9.63565 14.7154 9.42747 14.3897C9.12513 13.9165 8.9498 13.3548 8.9498 12.75C8.9498 11.0655 10.3153 9.7 11.9998 9.7ZM16.0163 10.9697C15.8615 10.6155 15.4488 10.4538 15.0945 10.6086C14.7403 10.7633 14.5786 11.176 14.7334 11.5303C14.9222 11.9624 15.0498 12.3629 15.0498 12.75C15.0498 14.4345 13.6843 15.8 11.9998 15.8C11.9636 15.8 11.9275 15.7994 11.8916 15.7981L12.1779 15.4291C12.4149 15.1236 12.3593 14.6839 12.0539 14.4469C11.7484 14.21 11.3087 14.2655 11.0717 14.5709L10.101 15.8222C9.96524 15.9971 9.92029 16.226 9.97975 16.4393C10.0392 16.6526 10.1961 16.8251 10.4028 16.9046C10.8994 17.0956 11.4382 17.2 11.9998 17.2C14.4575 17.2 16.4498 15.2077 16.4498 12.75C16.4498 12.0705 16.2288 11.4563 16.0163 10.9697Z" clip-rule="evenodd"/></svg>