<svg xmlns="http://www.w3.org/2000/svg" width="24" height="24" viewBox="0 0 24 24"><path fill-rule="evenodd" d="M5.25 3.24963C5.66421 3.24963 6 3.58542 6 3.99963L6 11.3406H14.5645V3.99963C14.5645 3.58542 14.9002 3.24963 15.3145 3.24963C15.7287 3.24963 16.0645 3.58542 16.0645 3.99963L16.0645 12.0906V20.9996C16.0645 21.4138 15.7287 21.7496 15.3145 21.7496C14.9002 21.7496 14.5645 21.4138 14.5645 20.9996V12.8406H6L6 20.9996C6 21.4138 5.66421 21.7496 5.25 21.7496C4.83579 21.7496 4.5 21.4138 4.5 20.9996V3.99963C4.5 3.58542 4.83579 3.24963 5.25 3.24963ZM18.5113 15.8295H20.7224L20.7698 15.8371C20.8295 15.857 20.8724 15.9132 20.8724 15.9795V21.4795L20.8648 21.5269C20.8449 21.5865 20.7887 21.6295 20.7224 21.6295H19.5564L19.509 21.6218C19.4494 21.602 19.4064 21.5457 19.4064 21.4795V17.6465L19.3993 17.5759C19.3667 17.4164 19.2256 17.2965 19.0564 17.2965H18.2775L18.2324 17.2896C18.1616 17.2674 18.1149 17.1944 18.1304 17.117L18.3642 15.95L18.3831 15.9016C18.4097 15.8578 18.4577 15.8295 18.5113 15.8295Z" clip-rule="evenodd"/></svg>