<svg xmlns="http://www.w3.org/2000/svg" width="24" height="24" viewBox="0 0 24 24"><path fill-rule="evenodd" d="M4.5 7.25C4.5 6.17551 4.90677 5.58629 5.35184 5.24545C5.83217 4.87761 6.42607 4.75 6.80556 4.75H18.0495C17.9502 4.85742 17.8542 4.97428 17.7644 5.10195C17.3791 5.6498 17.1429 6.34383 17.1429 7.25C17.1429 8.15617 17.3791 8.8502 17.7644 9.39805C17.8542 9.52572 17.9502 9.64258 18.0495 9.75H6.80556C6.42607 9.75 5.83217 9.62239 5.35184 9.25455C4.90677 8.91371 4.5 8.32449 4.5 7.25ZM6.80556 3.25C6.16652 3.25 5.23265 3.44739 4.43983 4.05455C3.61175 4.68871 3 5.72449 3 7.25C3 8.77551 3.61175 9.81129 4.43983 10.4454C5.23265 11.0526 6.16652 11.25 6.80556 11.25H19.2238C19.6937 11.25 20.1311 10.9765 20.2833 10.5108C20.4388 10.0353 20.2352 9.54851 19.8327 9.27986C19.4771 9.04258 19.1956 8.82559 18.9913 8.53514C18.7994 8.26224 18.6429 7.87569 18.6429 7.25C18.6429 6.62431 18.7994 6.23776 18.9913 5.96486C19.1956 5.67441 19.4771 5.45742 19.8327 5.22014C20.2352 4.95149 20.4388 4.46468 20.2833 3.98919C20.1311 3.52353 19.6937 3.25 19.2238 3.25H6.80556ZM12.9621 20.75C13.3763 20.75 13.7121 20.4142 13.7121 20C13.7121 19.5858 13.3763 19.25 12.9621 19.25H6.16798C6.284 19.1482 6.39711 19.0382 6.50412 18.9192C7.0281 18.3366 7.39058 17.5604 7.39058 16.5C7.39058 15.4396 7.0281 14.6634 6.50412 14.0808C6.39711 13.9618 6.284 13.8518 6.16798 13.75H17.9567C18.3045 13.75 18.8472 13.8634 19.3177 14.1952C19.6562 14.4339 20.1242 14.353 20.3629 14.0145C20.6016 13.6759 20.5207 13.208 20.1822 12.9693C19.4224 12.4336 18.5665 12.25 17.9567 12.25H4.7369C4.28759 12.25 3.8386 12.5039 3.68439 12.9798C3.52234 13.48 3.76896 13.9627 4.17921 14.2049C4.66053 14.489 5.07471 14.7345 5.38878 15.0838C5.67425 15.4012 5.89058 15.8234 5.89058 16.5C5.89058 17.1766 5.67425 17.5988 5.38878 17.9162C5.07471 18.2655 4.66053 18.511 4.17921 18.7951C3.76896 19.0373 3.52234 19.52 3.68439 20.0202C3.8386 20.4961 4.28759 20.75 4.7369 20.75H12.9621ZM17.75 15.25C18.1642 15.25 18.5 15.5858 18.5 16V17.75L20.25 17.75C20.6642 17.75 21 18.0858 21 18.5C21 18.9143 20.6642 19.25 20.25 19.25L18.5 19.25V21C18.5 21.4142 18.1642 21.75 17.75 21.75C17.3358 21.75 17 21.4142 17 21V19.25L15.25 19.25C14.8358 19.25 14.5 18.9142 14.5 18.5C14.5 18.0858 14.8358 17.75 15.25 17.75L17 17.75V16C17 15.5858 17.3358 15.25 17.75 15.25Z" clip-rule="evenodd"/></svg>