<svg xmlns="http://www.w3.org/2000/svg" width="24" height="24" viewBox="0 0 24 24"><path d="M10.484 3.30684C11.1574 2.13926 12.8425 2.13926 13.5159 3.30684L15.8934 7.42913C15.9288 7.49057 15.9887 7.53407 16.0581 7.54878L20.7133 8.53608C22.0319 8.81572 22.5526 10.4183 21.6502 11.4196L18.4644 14.9546C18.4169 15.0073 18.394 15.0776 18.4015 15.1482L18.9011 19.8806C19.0425 21.2211 17.6793 22.2115 16.4482 21.6627L12.1017 19.7252C12.037 19.6963 11.9629 19.6963 11.8982 19.7252L7.55169 21.6627C6.32061 22.2115 4.95735 21.2211 5.09885 19.8806L5.59841 15.1482C5.60586 15.0776 5.58299 15.0073 5.5355 14.9546L2.34967 11.4196C1.44733 10.4183 1.96805 8.81572 3.28657 8.53608L7.94179 7.54878C8.01118 7.53407 8.07105 7.49057 8.10649 7.42913L10.484 3.30684Z"/></svg>