<svg xmlns="http://www.w3.org/2000/svg" width="24" height="24" viewBox="0 0 24 24"><path fill-rule="evenodd" d="M15.3333 16.5395L18.2336 19.6241C18.2561 19.6535 18.2809 19.6817 18.3082 19.7082C18.3192 19.7189 18.3304 19.7291 18.3418 19.7389C18.626 20.0319 19.0689 20.0193 19.3364 19.7083L19.3376 19.7069C19.345 19.6996 19.3524 19.6921 19.3596 19.6845L22.359 16.4937C22.6428 16.1918 22.6322 15.713 22.3353 15.4243C22.0384 15.1355 21.5677 15.1462 21.284 15.448L19.5723 17.2689L19.5723 7.55C19.5723 5.14756 17.6247 3.2 15.2223 3.2H10.9224C10.5082 3.2 10.1724 3.53579 10.1724 3.95C10.1724 4.36421 10.5082 4.7 10.9224 4.7L15.2223 4.7C16.7963 4.7 18.0723 5.97599 18.0723 7.55L18.0723 17.2754L16.3113 15.4025C16.0275 15.1007 15.5785 15.1105 15.3084 15.4245C15.0384 15.7385 15.0495 16.2377 15.3333 16.5395ZM8.66136 7.6105L5.75912 4.52394C5.73708 4.4952 5.71272 4.46773 5.68606 4.4418C5.6758 4.43182 5.66532 4.42219 5.65466 4.41292C5.37077 4.11826 4.92695 4.13007 4.65886 4.441C4.65068 4.44895 4.64263 4.45713 4.63473 4.46553L1.63525 7.65634C1.35149 7.9582 1.36213 8.43697 1.65901 8.72572C1.95588 9.01447 2.42658 9.00385 2.71033 8.70199L4.42236 6.88076L4.42236 16.6C4.42236 19.0024 6.36993 20.95 8.77237 20.95H13.0723C13.4865 20.95 13.8223 20.6142 13.8223 20.2C13.8223 19.7858 13.4865 19.45 13.0723 19.45H8.77237C7.19835 19.45 5.92236 18.174 5.92236 16.6L5.92236 6.87464L7.68338 8.74749C7.96717 9.04931 8.41616 9.03946 8.68622 8.72549C8.95628 8.41151 8.94515 7.91232 8.66136 7.6105Z" clip-rule="evenodd"/></svg>