<svg xmlns="http://www.w3.org/2000/svg" width="24" height="24" viewBox="0 0 24 24"><path fill-rule="evenodd" d="M3.62117 10.6108C4.3884 6.25968 8.53766 3.35433 12.8888 4.12155C17.1863 4.87932 18.9532 8.60021 18.4075 11.6949C18.1757 13.0097 17.5611 13.955 16.8132 14.6476C16.4478 14.9861 16.1165 15.0885 15.8498 15.0873C15.5754 15.086 15.2847 14.9744 15.0122 14.7367C14.4558 14.2513 14.0631 13.3035 14.2486 12.2464C14.2488 12.2456 14.2489 12.2448 14.249 12.244L14.5238 10.686C14.5238 10.6855 14.5239 10.6851 14.524 10.6845L15.0327 7.79973C15.1046 7.39181 14.8322 7.00281 14.4243 6.93088C14.0164 6.85896 13.6274 7.13133 13.5555 7.53925L13.5368 7.64495C13.4997 7.60965 13.4612 7.57481 13.4214 7.54048C12.9331 7.11923 12.2785 6.8063 11.4265 6.65607C8.95295 6.21992 6.80054 8.41636 6.3294 11.0883C5.85827 13.7603 7.12964 16.5604 9.60318 16.9966C10.5331 17.1605 11.3238 16.9584 11.9622 16.5455C12.578 16.1472 13.0178 15.5763 13.3278 15.0359C13.5229 15.3524 13.7583 15.6334 14.0262 15.8671C14.5222 16.2997 15.1495 16.5841 15.843 16.5873C16.5441 16.5905 17.2304 16.3057 17.8325 15.7481C18.7944 14.8572 19.5902 13.6261 19.8847 11.9554C20.5546 8.15646 18.3699 3.56489 13.1493 2.64434C7.98229 1.73327 3.05504 5.18336 2.14396 10.3504C1.23288 15.5173 4.68298 20.4446 9.84996 21.3557C13.2541 21.9559 16.5534 20.6626 18.668 18.2361C18.9402 17.9238 18.9076 17.4501 18.5954 17.1779C18.2831 16.9058 17.8093 16.9383 17.5372 17.2506C15.7536 19.2972 12.9754 20.3836 10.1104 19.8785C5.75929 19.1112 2.85395 14.962 3.62117 10.6108ZM13.0462 10.4276C13.046 10.4287 13.0462 10.4276 13.0462 10.4276C13.0505 10.3964 13.1164 9.92214 12.9405 9.41755C12.8498 9.15758 12.6978 8.89721 12.4416 8.67625C12.1863 8.45597 11.7912 8.24353 11.166 8.13328C9.8323 7.89811 8.19861 9.12567 7.80661 11.3488C7.41462 13.5719 8.52994 15.2842 9.86366 15.5193C10.4109 15.6158 10.8189 15.4986 11.1476 15.286C11.4955 15.061 11.7897 14.7043 12.0303 14.2831C12.2687 13.8657 12.4322 13.4242 12.5363 13.0797C12.5878 12.9094 12.6235 12.7672 12.6459 12.6696C12.6571 12.6209 12.6649 12.5836 12.6697 12.5598L12.6746 12.5346L12.6753 12.5309L13.0462 10.4276Z" clip-rule="evenodd"/></svg>