<svg xmlns="http://www.w3.org/2000/svg" width="24" height="24" viewBox="0 0 24 24"><g><g><path fill-rule="evenodd" d="M12 20.5C16.6944 20.5 20.5 16.6944 20.5 12C20.5 7.30558 16.6944 3.5 12 3.5C7.30558 3.5 3.5 7.30558 3.5 12C3.5 16.6944 7.30558 20.5 12 20.5ZM12 22C17.5228 22 22 17.5228 22 12C22 6.47715 17.5228 2 12 2C6.47715 2 2 6.47715 2 12C2 17.5228 6.47715 22 12 22Z" clip-rule="evenodd"/><path fill-rule="evenodd" d="M15.5303 8.46967C15.8232 8.76256 15.8232 9.23744 15.5303 9.53033L9.53033 15.5303C9.23744 15.8232 8.76256 15.8232 8.46967 15.5303C8.17678 15.2374 8.17678 14.7625 8.46967 14.4696L14.4696 8.46967C14.7625 8.17678 15.2374 8.17678 15.5303 8.46967Z" clip-rule="evenodd"/><path fill-rule="evenodd" d="M15.5303 15.5312C15.2374 15.8241 14.7626 15.8241 14.4697 15.5312L8.46975 9.53131C8.17685 9.23841 8.17685 8.76354 8.46975 8.47065C8.76264 8.17775 9.23751 8.17775 9.53041 8.47065L15.5303 14.4706C15.8232 14.7635 15.8232 15.2383 15.5303 15.5312Z" clip-rule="evenodd"/></g></g></svg>