<svg xmlns="http://www.w3.org/2000/svg" width="16" height="16" viewBox="0 0 16 16"><path d="M8.04756 3.4875C10.0277 3.49514 11.837 4.81922 12.3742 6.82389C12.4911 7.26026 12.5397 7.69883 12.5265 8.12826L14.5279 8.11935C14.5396 7.52176 14.4685 6.91253 14.306 6.30626C13.5301 3.41062 10.9167 1.49806 8.05647 1.48701L8.04756 3.4875Z"/><path d="M4.75168 2.37251C2.28014 3.81216 0.973083 6.77524 1.74897 9.6709C1.92129 10.314 2.18423 10.9086 2.52038 11.4446L4.25945 10.4509C4.00534 10.0618 3.80763 9.62652 3.68083 9.15327C3.14367 7.14857 4.04856 5.09721 5.75963 4.10052L4.75168 2.37251Z"/><path d="M5.6064 11.7818L4.61331 13.5197C6.08337 14.4268 7.90962 14.7495 9.70982 14.2671C11.6156 13.7565 13.0955 12.4499 13.8878 10.8008L12.1521 9.78837C11.6229 10.9991 10.5677 11.9667 9.19218 12.3352C7.92234 12.6755 6.63378 12.4371 5.6064 11.7818Z"/><path d="M5.99998 8C5.99998 8.53044 6.21069 9.03914 6.58576 9.41422C6.96084 9.78929 7.46955 10 7.99998 10C8.53041 10 9.03912 9.78929 9.41419 9.41422C9.78927 9.03914 9.99998 8.53044 9.99998 8C9.99998 7.46957 9.78927 6.96086 9.41419 6.58579C9.03912 6.21072 8.53041 6 7.99998 6C7.46955 6 6.96084 6.21072 6.58576 6.58579C6.21069 6.96086 5.99998 7.46957 5.99998 8Z"/></svg>
