<svg xmlns="http://www.w3.org/2000/svg" width="24" height="24" viewBox="0 0 24 24"><g><path fill-rule="evenodd" d="M20.5 12C20.5 16.6944 16.6944 20.5 12 20.5C7.30558 20.5 3.5 16.6944 3.5 12C3.5 7.30558 7.30558 3.5 12 3.5C16.6944 3.5 20.5 7.30558 20.5 12ZM22 12C22 17.5228 17.5228 22 12 22C6.47715 22 2 17.5228 2 12C2 6.47715 6.47715 2 12 2C17.5228 2 22 6.47715 22 12ZM10.7 15.6373L15.8 12.6928C16.3333 12.3849 16.3333 11.6151 15.8 11.3072L10.7 8.36269C10.1667 8.05477 9.5 8.43967 9.5 9.05551V14.9445C9.5 15.5603 10.1667 15.9452 10.7 15.6373Z" clip-rule="evenodd"/></g></svg>