<svg xmlns="http://www.w3.org/2000/svg" width="24" height="24" viewBox="0 0 24 24"><path fill-rule="evenodd" d="M12 22C17.5228 22 22 17.5228 22 12C22 6.47715 17.5228 2 12 2C6.47715 2 2 6.47715 2 12C2 17.5228 6.47715 22 12 22ZM15.8393 14.6495C15.6322 15.0082 15.1735 15.1311 14.8147 14.924L11.63 13.0853L11.6125 13.075C11.4868 12.9992 11.3911 12.892 11.3297 12.7693C11.2956 12.7012 11.272 12.6283 11.2598 12.5533C11.2525 12.5083 11.2492 12.4626 11.2502 12.4167L11.2502 8.75C11.2502 8.33579 11.5859 8 12.0002 8C12.4144 8 12.7502 8.33579 12.7502 8.75L12.7502 12L15.5647 13.625C15.9235 13.8321 16.0464 14.2908 15.8393 14.6495Z" clip-rule="evenodd"/></svg>