<svg xmlns="http://www.w3.org/2000/svg" width="24" height="24" viewBox="0 0 24 24"><path fill-rule="evenodd" d="M12.0041 4.93363C13.0191 3.99031 14.4876 3.31592 15.9841 3.31592C19.4637 3.31592 22.5143 6.58144 22.1342 10.9298C22.0245 12.1837 21.4477 13.4791 20.6758 14.6834C19.8976 15.8975 18.8854 17.0746 17.8312 18.102C16.7769 19.1297 15.6631 20.0246 14.6697 20.6682C14.1735 20.9897 13.6954 21.2562 13.2607 21.445C12.8417 21.6268 12.3983 21.7654 11.9915 21.7654C11.586 21.7654 11.1437 21.6284 10.725 21.4479C10.2908 21.2606 9.81348 20.996 9.31806 20.6766C8.32637 20.0371 7.21477 19.147 6.16242 18.1224C5.11029 17.098 4.0999 15.922 3.32286 14.7049C2.55164 13.4968 1.97645 12.1955 1.86568 10.9299C1.4851 6.58144 4.53614 3.31593 8.01567 3.31593C9.49989 3.31593 10.9991 3.98865 12.0041 4.93363Z" clip-rule="evenodd"/></svg>