<svg xmlns="http://www.w3.org/2000/svg" width="16" height="16" viewBox="0 0 16 16"><path fill-rule="evenodd" d="M10.2176 11.6318C9.33153 12.2425 8.25757 12.6 7.1001 12.6C4.06253 12.6 1.6001 10.1376 1.6001 7.1C1.6001 4.06243 4.06253 1.6 7.1001 1.6C10.1377 1.6 12.6001 4.06243 12.6001 7.1C12.6001 8.25752 12.2425 9.33153 11.6318 10.2176L13.7071 12.2929C14.0976 12.6834 14.0976 13.3166 13.7071 13.7071C13.3166 14.0976 12.6834 14.0976 12.2929 13.7071L10.2176 11.6318ZM10.6001 7.1C10.6001 9.033 9.03309 10.6 7.1001 10.6C5.1671 10.6 3.6001 9.033 3.6001 7.1C3.6001 5.167 5.1671 3.6 7.1001 3.6C9.03309 3.6 10.6001 5.167 10.6001 7.1Z" clip-rule="evenodd"/></svg>