<svg xmlns="http://www.w3.org/2000/svg" width="24" height="24" viewBox="0 0 24 24"><g><g><path fill-rule="evenodd" d="M13.4703 9.28381L13.4702 9.43253L13.4702 9.45675L13.4703 19.5V9.28381ZM14.9703 9.31846L14.9702 9.45675V19.4999L14.9703 9.31846ZM10.5303 19.5L10.5303 11.2847L10.5303 11.2752V19.5Z" clip-rule="evenodd"/><path fill-rule="evenodd" d="M10.8903 4.021C9.86299 4.021 9.03027 4.85376 9.03027 5.881V10.5347H6.45033C5.42307 10.5347 4.59033 11.3675 4.59033 12.3947V19.5H3.76172C3.34751 19.5 3.01172 19.8358 3.01172 20.25C3.01172 20.6642 3.34751 21 3.76172 21H20.2386C20.6528 21 20.9886 20.6642 20.9886 20.25C20.9886 19.8358 20.6528 19.5 20.2386 19.5H19.4102V9.45675C19.4102 8.42952 18.5776 7.59675 17.5502 7.59675H14.9703V5.881C14.9703 4.85374 14.1375 4.021 13.1103 4.021H10.8903ZM10.5303 5.881C10.5303 5.68218 10.6914 5.521 10.8903 5.521H13.1103C13.3091 5.521 13.4703 5.68219 13.4703 5.881V9.28381V19.5H10.5303V11.2752V5.881ZM6.45033 12.0347C6.25153 12.0347 6.09033 12.1959 6.09033 12.3947V19.4996H9.03033V12.0347H6.45033ZM14.9702 19.4999V9.45675L14.9703 9.31846C14.9704 9.23396 14.9707 9.16078 14.9715 9.09675H17.5502C17.7491 9.09675 17.9102 9.2579 17.9102 9.45675V19.4999H14.9702Z" clip-rule="evenodd"/></g></g></svg>