<svg xmlns="http://www.w3.org/2000/svg" width="24" height="24" viewBox="0 0 24 24"><path fill-rule="evenodd" d="M3.97065 4.88621C3.34646 4.13718 3.87909 3 4.8541 3H19.1461C20.1211 3 20.6537 4.13719 20.0295 4.88621L15.7501 10.0215V18.9377C15.7501 19.4654 15.3909 19.9254 14.879 20.0534L9.679 21.3534C8.95318 21.5348 8.25009 20.9858 8.25009 20.2377V10.0215L3.97065 4.88621ZM5.60137 4.5L9.48354 9.15861C9.65577 9.36528 9.75009 9.62579 9.75009 9.89482V19.7894L14.2501 18.6644V9.89482C14.2501 9.62579 14.3444 9.36528 14.5166 9.15861L18.3988 4.5H5.60137Z" clip-rule="evenodd"/></svg>