<svg xmlns="http://www.w3.org/2000/svg" width="24" height="25" viewBox="0 0 24 25"><path d="M4.75 4.73666C4.33579 4.73666 4 5.07245 4 5.48666C4 5.90088 4.33579 6.23666 4.75 6.23666H19.25C19.6642 6.23666 20 5.90088 20 5.48666C20 5.07245 19.6642 4.73666 19.25 4.73666H4.75Z"/><path d="M4.75 11.7367C4.33579 11.7367 4 12.0725 4 12.4867C4 12.9009 4.33579 13.2367 4.75 13.2367H8.75C9.16421 13.2367 9.5 12.9009 9.5 12.4867C9.5 12.0725 9.16421 11.7367 8.75 11.7367H4.75Z"/><path d="M4 19.4867C4 19.0725 4.33579 18.7367 4.75 18.7367H11.25C11.6642 18.7367 12 19.0725 12 19.4867C12 19.9009 11.6642 20.2367 11.25 20.2367H4.75C4.33579 20.2367 4 19.9009 4 19.4867Z"/><path d="M12.3784 9.48666C11.6151 9.48666 11.1635 10.3412 11.5935 10.9718L13.9115 14.3717C14.1449 14.7139 14.6115 14.8022 14.9537 14.5688C15.2959 14.3355 15.3842 13.8689 15.1509 13.5267L13.4191 10.9867H19.5808L17.415 14.1632C17.3075 14.3209 17.25 14.5074 17.25 14.6984V19.3018L15.75 20.0352V17.2367C15.75 16.8225 15.4142 16.4867 15 16.4867C14.5857 16.4867 14.25 16.8225 14.25 17.2367V20.9163C14.25 21.6188 14.9861 22.0783 15.6172 21.7697L18.2172 20.4986C18.5432 20.3392 18.75 20.008 18.75 19.6452V14.868L21.4064 10.9718C21.8364 10.3412 21.3848 9.48666 20.6215 9.48666H12.3784Z"/></svg>