<svg xmlns="http://www.w3.org/2000/svg" width="24" height="24" viewBox="0 0 24 24"><g><path fill-rule="evenodd" d="M9.32028 9.25006L10.301 11.7719C10.4511 12.1579 10.8858 12.3492 11.2718 12.1991C11.6579 12.0489 11.8491 11.6143 11.699 11.2282L8.43608 2.83785C8.10405 1.98407 6.89595 1.98406 6.56392 2.83785L3.301 11.2282C3.15087 11.6143 3.34212 12.0489 3.72817 12.1991C4.11421 12.3492 4.54887 12.1579 4.699 11.7719L5.67972 9.25006H9.32028ZM8.73695 7.75006L7.5 4.56933L6.26305 7.75006H8.73695ZM13.5 4.25006C13.0858 4.25006 12.75 4.58584 12.75 5.00006C12.75 5.41427 13.0858 5.75006 13.5 5.75006H20C20.4142 5.75006 20.75 5.41427 20.75 5.00006C20.75 4.58584 20.4142 4.25006 20 4.25006H13.5ZM13.5 9.25006C13.0858 9.25006 12.75 9.58584 12.75 10.0001C12.75 10.4143 13.0858 10.7501 13.5 10.7501H20C20.4142 10.7501 20.75 10.4143 20.75 10.0001C20.75 9.58584 20.4142 9.25006 20 9.25006H13.5ZM3.5 14.2501C3.08579 14.2501 2.75 14.5858 2.75 15.0001C2.75 15.4143 3.08579 15.7501 3.5 15.7501H20C20.4142 15.7501 20.75 15.4143 20.75 15.0001C20.75 14.5858 20.4142 14.2501 20 14.2501H3.5ZM3.5 19.7501C3.08579 19.7501 2.75 20.0858 2.75 20.5001C2.75 20.9143 3.08579 21.2501 3.5 21.2501H20C20.4142 21.2501 20.75 20.9143 20.75 20.5001C20.75 20.0858 20.4142 19.7501 20 19.7501H3.5Z" clip-rule="evenodd"/></g></svg>