<svg xmlns="http://www.w3.org/2000/svg" width="24" height="24" viewBox="0 0 24 24"><path fill-rule="evenodd" d="M2.25 5C2.25 3.48122 3.48122 2.25 5 2.25H13C14.5188 2.25 15.75 3.48122 15.75 5V6.25H19C20.5188 6.25 21.75 7.48122 21.75 9V19C21.75 20.5188 20.5188 21.75 19 21.75H9C7.48122 21.75 6.25 20.5188 6.25 19V15.75H5C3.48122 15.75 2.25 14.5188 2.25 13V5ZM14.25 5V6.25H9C7.48122 6.25 6.25 7.48122 6.25 9V14.25H5C4.30964 14.25 3.75 13.6904 3.75 13V5C3.75 4.30964 4.30964 3.75 5 3.75H13C13.6904 3.75 14.25 4.30964 14.25 5ZM9 7.75C8.30964 7.75 7.75 8.30964 7.75 9V19C7.75 19.6904 8.30964 20.25 9 20.25H19C19.6904 20.25 20.25 19.6904 20.25 19V9C20.25 8.30964 19.6904 7.75 19 7.75H9ZM14.8126 13.7464V16.1429C14.8126 16.6162 15.1964 17 15.6698 17H16.3427C16.8161 17 17.1999 16.6162 17.1999 16.1429V14.5098C17.1999 14.0364 16.8161 13.6527 16.3427 13.6527H15.9743C15.9743 12.9978 16.4252 12.3945 16.8868 12.1048C17.0733 11.9878 17.2254 11.7981 17.2254 11.5779C17.2254 11.276 16.9518 11.0494 16.6729 11.1651C15.8025 11.5265 14.8126 12.3992 14.8126 13.7464ZM10.7998 13.7464V16.1429C10.7998 16.6162 11.1836 17 11.6569 17H12.3299C12.8033 17 13.1871 16.6162 13.1871 16.1429V14.5098C13.1871 14.0364 12.8033 13.6527 12.3299 13.6527H11.9615C11.9615 12.9978 12.4124 12.3945 12.874 12.1048C13.0605 11.9878 13.2126 11.7981 13.2126 11.5779C13.2126 11.276 12.9389 11.0494 12.6601 11.1651C11.7897 11.5265 10.7998 12.3992 10.7998 13.7464Z" clip-rule="evenodd"/></svg>