<svg xmlns="http://www.w3.org/2000/svg" width="24" height="24" viewBox="0 0 24 24"><path fill-rule="evenodd" d="M5.66051 5.36929L21.885 3.6036C22.0273 3.58968 22.1707 3.61627 22.2986 3.68031C22.4264 3.74433 22.5336 3.84319 22.6077 3.96549C22.6819 4.08779 22.7199 4.22854 22.7175 4.37153C22.7151 4.51451 22.6723 4.6539 22.5942 4.77364L13.3473 19.3742C13.0358 19.8626 12.6039 20.2626 12.0932 20.5357C11.5824 20.8088 11.01 20.946 10.4309 20.9339C9.85179 20.9218 9.28556 20.7608 8.78666 20.4666C8.28776 20.1724 7.87298 19.7546 7.5822 19.2538L1.2002 8.25538L2.54042 7.46826L8.83733 18.3532C8.95826 18.5684 9.12056 18.7576 9.31491 18.9098C9.50925 19.0621 9.7318 19.1744 9.96972 19.2403C10.2077 19.3063 10.4563 19.3244 10.7013 19.2938C10.9463 19.2634 11.1828 19.1846 11.3972 19.0622C11.6125 18.9413 11.8017 18.779 11.954 18.5846C12.1063 18.3904 12.2186 18.1678 12.2845 17.9298C12.3504 17.692 12.3686 17.4433 12.338 17.1983C12.3074 16.9534 12.2287 16.7168 12.1064 16.5024L5.66051 5.36929ZM10.8469 9.42251C11.0962 9.58762 11.3889 9.675 11.688 9.6736C12.0873 9.67173 12.4696 9.51177 12.7514 9.22871C13.0332 8.94567 13.1913 8.56255 13.1913 8.16319C13.1913 7.86417 13.1025 7.57186 12.9362 7.32333C12.77 7.07478 12.5336 6.8812 12.2572 6.76709C11.9808 6.65298 11.6768 6.62349 11.3836 6.68235C11.0904 6.74121 10.8213 6.88576 10.6103 7.0977C10.3994 7.30965 10.2561 7.57944 10.1986 7.8729C10.1412 8.16635 10.1721 8.47027 10.2875 8.74613C10.4029 9.022 10.5976 9.2574 10.8469 9.42251ZM15.9861 9.35958C16.1445 9.469 16.3317 9.52893 16.5241 9.53178V9.54597C16.6525 9.5488 16.7803 9.52595 16.8997 9.47875C17.0192 9.43156 17.128 9.36097 17.2198 9.27113C17.3116 9.1813 17.3846 9.07402 17.4344 8.95561C17.4842 8.8372 17.5098 8.71002 17.5098 8.58157C17.514 8.38919 17.4609 8.19989 17.3574 8.0377C17.2539 7.87549 17.1045 7.74769 16.9282 7.67051C16.752 7.59331 16.5567 7.57021 16.3674 7.60413C16.1779 7.63804 16.0028 7.72745 15.8643 7.861C15.7257 7.99455 15.63 8.16624 15.5892 8.35428C15.5484 8.54233 15.5643 8.73827 15.635 8.91725C15.7057 9.09623 15.8278 9.25018 15.9861 9.35958ZM3.39194 6.76608L4.80792 5.95677L10.9903 16.7737L9.57435 17.583L3.39194 6.76608Z" clip-rule="evenodd"/></svg>