<svg xmlns="http://www.w3.org/2000/svg" width="24" height="24" viewBox="0 0 24 24"><path fill-rule="evenodd" d="M13.25 3.25C13.25 2.55964 12.6904 2 12 2C11.3096 2 10.75 2.55964 10.75 3.25V11C10.75 11.6904 11.3096 12.25 12 12.25C12.6904 12.25 13.25 11.6904 13.25 11V3.25ZM4.83933 13.3723C4.56912 11.6633 4.91656 9.91401 5.81887 8.43907C6.31967 7.62045 6.97308 6.91625 7.73613 6.36026C8.29408 5.95371 8.41681 5.17183 8.01026 4.61388C7.60371 4.05593 6.82183 3.93319 6.26388 4.33974C5.23783 5.08737 4.35937 6.0342 3.68628 7.13444C2.47365 9.11664 2.00701 11.467 2.37001 13.7627C2.73301 16.0585 3.90193 18.1497 5.6671 19.6598C7.43231 21.17 9.6779 22 12 22C14.3221 22 16.5677 21.17 18.3329 19.6598C20.0981 18.1497 21.267 16.0585 21.63 13.7627C21.993 11.467 21.5264 9.11664 20.3137 7.13444C19.6406 6.0342 18.7622 5.08737 17.7361 4.33974C17.1782 3.93319 16.3963 4.05593 15.9897 4.61388C15.5832 5.17183 15.7059 5.95371 16.2639 6.36026C17.0269 6.91625 17.6803 7.62045 18.1811 8.43907C19.0834 9.91401 19.4309 11.6633 19.1607 13.3723C18.8905 15.0812 18.0205 16.637 16.7077 17.7602C15.395 18.8832 13.7256 19.5 12 19.5C10.2744 19.5 8.60503 18.8832 7.29232 17.7602C5.97955 16.637 5.10954 15.0812 4.83933 13.3723Z" clip-rule="evenodd"/></svg>