<svg xmlns="http://www.w3.org/2000/svg" width="24" height="24" viewBox="0 0 24 24"><path fill-rule="evenodd" d="M1.9939 12C1.9939 11.5858 2.32969 11.25 2.7439 11.25L21.256 11.2501C21.6702 11.2501 22.006 11.5859 22.006 12.0001C22.006 12.4143 21.6702 12.7501 21.256 12.7501L2.74389 12.75C2.32968 12.75 1.99389 12.4142 1.9939 12Z" clip-rule="evenodd"/><path fill-rule="evenodd" d="M11.9999 2.03906C12.4142 2.03906 12.7499 2.37485 12.7499 2.78906V21.2111C12.7499 21.6253 12.4142 21.9611 11.9999 21.9611C11.5857 21.9611 11.2499 21.6253 11.2499 21.2111V2.78906C11.2499 2.37485 11.5857 2.03906 11.9999 2.03906Z" clip-rule="evenodd"/></svg>