<svg xmlns="http://www.w3.org/2000/svg" width="16" height="16" viewBox="0 0 16 16"><path fill-rule="evenodd" d="M2.66602 3.33335C2.66602 2.97436 2.95703 2.68335 3.31602 2.68335H12.6827C13.0417 2.68335 13.3327 2.97436 13.3327 3.33335C13.3327 3.69233 13.0417 3.98335 12.6827 3.98335H3.31602C2.95703 3.98335 2.66602 3.69233 2.66602 3.33335ZM2.66602 8.00001C2.66602 7.64102 2.95703 7.35001 3.31602 7.35001H7.34935C7.70833 7.35001 7.99935 7.64102 7.99935 8.00001C7.99935 8.35899 7.70833 8.65001 7.34935 8.65001H3.31602C2.95703 8.65001 2.66602 8.35899 2.66602 8.00001ZM3.31602 12.0167C2.95703 12.0167 2.66602 12.3077 2.66602 12.6667C2.66602 13.0257 2.95703 13.3167 3.31602 13.3167H7.34935C7.70833 13.3167 7.99935 13.0257 7.99935 12.6667C7.99935 12.3077 7.70833 12.0167 7.34935 12.0167H3.31602ZM11.3336 13.6334C10.9746 13.6334 10.6836 13.3423 10.6836 12.9834V10.9668L8.66748 10.9667C8.30849 10.9666 8.0175 10.6756 8.01753 10.3166C8.01756 9.95764 8.30859 9.66665 8.66758 9.66668L10.6836 9.66684V7.65003C10.6836 7.29104 10.9746 7.00003 11.3336 7.00003C11.6926 7.00003 11.9836 7.29104 11.9836 7.65003V9.66694L14.0009 9.6671C14.3599 9.66713 14.6509 9.95817 14.6509 10.3172C14.6508 10.6761 14.3598 10.9671 14.0008 10.9671L11.9836 10.9669V12.9834C11.9836 13.3423 11.6926 13.6334 11.3336 13.6334Z" clip-rule="evenodd"/></svg>