<svg xmlns="http://www.w3.org/2000/svg" width="24" height="24" viewBox="0 0 24 24"><g><g><path fill-rule="evenodd" d="M7.82129 12C7.82129 11.5858 8.15708 11.25 8.57129 11.25H15.4284C15.8426 11.25 16.1784 11.5858 16.1784 12C16.1784 12.4142 15.8426 12.75 15.4284 12.75H8.57129C8.15708 12.75 7.82129 12.4142 7.82129 12Z" clip-rule="evenodd"/><path fill-rule="evenodd" d="M8.96484 8C8.96484 7.58579 9.30063 7.25 9.71484 7.25H14.2863C14.7005 7.25 15.0363 7.58579 15.0363 8C15.0363 8.41421 14.7005 8.75 14.2863 8.75H9.71484C9.30063 8.75 8.96484 8.41421 8.96484 8Z" clip-rule="evenodd"/><path fill-rule="evenodd" d="M7.52687 3.1499C6.39856 3.1499 5.4295 3.9518 5.21838 5.06019L3.16491 15.8409C3.15493 15.8933 3.1499 15.9465 3.1499 15.9999V18.4999C3.1499 19.7978 4.20203 20.8499 5.4999 20.8499H18.4999C19.7978 20.8499 20.8499 19.7978 20.8499 18.4999V15.9999C20.8499 15.9465 20.8449 15.8933 20.8349 15.8409L18.7814 5.06019C18.5703 3.9518 17.6012 3.1499 16.4729 3.1499H7.52687ZM7.52687 4.8499C7.21479 4.8499 6.94675 5.07171 6.88835 5.37828L5.00802 15.25H18.9918L17.1115 5.37828C17.0531 5.0717 16.785 4.8499 16.4729 4.8499H7.52687Z" clip-rule="evenodd"/></g></g></svg>