<svg xmlns="http://www.w3.org/2000/svg" width="24" height="24" viewBox="0 0 24 24"><path fill-rule="evenodd" d="M16.8364 6.24682C17.3184 4.31884 15.547 2.58479 13.6297 3.10769C12.8066 3.33218 12.1533 3.9434 11.8683 4.7331C11.6139 3.9714 11.0049 3.38096 10.2357 3.15019C8.40142 2.59991 6.66603 4.25646 7.13049 6.1143L7.28942 6.75001H5.35C4.05213 6.75001 3 7.80214 3 9.10001V10.775C3 11.624 3.45025 12.3679 4.125 12.7809V19.025C4.125 20.3229 5.17713 21.375 6.475 21.375H10.5H12H17.525C18.8229 21.375 19.875 20.3229 19.875 19.025V12.7809C20.5498 12.3679 21 11.624 21 10.775V9.10001C21 7.80214 19.9479 6.75001 18.65 6.75001H16.7106L16.8364 6.24682ZM18.375 13.125H13.5H12.75V19.875H17.525C17.9944 19.875 18.375 19.4944 18.375 19.025V13.125ZM11.25 13.125H10.5H5.625V19.025C5.625 19.4944 6.00556 19.875 6.475 19.875H10.5H11.25V13.125ZM15.1644 6.75001H12.935L13.24 5.37755C13.3285 4.97899 13.6305 4.66226 14.0244 4.55483C14.8356 4.33359 15.5851 5.06728 15.3812 5.88302L15.1644 6.75001ZM15.75 8.25001H16.3356H18.65C19.1194 8.25001 19.5 8.63057 19.5 9.10001V10.775C19.5 11.2445 19.1194 11.625 18.65 11.625H13.5H10.5H5.35C4.88056 11.625 4.5 11.2445 4.5 10.775V9.10001C4.5 8.63057 4.88056 8.25001 5.35 8.25001H8.25H11.065H12H15.75ZM8.83558 6.75001H10.9594L10.4457 5.20886C10.346 4.90959 10.1068 4.67758 9.80465 4.58693C9.08461 4.37092 8.40338 5.0212 8.5857 5.7505L8.83558 6.75001Z" clip-rule="evenodd"/></svg>