<svg xmlns="http://www.w3.org/2000/svg" width="24" height="24" viewBox="0 0 24 24"><path fill-rule="evenodd" d="M21.6751 15.4227C20.2827 17.63 17.3441 20.7172 12.001 20.7172C6.66125 20.7172 3.72158 17.6338 2.32722 15.427C1.2673 13.7495 1.14464 11.6832 1.93506 9.89314L3.30725 10.499C2.71308 11.8446 2.80959 13.3823 3.5953 14.6258C4.82139 16.5663 7.34787 19.2172 12.001 19.2172C16.6568 19.2172 19.1821 16.5632 20.4064 14.6224C21.1897 13.3807 21.2859 11.8464 20.6939 10.5029C19.6708 8.18122 17.2727 4.78271 12.001 4.78271C6.73215 4.78271 4.33237 8.17742 3.30725 10.499L1.93506 9.89314C3.08525 7.28828 5.89795 3.28271 12.001 3.28271C18.1077 3.28271 20.9186 7.29308 22.0665 9.89804C22.8542 11.6854 22.7318 13.7474 21.6751 15.4227Z" clip-rule="evenodd"/><path fill-rule="evenodd" d="M11.8988 9.77246C10.7032 9.77246 9.73389 10.7417 9.73389 11.9374C9.73389 13.1331 10.7032 14.1024 11.8988 14.1024C13.0945 14.1024 14.0638 13.1331 14.0638 11.9374C14.0638 11.7509 14.0404 11.571 13.9967 11.3999C13.8943 10.9985 14.1366 10.5902 14.538 10.4877C14.9393 10.3853 15.3477 10.6276 15.4502 11.029C15.5245 11.3203 15.5638 11.6248 15.5638 11.9374C15.5638 13.9615 13.9229 15.6024 11.8988 15.6024C9.87474 15.6024 8.23389 13.9615 8.23389 11.9374C8.23389 9.91332 9.87474 8.27246 11.8988 8.27246C12.2222 8.27246 12.5368 8.31451 12.837 8.39384C13.2375 8.49965 13.4764 8.91007 13.3706 9.31054C13.2648 9.71101 12.8544 9.94988 12.4539 9.84408C12.2776 9.79749 12.0917 9.77246 11.8988 9.77246Z" clip-rule="evenodd"/></svg>