<svg xmlns="http://www.w3.org/2000/svg" width="24" height="24" viewBox="0 0 24 24"><path fill-rule="evenodd" d="M4 12.25C4 11.8358 4.33579 11.5 4.75 11.5H12.25C12.6642 11.5 13 11.8358 13 12.25C13 12.6642 12.6642 13 12.25 13H4.75C4.33579 13 4 12.6642 4 12.25Z" clip-rule="evenodd"/><path fill-rule="evenodd" d="M4 4.75C4 4.33579 4.33579 4 4.75 4H19.25C19.6642 4 20 4.33579 20 4.75C20 5.16421 19.6642 5.5 19.25 5.5H4.75C4.33579 5.5 4 5.16421 4 4.75Z" clip-rule="evenodd"/><path fill-rule="evenodd" d="M4 19.25C4 18.8358 4.33579 18.5 4.75 18.5H10.25C10.6642 18.5 11 18.8358 11 19.25C11 19.6642 10.6642 20 10.25 20H4.75C4.33579 20 4 19.6642 4 19.25Z" clip-rule="evenodd"/><path fill-rule="evenodd" d="M19.8085 9.30874C20.1926 9.4673 20.3767 9.90537 20.2197 10.2872L17.5905 16.6806C17.4335 17.0624 16.9948 17.2434 16.6107 17.0848C16.2265 16.9263 16.0424 16.4882 16.1994 16.1064L18.8286 9.713C18.9857 9.33117 19.4243 9.15017 19.8085 9.30874ZM15.9862 18.7034C16.3727 18.8561 16.5634 19.2914 16.4122 19.6756L16.1756 20.2767C16.0244 20.6609 15.5885 20.8485 15.2021 20.6957C14.8156 20.5429 14.6249 20.1076 14.7761 19.7235L15.0127 19.1223C15.1639 18.7382 15.5997 18.5506 15.9862 18.7034Z" clip-rule="evenodd"/></svg>