<svg xmlns="http://www.w3.org/2000/svg" width="24" height="25" viewBox="0 0 24 25"><path d="M4 5.48668C4 5.07247 4.33579 4.73668 4.75 4.73668H19.25C19.6642 4.73668 20 5.07247 20 5.48668C20 5.90089 19.6642 6.23668 19.25 6.23668H4.75C4.33579 6.23668 4 5.90089 4 5.48668Z"/><path d="M4 12.4867C4 12.0725 4.33579 11.7367 4.75 11.7367H11.25C11.6642 11.7367 12 12.0725 12 12.4867C12 12.9009 11.6642 13.2367 11.25 13.2367H4.75C4.33579 13.2367 4 12.9009 4 12.4867Z"/><path d="M4.75 18.7367C4.33579 18.7367 4 19.0725 4 19.4867C4 19.9009 4.33579 20.2367 4.75 20.2367H11.25C11.6642 20.2367 12 19.9009 12 19.4867C12 19.0725 11.6642 18.7367 11.25 18.7367H4.75Z"/><path d="M17 20.4867C16.5858 20.4867 16.25 20.1509 16.25 19.7367V16.4869L12.9999 16.4867C12.5857 16.4866 12.2499 16.1508 12.2499 15.7366C12.25 15.3224 12.5858 14.9866 13 14.9867L16.25 14.9869V11.7367C16.25 11.3225 16.5858 10.9867 17 10.9867C17.4142 10.9867 17.75 11.3225 17.75 11.7367V14.987L21 14.9873C21.4142 14.9873 21.75 15.3231 21.7499 15.7374C21.7499 16.1516 21.4141 16.4873 20.9999 16.4873L17.75 16.487V19.7367C17.75 20.1509 17.4142 20.4867 17 20.4867Z"/></svg>