<svg xmlns="http://www.w3.org/2000/svg" width="16" height="16" viewBox="0 0 16 16"><path d="M13.051 2.01664C11.8664 1.23504 10.3905 1.15702 9.20586 1.61534C8.00868 2.0785 7.03195 3.13063 7.03195 4.62707C7.03195 5.24081 7.22525 5.92537 7.4395 6.49609C7.53762 6.75746 7.6455 7.00889 7.75269 7.2365C7.83497 7.41122 7.81242 7.61869 7.68823 7.76658L6.98884 8.59944C6.75228 8.88113 6.79023 9.30155 7.0734 9.53634C7.35407 9.76906 7.76998 9.73152 8.00445 9.45231L9.20455 8.0232C9.38593 7.8072 9.40977 7.50077 9.26394 7.25964C9.01955 6.85556 8.87699 6.5448 8.68534 6.0343C8.48963 5.51297 8.36165 5.00434 8.36165 4.62707C8.36165 3.7879 8.88756 3.15637 9.68829 2.84659C10.5015 2.53196 11.5188 2.59172 12.3154 3.11733C12.9419 3.53075 13.7735 4.40704 13.9635 5.62764C14.1478 6.81175 13.7092 8.2759 12.5429 9.44735C11.0876 10.9092 9.5842 12.3842 8.31297 13.2682L8.30273 13.2754C8.18095 13.3636 7.95721 13.3804 7.7667 13.2566C6.62506 12.5147 4.21706 10.584 3.20388 9.46918C1.74419 7.86308 1.72059 5.7109 2.53149 4.30282C3.12974 3.26402 3.96988 2.85832 4.71753 2.75833C5.10012 2.70716 5.45985 2.73652 5.7493 2.80788C5.94021 2.85495 6.11984 2.83794 6.28333 2.78376C6.90845 2.57661 6.70894 1.68315 6.06953 1.5255C5.62147 1.41502 5.09294 1.37493 4.54016 1.44886C3.41705 1.59907 2.19796 2.22174 1.3774 3.64658C0.295775 5.52473 0.352391 8.30307 2.21703 10.3547C3.32636 11.5753 5.82991 13.5767 7.03892 14.3624C7.62411 14.7426 8.45154 14.7984 9.07996 14.3475C10.467 13.382 12.0544 11.8168 13.4883 10.3766C14.9814 8.87676 15.5194 6.97904 15.2776 5.42568C15.0415 3.90882 14.0443 2.67207 13.051 2.01664Z"/></svg>