<svg xmlns="http://www.w3.org/2000/svg" width="24" height="24" viewBox="0 0 24 24"><path d="M5.165 13.665C6.08455 13.665 6.83 12.9195 6.83 12C6.83 11.0804 6.08455 10.335 5.165 10.335C4.24545 10.335 3.5 11.0804 3.5 12C3.5 12.9195 4.24545 13.665 5.165 13.665Z"/><path d="M13.665 12C13.665 12.9195 12.9195 13.665 12 13.665C11.0804 13.665 10.335 12.9195 10.335 12C10.335 11.0804 11.0804 10.335 12 10.335C12.9195 10.335 13.665 11.0804 13.665 12Z"/><path d="M18.8349 13.665C19.7545 13.665 20.4999 12.9195 20.4999 12C20.4999 11.0804 19.7545 10.335 18.8349 10.335C17.9154 10.335 17.1699 11.0804 17.1699 12C17.1699 12.9195 17.9154 13.665 18.8349 13.665Z"/></svg>