<svg xmlns="http://www.w3.org/2000/svg" width="25" height="24" viewBox="0 0 25 24"><path fill-rule="evenodd" d="M5.25 5.35C5.25 4.88056 5.63056 4.5 6.1 4.5H8.625C9.03921 4.5 9.375 4.16421 9.375 3.75C9.375 3.33579 9.03921 3 8.625 3H6.1C4.80213 3 3.75 4.05213 3.75 5.35V7.875C3.75 8.28921 4.08579 8.625 4.5 8.625C4.91421 8.625 5.25 8.28921 5.25 7.875V5.35ZM16.875 3C16.4608 3 16.125 3.33579 16.125 3.75C16.125 4.16421 16.4608 4.5 16.875 4.5H19.4C19.8694 4.5 20.25 4.88056 20.25 5.35V7.875C20.25 8.28921 20.5858 8.625 21 8.625C21.4142 8.625 21.75 8.28921 21.75 7.875V5.35C21.75 4.05213 20.6979 3 19.4 3H16.875ZM5.25 16.125C5.25 15.7108 4.91421 15.375 4.5 15.375C4.08579 15.375 3.75 15.7108 3.75 16.125V18.65C3.75 19.9479 4.80213 21 6.1 21H8.625C9.03921 21 9.375 20.6642 9.375 20.25C9.375 19.8358 9.03921 19.5 8.625 19.5H6.1C5.63056 19.5 5.25 19.1194 5.25 18.65V16.125ZM21.75 16.125C21.75 15.7108 21.4142 15.375 21 15.375C20.5858 15.375 20.25 15.7108 20.25 16.125V18.65C20.25 19.1194 19.8694 19.5 19.4 19.5H16.875C16.4608 19.5 16.125 19.8358 16.125 20.25C16.125 20.6642 16.4608 21 16.875 21H19.4C20.6979 21 21.75 19.9479 21.75 18.65V16.125ZM12.75 9.45013L13.8269 12.2666H11.6731L12.75 9.45013ZM15.2995 16.118L14.4004 13.7666H11.0996L10.2005 16.118C10.0526 16.5048 9.61904 16.6986 9.23215 16.5506C8.84525 16.4027 8.65153 15.9691 8.79946 15.5822L11.8119 7.70366C12.141 6.84277 13.359 6.84275 13.6881 7.70366L16.7005 15.5822C16.8485 15.9691 16.6547 16.4027 16.2679 16.5506C15.881 16.6986 15.4474 16.5048 15.2995 16.118Z" clip-rule="evenodd"/></svg>