<svg xmlns="http://www.w3.org/2000/svg" width="24" height="24" viewBox="0 0 24 24"><path fill-rule="evenodd" d="M3.66 4.75C3.15742 4.75 2.75 5.15742 2.75 5.66V18.34C2.75 18.8426 3.15742 19.25 3.66 19.25H20.34C20.8426 19.25 21.25 18.8426 21.25 18.34V5.66C21.25 5.15742 20.8426 4.75 20.34 4.75H3.66ZM1.25 5.66C1.25 4.32899 2.32899 3.25 3.66 3.25H20.34C21.671 3.25 22.75 4.32899 22.75 5.66V18.34C22.75 19.671 21.671 20.75 20.34 20.75H3.66C2.32899 20.75 1.25 19.671 1.25 18.34V5.66ZM14.85 9.25C14.85 8.89102 15.141 8.6 15.5 8.6H17C17.9113 8.6 18.65 9.33873 18.65 10.25V12V13.75C18.65 14.6613 17.9113 15.4 17 15.4H15.5C15.141 15.4 14.85 15.109 14.85 14.75C14.85 14.391 15.141 14.1 15.5 14.1H17C17.1933 14.1 17.35 13.9433 17.35 13.75V12.65H15.5C15.141 12.65 14.85 12.359 14.85 12C14.85 11.641 15.141 11.35 15.5 11.35H17.35V10.25C17.35 10.0567 17.1933 9.9 17 9.9H15.5C15.141 9.9 14.85 9.60898 14.85 9.25ZM6.65 9.34998C6.65 8.99099 6.35898 8.69998 6 8.69998C5.64102 8.69998 5.35 8.99099 5.35 9.34998V11.4173C5.35 12.3286 6.08873 13.0673 7 13.0673H7.85V14.85C7.85 15.209 8.14102 15.5 8.5 15.5C8.85898 15.5 9.15 15.209 9.15 14.85V12.4173V9.34998C9.15 8.99099 8.85898 8.69998 8.5 8.69998C8.14102 8.69998 7.85 8.99099 7.85 9.34998V11.7673H7C6.8067 11.7673 6.65 11.6106 6.65 11.4173V9.34998ZM11.1 10.75C11.1 10.391 11.391 10.1 11.75 10.1H12.25C12.609 10.1 12.9 10.391 12.9 10.75C12.9 11.109 12.609 11.4 12.25 11.4H11.75C11.391 11.4 11.1 11.109 11.1 10.75ZM11.75 13.1C11.391 13.1 11.1 13.391 11.1 13.75C11.1 14.109 11.391 14.4 11.75 14.4H12.25C12.609 14.4 12.9 14.109 12.9 13.75C12.9 13.391 12.609 13.1 12.25 13.1H11.75Z" clip-rule="evenodd"/></svg>