<svg xmlns="http://www.w3.org/2000/svg" width="24" height="24" viewBox="0 0 24 24"><path fill-rule="evenodd" d="M7.25005 8.00001C7.25005 5.37596 9.37603 3.25 12.0001 3.25C14.6241 3.25 16.7501 5.37596 16.7501 8.00001C16.7501 10.6241 14.6241 12.7501 12.0001 12.7501C9.37604 12.7501 7.25005 10.624 7.25005 8.00001ZM12.0001 1.75C8.5476 1.75 5.75005 4.54754 5.75005 8.00001C5.75005 10.3755 7.07451 12.441 9.02545 13.4985C6.03168 14.5288 3.80342 17.0704 3.50352 20.179C3.46374 20.5913 3.76573 20.9578 4.17803 20.9975C4.59033 21.0373 4.95681 20.7353 4.99659 20.323C5.30614 17.1144 8.27393 14.5042 12.0026 14.5042C12.0282 14.5042 12.0535 14.5029 12.0784 14.5004C15.7703 14.5358 18.6997 17.1336 19.0072 20.3228C19.0469 20.7351 19.4134 21.0371 19.8257 20.9973C20.238 20.9576 20.54 20.5911 20.5003 20.1788C20.2005 17.0695 17.9734 14.5266 14.9807 13.4952C16.9283 12.4368 18.2501 10.3731 18.2501 8.00001C18.2501 4.54754 15.4526 1.75 12.0001 1.75Z" clip-rule="evenodd"/></svg>