<svg xmlns="http://www.w3.org/2000/svg" width="24" height="24" viewBox="0 0 24 24"><path fill-rule="evenodd" d="M5.9498 2C4.62432 2 3.5498 3.07452 3.5498 4.4V19.6C3.5498 20.9255 4.62432 22 5.9498 22H18.0498C19.3753 22 20.4498 20.9255 20.4498 19.6V4.4C20.4498 3.07452 19.3753 2 18.0498 2H5.9498ZM8.1001 7.5C7.68588 7.5 7.3501 7.83579 7.3501 8.25C7.3501 8.66421 7.68588 9 8.1001 9H15.9001C16.3143 9 16.6501 8.66421 16.6501 8.25C16.6501 7.83579 16.3143 7.5 15.9001 7.5H8.1001ZM7.3501 11.85C7.3501 11.4358 7.68588 11.1 8.1001 11.1H15.9001C16.3143 11.1 16.6501 11.4358 16.6501 11.85C16.6501 12.2642 16.3143 12.6 15.9001 12.6H8.1001C7.68588 12.6 7.3501 12.2642 7.3501 11.85ZM8.1001 14.7C7.68588 14.7 7.3501 15.0358 7.3501 15.45C7.3501 15.8642 7.68588 16.2 8.1001 16.2H11.9001C12.3143 16.2 12.6501 15.8642 12.6501 15.45C12.6501 15.0358 12.3143 14.7 11.9001 14.7H8.1001Z" clip-rule="evenodd"/></svg>