<svg xmlns="http://www.w3.org/2000/svg" width="24" height="24" viewBox="0 0 24 24"><path fill-rule="evenodd" d="M15.5506 4.36771C14.22 4.48726 13.1217 5.18538 12.6604 5.99267C11.9925 7.16138 12.1116 8.05744 12.3924 8.69585C12.692 9.3771 13.2077 9.82664 13.3884 9.96791C13.5224 10.0727 13.6622 10.2437 13.7092 10.4851C13.7567 10.7288 13.69 10.9436 13.5985 11.0961L12.1523 13.5065C11.9392 13.8617 11.4785 13.9768 11.1233 13.7637C10.7681 13.5506 10.653 13.0899 10.8661 12.7347L12.0424 10.7742C11.7168 10.4492 11.3067 9.95306 11.0193 9.29973C10.5575 8.24961 10.4419 6.8517 11.358 5.24846C12.1099 3.93269 13.7003 3.02791 15.4163 2.87373C17.1718 2.716 19.1204 3.33251 20.6087 5.13008C21.9803 6.78658 22.3741 8.63361 22.1235 10.449C21.8764 12.2383 21.0093 13.9735 19.9021 15.4908C18.7914 17.0131 17.4083 18.3586 16.066 19.3725C14.7433 20.3717 13.3843 21.1065 12.3139 21.3173C12.1094 21.3575 11.909 21.3575 11.7044 21.3173C10.6339 21.1064 9.27266 20.371 7.94729 19.371C6.6023 18.3562 5.21586 17.0097 4.10282 15.4867C2.99345 13.9687 2.12482 12.2327 1.87955 10.4432C1.63062 8.62709 2.02994 6.78079 3.41147 5.1275C4.49182 3.83464 5.72629 3.16739 6.96251 2.95097C8.18553 2.73686 9.35345 2.97331 10.3088 3.38959C10.6885 3.55506 10.8622 3.99702 10.6967 4.37675C10.5313 4.75648 10.0893 4.93018 9.70958 4.76471C8.96467 4.44012 8.09663 4.27524 7.22118 4.4285C6.35894 4.57945 5.43244 5.04828 4.5625 6.08934C3.47434 7.39155 3.1691 8.8055 3.36565 10.2395C3.56586 11.7002 4.29276 13.2044 5.31389 14.6016C6.33135 15.9939 7.61038 17.2377 8.85074 18.1736C10.1107 19.1243 11.2547 19.6999 11.9943 19.8455C12.0043 19.8475 12.0084 19.8475 12.0092 19.8475C12.01 19.8475 12.0141 19.8475 12.0241 19.8455C12.7633 19.7 13.9048 19.1253 15.1619 18.1757C16.3993 17.2409 17.6751 15.9982 18.6904 14.6067C19.7094 13.2102 20.4357 11.706 20.6376 10.2439C20.8358 8.80793 20.5339 7.39169 19.4534 6.08671C18.2975 4.69065 16.8416 4.25171 15.5506 4.36771Z" clip-rule="evenodd"/></svg>