<svg xmlns="http://www.w3.org/2000/svg" width="24" height="24" viewBox="0 0 24 24"><path d="M7.09254 5.4809C7.09254 5.10264 6.81086 4.78358 6.43552 4.73669C4.9735 4.55403 3.68915 5.05714 2.77669 5.85448C1.87953 6.63844 1.29126 7.75433 1.29126 8.86048C1.29126 10.9715 3.00258 12.6828 5.11361 12.6828C6.58082 12.6828 7.74239 12.0301 8.42594 11.0048C9.09896 9.99534 9.26786 8.68839 8.90709 7.4257C8.8509 7.229 8.71679 7.0638 8.53586 6.96836C8.35492 6.87293 8.14285 6.85554 7.94878 6.92023L7.09254 7.20564V5.4809Z"/><path d="M18.1833 4.75265C17.808 4.79955 17.5263 5.11861 17.5263 5.49687V7.20747L16.6795 6.9252C16.4854 6.86051 16.2733 6.8779 16.0924 6.97334C15.9115 7.06877 15.7774 7.23398 15.7212 7.43067C15.362 8.68786 15.5301 9.98933 16.2003 10.9947C16.8811 12.0158 18.038 12.6658 19.4989 12.6658C21.6013 12.6658 23.3056 10.9615 23.3056 8.85918C23.3056 7.75736 22.7197 6.64618 21.8264 5.86565C20.9179 5.07174 19.639 4.57078 18.1833 4.75265Z"/><path fill-rule="evenodd" d="M5.84787 17.4456C5.87758 17.7756 5.63412 18.0672 5.30408 18.097L3.3254 18.2751C2.99536 18.3048 2.70373 18.0613 2.67401 17.7313C2.6443 17.4013 2.88776 17.1096 3.2178 17.0799L5.19649 16.9018C5.52652 16.8721 5.81816 17.1155 5.84787 17.4456Z" clip-rule="evenodd"/><path fill-rule="evenodd" d="M5.82982 19.4322C5.95216 19.7401 5.80168 20.089 5.49372 20.2113L4.05002 20.7848C3.74206 20.9072 3.39323 20.7567 3.27089 20.4487C3.14855 20.1408 3.29902 19.7919 3.60698 19.6696L5.05069 19.0961C5.35865 18.9737 5.70748 19.1242 5.82982 19.4322Z" clip-rule="evenodd"/><path fill-rule="evenodd" d="M5.963 15.2467C5.963 15.578 5.69438 15.8467 5.36301 15.8467L3.64211 15.8467C3.31074 15.8467 3.04211 15.5781 3.04211 15.2467C3.0421 14.9153 3.31073 14.6467 3.6421 14.6467L5.36299 14.6467C5.69436 14.6467 5.963 14.9153 5.963 15.2467Z" clip-rule="evenodd"/><path fill-rule="evenodd" d="M18.7654 17.4456C18.7357 17.7756 18.9792 18.0672 19.3092 18.097L21.2879 18.2751C21.6179 18.3048 21.9096 18.0613 21.9393 17.7313C21.969 17.4013 21.7255 17.1096 21.3955 17.0799L19.4168 16.9018C19.0868 16.8721 18.7951 17.1155 18.7654 17.4456Z" clip-rule="evenodd"/><path fill-rule="evenodd" d="M18.7832 19.4322C18.6609 19.7401 18.8114 20.089 19.1193 20.2113L20.563 20.7848C20.871 20.9072 21.2198 20.7567 21.3421 20.4487C21.4645 20.1408 21.314 19.7919 21.0061 19.6696L19.5623 19.0961C19.2544 18.9737 18.9056 19.1242 18.7832 19.4322Z" clip-rule="evenodd"/><path fill-rule="evenodd" d="M18.6503 15.2467C18.6503 15.578 18.9189 15.8467 19.2503 15.8467L20.9712 15.8467C21.3025 15.8467 21.5712 15.5781 21.5712 15.2467C21.5712 14.9153 21.3026 14.6467 20.9712 14.6467L19.2503 14.6467C18.9189 14.6467 18.6503 14.9153 18.6503 15.2467Z" clip-rule="evenodd"/><path d="M18.2501 18.4049C18.2501 19.922 17.0115 20.8619 15.4944 20.8619H9.00588C7.48879 20.8619 6.25012 19.922 6.25012 18.4049C6.25012 16.2641 7.63148 14.414 9.63499 13.5386C9.40066 13.3556 9.25 13.0704 9.25 12.75C9.25 12.1977 9.69772 11.75 10.25 11.75C10.8023 11.75 11.25 12.1977 11.25 12.75C11.25 12.8668 11.23 12.9789 11.1932 13.0831C11.5363 13.0282 11.8895 12.9995 12.2501 12.9995C12.6107 12.9995 12.9638 13.0281 13.3068 13.0831C13.27 12.9789 13.25 12.8668 13.25 12.75C13.25 12.1977 13.6977 11.75 14.25 11.75C14.8023 11.75 15.25 12.1977 15.25 12.75C15.25 13.0703 15.0994 13.3555 14.8651 13.5385C16.8687 14.4139 18.2501 16.2641 18.2501 18.4049Z"/></svg>