<svg xmlns="http://www.w3.org/2000/svg" width="16" height="16" viewBox="0 0 16 16"><path fill-rule="evenodd" d="M8 13.7C11.148 13.7 13.7 11.148 13.7 8C13.7 4.85198 11.148 2.3 8 2.3C4.85198 2.3 2.3 4.85198 2.3 8C2.3 11.148 4.85198 13.7 8 13.7ZM8 15C11.866 15 15 11.866 15 8C15 4.13401 11.866 1 8 1C4.13401 1 1 4.13401 1 8C1 11.866 4.13401 15 8 15Z" clip-rule="evenodd"/><path fill-rule="evenodd" d="M4.9 10.5C4.9 10.1686 5.16863 9.9 5.5 9.9H10.5C10.8314 9.9 11.1 10.1686 11.1 10.5C11.1 10.8314 10.8314 11.1 10.5 11.1H5.5C5.16863 11.1 4.9 10.8314 4.9 10.5Z" clip-rule="evenodd"/><path fill-rule="evenodd" d="M4.4 7C4.4 6.66863 4.66863 6.4 5 6.4H6.5C6.83137 6.4 7.1 6.66863 7.1 7C7.1 7.33137 6.83137 7.6 6.5 7.6H5C4.66863 7.6 4.4 7.33137 4.4 7Z" clip-rule="evenodd"/><path fill-rule="evenodd" d="M8.9 7C8.9 6.66863 9.16863 6.4 9.5 6.4H11C11.3314 6.4 11.6 6.66863 11.6 7C11.6 7.33137 11.3314 7.6 11 7.6H9.5C9.16863 7.6 8.9 7.33137 8.9 7Z" clip-rule="evenodd"/></svg>