<svg xmlns="http://www.w3.org/2000/svg" width="24" height="24" viewBox="0 0 24 24"><path fill-rule="evenodd" d="M20 3.25H13.5C13.0858 3.25 12.75 3.58579 12.75 4C12.75 4.41421 13.0858 4.75 13.5 4.75H18.1893L12.9697 9.96967C12.6768 10.2626 12.6768 10.7374 12.9697 11.0303C13.2626 11.3232 13.7374 11.3232 14.0303 11.0303L19.25 5.81066V10.5C19.25 10.9142 19.5858 11.25 20 11.25C20.4142 11.25 20.75 10.9142 20.75 10.5V4C20.75 3.988 20.7497 3.97601 20.7491 3.96402C20.7406 3.78424 20.6676 3.60696 20.5303 3.46967C20.4584 3.39776 20.3755 3.34351 20.2871 3.30691C20.1987 3.27024 20.1017 3.25 20 3.25ZM9.96967 12.9697L4.75 18.1893V13.5C4.75 13.0858 4.41421 12.75 4 12.75C3.58579 12.75 3.25 13.0858 3.25 13.5V20C3.25 20.1017 3.27024 20.1987 3.30691 20.2871C3.34351 20.3755 3.39776 20.4584 3.46967 20.5303C3.53708 20.5977 3.61414 20.6496 3.69639 20.686C3.70188 20.6884 3.70738 20.6908 3.71291 20.6931C3.80134 20.7298 3.89831 20.75 4 20.75H10.5C10.9142 20.75 11.25 20.4142 11.25 20C11.25 19.5858 10.9142 19.25 10.5 19.25H5.81066L11.0303 14.0303C11.3232 13.7374 11.3232 13.2626 11.0303 12.9697C10.7374 12.6768 10.2626 12.6768 9.96967 12.9697Z" clip-rule="evenodd"/></svg>