<svg xmlns="http://www.w3.org/2000/svg" width="24" height="24" viewBox="0 0 24 24"><path fill-rule="evenodd" d="M11.9589 3C12.3919 3 12.743 3.35709 12.743 3.79758V19.4524C12.743 19.8929 12.3919 20.25 11.9589 20.25C11.5259 20.25 11.1748 19.8929 11.1748 19.4524V3.79758C11.1748 3.35709 11.5259 3 11.9589 3ZM8.50723 16.8071C9.13466 16.4911 9.53311 15.83 9.53311 15.1052V7.97782C9.53311 7.22593 9.10465 6.54544 8.44179 6.24455L5.09715 4.72639C4.86754 4.62216 4.61969 4.56836 4.36914 4.56836C3.36435 4.56836 2.5498 5.41513 2.5498 6.45966V16.7903C2.5498 17.076 2.61207 17.358 2.73194 17.6151C3.17014 18.5551 4.2584 18.9478 5.16259 18.4922L8.50723 16.8071ZM4.47716 6.09226L4.36914 6.06836C4.24709 6.06837 4.0498 6.18819 4.0498 6.45966V16.7903L4.09147 16.9813L4.4877 17.1526L7.83232 15.4676C7.93382 15.4164 8.03311 15.2862 8.03311 15.1052V7.97782C8.03311 7.78945 7.92641 7.65792 7.8218 7.61043L4.47716 6.09226ZM15.4106 16.8071L18.7552 18.4922C19.6594 18.9478 20.7476 18.5551 21.1859 17.6151C21.3057 17.358 21.368 17.076 21.368 16.7903V6.45966C21.368 5.41513 20.5534 4.56836 19.5487 4.56836C19.2981 4.56836 19.0503 4.62215 18.8206 4.72637L15.476 6.24453C14.8131 6.54542 14.3847 7.22591 14.3847 7.9778V15.1052C14.3847 15.83 14.7831 16.4911 15.4106 16.8071ZM19.4406 6.09226L16.096 7.61041C15.9914 7.6579 15.8847 7.78943 15.8847 7.9778V15.1052C15.8847 15.2862 15.984 15.4164 16.0854 15.4675L19.4301 17.1526C19.5005 17.1881 19.5695 17.1901 19.6361 17.166C19.704 17.1415 19.7776 17.0858 19.8263 16.9813L19.868 16.7903V6.45966C19.868 6.18818 19.6707 6.06836 19.5486 6.06836C19.5134 6.06836 19.4768 6.07585 19.4406 6.09226Z" clip-rule="evenodd"/></svg>