<svg xmlns="http://www.w3.org/2000/svg" width="24" height="24" viewBox="0 0 24 24"><path fill-rule="evenodd" d="M8 5.1C8 4.76863 8.26863 4.5 8.6 4.5H15.4C15.7314 4.5 16 4.76863 16 5.1V6.25H8V5.1ZM6.5 6.25V5.1C6.5 3.9402 7.4402 3 8.6 3H15.4C16.5598 3 17.5 3.9402 17.5 5.1V6.25H21C21.4142 6.25 21.75 6.58579 21.75 7C21.75 7.41421 21.4142 7.75 21 7.75H3C2.58579 7.75 2.25 7.41421 2.25 7C2.25 6.58579 2.58579 6.25 3 6.25H6.5ZM5 9C5.41421 9 5.75 9.33579 5.75 9.75V19.15C5.75 19.4814 6.01863 19.75 6.35 19.75H17.65C17.9814 19.75 18.25 19.4814 18.25 19.15V9.75C18.25 9.33579 18.5858 9 19 9C19.4142 9 19.75 9.33579 19.75 9.75V19.15C19.75 20.3098 18.8098 21.25 17.65 21.25H6.35C5.1902 21.25 4.25 20.3098 4.25 19.15V9.75C4.25 9.33579 4.58579 9 5 9ZM8.58397 11.6759C8.92596 11.4479 9.3871 11.5378 9.61868 11.876L9.6247 11.8841C9.63308 11.8951 9.64924 11.9155 9.67306 11.9423C9.72122 11.9965 9.79731 12.0729 9.9 12.1499C10.1031 12.3023 10.3991 12.4499 10.8 12.4499C10.9985 12.4499 11.1181 12.4144 11.2047 12.3754C11.3057 12.3299 11.3932 12.2675 11.55 12.1499L11.5657 12.1381C11.7085 12.0309 11.9155 11.8755 12.1797 11.7566C12.4681 11.6269 12.7985 11.5499 13.2 11.5499C13.9991 11.5499 14.6031 11.8523 15 12.1499C15.1973 12.2979 15.3462 12.4465 15.4481 12.561C15.4992 12.6186 15.5393 12.6685 15.5684 12.7067C15.583 12.7259 15.5949 12.7422 15.6042 12.7552L15.6161 12.7722L15.6205 12.7787L15.6224 12.7815L15.6233 12.7827L15.6237 12.7833C15.6238 12.7836 15.624 12.7839 15 13.1999L15.624 12.7839C15.8538 13.1285 15.7607 13.5942 15.416 13.824C15.074 14.052 14.6129 13.962 14.3813 13.6239L14.3753 13.6158C14.3669 13.6048 14.3508 13.5844 14.3269 13.5576C14.2788 13.5034 14.2027 13.4269 14.1 13.3499C13.8969 13.1976 13.6009 13.0499 13.2 13.0499C13.0015 13.0499 12.8819 13.0855 12.7953 13.1245C12.6943 13.1699 12.6068 13.2323 12.45 13.3499L12.4343 13.3617C12.2915 13.469 12.0845 13.6243 11.8203 13.7432C11.5319 13.873 11.2015 13.9499 10.8 13.9499C10.0009 13.9499 9.39688 13.6476 9 13.3499C8.80269 13.2019 8.65378 13.0534 8.55194 12.9388C8.50076 12.8812 8.46067 12.8314 8.43155 12.7931C8.41697 12.774 8.40506 12.7577 8.39581 12.7447L8.38392 12.7277L8.37945 12.7211L8.37758 12.7184L8.37674 12.7171L8.37634 12.7165C8.37615 12.7162 8.37596 12.716 9 12.2999L8.37596 12.716C8.1462 12.3713 8.23933 11.9057 8.58397 11.6759Z" clip-rule="evenodd"/></svg>