<svg xmlns="http://www.w3.org/2000/svg" width="24" height="24" viewBox="0 0 24 24"><path fill-rule="evenodd" d="M2.75 7.16C2.75 6.65742 3.15742 6.25 3.66 6.25H20.34C20.8426 6.25 21.25 6.65742 21.25 7.16V16.84C21.25 17.3426 20.8426 17.75 20.34 17.75H3.66C3.15742 17.75 2.75 17.3426 2.75 16.84V7.16ZM3.66 4.75C2.32899 4.75 1.25 5.82899 1.25 7.16V16.84C1.25 18.171 2.32899 19.25 3.66 19.25H20.34C21.671 19.25 22.75 18.171 22.75 16.84V7.16C22.75 5.82899 21.671 4.75 20.34 4.75H3.66ZM17.5 8.44998C16.5887 8.44998 15.85 9.18871 15.85 10.1V10.975C15.85 11.8862 16.5887 12.625 17.5 12.625H18.7001V13.85C18.7001 14.0433 18.5434 14.2 18.3501 14.2H17.5C17.141 14.2 16.85 14.491 16.85 14.85C16.85 15.209 17.141 15.5 17.5 15.5H18.3501C19.2614 15.5 20.0001 14.7612 20.0001 13.85V11.975V10.1C20.0001 9.18871 19.2614 8.44998 18.3501 8.44998H17.5ZM18.7001 10.1V11.325H17.5C17.3067 11.325 17.15 11.1683 17.15 10.975V10.1C17.15 9.90668 17.3067 9.74998 17.5 9.74998H18.3501C18.5434 9.74998 18.7001 9.90668 18.7001 10.1ZM12.75 10.75C12.75 10.391 13.041 10.1 13.4 10.1H13.9C14.259 10.1 14.55 10.391 14.55 10.75C14.55 11.109 14.259 11.4 13.9 11.4H13.4C13.041 11.4 12.75 11.109 12.75 10.75ZM13.4 13.1C13.041 13.1 12.75 13.391 12.75 13.75C12.75 14.109 13.041 14.4 13.4 14.4H13.9C14.259 14.4 14.55 14.109 14.55 13.75C14.55 13.391 14.259 13.1 13.9 13.1H13.4ZM7.59988 10.25C7.59988 9.33873 8.33861 8.6 9.24988 8.6H10.2499C10.6089 8.6 10.8999 8.89102 10.8999 9.25C10.8999 9.60898 10.6089 9.9 10.2499 9.9H9.24988C9.05658 9.9 8.89988 10.0567 8.89988 10.25V11.35H9.74988C10.6611 11.35 11.3999 12.0887 11.3999 13V13.75C11.3999 14.6613 10.6611 15.4 9.74988 15.4H9.24988C8.33861 15.4 7.59988 14.6613 7.59988 13.75V12V10.25ZM8.89988 12.65V13.75C8.89988 13.9433 9.05658 14.1 9.24988 14.1H9.74988C9.94318 14.1 10.0999 13.9433 10.0999 13.75V13C10.0999 12.8067 9.94318 12.65 9.74988 12.65H8.89988ZM4.24988 8.6C3.89089 8.6 3.59988 8.89102 3.59988 9.25C3.59988 9.60898 3.89089 9.9 4.24988 9.9H4.74988C4.94318 9.9 5.09988 10.0567 5.09988 10.25V12V14.75C5.09988 15.109 5.39089 15.4 5.74988 15.4C6.10886 15.4 6.39988 15.109 6.39988 14.75V12V10.25C6.39988 9.33873 5.66115 8.6 4.74988 8.6H4.24988Z" clip-rule="evenodd"/></svg>