<svg width="16" height="16" viewBox="0 0 16 16" fill="none" xmlns="http://www.w3.org/2000/svg">
<path fill-rule="evenodd" clip-rule="evenodd" d="M10.0429 2.51129C10.8999 1.65428 12.2894 1.65428 13.1464 2.51129L13.4888 2.85363C14.3458 3.71064 14.3458 5.10012 13.4888 5.95713L5.86118 13.5847C5.75043 13.6955 5.6127 13.7754 5.46159 13.8166L2.24853 14.6929C1.67622 14.849 1.15107 14.3238 1.30716 13.7515L2.18345 10.5385C2.22466 10.3874 2.30459 10.2496 2.41534 10.1389L7.3286 5.22562C7.52386 5.03035 7.84044 5.03035 8.03571 5.22562C8.23097 5.42088 8.23097 5.73746 8.03571 5.93272L3.14122 10.8272L2.37936 13.6207L5.17286 12.8588L11.2299 6.80178L9.12757 4.69944C8.7761 4.34796 8.7761 3.77811 9.12757 3.42664L10.0429 2.51129ZM11.937 6.09467L12.7817 5.25003C13.2482 4.78354 13.2482 4.02722 12.7817 3.56074L12.4393 3.21839C11.9728 2.75191 11.2165 2.75191 10.75 3.21839L9.90539 4.06304L11.937 6.09467Z" fill="black"/>
</svg>
