<svg width="10" height="10" viewBox="0 0 10 10" fill="none" xmlns="http://www.w3.org/2000/svg">
<path fill-rule="evenodd" clip-rule="evenodd" d="M5.10989 7.68465C4.94808 7.58922 4.74642 7.59255 4.58784 7.69326L3.06713 8.65907C2.68429 8.90222 2.20151 8.55102 2.31497 8.11192L2.79665 6.24772C2.84431 6.06327 2.78301 5.86777 2.63858 5.74355L1.17473 4.48459C0.835045 4.19245 1.02147 3.63538 1.46858 3.60654L3.41918 3.48072C3.62011 3.46776 3.79366 3.33555 3.8595 3.14527L4.41623 1.53649C4.56658 1.10204 5.17419 1.08367 5.35051 1.50825L6.04146 3.17214C6.11448 3.34798 6.28104 3.46709 6.47105 3.47935L8.44297 3.60654C8.89008 3.63538 9.0765 4.19245 8.73681 4.48459L7.27297 5.74355C7.12853 5.86777 7.06724 6.06327 7.1149 6.24772L7.61127 8.16875C7.72272 8.60011 7.25694 8.95084 6.87318 8.72452L5.10989 7.68465Z" fill="#FF9607"/>
<path d="M5.23689 7.46931C4.99416 7.32616 4.69169 7.33115 4.45381 7.48223L2.9331 8.44804C2.74168 8.56961 2.50029 8.39401 2.55702 8.17446L3.0387 6.31026C3.11019 6.03359 3.01825 5.74034 2.80159 5.55401L1.33775 4.29505C1.1679 4.14898 1.26112 3.87044 1.48467 3.85602L3.43527 3.7302C3.73667 3.71076 3.99699 3.51244 4.09576 3.22703L4.65248 1.61825C4.72766 1.40102 5.03147 1.39184 5.11962 1.60413L5.81058 3.26802L6.04146 3.17214L5.81058 3.26802C5.92011 3.53178 6.16994 3.71045 6.45495 3.72883L8.42688 3.85602C8.65043 3.87044 8.74365 4.14898 8.5738 4.29505L7.10996 5.55401C6.8933 5.74034 6.80136 6.03359 6.87284 6.31026L7.36922 8.2313C7.42494 8.44698 7.19205 8.62234 7.00017 8.50918L5.23689 7.46931Z" stroke="white" stroke-opacity="0.4" stroke-width="0.5"/>
</svg>
