<svg width="24" height="24" viewBox="0 0 24 24" fill="none" xmlns="http://www.w3.org/2000/svg">
<circle cx="12.0001" cy="12" r="10.3448" fill="url(#paint0_linear)" stroke="#EFA700" stroke-width="1.11724"/>
<circle cx="12.0001" cy="12" r="10.3448" fill="url(#paint1_linear)"/>
<circle cx="12.0001" cy="12" r="10.3448" stroke="#EFA700" stroke-width="1.11724"/>
<ellipse cx="15.4977" cy="11.0965" rx="1.24138" ry="1.65517" fill="#753D05"/>
<path d="M5.58618 9.93108C5.58618 9.93108 7.03446 8.6897 8.68963 8.6897" stroke="#753D05" stroke-width="0.972414" stroke-linecap="round" stroke-linejoin="round"/>
<path d="M7.03442 11.2966C7.03442 11.2966 7.53098 10.9242 8.2758 10.9242C9.02063 10.9242 9.51718 11.2966 9.51718 11.2966" stroke="#753D05" stroke-width="1.15862" stroke-linecap="round" stroke-linejoin="round"/>
<path d="M14.8965 6.41382C14.8965 6.41382 16.5517 6.41382 17.5861 7.86209" stroke="#753D05" stroke-width="0.972414" stroke-linecap="round" stroke-linejoin="round"/>
<path d="M9.77938 13.6552C9.77938 13.6552 8.62076 14.4828 9.44834 15.1035C10.2759 15.7242 11.6414 14.2759 11.6414 14.2759C11.6414 14.2759 11.8483 15.7242 12.6759 15.7242C13.5035 15.7242 13.5863 14.2759 13.5863 14.2759" stroke="#753D05" stroke-width="0.827586" stroke-linecap="round" stroke-linejoin="round"/>
<path d="M5.79318 14.069C6.70731 14.069 7.44835 14.81 7.44835 15.7242C7.44835 16.6383 7.03456 17.1724 6.62077 17.5862C5.8786 18.3284 5.17249 18.8276 4.3449 19.4483C3.72421 19.0345 2.68973 18.2069 2.06904 17.5862C1.41918 16.9364 1.24146 16.6383 1.24146 15.7242C1.24146 14.81 1.9825 14.069 2.89663 14.069C3.51981 14.069 4.06255 14.4134 4.3449 14.9222C4.62726 14.4134 5.17 14.069 5.79318 14.069Z" fill="url(#paint2_linear)" stroke="#B83636" stroke-width="1.11724" stroke-linecap="round" stroke-linejoin="round"/>
<defs>
<linearGradient id="paint0_linear" x1="1.99672" y1="2.33811" x2="1.99672" y2="22.3449" gradientUnits="userSpaceOnUse">
<stop stop-color="#FFDD6C"/>
<stop offset="1" stop-color="#FFBB37"/>
</linearGradient>
<linearGradient id="paint1_linear" x1="1.65527" y1="1.65521" x2="1.65527" y2="22.3449" gradientUnits="userSpaceOnUse">
<stop stop-color="#FFF398"/>
<stop offset="1" stop-color="#FCC04B" stop-opacity="0.01"/>
</linearGradient>
<linearGradient id="paint2_linear" x1="1.24146" y1="14.069" x2="1.24146" y2="19.4483" gradientUnits="userSpaceOnUse">
<stop stop-color="#FF0054"/>
<stop offset="1" stop-color="#FF002A"/>
</linearGradient>
</defs>
</svg>
