<svg width="10" height="10" viewBox="0 0 10 10" fill="none" xmlns="http://www.w3.org/2000/svg">
<path fill-rule="evenodd" clip-rule="evenodd" d="M5.10989 7.48465C4.94808 7.38922 4.74642 7.39255 4.58784 7.49327L3.06713 8.45908C2.68429 8.70222 2.20151 8.35102 2.31497 7.91192L2.79665 6.04772C2.84431 5.86328 2.78301 5.66777 2.63858 5.54355L1.17473 4.2846C0.835045 3.99245 1.02147 3.43538 1.46858 3.40655L3.41918 3.28073C3.62011 3.26777 3.79366 3.13555 3.8595 2.94528L4.41623 1.33649C4.56658 0.902042 5.17419 0.883675 5.35051 1.30825L6.04146 2.97214C6.11448 3.14799 6.28104 3.26709 6.47105 3.27935L8.44297 3.40655C8.89008 3.43538 9.0765 3.99245 8.73681 4.28459L7.27297 5.54355C7.12853 5.66777 7.06724 5.86328 7.1149 6.04772L7.61127 7.96876C7.72272 8.40011 7.25694 8.75084 6.87318 8.52453L5.10989 7.48465Z" fill="white" fill-opacity="0.4"/>
<path fill-rule="evenodd" clip-rule="evenodd" d="M2.79907 8.237L4.31979 7.27119C4.63695 7.06976 5.04025 7.06311 5.36388 7.25397L7.12717 8.29384L6.63079 6.37281C6.53548 6.00391 6.65807 5.6129 6.94694 5.36446L8.41079 4.10551L6.43886 3.97831C6.05885 3.9538 5.72574 3.71558 5.5797 3.3639L4.88874 1.70001L4.33201 3.30879C4.20032 3.68933 3.85322 3.95377 3.45137 3.97969L1.50076 4.10551L2.96461 5.36446C3.25348 5.6129 3.37607 6.00391 3.28075 6.37281L2.79907 8.237ZM4.58784 7.69326C4.74642 7.59255 4.94808 7.58922 5.10989 7.68465L6.87318 8.72452C7.25694 8.95084 7.72272 8.60011 7.61127 8.16875L7.1149 6.24772C7.06724 6.06327 7.12853 5.86777 7.27297 5.74355L8.73681 4.48459C9.0765 4.19245 8.89008 3.63538 8.44297 3.60654L6.47105 3.47935C6.28104 3.46709 6.11448 3.34798 6.04146 3.17214L5.35051 1.50825C5.17419 1.08367 4.56658 1.10204 4.41623 1.53649L3.8595 3.14527C3.79366 3.33555 3.62011 3.46776 3.41918 3.48072L1.46858 3.60654C1.02147 3.63538 0.835045 4.19245 1.17473 4.48459L2.63858 5.74355C2.78301 5.86777 2.84431 6.06327 2.79665 6.24772L2.31497 8.11192C2.20151 8.55102 2.68429 8.90222 3.06713 8.65907L4.58784 7.69326Z" fill="white" fill-opacity="0.4"/>
</svg>
