<svg width="24" height="24" viewBox="0 0 24 24" fill="none" xmlns="http://www.w3.org/2000/svg">
<path fill-rule="evenodd" clip-rule="evenodd" d="M20.1635 17.3135V5.45608C20.1635 5.18225 19.9655 5.02053 19.7764 5.01463C18.7407 4.9823 17.5368 4.98613 16.6526 5.10056C15.6464 5.23078 14.246 5.60726 13.3091 5.88313C13.1249 5.93734 12.9382 5.98016 12.75 6.01155V15.3055C12.75 15.7198 12.4142 16.0555 12 16.0555C11.5858 16.0555 11.25 15.7198 11.25 15.3055V6.02096C11.0684 5.99298 10.888 5.95435 10.7097 5.90503C9.69823 5.62528 8.12702 5.22879 7.00247 5.10378C6.21614 5.01637 5.16444 5.00893 4.23304 5.03066C4.03814 5.0352 3.83643 5.20089 3.83643 5.47692V17.3431C3.83643 17.6077 4.07567 17.9171 4.46477 17.9408C5.32177 17.993 6.36531 18.0899 7.42142 18.2708C8.78361 18.5041 10.1176 18.9179 11.0715 19.254C11.5861 19.4353 12.2263 19.4136 12.8429 19.1746C13.6816 18.8496 14.8265 18.4928 16.2218 18.2683C17.4454 18.0714 18.5947 17.972 19.5168 17.9226C19.9157 17.9013 20.1635 17.5828 20.1635 17.3135ZM4.19806 3.53106C3.14836 3.55555 2.33643 4.42694 2.33643 5.47692V17.3431C2.33643 18.4626 3.25616 19.37 4.3736 19.438C5.19553 19.488 6.18187 19.5803 7.1682 19.7492C8.41341 19.9625 9.65862 20.3466 10.573 20.6687C11.4778 20.9875 12.4905 20.9199 13.385 20.5732C14.1404 20.2805 15.1832 19.9547 16.4601 19.7492C17.6189 19.5628 18.7135 19.4678 19.597 19.4205C20.7262 19.36 21.6635 18.4443 21.6635 17.3135V5.45608C21.6635 4.41472 20.8641 3.54785 19.8232 3.51536C18.7732 3.48258 17.4694 3.48234 16.4601 3.61296C15.325 3.75986 13.8241 4.16782 12.8854 4.4442C12.3065 4.61463 11.6911 4.62018 11.1095 4.45931C10.0976 4.17941 8.42369 3.75253 7.1682 3.61296C6.27789 3.51399 5.14376 3.509 4.19806 3.53106ZM6.25108 7.96345C5.8371 7.94951 5.4902 8.2738 5.47626 8.68778C5.46232 9.10176 5.78662 9.44866 6.2006 9.4626C6.25597 9.46446 6.31811 9.46588 6.38608 9.46743L6.38615 9.46743L6.3862 9.46743L6.38624 9.46743C6.82844 9.47751 7.517 9.49321 8.18836 9.67397C8.58833 9.78166 8.99987 9.54471 9.10756 9.14474C9.21524 8.74477 8.9783 8.33323 8.57833 8.22555C7.71332 7.99265 6.82518 7.97525 6.39925 7.96691L6.3992 7.96691L6.39912 7.96691C6.34063 7.96576 6.29087 7.96479 6.25108 7.96345ZM6.25108 11.0326C5.8371 11.0186 5.4902 11.3429 5.47626 11.7569C5.46232 12.1709 5.78662 12.5178 6.2006 12.5317C6.25596 12.5336 6.31809 12.535 6.38605 12.5365L6.38624 12.5365H6.38625C6.82845 12.5466 7.517 12.5623 8.18836 12.7431C8.58833 12.8508 8.99987 12.6138 9.10756 12.2139C9.21524 11.8139 8.9783 11.4023 8.57833 11.2947C7.71332 11.0618 6.82518 11.0444 6.39925 11.036L6.3992 11.036C6.34068 11.0349 6.29088 11.0339 6.25108 11.0326Z" fill="black"/>
</svg>
