<svg width="12" height="12" viewBox="0 0 12 12" fill="none" xmlns="http://www.w3.org/2000/svg">
<path fill-rule="evenodd" clip-rule="evenodd" d="M5.74994 1L6.24994 1C6.388 1.00002 6.49993 1.11193 6.49995 1.25L6.50022 5.49972L10.7499 5.49998C10.888 5.50001 10.9999 5.61193 10.9999 5.75V6.25C10.9999 6.38807 10.888 6.49999 10.7499 6.50002L6.50022 6.50028L6.49995 10.75C6.49993 10.8881 6.388 11 6.24994 11H5.74994C5.61187 11 5.49995 10.8881 5.49992 10.75L5.49966 6.50028L1.25049 6.50002C1.11242 6.49999 1.0005 6.38807 1.00049 6.25L1.00049 5.75C1.0005 5.61193 1.11242 5.50001 1.25049 5.49998L5.49966 5.49972L5.49992 1.25C5.49995 1.11193 5.61187 1.00002 5.74994 1Z" fill="black"/>
</svg>
